<svg xmlns="http://www.w3.org/2000/svg" viewBox="0 0 319.81 555.69">
  <defs>
    <style>
      .cls-1, .cls-3 {
        fill: none;
      }

      .cls-1, .cls-4 {
        stroke: #31302e;
        stroke-width: 1.5px;
      }

      .cls-1, .cls-3, .cls-4 {
        stroke-miterlimit: 10;
      }

      .cls-2 {
        fill: #31302e;
      }

      .cls-3 {
        stroke: #00b953;
      }

      .cls-4 {
        fill: #f47f6b;
      }
    </style>
  </defs>
  <g id="Capa_2" data-name="Capa 2">
    <g id="Layer_1" data-name="Layer 1">
      <ellipse class="cls-1" cx="268.26" cy="17.35" rx="33.04" ry="16.6"/>
      <path class="cls-2" d="M268.26.75c-14.3,0-26.48,4.57-31.08,11,.49,6.36,14.36,11.46,31.4,11.46,16.35,0,29.77-4.69,31.28-10.69C295.72,5.69,283.14.75,268.26.75Z"/>
      <path class="cls-1" d="M100,162.77V46.05a7.62,7.62,0,0,1,7.62-7.62h55.95a7.62,7.62,0,0,1,7.62,7.62V73.57"/>
      <polygon class="cls-1" points="319.06 554.94 104.61 554.94 104.61 514.36 105.18 369.36 319.06 368.58 319.06 514.36 319.06 554.94"/>
      <path class="cls-2" d="M147.69,514.36a77.31,77.31,0,0,0,128.29,0Z"/>
      <line class="cls-1" x1="104.61" y1="514.36" x2="319.06" y2="514.36"/>
      <path class="cls-1" d="M104.47,229.8s40.05,1.91,73.62-18.69,52.26-24.41,52.26-24.41"/>
      <rect class="cls-1" x="230.35" y="184.24" width="63.72" height="121.53"/>
      <rect class="cls-1" x="240.06" y="192.41" width="63.72" height="105.31"/>
      <rect class="cls-1" x="247.72" y="200.46" width="63.72" height="89.83"/>
      <rect class="cls-1" x="0.75" y="210.32" width="79.01" height="10.19"/>
      <rect class="cls-1" x="0.75" y="272.44" width="79.01" height="10.19"/>
      <circle class="cls-1" cx="29.95" cy="246.39" r="26.87"/>
      <circle class="cls-1" cx="21.15" cy="263.03" r="5.71"/>
      <circle class="cls-2" cx="54.88" cy="313.37" r="6.05"/>
      <circle class="cls-1" cx="9.73" cy="250.26" r="5.71"/>
      <path class="cls-2" d="M99.29,487.83a65.19,65.19,0,0,0-5.74-9.05c-1.94-2.59-5.61-5.27-7-8.08-3.78-3.79-7.9-7.26-11.35-11.35s-6.28-8.94-6.88-14.27c-.82-7.29,2.63-14.47,7.2-20.22s10.25-10.52,15-16.1c9.52-11.14,14.14-25.55,14.66-40.2H100.1l-38.85,0-38.85,0H17.33c.52,14.65,5.13,29.06,14.65,40.2,4.77,5.58,10.46,10.35,15,16.1s8,12.93,7.2,20.22c-.6,5.33-3.42,10.17-6.88,14.27S39.76,466.91,36,470.7c-1.4,2.81-5.08,5.49-7,8.08a66.13,66.13,0,0,0-5.74,9.05,47.59,47.59,0,0,0-5.7,20.5c0,1.21-.48,4.43.22,5.45.82,1.17,3.67.59,5.13.58H35.77l25.48,0,25.49,0c4.3,0,10.4.16,18,.16.59,0,.31-5,.28-6.18A47.6,47.6,0,0,0,99.29,487.83Z"/>
      <line class="cls-1" x1="1.51" y1="514.36" x2="104.72" y2="514.51"/>
      <rect class="cls-1" x="61.25" y="220.52" width="11.03" height="148.08"/>
      <polygon class="cls-1" points="40.26 282.63 61.25 368.6 17.32 368.56 40.26 282.63"/>
      <line class="cls-1" x1="63.69" y1="146.9" x2="105.18" y2="146.9"/>
      <polygon class="cls-2" points="83.33 129.36 74.95 162.77 93.24 162.77 83.33 129.36"/>
      <rect class="cls-1" x="70.89" y="162.77" width="58.65" height="7.98"/>
      <circle class="cls-1" cx="163.28" cy="46.31" r="7.88"/>
      <path class="cls-1" d="M167.74,46.28h-3.87V42.42a.5.5,0,0,0-.5-.5.5.5,0,0,0-.5.5v3.86H159a.5.5,0,0,0-.5.5.5.5,0,0,0,.5.5h3.86v3.87a.5.5,0,0,0,.5.5.5.5,0,0,0,.5-.5V47.28h3.87a.5.5,0,0,0,.5-.5A.51.51,0,0,0,167.74,46.28Z"/>
      <circle class="cls-1" cx="107.85" cy="46.31" r="7.88"/>
      <path class="cls-1" d="M112.31,46.28h-3.87V42.42a.5.5,0,0,0-.5-.5.5.5,0,0,0-.5.5v3.86h-3.86a.5.5,0,0,0-.5.5.5.5,0,0,0,.5.5h3.86v3.87a.5.5,0,0,0,.5.5.5.5,0,0,0,.5-.5V47.28h3.87a.5.5,0,0,0,.5-.5A.5.5,0,0,0,112.31,46.28Z"/>
      <path class="cls-3" d="M191.68,368.56s-6.25-40.1,12-66.42,18.25-59.42,18.25-59.42l-110.5,1.84s-.26,2-.27,2.14a56.05,56.05,0,0,1-1.25,5.75,63.53,63.53,0,0,1-2.89,8.29,64.93,64.93,0,0,1-5.19,9.74,63.48,63.48,0,0,1-8.16,10.11c-1.09,1.1-1.93,1.91-3.1,2.93a6.55,6.55,0,0,0-.89.87c-.13.15-.91.58-.15,1.59.37.48,7.92.14,7.92.14s-16.59,49.48-1,60.56a11.08,11.08,0,0,0,5.44,1.86,23.64,23.64,0,0,0,6.28-.35,48.85,48.85,0,0,0,7.21-1.93c2.64-.9,5.23-2,7.77-3.12"/>
      <path class="cls-2" d="M105.18,371.3h86.3s24.21-1.37,45.1,20.18c24.06,24.82,38.5,55.82,82.48,58.66V368.58l-213.88,0Z"/>
      <polyline class="cls-1" points="63.69 208.27 63.69 146.9 75.5 97.07 92.45 97.07 105.18 147.41 105.18 368.56"/>
      <path class="cls-4" d="M191.68,368.56H131.92l-2.38,0c3-5.81,6.63-32.22,6.63-32.22l-.22.12c-2,1.2-2.75,1.57-4.85,2.69-2.62,1.4-5.28,2.74-8,4-2.54,1.15-5.13,2.22-7.77,3.12a48.85,48.85,0,0,1-7.21,1.93,23.64,23.64,0,0,1-6.28.35,11.08,11.08,0,0,1-5.44-1.86c-15.56-11.08,1-60.56,1-60.56s-7.55.34-7.92-.14c-.76-1,0-1.44.15-1.59a6.55,6.55,0,0,1,.89-.87c1.17-1,2-1.83,3.1-2.93a63.48,63.48,0,0,0,8.16-10.11,64.93,64.93,0,0,0,5.19-9.74,63.53,63.53,0,0,0,2.89-8.29,56.05,56.05,0,0,0,1.25-5.75c0-.11.26-2.14.27-2.14l110.5-1.84s0,33.09-18.25,59.42-12,66.42-12,66.42"/>
      <path class="cls-2" d="M162.54,318h0c-.61.46,0,0-.62.45-1.25.92-2.5,1.83-3.77,2.73-1.76,1.25-3.53,2.49-5.31,3.7q-3.24,2.2-6.52,4.32-3.65,2.34-7.36,4.56l-2.79,1.63s-.95,6.75-2.27,14.23c0,0,12-2,29.87-31.1a.65.65,0,0,0-.27-.76C163.3,317.71,163,317.68,162.54,318Z"/>
      <path class="cls-2" d="M203.67,302.14a62,62,0,0,0-6.12,11.26q-1.25,3-2.23,6.05c-.5,1.56-.58,3.23-1.16,4.77s-1.38.76-2.15-.17c-1.32-1.57-2.48-3.27-3.7-4.93a75.52,75.52,0,0,1-7.74-12.66,40.36,40.36,0,0,1-3.37-10c-.43-2.39-1.14-6.23.22-8.42,1.7-2.74,5-4,6.66-6.94a10.32,10.32,0,0,0,.35-8.43c-1.33-4-4.45-6.85-8.61-6.68-3.23.13-8.14,1.55-9.15,5.9-.56,2.39-.69,4.63-4,2.81-4.09-2.23-31.47-30.24-51.23-30.18l110.5-1.84s0,33.09-18.25,59.42"/>
      <path class="cls-1" d="M147.69,514.44V444.7a32.07,32.07,0,0,1,32.07-32.07h0a32.07,32.07,0,0,1,32.07,32.07v69.74"/>
      <circle class="cls-1" cx="163.03" cy="463.57" r="5.41"/>
      <circle class="cls-2" cx="123.64" cy="270.39" r="3.67"/>
      <polygon class="cls-1" points="146.89 104.35 159.76 134.23 183.08 134.23 194.98 104.35 171.16 73.57 146.89 104.35"/>
      <polygon class="cls-2" points="146.89 104.35 159.76 134.23 183.08 134.23 194.98 104.35 146.89 104.35"/>
      <path class="cls-2" d="M249.32,136.46a2.5,2.5,0,0,0,.22-.24,4.55,4.55,0,0,0,.62-1.47l3.27-11.55c.51-1.78,1-3.77.1-5.41a2.42,2.42,0,0,0-1.45-1.23c-1.35-.33-2.52.93-3.31,2a203.14,203.14,0,0,0-14.38,23.54c-.64,1.25,1.8.24,2.13.1l11.13-4.8A5.26,5.26,0,0,0,249.32,136.46Z"/>
      <path class="cls-1" d="M283.48,155.25c5.09-4.78,9.88-9.9,15.36-14.27,1.88-1.5,8.14-7.11,4.94-8.94s-23,9.28-23,9.28"/>
      <path class="cls-1" d="M283.13,152.09s9.81-19.22,13.58-25.35c.79-1.28,3.23-4.6,1.33-5.88-2.26-1.52-14.91,11-14.91,11"/>
      <path class="cls-4" d="M318.08,184.24H237.22c-2,0-4.45,1.48-6.22-.15s-.65-4-.65-5.92V153c0-8.51,6.35-18.41,15.7-18.8,10-.42,14.66,4.64,18.33,7.35,4.47,3.29,6.2,4,8.29,4.82,2.94,1.07,3.78-3.23,3.78-3.23s1.51-9.88,2.29-13.11c.65-2.67,2.71-8.7,6-9.16,2.93-.41,2.29,3.12,2.29,3.12s-1.88,21.65-2.29,27.48-5.2,5.52-5.2,5.52H257.84v27.22"/>
    </g>
  </g>
</svg>
