<svg xmlns="http://www.w3.org/2000/svg" viewBox="0 0 509.1 610.58"><defs><style>.cls-1{fill:#f8eee2;}.cls-1,.cls-2,.cls-5{stroke:#31302e;stroke-width:1.5px;}.cls-1,.cls-2,.cls-4,.cls-5{stroke-miterlimit:10;}.cls-2,.cls-4{fill:none;}.cls-3{fill:#31302e;}.cls-4{stroke:#00b953;}.cls-5{fill:#f47f6b;}</style></defs><g id="Capa_2" data-name="Capa 2"><g id="Layer_1" data-name="Layer 1"><rect class="cls-1" x="0.75" y="0.75" width="507.6" height="609.08"/><ellipse class="cls-2" cx="351.88" cy="36.38" rx="33.04" ry="16.6"/><path class="cls-3" d="M351.88,19.79c-14.31,0-26.49,4.57-31.08,11,.49,6.36,14.35,11.46,31.4,11.46,16.34,0,29.77-4.69,31.27-10.69C379.33,24.73,366.76,19.79,351.88,19.79Z"/><path class="cls-2" d="M183.58,181.81V65.09a7.63,7.63,0,0,1,7.63-7.62h55.94a7.62,7.62,0,0,1,7.62,7.62V92.61"/><polygon class="cls-2" points="402.67 573.98 188.22 573.98 188.22 533.39 188.79 388.4 402.67 387.62 402.67 533.39 402.67 573.98"/><path class="cls-3" d="M231.3,533.39a77.31,77.31,0,0,0,128.29,0Z"/><line class="cls-2" x1="188.22" y1="533.39" x2="402.67" y2="533.39"/><path class="cls-2" d="M188.08,248.84s40.06,1.91,73.63-18.69S314,205.74,314,205.74"/><rect class="cls-2" x="313.97" y="203.27" width="63.72" height="121.53"/><rect class="cls-2" x="323.67" y="211.44" width="63.72" height="105.31"/><rect class="cls-2" x="331.33" y="219.5" width="63.72" height="89.83"/><rect class="cls-2" x="84.36" y="229.36" width="79.01" height="10.19"/><rect class="cls-2" x="84.36" y="291.48" width="79.01" height="10.19"/><circle class="cls-2" cx="113.57" cy="265.43" r="26.87"/><circle class="cls-2" cx="104.76" cy="282.07" r="5.71"/><circle class="cls-3" cx="138.5" cy="332.4" r="6.05"/><circle class="cls-2" cx="93.35" cy="269.3" r="5.71"/><path class="cls-3" d="M182.91,506.87a67.11,67.11,0,0,0-5.74-9.05c-1.95-2.59-5.62-5.27-7-8.08-3.79-3.79-7.9-7.26-11.36-11.36s-6.28-8.93-6.88-14.26c-.82-7.3,2.64-14.47,7.2-20.22s10.26-10.52,15-16.1c9.52-11.14,14.13-25.56,14.65-40.2h-5.07l-38.85,0-38.86,0h-5.07c.52,14.64,5.13,29.06,14.65,40.2,4.77,5.58,10.47,10.34,15,16.1s8,12.92,7.2,20.22c-.6,5.33-3.42,10.17-6.88,14.26s-7.57,7.57-11.36,11.36c-1.4,2.81-5.07,5.49-7,8.08a67.11,67.11,0,0,0-5.74,9.05,47.69,47.69,0,0,0-5.7,20.5c0,1.21-.48,4.43.23,5.44.81,1.18,3.67.59,5.13.59h12.9l25.49,0,25.48,0c4.3,0,10.4.16,18,.16.59,0,.31-5,.27-6.18A47.69,47.69,0,0,0,182.91,506.87Z"/><line class="cls-2" x1="85.12" y1="533.39" x2="188.34" y2="533.55"/><rect class="cls-2" x="144.87" y="239.56" width="11.03" height="148.08"/><polygon class="cls-2" points="123.87 301.67 144.87 387.64 100.94 387.6 123.87 301.67"/><line class="cls-2" x1="147.3" y1="165.93" x2="188.79" y2="165.93"/><polygon class="cls-3" points="166.95 148.4 158.57 181.81 176.85 181.81 166.95 148.4"/><rect class="cls-2" x="154.5" y="181.81" width="58.65" height="7.98"/><circle class="cls-2" cx="246.89" cy="65.35" r="7.88"/><path class="cls-2" d="M251.35,65.32h-3.86V61.46a.5.5,0,0,0-.5-.5.5.5,0,0,0-.5.5v3.86h-3.87a.5.5,0,0,0-.5.5.5.5,0,0,0,.5.5h3.87v3.87a.5.5,0,0,0,.5.5.51.51,0,0,0,.5-.5V66.32h3.86a.5.5,0,0,0,.5-.5A.5.5,0,0,0,251.35,65.32Z"/><circle class="cls-2" cx="191.46" cy="65.35" r="7.88"/><path class="cls-2" d="M195.92,65.32h-3.86V61.46a.5.5,0,0,0-.5-.5.5.5,0,0,0-.5.5v3.86h-3.87a.5.5,0,0,0-.5.5.5.5,0,0,0,.5.5h3.87v3.87a.5.5,0,0,0,.5.5.51.51,0,0,0,.5-.5V66.32h3.86a.5.5,0,0,0,.5-.5A.5.5,0,0,0,195.92,65.32Z"/><path class="cls-4" d="M275.3,387.6s-6.26-40.1,12-66.42,18.24-59.42,18.24-59.42L195,263.6s-.25,2-.27,2.14a51.2,51.2,0,0,1-1.25,5.75,63.53,63.53,0,0,1-2.89,8.29,64.93,64.93,0,0,1-5.19,9.74,62.93,62.93,0,0,1-8.16,10.11c-1.09,1.1-1.93,1.91-3.1,2.93a7.18,7.18,0,0,0-.89.87c-.13.15-.91.58-.14,1.59.36.48,7.91.14,7.91.14s-16.59,49.48-1,60.55a11.26,11.26,0,0,0,5.44,1.87,23.62,23.62,0,0,0,6.28-.35A48.52,48.52,0,0,0,199,365.3c2.64-.9,5.23-2,7.77-3.12"/><path class="cls-3" d="M188.79,390.34H275.1s24.2-1.37,45.09,20.18c24.06,24.82,38.5,55.82,82.48,58.66V387.62l-213.88,0Z"/><polyline class="cls-2" points="147.3 227.31 147.3 165.94 159.12 116.11 176.06 116.11 188.79 166.45 188.79 387.6"/><path class="cls-5" d="M275.3,387.6H215.53l-2.38,0c2.95-5.81,6.63-32.22,6.63-32.22l-.22.12c-2.05,1.2-2.75,1.57-4.84,2.69-2.63,1.4-5.29,2.74-8,4-2.54,1.15-5.13,2.22-7.77,3.12a48.52,48.52,0,0,1-7.21,1.93,23.62,23.62,0,0,1-6.28.35,11.26,11.26,0,0,1-5.44-1.87c-15.56-11.07,1-60.55,1-60.55s-7.55.34-7.91-.14c-.77-1,0-1.44.14-1.59a7.18,7.18,0,0,1,.89-.87c1.17-1,2-1.83,3.1-2.93a62.93,62.93,0,0,0,8.16-10.11,64.93,64.93,0,0,0,5.19-9.74,63.53,63.53,0,0,0,2.89-8.29,51.2,51.2,0,0,0,1.25-5.75c0-.11.26-2.14.27-2.14l110.5-1.84s0,33.09-18.24,59.42-12,66.42-12,66.42"/><path class="cls-3" d="M246.16,337.07h0c-.62.47,0,0-.63.46-1.24.92-2.5,1.83-3.76,2.73-1.76,1.25-3.54,2.49-5.32,3.7-2.15,1.47-4.33,2.91-6.52,4.31-2.43,1.56-4.88,3.09-7.36,4.57l-2.79,1.63s-.95,6.75-2.27,14.23c0,0,12-2,29.88-31.1a.64.64,0,0,0-.28-.76C246.91,336.74,246.64,336.72,246.16,337.07Z"/><path class="cls-3" d="M287.29,321.18a61.36,61.36,0,0,0-6.12,11.26q-1.25,3-2.23,6.05c-.5,1.56-.59,3.23-1.17,4.77s-1.37.76-2.15-.17c-1.32-1.57-2.48-3.28-3.7-4.93a75.47,75.47,0,0,1-7.73-12.66,40.36,40.36,0,0,1-3.37-10c-.44-2.39-1.15-6.23.21-8.42,1.7-2.74,5-4,6.66-6.94a10.36,10.36,0,0,0,.36-8.43c-1.34-4-4.46-6.85-8.62-6.68-3.22.13-8.13,1.55-9.15,5.9-.56,2.39-.69,4.63-4,2.81-4.08-2.23-31.47-30.24-51.23-30.18l110.5-1.84s0,33.09-18.24,59.42"/><path class="cls-2" d="M231.3,533.48V463.74a32.07,32.07,0,0,1,32.07-32.07h0a32.07,32.07,0,0,1,32.08,32.07v69.74"/><circle class="cls-2" cx="246.64" cy="482.61" r="5.41"/><circle class="cls-3" cx="207.25" cy="289.43" r="3.67"/><polygon class="cls-2" points="230.5 123.39 243.38 153.27 266.69 153.27 278.6 123.39 254.77 92.61 230.5 123.39"/><polygon class="cls-3" points="230.5 123.39 243.38 153.27 266.69 153.27 278.6 123.39 230.5 123.39"/><path class="cls-3" d="M332.93,155.5a2.5,2.5,0,0,0,.22-.24,4.15,4.15,0,0,0,.62-1.47l3.28-11.55c.5-1.78,1-3.77.09-5.41a2.39,2.39,0,0,0-1.45-1.23c-1.35-.33-2.51.93-3.31,2A204.53,204.53,0,0,0,318,161.18c-.64,1.25,1.8.24,2.13.1l11.13-4.8A5.26,5.26,0,0,0,332.93,155.5Z"/><path class="cls-2" d="M367.09,174.29c5.1-4.78,9.89-9.9,15.36-14.27,1.88-1.5,8.14-7.11,4.94-8.94s-23,9.28-23,9.28"/><path class="cls-2" d="M366.74,171.13s9.82-19.23,13.58-25.35c.79-1.28,3.23-4.6,1.33-5.88-2.26-1.52-14.91,11-14.91,11"/><path class="cls-5" d="M401.69,203.27H320.83c-2,0-4.45,1.49-6.22-.14s-.64-4-.64-5.93V172.07c0-8.52,6.34-18.41,15.69-18.8,10-.42,14.66,4.64,18.33,7.34,4.47,3.3,6.2,4.06,8.29,4.83,2.94,1.07,3.78-3.23,3.78-3.23s1.51-9.88,2.29-13.11c.65-2.67,2.72-8.7,6-9.16,2.94-.41,2.29,3.12,2.29,3.12s-1.87,21.65-2.29,27.48-5.2,5.52-5.2,5.52H341.45v27.21"/></g></g></svg>