<svg xmlns="http://www.w3.org/2000/svg" viewBox="0 0 488.81 488.81">
  <defs>
    <style>
      .cls-1, .cls-2 {
        fill: #f8eee2;
      }

      .cls-2, .cls-4, .cls-5, .cls-6, .cls-7 {
        stroke: #e65a41;
        stroke-linecap: round;
      }

      .cls-2, .cls-4, .cls-5, .cls-7 {
        stroke-miterlimit: 10;
      }

      .cls-2, .cls-4, .cls-5 {
        stroke-width: 5px;
      }

      .cls-3, .cls-5 {
        fill: #e65a41;
      }

      .cls-4, .cls-6, .cls-7 {
        fill: none;
      }

      .cls-6 {
        stroke-linejoin: round;
      }

      .cls-6, .cls-7 {
        stroke-width: 22px;
      }
    </style>
  </defs>
  <g id="Capa_2" data-name="Capa 2">
    <g id="Layer_1" data-name="Layer 1">
      <rect class="cls-1" width="488.81" height="488.81" rx="8.66"/>
      <path class="cls-2" d="M311.68,184a2.89,2.89,0,0,1,.77,3.51c-3.13,6.27-10.86,25.32,5.26,34.11,19.45,10.62,34.74,22.66,45.39,12.47,10.23-9.79,26.88-37.95,28.17-40.16a1.62,1.62,0,0,0,.17-.32c.7-1.64,5.32-14-9.35-23.9-10.44-7.06-18-9.85-28.29-20.9-5.23-5.62-11.15-13.39-18.49-24.95-21.77-34.28-32.42-34.28-48.17-36.59s-34.74-4.64-43.08,12c-7.88,15.76-25.15,31.4-7.12,35.27a2.89,2.89,0,0,1,2.1,3.85c-2.36,6.12-6.19,19,1.49,22.58a2.92,2.92,0,0,1,1.6,3.5c-1.49,4.7-3.18,14,6.1,15.39,12.51,1.85,4.17-23.16,23.63-21.77,12.18.87,17.82,1.2,20.34,1.32a2.85,2.85,0,0,1,2.52,1.79A58.7,58.7,0,0,0,311.68,184Z"/>
      <path class="cls-3" d="M146.85,206.37l183.61-148a4.32,4.32,0,1,1,5.42,6.73L149.62,209.87a2.23,2.23,0,0,1-2.77-3.5Z"/>
      <path class="cls-3" d="M157.24,219.84l188.3-142a4.32,4.32,0,1,1,5.2,6.89S159.91,223.42,159.9,223.43a2.23,2.23,0,0,1-2.66-3.59Z"/>
      <path class="cls-4" d="M351.13,145.83s14.05,9.56,4.66,27c-9,16.58-24.67,38.43-26.12,40.45a3.73,3.73,0,0,1-.26.3c-1.16,1.21-9.08,9-16.32,4.72"/>
      <path class="cls-5" d="M316.74,187.7c4.43,3,12.63,8.42,19,11.34a2.88,2.88,0,0,1,1.21,4.19c-3.39,5.29-11.39,15.8-21.62,16-10.84.2-5.63-21.11-3-30A2.89,2.89,0,0,1,316.74,187.7Z"/>
      <path class="cls-1" d="M291.56,137.3a2.87,2.87,0,0,1-2.14-1c-2-2.22-8-7.71-19.34-10.16-14.39-3.11-19.37-9.26-19.07-15.75s8.18-7.64,14.43-7.75c5.15-.1,36,7.88,46.78,10.71a2.88,2.88,0,0,1,1.74,4.27L303.1,135.89a2.89,2.89,0,0,1-2.48,1.41Z"/>
      <path class="cls-4" d="M310.88,110.65l-45.08-7.82S251,100.25,251,110.43s7.88,13.44,16.21,16.22,25,1.39,26.87,32.88"/>
      <path class="cls-6" d="M326.29,423.58H89.53a11.24,11.24,0,0,1-9.17-17.75l50.8-66a11.26,11.26,0,0,1,9.17-4.74H370.7a11.24,11.24,0,0,1,9.13,17.8l-44.42,66A11.26,11.26,0,0,1,326.29,423.58Z"/>
      <path class="cls-7" d="M381.83,365l-46.42,63a11.23,11.23,0,0,1-9.12,4.68H80.52"/>
      <path class="cls-3" d="M67.56,416.31l2.23,17.05A2.88,2.88,0,0,0,73,435.84c4.16-.58,11.34-1.78,11.34-3.18,0-1.61-4.08-12.45-5.57-16.36a2.89,2.89,0,0,0-2-1.77l-5.69-1.4A2.89,2.89,0,0,0,67.56,416.31Z"/>
      <path class="cls-3" d="M165.58,345.94H155a29.64,29.64,0,0,0-23.48,11.57c-1.64,2.14-2.86,3.69-2.86,3.6,0-.26-7.37-13.59-7.37-13.59l15.53-13.16,30.27,1.75Z"/>
      <path class="cls-3" d="M299.65,412.51h10.59A29.62,29.62,0,0,0,333.72,401c1.65-2.15,2.86-3.7,2.86-3.61,0,.26,7.37,13.6,7.37,13.6l-15.53,13.15-30.26-1.75Z"/>
      <path class="cls-3" d="M353.24,346H362a4.75,4.75,0,0,1,4,7.26l-4.12,6.63,10.61,1.31,8.12-21.75-20.3-1.83Z"/>
      <path class="cls-3" d="M107.59,412.53H98.85a4.75,4.75,0,0,1-4-7.26L99,398.64l-10.61-1.31-8.12,21.75,20.3,1.83Z"/>
      <polygon class="cls-3" points="392.68 342.72 392.68 365.01 380.62 366.65 378.29 335.13 392.68 342.72"/>
      <path class="cls-3" d="M267.29,401.5H228.47a3,3,0,0,1-2.38-4.92L261.3,352a3,3,0,0,1,2.38-1.15h38.81a3,3,0,0,1,2.38,4.92l-35.2,44.54A3.07,3.07,0,0,1,267.29,401.5Z"/>
      <line class="cls-4" x1="322.14" y1="354.21" x2="287" y2="398.65"/>
      <line class="cls-4" x1="336.65" y1="354.21" x2="301.52" y2="398.65"/>
      <line class="cls-4" x1="231.84" y1="354.21" x2="196.7" y2="398.65"/>
      <line class="cls-4" x1="217" y1="354.21" x2="181.86" y2="398.65"/>
      <line class="cls-4" x1="245.35" y1="354.21" x2="210.22" y2="398.65"/>
      <path class="cls-4" d="M119.22,401.5s44.68-36.92,39.35-88.7S145,210.66,162.17,197.1s45.8-36.46,39.88,11,4.62,54.13-2.62,54-8.74-26.32-7.22-40.5,3.52-18.73,0-24.88"/>
      <path class="cls-4" d="M168.31,328s-4.38-44.77-5.41-63.18c-1.87-33.15-2.31-54.15,5.41-70.56"/>
      <path class="cls-4" d="M178,328s-7-53.33-6.89-87.87c.05-19.69-2.25-39.64,15.28-59.16"/>
      <path class="cls-4" d="M186.38,326.87S163.65,200.78,199.69,186.4"/>
      <path class="cls-5" d="M151.86,236.3s-.5-26.92,40-55.3l-12.59,6.31L155.1,208.12Z"/>
      <path class="cls-3" d="M191.56,184.09h0a2,2,0,0,1,2,2.52l-.24.95,8.06-2.89-5.69-5.76-5.7,3.48Z"/>
      <path class="cls-4" d="M168.08,334.36S161,374.18,132.31,401.5"/>
      <path class="cls-4" d="M178.36,334.36s-5.11,39.82-33.77,67.14"/>
      <path class="cls-4" d="M186.64,334.36s-2.11,39.82-30.76,67.14"/>
      <path class="cls-4" d="M192.06,223.25l-1.68,3.51a5.5,5.5,0,0,1-9.75.3l-.16-.28"/>
    </g>
  </g>
</svg>
