<svg xmlns="http://www.w3.org/2000/svg" viewBox="0 0 416.2 413.24"><defs><style>.cls-1{fill:#8590c8;}.cls-1,.cls-2,.cls-3,.cls-4{stroke:#31302e;stroke-miterlimit:10;stroke-width:1.5px;}.cls-2{fill:#f47f6b;}.cls-3{fill:#f8eee2;}.cls-4{fill:#e65a41;}.cls-5{fill:#31302e;}</style></defs><g id="Capa_2" data-name="Capa 2"><g id="Layer_1" data-name="Layer 1"><rect class="cls-1" x="0.75" y="263.15" width="414.7" height="149.34"/><rect class="cls-2" x="0.75" y="0.75" width="414.7" height="262.4"/><path class="cls-3" d="M210.42,115.41a125.79,125.79,0,0,0-109,62.94,125.81,125.81,0,0,0,109,62.94h0a125.82,125.82,0,0,0,109-62.94,125.8,125.8,0,0,0-109-62.94Z"/><path class="cls-4" d="M311.15,396.49h-43v0h-2a3.11,3.11,0,1,1,0-6.22h15.73a8,8,0,0,0-.69-16H248.53a3.11,3.11,0,1,1,0-6.22h42.62a8,8,0,0,0,0-16h-36.9a3.11,3.11,0,1,1,0-6.22h6.9a8,8,0,0,0,0-16H237.61a3.12,3.12,0,0,1,0-6.23h35.54a8,8,0,0,0,0-16h-45a3.11,3.11,0,0,1,0-6.22h14.1a8,8,0,0,0-.06-16H228.82a3.11,3.11,0,0,1-3.11-3.11h0a3.11,3.11,0,0,1,3.11-3.11H259a8,8,0,1,0,0-16H173.59a8,8,0,0,0,0,16h15v0a3.1,3.1,0,0,1,0,6.18v0H143.69a8,8,0,0,0,0,16h24a3.11,3.11,0,1,1,0,6.22h-6a8,8,0,0,0,0,16h15.52a3.12,3.12,0,0,1,0,6.23H130.69a8,8,0,0,0,0,16h20.82a3.11,3.11,0,0,1,0,6.22h-7.88a8,8,0,0,0-.26,16H160.8a3.11,3.11,0,0,1,0,6.22H111.69a8,8,0,0,0,0,16h3.14c.12,0,.23,0,.35,0h23.2a3.11,3.11,0,1,1,0,6.22h-.49v0h-15.2a8,8,0,0,0,0,16H311.15a8,8,0,0,0,0-16Z"/><rect class="cls-4" x="161.79" y="129.72" width="97.25" height="97.25" rx="48.63"/><path class="cls-5" d="M310.85,93.82c-42.5-20.55-93.58-26.42-140-18.58A233.47,233.47,0,0,0,145.51,81c-5.7,1.5-13,4.12-18.63,6.06a284.55,284.55,0,0,0-74.42,42.57,5.6,5.6,0,0,1-7.33-8.46,303.7,303.7,0,0,1,63.51-46.77c3.06-1.57,7.38-3.88,10.43-5.43,1.21-.52,9.28-4.28,10.71-4.91,3.95-1.8,9.11-3.65,13.15-5.32a269.45,269.45,0,0,1,174.73-3.95c3.07,1,6.19,2.09,9.23,3.33a19.65,19.65,0,1,1-16,35.68Z"/></g></g></svg>