<svg xmlns="http://www.w3.org/2000/svg" viewBox="0 0 648.61 641.73">
  <defs>
    <style>
      .cls-1, .cls-10 {
        fill: #f8eee2;
      }

      .cls-2 {
        fill: #f47f6b;
      }

      .cls-10, .cls-11, .cls-2, .cls-4, .cls-5, .cls-6, .cls-7, .cls-9 {
        stroke: #31302e;
      }

      .cls-11, .cls-2, .cls-5, .cls-6 {
        stroke-linecap: round;
        stroke-linejoin: round;
      }

      .cls-10, .cls-2, .cls-5, .cls-6, .cls-7, .cls-9 {
        stroke-width: 1.5px;
      }

      .cls-11, .cls-3 {
        fill: none;
      }

      .cls-4 {
        fill: #e65a41;
      }

      .cls-10, .cls-4, .cls-7, .cls-9 {
        stroke-miterlimit: 10;
      }

      .cls-11, .cls-4 {
        stroke-width: 3px;
      }

      .cls-5 {
        fill: #c98077;
      }

      .cls-6, .cls-7 {
        fill: #8590c8;
      }

      .cls-12, .cls-13, .cls-14, .cls-8 {
        fill: #31302e;
      }

      .cls-9 {
        fill: #fbb04b;
      }

      .cls-12, .cls-13, .cls-14 {
        font-size: 30.05px;
      }

      .cls-12 {
        font-family: Fraunces-Regular, Fraunces Regular;
      }

      .cls-13 {
        font-family: Fraunces-MediumItalic, Fraunces MediumItalic;
        font-weight: 500;
        font-style: italic;
      }

      .cls-14 {
        font-family: Fraunces-SemiBold, Fraunces SemiBold;
        font-weight: 600;
      }
    </style>
  </defs>
  <g id="Capa_2" data-name="Capa 2">
    <g id="Layer_1" data-name="Layer 1">
      <rect class="cls-1" x="0.2" y="0.9" width="648.41" height="640.84"/>
      <path id="cara" class="cls-2" d="M533.77,484.65c-.19-6.48,1.16-13,5-18.08,4.73-6.32,13.4-11.72,11.8-19.46-.62-3-2.89-5.74-2.61-8.83.47-5.34,7.41-6.92,11.47-10.42,5.84-5,5.39-14.28,2.93-21.59s-6.46-14.44-6.1-22.14c1.12-24.11,40.79-31.24,42.74-55.29.69-8.61-3.15-17.9-10.12-23-16.32-11.91-33.35-24.73-47.5-38.64-20.71-20.35-24.8-47.67-30.69-76.1-5.46-26.34-14.14-51.89-22.91-77.32C482.75,99.2,477.29,84,466,73.54c-1.62-1.5-3.7-3-5.83-2.45s-3.27,2.71-4.11,4.7c-6.17,14.59-9.1,30.32-11.66,46a1183.79,1183.79,0,0,0-9.82,308.42q3.1,31.26,7.86,62.33c1.54,10.09,6.89,45.64,13.69,52.2,5.52,5.31,12.69,8.51,19.71,11.59,10.31,4.54,20.85,9.13,32.07,10.15s23.45-2.17,30.61-10.87c8.65-10.51,7.79-26,3.83-39-2.53-8.34-6.14-16.38-7.77-24.95A46,46,0,0,1,533.77,484.65Z"/>
      <g>
        <path class="cls-3" d="M220.3,535.75c0,1.78-13.79,65.63,29.36,106H115.33L128.23,558Z"/>
        <path id="cara-2" data-name="cara" class="cls-2" d="M434.55,430.17q3.1,31.26,7.86,62.33c1.54,10.09,6.89,45.64,13.69,52.2,5.52,5.31,12.69,8.51,19.71,11.59,10.31,4.54,20.85,9.13,32.07,10.15s23.45-2.17,30.61-10.87c8.65-10.51,7.79-26,3.83-39-2.53-8.34-6.14-16.38-7.77-24.95a46,46,0,0,1-.78-7c-.19-6.48,1.16-13,5-18.08,4.73-6.32,13.4-11.72,11.8-19.46-.62-3-2.89-5.74-2.61-8.83.47-5.34,7.41-6.92,11.47-10.42,5.84-5,5.39-14.28,2.93-21.59s-6.46-14.44-6.1-22.14c1.12-24.11,40.79-31.24,42.74-55.29.69-8.61-3.15-17.9-10.12-23"/>
        <path id="labios" class="cls-4" d="M511.08,427.23a35.2,35.2,0,0,0,2.8,5.55c1,1.92,2.1,3.81,3.25,5.66a60.08,60.08,0,0,0,7.76,10.13c6,6.13,14,10.68,22.55,10.79a11.38,11.38,0,0,0,3.58-.43,8.89,8.89,0,0,0,5.71-6.94,13.7,13.7,0,0,0-1.88-9.07,30.49,30.49,0,0,0-6.13-7.14,28.07,28.07,0,0,0,13.68-6.25A19,19,0,0,0,569,416.27a10,10,0,0,0-2.54-7.52c-2.4-2.36-6.22-2.71-9.46-1.82s-6.1,2.81-9,4.57c-9.47,5.84-19.77,10.19-30.13,14.24a26.18,26.18,0,0,1-3.37,1.14C513.41,427.15,512.17,427,511.08,427.23Z"/>
        <path id="cara_cuello" data-name="cara/cuello" class="cls-2" d="M130.59,640.85s27.93-125,147.8-89.94l-13-163.84,3.85-163.26-13.4-50.87L49.74,238.36l72.1,215.13L75.62,550.91.75,640.85Z"/>
        <ellipse class="cls-5" cx="280" cy="323.02" rx="27.69" ry="229.4"/>
        <path class="cls-6" d="M257.85,460.7c28.53,2,167.35-9.29,149.41-47.68-2.55-5.45-14.67-10.83-17.62-16.09-2.84-5.07.33-11.69,5-15.13s10.55-4.78,15.86-7.16,10.55-6.52,11.28-12.29-6.08-9.29-10.85-8.77a176.74,176.74,0,0,0,62.4-18c7-3.52,13.95-7.68,18.67-13.93s6.78-15.06,3.3-22.09c-3.06-6.18-9.61-9.78-16-12.4a114.84,114.84,0,0,0-24.77-7.05c3.69-3.7,7.59-7.8,8.27-13,1.16-8.87-7.29-15.73-14.78-20.63l-22.42-14.68c-3.48-2.29-7.27-5-8.07-9.08s2-8.49,5.75-10.66,5.77-2.42,10.05-2.92c0-2.11,1.23-10.78,1.21-12.88,0,0-117.45,8.06-118.28,10.14s23.18,99.49,23.18,99.49l-1.09,63.94L344.89,411l3.25,21.93-21.23,13.13Z"/>
        <path class="cls-7" d="M508.36,201.29s114.39-2.67,122.85-32-47.93-30.67-26.26-49c7.94-6.72,39.1-4.9,41.8-9.35V81.52l-157,13.83Z"/>
        <path class="cls-8" d="M.87,638.88c.67.42,1.94.25,4.31-.46,4.2-1.25,8.35-2.72,12.49-4.14,29.94-10.26,59.28-22.82,85.9-40,31.71-20.46,59.57-47.87,76.3-81.57a169.53,169.53,0,0,0,7-132.72c-5.16,8.64-16.33,12.36-26.37,11.13s-19.07-6.57-27.16-12.59a151.14,151.14,0,0,1-51.51-69.24c-6.94-19.15-9.64-41.35.1-59.26s35.34-27.82,51.85-15.77c3.85,2.81,7.19,6.67,11.81,7.84,4.3,1.09,8.78-.4,13-1.86,29.73-10.41,61-21.88,80.93-46.15,14.78-18,21.55-41,28-63.32l24.69-85.85C294,38.75,295.75,32.39,295,26c-1.38-11.78-11.41-19-22.59-23.16s-23.42-2-35.36-2C158.1,1.24,79.15.53.2.9c0,0,0,198.71,0,217.07V605.42c0,9.22,0,18.45,0,27.67C.17,636.4-.11,638.27.87,638.88Z"/>
        <path class="cls-9" d="M646.75,81.52v.09a765.56,765.56,0,0,0-105,21.56c-5.11,1.43-10.55,3.13-13.84,7.29-6.38,8.08-.77,20.59,7.75,26.35s19.12,7.5,28.31,12.12,17.52,14.47,14.65,24.35c-2.79,9.61-14.09,13.49-23.87,15.63a495.71,495.71,0,0,1-93.93,11.27c-18.14.44-36.94,0-53.55,7.3-3.85,1.7-7.69,3.94-9.87,7.55-6.3,10.43,5.05,22.95,16.28,27.68s25,8,29.92,19.18c3.67,8.39.43,18.57-5.81,25.27s-14.92,10.53-23.57,13.53c9.55,1.11,15.85,12,14.18,21.48S418.92,339.1,410.13,343s-18.56,4.82-28.13,5.69c4.07,7.54.67,17.42-5.72,23.13s-15,8.11-23.43,9.78c8.53,9.79,17.63,21.46,15.56,34.28-1.93,11.89-12.91,20.08-23.74,25.37-26.53,12.94-56.63,16.16-86.07,18.34l0-9.08A177.18,177.18,0,0,0,319,438.58c5-1.92,10.08-4.27,13.16-8.61,7.39-10.42-1.65-25.41-13.18-30.94s-25-5.72-36.73-10.76-21.93-18.83-15.91-30.11c4.69-8.79,16.07-10.79,25.23-14.73s17.69-15.5,11.14-23c-2.46-2.83-6.31-3.92-9.91-5a181.66,181.66,0,0,1-40.34-17.56c-.85-.5,2-71.47,4.18-95.35l32.62-14c-22.87-3.21-46.5-6.69-66.09-18.93-9.31-5.81-18.11-15-17.62-26,.4-8.87,6.91-16.42,14.41-21.19s16.09-7.48,24-11.47c17.49-8.82,32.56-28.24,26.65-46.91-3.87-12.25-15.82-20.48-28.23-23.8S217,37.54,204.13,37.56C165,37.63,122.71,29.65,96.34.76H646.68Z"/>
        <g>
          <path id="cara-3" data-name="cara" class="cls-2" d="M513.18,203.33c-.83-4-1.64-8.12-2.49-12.23-5.46-26.34-14.14-51.89-22.91-77.32C482.75,99.2,477.29,84,466,73.54c-1.62-1.5-3.7-3-5.83-2.45s-3.27,2.71-4.11,4.7c-6.17,14.59-9.1,30.32-11.66,46q-7.11,43.25-11,86.93-1.18,13.31-2.06,26.63"/>
          <circle class="cls-8" cx="475.03" cy="225.2" r="14.67"/>
          <path class="cls-10" d="M478.68,221.54l5.55.73a.71.71,0,0,1,.41,1.21l-4,4a.72.72,0,0,0-.2.64l1,5.51a.72.72,0,0,1-1,.77l-5-2.53a.69.69,0,0,0-.67,0l-4.93,2.68a.72.72,0,0,1-1.05-.74l.89-5.55a.74.74,0,0,0-.22-.63l-4.06-3.85a.72.72,0,0,1,.39-1.23l5.53-.89a.73.73,0,0,0,.54-.4l2.42-5.07a.72.72,0,0,1,1.29,0l2.53,5A.71.71,0,0,0,478.68,221.54Z"/>
        </g>
        <path class="cls-11" d="M191.29,356.43s3.24,21.5-4.29,30.54"/>
        <path class="cls-11" d="M158,285.27s-1.13-33.3-15.35-44.2"/>
        <path class="cls-11" d="M134.88,300c5.4-9.81,8.33-22.61,4.8-33.48-2.09-6.45-9.86-24.43-30.56-17.94C98.34,252,92.68,262.7,91.77,273.88c-1.53,18.83,7.28,36.58,16.18,52.56,0,0,25.64,37.68,47.44,40.25"/>
        <path class="cls-11" d="M129.94,286.77c-4.74,3.51-9.79,6.94-11.92,12.46-3.87,10,2.11,20.49,10.11,26.48,5.77,4.33,15.69,1.44,19.48,8.85,5.82,11.36,19,18.88,23.25,11.23,1.63-3-3.49-9.28-7.78-16.29-5.68-9.29-1-11.49-1-11.49"/>
        <path class="cls-8" d="M568.6,343.47c-1.18-3.29-5.44-4.78-9.53-3.31a11.78,11.78,0,0,0-2.59,1.38.84.84,0,0,0-.14.06s-.28.2-.64.49a21.91,21.91,0,0,0-4.93,5.12,27.09,27.09,0,0,0-2.28,3.6,15.48,15.48,0,0,1-1.86,2.75c-3.56,4.23-9.74,7.31-14.67,5a9.41,9.41,0,0,1-5.37-7.6,10.49,10.49,0,0,1,3.76-9.38A1.07,1.07,0,1,0,529,339.9a12.63,12.63,0,0,0-4.55,11.3,11.52,11.52,0,0,0,6.59,9.3,10.91,10.91,0,0,0,4.62,1c4.82,0,9.6-3,12.6-6.58a17.78,17.78,0,0,0,1.81-2.62c2.19,2.28,9.55,1.1,13.27-.23C567.43,350.63,569.79,346.77,568.6,343.47Z"/>
        <path class="cls-11" d="M513.55,428.53s29.54,10.42,35.17,7.25"/>
        <g>
          <text class="cls-12" transform="matrix(0.49, -0.87, 0.87, 0.49, 326.31, 363.55)">i</text>
          <text class="cls-12" transform="translate(330.44 356.62) rotate(-65.16)">d</text>
          <text class="cls-12" transform="translate(338.31 339.29) rotate(-74.43)">e</text>
          <text class="cls-12" transform="matrix(-0.01, -1, 1, -0.01, 343.04, 321.16)">a</text>
          <text class="cls-12" transform="translate(341.55 301.78) rotate(-112.34)">s</text>
          <text class="cls-12" transform="matrix(-0.49, -0.87, 0.87, -0.49, 336.14, 289.42)"> </text>
          <text class="cls-12" transform="translate(332.52 282.87) rotate(-124.41)">c</text>
          <text class="cls-12" transform="translate(324.61 271.46) rotate(-127.47)">o</text>
          <text class="cls-12" transform="translate(314.36 259.02) rotate(-122.86)">m</text>
          <text class="cls-12" transform="translate(301.62 239.5) rotate(-99.7)">e</text>
          <text class="cls-12" transform="matrix(0.22, -0.98, 0.98, 0.22, 299.83, 226.47)"> </text>
          <text class="cls-12" transform="translate(300.01 221.51) rotate(-57.44)">a</text>
          <text class="cls-12" transform="translate(309.12 209.62) rotate(-54.92)">n</text>
          <text class="cls-12" transform="translate(320.8 191.92) rotate(-74.54)">d</text>
          <text class="cls-12" transform="translate(325.09 172.04) rotate(-89.72)"> </text>
          <text class="cls-12" transform="translate(325.01 163.98) rotate(-97.17)"> </text>
          <text class="cls-12" transform="translate(324.1 155.1) rotate(-108.23)">g</text>
          <text class="cls-12" transform="translate(317.7 136.87) rotate(-119.39)">o</text>
        </g>
        <g>
          <text class="cls-12" transform="translate(343.52 242.96) rotate(-99.4)">s</text>
          <text class="cls-12" transform="translate(341.43 232.55) rotate(-83.08)">o</text>
          <text class="cls-12" transform="matrix(0.33, -0.94, 0.94, 0.33, 343.05, 217.13)">m</text>
          <text class="cls-12" transform="translate(351.58 193.98) rotate(-65.78)">e</text>
          <text class="cls-12" transform="translate(357.75 180.37) rotate(-64.88)"> </text>
          <text class="cls-13" transform="translate(360.46 174.6) rotate(-64.77)">fl</text>
          <text class="cls-13" transform="translate(367.16 160.48) rotate(-65.87)">o</text>
          <text class="cls-13" transform="translate(374.15 144.93) rotate(-68.5)">u</text>
          <text class="cls-13" transform="translate(380.84 128.17) rotate(-75.01)">r</text>
          <text class="cls-13" transform="matrix(-0.07, -1, 1, -0.07, 383.42, 114.17)">i</text>
          <text class="cls-13" transform="matrix(-0.26, -0.96, 0.96, -0.26, 382.61, 104.62)">s</text>
          <text class="cls-13" transform="translate(378.84 91.21) rotate(-114.3)">h</text>
          <text class="cls-12" transform="translate(371.36 75.27) rotate(-118.54)"> </text>
          <text class="cls-12" transform="translate(368.1 69.13) rotate(-121.17)">a</text>
          <text class="cls-12" transform="matrix(-0.55, -0.83, 0.83, -0.55, 360.32, 56.32)">n</text>
          <text class="cls-12" transform="translate(351.06 42.51) rotate(-124.54)">d</text>
        </g>
        <text/>        <g>
          <text class="cls-12" transform="translate(413.87 284.5) rotate(-134.63)">a</text>
          <text class="cls-12" transform="matrix(-0.6, -0.8, 0.8, -0.6, 404.05, 274.77)">n</text>
          <text class="cls-12" transform="translate(394.45 262.24) rotate(-115.56)">d</text>
          <text class="cls-12" transform="translate(387.85 247.63) rotate(-105.18)"> </text>
          <text class="cls-12" transform="translate(386.08 242.33) rotate(-95.28)">s</text>
          <text class="cls-12" transform="translate(384.53 231.88) rotate(-78.01)">o</text>
          <text class="cls-12" transform="translate(386.65 217.06) rotate(-54.76)">m</text>
          <text class="cls-12" transform="matrix(0.51, -0.86, 0.86, 0.51, 402.85, 195.84)">e</text>
          <text class="cls-12" transform="translate(410.99 181.24) rotate(-66.93)"> </text>
          <text class="cls-14" transform="matrix(0.27, -0.96, 0.96, 0.27, 414.34, 173.95)">d</text>
          <text class="cls-14" transform="translate(419.28 155.67) rotate(-83.04)">o</text>
          <text class="cls-14" transform="translate(421.34 137.69) rotate(-90.15)">n</text>
          <text class="cls-14" transform="matrix(-0.07, -1, 1, -0.07, 421.12, 121.16)">’</text>
          <text class="cls-14" transform="translate(420.7 114.68) rotate(-96.63)">t</text>
        </g>
      </g>
    </g>
  </g>
</svg>
