<svg xmlns="http://www.w3.org/2000/svg" viewBox="0 0 840.5 840.5">
  <defs>
    <style>
      .cls-1 {
        fill: #f8eee2;
      }

      .cls-2 {
        fill: #fbb04b;
      }

      .cls-2, .cls-3, .cls-4, .cls-5, .cls-7, .cls-9 {
        stroke: #31302e;
      }

      .cls-2, .cls-3, .cls-4, .cls-5 {
        stroke-miterlimit: 10;
      }

      .cls-2, .cls-3, .cls-4, .cls-5, .cls-7 {
        stroke-width: 1.5px;
      }

      .cls-3 {
        fill: #e65a41;
      }

      .cls-4, .cls-8 {
        fill: #f47f6b;
      }

      .cls-5, .cls-7, .cls-9 {
        fill: none;
      }

      .cls-6 {
        fill: #31302e;
      }

      .cls-7, .cls-9 {
        stroke-linecap: round;
        stroke-linejoin: round;
      }

      .cls-8 {
        font-size: 32.78px;
        font-family: Fraunces-Regular, Fraunces;
      }

      .cls-9 {
        stroke-width: 2.5px;
      }
    </style>
  </defs>
  <g id="Capa_2" data-name="Capa 2">
    <g id="Layer_1" data-name="Layer 1">
      <rect class="cls-1" width="840.5" height="840.5"/>
      <g>
        <polygon class="cls-2" points="205.94 461.38 205.94 538.49 327.22 609.93 327.22 529.28 462.59 393.43 347.58 327.71 205.94 461.38"/>
        <polygon class="cls-3" points="592.04 770.65 737.66 632.49 737.66 548.67 717.77 548.67 592.04 673.75 592.04 770.65"/>
        <polygon class="cls-4" points="591.34 770.65 591.34 686.27 737.66 548.5 462.59 385.09 321.12 526.07 321.12 606.34 591.34 770.65"/>
        <polygon class="cls-5" points="358.5 523.93 469.58 417.13 690.66 544.23 576.38 654.23 358.5 523.93"/>
        <polygon class="cls-6" points="576.38 654.23 690.66 544.23 469.58 417.13 576.38 654.23"/>
        <line class="cls-5" x1="205.94" y1="459.85" x2="590.27" y2="685.21"/>
        <g>
          <polyline class="cls-7" points="669.31 689.46 733.06 628.26 688.3 597.13"/>
          <line class="cls-7" x1="733.49" y1="552.43" x2="733.49" y2="627.79"/>
        </g>
        <path class="cls-6" d="M319.51,457.25s8-2.4,12.83-16c0,0-12-27.25-30.06-22.45-9.44,2.52-14.62,13.82-11.1,22.78C295.38,452.23,309.4,455.63,319.51,457.25Z"/>
        <path class="cls-5" d="M255.87,489.13c-.58-.35,91.47-89.95,91.47-89.95L411.21,434"/>
        <line class="cls-5" x1="347.34" y1="327.71" x2="347.34" y2="399.18"/>
        <polygon class="cls-6" points="332.57 594.86 332.57 552.29 569.65 695.07 569.65 733.33 332.57 594.86"/>
        <line class="cls-5" x1="317.25" y1="454.43" x2="362.84" y2="482.84"/>
        <line class="cls-5" x1="378.71" y1="467.63" x2="329.36" y2="440.12"/>
        <g>
          <path class="cls-6" d="M433.62,471.45a73.64,73.64,0,0,1,35.54,32.8,73.23,73.23,0,0,0,9.19-45.62A73.26,73.26,0,0,0,433.62,471.45Z"/>
          <path class="cls-6" d="M411.59,495.32A73.26,73.26,0,0,0,402.4,541a73.33,73.33,0,0,0,44.73-12.82,73.6,73.6,0,0,1-35.54-32.81Z"/>
          <circle class="cls-6" cx="440.38" cy="499.79" r="11.15" transform="translate(-224.98 531.75) rotate(-51.37)"/>
        </g>
        <g>
          <text class="cls-8" transform="translate(330.01 582.7) rotate(31.04)">w</text>
          <text class="cls-8" transform="translate(352.33 596.14) rotate(31.04)">a</text>
          <text class="cls-8" transform="matrix(0.86, 0.52, -0.52, 0.86, 367.54, 605.29)">k</text>
          <text class="cls-8" transform="matrix(0.86, 0.52, -0.52, 0.86, 384.24, 615.34)">e</text>
          <text class="cls-8" transform="translate(398.86 624.14) rotate(31.04)">c</text>
          <text class="cls-8" transform="translate(413.11 632.72) rotate(31.04)">r</text>
          <text class="cls-8" transform="translate(425.8 640.35) rotate(31.04)">e</text>
          <text class="cls-8" transform="translate(440.41 649.15) rotate(31.04)">a</text>
          <text class="cls-8" transform="translate(455.64 658.31) rotate(31.04)">t</text>
          <text class="cls-8" transform="matrix(0.86, 0.52, -0.52, 0.86, 465.84, 664.45)">i</text>
          <text class="cls-8" transform="translate(474.27 669.53) rotate(31.04)">v</text>
          <text class="cls-8" transform="matrix(0.86, 0.52, -0.52, 0.86, 489.29, 678.57)">e</text>
          <text class="cls-8" transform="translate(503.91 687.37) rotate(31.04)">h</text>
          <text class="cls-8" transform="translate(521.37 697.87) rotate(31.04)">u</text>
          <text class="cls-8" transform="translate(538.4 708.13) rotate(31.04)">b</text>
        </g>
      </g>
      <line class="cls-9" x1="55.16" y1="335.6" x2="225.26" y2="335.6"/>
      <path class="cls-9" d="M290.55,270.31c.86-7.73-172.68-121.13-172.68-121.13"/>
      <path class="cls-9" d="M370.44,251.41C373,248.84,367,86.47,367,86.47"/>
      <line class="cls-9" x1="447.76" y1="270.31" x2="614.42" y2="149.18"/>
      <line class="cls-9" x1="493.29" y1="335.6" x2="659.95" y2="335.6"/>
    </g>
  </g>
</svg>
