<svg xmlns="http://www.w3.org/2000/svg" xmlns:xlink="http://www.w3.org/1999/xlink" viewBox="0 0 1140.14 1140.14">
  <defs>
    <style>
      .cls-1, .cls-7 {
        fill: none;
      }

      .cls-2, .cls-6 {
        fill: #f8eee2;
      }

      .cls-3 {
        fill: #8a8d56;
      }

      .cls-3, .cls-5, .cls-6, .cls-7, .cls-8, .cls-9 {
        stroke: #31302e;
        stroke-miterlimit: 10;
        stroke-width: 1.5px;
      }

      .cls-4 {
        clip-path: url(#clip-path);
      }

      .cls-5 {
        fill: #fbb04b;
      }

      .cls-8 {
        fill: #8590c8;
      }

      .cls-9 {
        fill: #f47f6b;
      }

      .cls-10 {
        fill: #31302e;
      }
    </style>
    <clipPath id="clip-path">
      <rect class="cls-1" x="325.83" y="119.35" width="487.93" height="312.15"/>
    </clipPath>
  </defs>
  <g id="Capa_2" data-name="Capa 2">
    <g id="Layer_1" data-name="Layer 1">
      <rect class="cls-2" width="1140.14" height="1140.14" rx="8.66"/>
      <g>
        <rect class="cls-3" x="477.84" y="486.55" width="219.98" height="190.1"/>
        <g class="cls-4">
          <g>
            <path class="cls-3" d="M886.18,357.81q18.24-14.78,35-31.2a500.14,500.14,0,0,0-699.42,0q16.77,16.41,35,31.2a500.19,500.19,0,0,1,629.36,0Z"/>
            <path class="cls-3" d="M886.18,411.86q18.24-14.79,35-31.2a500.14,500.14,0,0,0-699.42,0q16.77,16.39,35,31.2a500.19,500.19,0,0,1,629.36,0Z"/>
          </g>
        </g>
        <path class="cls-5" d="M316.63,486.55,290.06,816.82h0c21.7,68.32,84.72,99.37,137.49,67.73h0c11.07-6.64,19.51-18.68,23.37-33.34L563,527.83Z"/>
        <path class="cls-5" d="M827.83,484.55l26.58,330.27h0c-21.7,68.32-84.72,99.37-137.49,67.73h0c-11.07-6.64-19.51-18.68-23.37-33.34l-112-323.38Z"/>
        <g>
          <rect class="cls-6" x="428.78" y="710.08" width="294.76" height="231.16"/>
          <line class="cls-7" x1="500.9" y1="732.32" x2="554.65" y2="732.32"/>
          <line class="cls-7" x1="449.36" y1="757.26" x2="554.65" y2="757.26"/>
          <line class="cls-7" x1="449.36" y1="782.19" x2="554.65" y2="782.19"/>
          <line class="cls-7" x1="449.36" y1="807.13" x2="554.65" y2="807.13"/>
          <line class="cls-7" x1="449.36" y1="832.07" x2="554.65" y2="832.07"/>
          <line class="cls-7" x1="649.41" y1="732.32" x2="703.16" y2="732.32"/>
          <line class="cls-7" x1="597.87" y1="757.26" x2="703.16" y2="757.26"/>
          <line class="cls-7" x1="597.87" y1="782.19" x2="703.16" y2="782.19"/>
          <line class="cls-7" x1="597.87" y1="807.13" x2="703.16" y2="807.13"/>
          <line class="cls-7" x1="597.87" y1="832.07" x2="703.16" y2="832.07"/>
          <line class="cls-7" x1="449.36" y1="857" x2="554.65" y2="857"/>
          <line class="cls-7" x1="449.36" y1="881.94" x2="554.65" y2="881.94"/>
          <line class="cls-7" x1="449.36" y1="906.87" x2="554.65" y2="906.87"/>
          <rect class="cls-8" x="597.87" y="857" width="105.28" height="60.35"/>
        </g>
        <path class="cls-9" d="M392.64,740,420,748.19A124,124,0,0,1,470.4,777.6l19.88,19.1a12.06,12.06,0,0,1,3.7,8.7h0a12.07,12.07,0,0,1-9.29,11.75l-2.61.62a12.1,12.1,0,0,1-8.15-.94l-55.15-27.44,9.73,4.84.27,94.33-17.44-6.09a12.12,12.12,0,0,1-5.64-4.11l-43.57-57.45a12.09,12.09,0,0,1-2-10.56l17.44-62A12.07,12.07,0,0,1,392.64,740Z"/>
        <path class="cls-9" d="M758.81,740l-27.32,8.16a123.94,123.94,0,0,0-50.44,29.41l-19.88,19.1a12.1,12.1,0,0,0-3.7,8.7h0a12.07,12.07,0,0,0,9.29,11.75l2.61.62a12.09,12.09,0,0,0,8.15-.94l55.15-27.44L723,794.23l-.27,94.33,17.43-6.09a12.07,12.07,0,0,0,5.64-4.11l43.57-57.45a12.09,12.09,0,0,0,2-10.56l-17.43-62A12.08,12.08,0,0,0,758.81,740Z"/>
        <path class="cls-8" d="M227.84,441.91S117.37,555.56,109.31,652.35s46.78,112.92,46.78,112.92L365.8,845.93l29-122.6L257.6,666.52,375.7,538.9Z"/>
        <path class="cls-8" d="M916.62,439.91s110.48,113.65,118.54,210.44-46.78,112.92-46.78,112.92L778.67,843.93l-29-122.6,137.24-56.81L768.76,536.9Z"/>
        <ellipse class="cls-6" cx="571.5" cy="436.1" rx="349.71" ry="142.59"/>
        <rect class="cls-10" x="428.91" y="293.51" width="285.18" height="285.18" rx="142.59"/>
        <line class="cls-7" x1="813.76" y1="246.51" x2="813.76" y2="356.61"/>
        <line class="cls-7" x1="325.83" y1="248.42" x2="325.83" y2="357.91"/>
      </g>
    </g>
  </g>
</svg>
