<svg xmlns="http://www.w3.org/2000/svg" viewBox="0 0 648.41 640.84">
  <defs>
    <style>
      .cls-1 {
        fill: #f8eee2;
      }

      .cls-2 {
        fill: #fbb04b;
      }

      .cls-2, .cls-3, .cls-4, .cls-5, .cls-7 {
        stroke: #31302e;
        stroke-width: 1.5px;
      }

      .cls-2, .cls-3, .cls-4, .cls-5 {
        stroke-miterlimit: 10;
      }

      .cls-3 {
        fill: #e65a41;
      }

      .cls-4, .cls-8 {
        fill: #f47f6b;
      }

      .cls-5, .cls-7 {
        fill: none;
      }

      .cls-10, .cls-6 {
        fill: #31302e;
      }

      .cls-7 {
        stroke-linecap: round;
        stroke-linejoin: round;
      }

      .cls-10, .cls-8 {
        font-size: 25px;
        font-family: Fraunces-Regular, Fraunces Regular;
      }

      .cls-9 {
        fill: #8590c8;
      }

      .cls-11 {
        letter-spacing: 0em;
      }

      .cls-12 {
        letter-spacing: -0.01em;
      }

      .cls-13 {
        letter-spacing: 0em;
      }

      .cls-14, .cls-15 {
        font-family: Fraunces-Medium, Fraunces Medium;
        font-weight: 500;
      }

      .cls-15 {
        letter-spacing: 0.02em;
      }

      .cls-16 {
        letter-spacing: -0.01em;
      }
    </style>
  </defs>
  <g id="Capa_2" data-name="Capa 2">
    <g id="Layer_1" data-name="Layer 1">
      <rect class="cls-1" width="648.41" height="640.84"/>
      <g>
        <polygon class="cls-2" points="153.93 361.61 153.93 420.42 246.42 474.9 246.42 413.39 349.65 309.79 261.95 259.67 153.93 361.61"/>
        <polygon class="cls-3" points="448.37 597.46 559.42 492.1 559.42 428.18 544.25 428.18 448.37 523.57 448.37 597.46"/>
        <polygon class="cls-4" points="447.83 597.46 447.83 533.12 559.42 428.05 349.65 303.43 241.77 410.94 241.77 472.16 447.83 597.46"/>
        <polygon class="cls-5" points="270.27 409.32 354.98 327.87 523.58 424.79 436.43 508.68 270.27 409.32"/>
        <polygon class="cls-6" points="436.43 508.68 523.58 424.79 354.98 327.87 436.43 508.68"/>
        <line class="cls-5" x1="153.93" y1="360.45" x2="447.02" y2="532.3"/>
        <g>
          <polyline class="cls-7" points="507.3 535.55 555.91 488.88 521.78 465.13"/>
          <line class="cls-7" x1="556.24" y1="431.04" x2="556.24" y2="488.52"/>
        </g>
        <path class="cls-6" d="M240.54,358.46s6.11-1.83,9.78-12.22c0,0-9.17-20.79-22.92-17.12-7.2,1.92-11.15,10.54-8.46,17.37C222.14,354.63,232.83,357.22,240.54,358.46Z"/>
        <path class="cls-5" d="M192,382.77c-.44-.26,69.76-68.59,69.76-68.59l48.71,26.56"/>
        <line class="cls-5" x1="261.76" y1="259.67" x2="261.76" y2="314.18"/>
        <polygon class="cls-6" points="250.5 463.4 250.5 430.94 431.3 539.83 431.3 569 250.5 463.4"/>
        <line class="cls-5" x1="238.81" y1="356.31" x2="273.58" y2="377.98"/>
        <line class="cls-5" x1="285.68" y1="366.38" x2="248.05" y2="345.4"/>
        <g>
          <path class="cls-6" d="M327.56,369.29a56.25,56.25,0,0,1,27.11,25,55.94,55.94,0,0,0,7-34.8A55.94,55.94,0,0,0,327.56,369.29Z"/>
          <path class="cls-6" d="M310.76,387.5a55.86,55.86,0,0,0-7,34.79,55.9,55.9,0,0,0,34.12-9.78,56,56,0,0,1-27.11-25Z"/>
          <circle class="cls-6" cx="332.71" cy="390.9" r="8.5" transform="translate(-180.37 406.74) rotate(-51.37)"/>
        </g>
        <g>
          <text class="cls-8" transform="matrix(0.86, 0.52, -0.52, 0.86, 248.54, 454.13)">w</text>
          <text class="cls-8" transform="matrix(0.86, 0.52, -0.52, 0.86, 264.22, 463.57)">a</text>
          <text class="cls-8" transform="translate(274.56 469.79) rotate(31.04)">k</text>
          <text class="cls-8" transform="matrix(0.86, 0.52, -0.52, 0.86, 284.61, 475.84)">e</text>
          <text class="cls-8" transform="matrix(0.86, 0.52, -0.52, 0.86, 295.34, 482.3)">c</text>
          <text class="cls-8" transform="translate(304.95 488.08) rotate(31.04)">r</text>
          <text class="cls-8" transform="matrix(0.86, 0.52, -0.52, 0.86, 311.74, 492.17)">e</text>
          <text class="cls-8" transform="matrix(0.86, 0.52, -0.52, 0.86, 322.46, 498.62)">a</text>
          <text class="cls-8" transform="translate(332.69 504.78) rotate(31.04)">t</text>
          <text class="cls-8" transform="matrix(0.86, 0.52, -0.52, 0.86, 339.78, 509.05)">i</text>
          <text class="cls-8" transform="matrix(0.86, 0.52, -0.52, 0.86, 344.8, 512.07)">v</text>
          <text class="cls-8" transform="matrix(0.86, 0.52, -0.52, 0.86, 354.89, 518.14)">e</text>
          <text class="cls-8" transform="matrix(0.86, 0.52, -0.52, 0.86, 365.62, 524.6)">h</text>
          <text class="cls-8" transform="matrix(0.86, 0.52, -0.52, 0.86, 377.51, 531.75)">u</text>
          <text class="cls-8" transform="matrix(0.86, 0.52, -0.52, 0.86, 389.33, 538.86)">b</text>
        </g>
      </g>
      <g>
        <path class="cls-9" d="M447,128.41c0,2.86-36.46,3.5-36.79,6.27s34.92,12.12,34.25,14.83-36.23-5.36-37.22-2.74,31,20.16,29.67,22.64-33.87-13.92-35.47-11.61,25.25,27,23.38,29.09-29.57-21.6-31.68-19.73,18.11,32.21,15.79,33.82-23.55-28-26.06-26.72,9.88,35.61,7.24,36.61S374,178,371.24,178.68s1,36.94-1.79,37.27-7.76-35.78-10.61-35.78S351,216.29,348.23,216s.92-36.61-1.8-37.27-16.25,33.19-18.87,32.19,9.72-35.3,7.24-36.61S311.05,202.57,308.73,201s17.9-31.95,15.79-33.82S294.71,189,292.84,186.89s25-26.76,23.39-29.09-34.15,14.11-35.47,11.61,30.67-20,29.67-22.64-36.54,5.49-37.22,2.74,34.59-12,34.25-14.83-36.79-3.41-36.79-6.27,36.46-3.49,36.79-6.26S272.54,110,273.21,107.32s36.23,5.36,37.22,2.74-31-20.16-29.67-22.64,33.87,13.92,35.47,11.6-25.25-27-23.38-29.08,29.57,21.6,31.68,19.73-18.12-32.21-15.79-33.82,23.55,28,26.06,26.72S324.92,47,327.56,46s16.12,32.88,18.88,32.2-1-36.94,1.79-37.28S356,76.66,358.84,76.66s7.84-36.12,10.61-35.79-.92,36.62,1.79,37.28S387.5,45,390.12,46s-9.72,35.31-7.24,36.62,23.75-28.32,26.06-26.72S391.05,87.8,393.16,89.67,423,67.83,424.84,69.94,399.84,96.7,401.45,99s34.15-14.11,35.47-11.61-30.67,20-29.67,22.64,36.54-5.5,37.22-2.74-34.59,12-34.25,14.83S447,125.56,447,128.41Z"/>
        <path class="cls-5" d="M447,128.41c0,2.86-36.46,3.5-36.79,6.27s34.92,12.12,34.25,14.83-36.23-5.36-37.22-2.74,31,20.16,29.67,22.64-33.87-13.92-35.47-11.61,25.25,27,23.38,29.09-29.57-21.6-31.68-19.73,18.11,32.21,15.79,33.82-23.55-28-26.06-26.72,9.88,35.61,7.24,36.61S374,178,371.24,178.68s1,36.94-1.79,37.27-7.76-35.78-10.61-35.78S351,216.29,348.23,216s.92-36.61-1.8-37.27-16.25,33.19-18.87,32.19,9.72-35.3,7.24-36.61S311.05,202.57,308.73,201s17.9-31.95,15.79-33.82S294.71,189,292.84,186.89s25-26.76,23.39-29.09-34.15,14.11-35.47,11.61,30.67-20,29.67-22.64-36.54,5.49-37.22,2.74,34.59-12,34.25-14.83-36.79-3.41-36.79-6.27,36.46-3.49,36.79-6.26S272.54,110,273.21,107.32s36.23,5.36,37.22,2.74-31-20.16-29.67-22.64,33.87,13.92,35.47,11.6-25.25-27-23.38-29.08,29.57,21.6,31.68,19.73-18.12-32.21-15.79-33.82,23.55,28,26.06,26.72S324.92,47,327.56,46s16.12,32.88,18.88,32.2-1-36.94,1.79-37.28S356,76.66,358.84,76.66s7.84-36.12,10.61-35.79-.92,36.62,1.79,37.28S387.5,45,390.12,46s-9.72,35.31-7.24,36.62,23.75-28.32,26.06-26.72S391.05,87.8,393.16,89.67,423,67.83,424.84,69.94,399.84,96.7,401.45,99s34.15-14.11,35.47-11.61-30.67,20-29.67,22.64,36.54-5.5,37.22-2.74-34.59,12-34.25,14.83S447,125.56,447,128.41Z"/>
      </g>
      <text class="cls-10" transform="translate(77.98 155.06)">the m<tspan class="cls-11" x="60.82" y="0">a</tspan><tspan class="cls-12" x="72.77" y="0">t</tspan><tspan class="cls-13" x="80.9" y="0">ch</tspan><tspan x="0" y="30">th</tspan><tspan class="cls-11" x="22.15" y="30">a</tspan><tspan x="34.1" y="30">t </tspan><tspan class="cls-14" x="47.67" y="30">sta</tspan><tspan class="cls-15" x="77.9" y="30">r</tspan><tspan class="cls-14" x="86.67" y="30">ts</tspan><tspan x="104.85" y="30"> </tspan><tspan x="0" y="60">the fi</tspan><tspan class="cls-16" x="53.05" y="60">r</tspan><tspan x="60.97" y="60">e</tspan></text>
    </g>
  </g>
</svg>
