<svg xmlns="http://www.w3.org/2000/svg" viewBox="0 0 424.83 450.51"><defs><style>.cls-1{fill:#e65a41;}.cls-1,.cls-11,.cls-2,.cls-3,.cls-4,.cls-5,.cls-6,.cls-7,.cls-8,.cls-9{stroke:#31302e;stroke-width:1.5px;}.cls-1,.cls-11,.cls-5,.cls-6,.cls-7,.cls-8,.cls-9{stroke-miterlimit:10;}.cls-12,.cls-2,.cls-6{fill:#8590c8;}.cls-2,.cls-3,.cls-4{stroke-linecap:round;stroke-linejoin:round;}.cls-13,.cls-3,.cls-8{fill:#fbb04b;}.cls-4,.cls-7{fill:#f47f6b;}.cls-5{fill:#f8eee2;}.cls-10,.cls-9{fill:#8a8d56;}.cls-11{fill:none;}</style></defs><g id="Capa_2" data-name="Capa 2"><g id="Layer_1" data-name="Layer 1"><rect class="cls-1" x="0.75" y="1.76" width="423.33" height="448"/><polygon class="cls-2" points="424.08 1.76 401.35 58.76 18.74 58.76 0.75 1.76 424.08 1.76"/><polygon class="cls-3" points="424.08 449.76 400.88 395.76 18.74 395.76 0.75 449.76 424.08 449.76"/><polygon class="cls-4" points="0.75 1.76 0.75 449.76 49.75 395.76 48.75 58.76 0.75 1.76"/><ellipse class="cls-5" cx="298.25" cy="423.26" rx="37" ry="10"/><ellipse class="cls-5" cx="24.25" cy="250.26" rx="10" ry="37"/><path class="cls-6" d="M295.61,375.09s10.67,7.08,5.5,17.14C301.11,392.23,293,386.44,295.61,375.09Z"/><polygon class="cls-6" points="298.2 370.06 290.58 372.5 295.61 375.09 298.2 370.06"/><path class="cls-6" d="M304.68,357.79s8.1,9.93.17,18C304.85,375.79,298.78,367.85,304.68,357.79Z"/><polygon class="cls-6" points="308.65 353.76 300.65 353.83 304.69 357.79 308.65 353.76"/><path class="cls-6" d="M284.68,404.79s8.1,9.93.17,18C284.85,422.79,278.78,414.85,284.68,404.79Z"/><polygon class="cls-6" points="288.65 400.76 280.65 400.83 284.69 404.79 288.65 400.76"/><path class="cls-6" d="M263.61,315.25s12.63-2.1,15.71,8.78C279.32,324,269.41,325.36,263.61,315.25Z"/><polygon class="cls-6" points="262.07 309.8 258.17 316.78 263.61 315.25 262.07 309.8"/><path class="cls-6" d="M279.47,309s12.8.63,13.49,11.92C293,321,283,320.15,279.47,309Z"/><polygon class="cls-6" points="279.13 303.38 273.83 309.38 279.48 309.03 279.13 303.38"/><path class="cls-6" d="M291.61,348.09s10.67,7.08,5.5,17.14C297.11,365.23,289,359.44,291.61,348.09Z"/><polygon class="cls-6" points="294.2 343.06 286.58 345.5 291.61 348.09 294.2 343.06"/><path class="cls-6" d="M298.26,331.69s11.92,4.67,9,15.6C307.24,347.29,298.05,343.35,298.26,331.69Z"/><polygon class="cls-6" points="299.73 326.23 292.79 330.22 298.26 331.69 299.73 326.23"/><path class="cls-6" d="M297.26,310.69s11.92,4.67,9,15.6C306.24,326.29,297.05,322.35,297.26,310.69Z"/><polygon class="cls-6" points="298.73 305.23 291.79 309.22 297.26 310.69 298.73 305.23"/><path class="cls-6" d="M278.22,333.23s11.07,6.43,6.51,16.78C284.73,350,276.24,344.72,278.22,333.23Z"/><polygon class="cls-6" points="280.5 328.05 273.04 330.95 278.22 333.23 280.5 328.05"/><path class="cls-6" d="M269.14,284.49S281.75,286.75,281,298C281,298,271.21,296,269.14,284.49Z"/><polygon class="cls-6" points="269.52 278.84 263.5 284.11 269.14 284.49 269.52 278.84"/><path class="cls-6" d="M236,261.8s12.77-.95,14.84,10.17C250.82,272,240.83,272.4,236,261.8Z"/><polygon class="cls-6" points="234.94 256.24 230.41 262.84 235.98 261.8 234.94 256.24"/><path class="cls-6" d="M66.75,269.76s10-8,18,0C84.75,269.76,76.75,275.76,66.75,269.76Z"/><polygon class="cls-6" points="62.75 265.76 62.75 273.76 66.75 269.76 62.75 265.76"/><path class="cls-6" d="M84.75,257.76s10-8,18,0C102.75,257.76,94.75,263.76,84.75,257.76Z"/><polygon class="cls-6" points="80.75 253.76 80.75 261.76 84.75 257.76 80.75 253.76"/><path class="cls-6" d="M120,231.55s7.62-10.3,17.4-4.61C137.38,226.94,131.19,234.79,120,231.55Z"/><polygon class="cls-6" points="115.09 228.71 117.14 236.44 119.98 231.55 115.09 228.71"/><path class="cls-6" d="M110.85,248.52S115,236.4,126,238.84C126,238.84,122.51,248.2,110.85,248.52Z"/><polygon class="cls-6" points="105.33 247.31 109.63 254.05 110.85 248.52 105.33 247.31"/><path class="cls-6" d="M77.3,242.47s6.11-11.25,16.59-7C93.89,235.49,88.84,244.12,77.3,242.47Z"/><polygon class="cls-6" points="72.06 240.34 75.16 247.71 77.3 242.47 72.06 240.34"/><path class="cls-6" d="M95.3,244.47s6.11-11.25,16.59-7C111.89,237.49,106.84,246.12,95.3,244.47Z"/><polygon class="cls-6" points="90.06 242.34 93.16 249.71 95.3 244.47 90.06 242.34"/><path class="cls-6" d="M29.75,261.54s10.24-7.69,18,.55C47.74,262.09,39.57,267.84,29.75,261.54Z"/><polygon class="cls-6" points="25.88 257.42 25.63 265.42 29.75 261.54 25.88 257.42"/><path class="cls-6" d="M56.07,255.68S68,251,73.25,261C73.25,261,63.83,264.38,56.07,255.68Z"/><polygon class="cls-6" points="53.44 250.67 51.06 258.31 56.07 255.68 53.44 250.67"/><path class="cls-6" d="M52.23,239.45S65,239.3,66.42,250.52C66.42,250.52,56.42,250.33,52.23,239.45Z"/><polygon class="cls-6" points="51.54 233.84 46.62 240.14 52.23 239.45 51.54 233.84"/><path class="cls-6" d="M214,187.57a41.32,41.32,0,0,0,9.75-10.91c4.91-7.83,6.36-17.71,9.51-26.4,6.91-19.06,17.6-37.07,33.23-50,13.88-11.45,34.1-17.4,51.45-10.92,17,6.34,26.88,21.38,33.75,37.45q2,4.61,3.64,9.31c5.56,15.47,9.24,32,7.41,48.31A77.3,77.3,0,0,1,344.3,226.1a80.11,80.11,0,0,1-94.11,20.29c-11.53-5.33-21.61-13.3-32.65-19.58-7.09-4-14.55-7.35-21.72-11.21-2.46-1.32-5-2.9-6.07-5.49-1.47-3.72-2.74-13.54-.5-16.85,1.27-1.89,11.43,0,13-.28A27.7,27.7,0,0,0,214,187.57Z"/><path class="cls-7" d="M190.19,209a2.16,2.16,0,0,1-.33-.27,4.63,4.63,0,0,1-1.08-2.35,28.83,28.83,0,0,1-.58-9.49,5.58,5.58,0,0,1,.93-2.92c1.16-1.48,3.31-1.58,5.18-1.56,4.95.07,10,.15,14.66-1.59,5.35-2,9.61-6.27,12.64-11.11s5-10.26,7-15.62c6.29-17.12,13.11-34.51,24.54-48.93,10.9-13.75,25.45-24,42.93-27.2a63.68,63.68,0,0,1,13.65-1L292.63,99.94c-2.16,1.64-4.41,3.37-5.55,5.83-2.1,4.5.1,9.7,1.74,14.38a63.06,63.06,0,0,1,3.38,16.23c.31,4.32-.24,9.43-3.95,11.65-2.22,1.33-5.51,1.64-6.3,4.11s1.58,4.93.77,7.28c-1.06,3.08-6.42,3-7.2,6.12-.3,1.24.27,2.62-.23,3.79-1.05,2.45-5.1,1.39-7,3.24-1.41,1.36-1.07,3.7-.34,5.52s1.81,3.65,1.51,5.59a5.69,5.69,0,0,1-3.77,4.16,16.67,16.67,0,0,1-5.81.78l-11.42.19c-1.43,0-3.07.14-4,1.26s-.7,2.57-1,3.88c-.75,2.83-3.68,4.4-6.37,5.56a127.47,127.47,0,0,1-43.37,10.13A5.66,5.66,0,0,1,190.19,209Z"/><path class="cls-8" d="M189.75,210.11c-1.47-3.72-2.74-13.54-.5-16.85,1.27-1.89,11.43,0,13-.28a27.7,27.7,0,0,0,11.7-5.41,41.32,41.32,0,0,0,9.75-10.91c4.91-7.83,6.36-17.71,9.51-26.4,6.87-18.95,17.54-37,33.23-50a61.13,61.13,0,0,1,17-9.89s-30.72,17.35-45.72,60.35c0,0-13,50-35,57Z"/><path class="cls-7" d="M195.35,257.24c.11.72.24,1.43.41,2.14,3,12.87,15,21.22,23.5,31.29,9,10.54,14.47,23.55,19.28,36.52,4.23,11.39,8.09,23.47,6.28,35.48-2.17,14.39-12.54,26.72-25.38,33.56s-27.86,8.67-42.37,7.73c-21.73-1.42-43.35-9.11-59.71-23.47s-27-35.66-26.55-57.43c1-47.25,44.06-70.23,78.32-93.22,2.65-1.77,5.37-3.58,8.48-4.29,4.67-1.07,9.5.49,14,2a8.56,8.56,0,0,1,4.17,2.37c1.37,1.73,1.21,4.19.91,6.38C195.8,243.27,194.32,250.36,195.35,257.24Z"/><path class="cls-9" d="M182.25,225.26c2.95-3.59,3.87,0,4,0,.81-.29.17,1.8,1,2,3,.71,1.9,5.42,4.54,7.08a5.43,5.43,0,0,1,2.16,2.09c.79,1.65,0,3.58-.88,5.21-2.2,4.32-2.34,5.8-2.82,10.62-.56,5.56,5.22,14.09,8.15,18.86s4,5.09,7.85,9.14a163,163,0,0,1,29.5,43.5c7.35,15.51,12.28,26.77,7.5,43.5-2,7-6.37,11.56-8.5,15.5.2,1.05-1.59-7.27-3-14.75-.5-2.6-1.05-5.33-2.71-7.39-3-3.79-8.56-4.11-13.38-4.7a61.46,61.46,0,0,1-15.72-4.06c-3.92-1.6-8.17-4.29-8.51-8.51-.21-2.52.94-5.55-.88-7.31s-5-.74-6.73-2.47c-2.25-2.27.19-6.92-2.25-9-1-.8-2.42-.9-3.23-1.84-1.7-2,1-5.08.19-7.56-.59-1.83-2.79-2.54-4.7-2.68s-4,0-5.56-1.1a5.59,5.59,0,0,1-2-5.11,16.66,16.66,0,0,1,1.83-5.44l4.78-10.11c.6-1.27,1.21-2.75.62-4s-2-1.73-3-2.6c-2.15-1.88-4.88-7.51-4.73-10.36.77-14.59,8.75-37.07,14.5-50.5C180.72,222.17,181.52,226.14,182.25,225.26Z"/><path class="cls-8" d="M185.9,225.58c2.7-1.56,9.87,2.47,12.27,3.94a5.47,5.47,0,0,1,1.89,1.68c1.39,2.28-.7,5-2.22,7.19-5.55,8-4.06,19.14.61,27.66s12,15.2,18.48,22.44a113.8,113.8,0,0,1,22.52,36.68c4.93,13.56,6.76,28.36,4.35,42.59A132.67,132.67,0,0,0,230.93,315a91.18,91.18,0,0,0-12.41-19.75c-4.61-5.45-10-10.16-14.92-15.35a110.07,110.07,0,0,1-16.77-23.16c-2.53-4.69-4.77-9.72-5-15.05a27,27,0,0,1,.94-7.79c.52-2,1.21-6.42,2.68-8A2.38,2.38,0,0,1,185.9,225.58Z"/><path class="cls-10" d="M143.7,202.92a22,22,0,0,0-3-.9c-9.37-2.1-19.06.47-28.45,2.43-18.2,3.78-37.16,5.25-55.35,1.45-11.17-2.34-22-6.72-31-13.78S10,175.17,7.5,164c-3.45-15.48,2-31.87,11.07-44.87,6.36-9.09,14.39-16.84,22.77-24,8.09-7,15.94-13.31,25.91-17.4a80.21,80.21,0,0,1,53.9-2.58,80.15,80.15,0,0,1,50.47,47.93c6,16.28,6.52,34.05,5.84,51.4q-.69,17.4-2.86,34.7c-.39,3.12-.85,6.34-2.49,9-2.55,4.14-5.13,4.38-5.86,4.08-1.43-.6-4.28-.48-4-2C163.8,211.84,151.83,206,143.7,202.92Z"/><path class="cls-11" d="M143.7,202.92a22,22,0,0,0-3-.9c-9.37-2.1-19.06.47-28.45,2.43-18.2,3.78-37.16,5.25-55.35,1.45-11.17-2.34-22-6.72-31-13.78S10,175.17,7.5,164c-3.45-15.48,2-31.87,11.07-44.87,6.36-9.09,14.39-16.84,22.77-24,8.09-7,15.94-13.31,25.91-17.4a80.21,80.21,0,0,1,53.9-2.58,80.15,80.15,0,0,1,50.47,47.93c6,16.28,6.52,34.05,5.84,51.4q-.69,17.4-2.86,34.7c-.39,3.12-.85,6.34-2.49,9-2.55,4.14-5.13,4.38-5.86,4.08-1.43-.6-4.28-.48-4-2C163.8,211.84,151.83,206,143.7,202.92Z"/><path class="cls-12" d="M171.13,218.52c-1.71,3.52-3.41,2.3-4.38,2.24-2.26-.15-2-4-3-6a39.91,39.91,0,0,0-6-9c-4.56-5.33-19-7.39-26-8s-14,3.07-21,4c-19.64,2.61-41.66,7.16-60.62,1.37C35.64,198.69,22,189.75,13.59,176.92c-2.16-3.31-5.27-8-5.66-12,4.82,4.89,18.68,11.35,20.24,11.77,3.68,1,7.63-.65,10.54-3.12s5-5.69,7.48-8.62a52,52,0,0,1,12.55-11,9.47,9.47,0,0,1,5.2-1.85c2.78.12,4.92,2.36,7.06,4.14s5.3,3.21,7.6,1.63c1.15-.8,1.75-2.16,2.58-3.29s2.23-2.12,3.55-1.65c2.19.78,2.27,4.86,4.6,4.85,1.84,0,2.63-2.77,4.45-3,2.26-.26,2.9,3.24,4.91,4.3s4.17-.58,5.37-2.36,2.07-4,4-5c2.06-1.11,4.71-.38,6.5,1.12a17.72,17.72,0,0,1,4,5.7l5.26,10.21c.65,1.26,1.54,2.69,3,2.79a5.53,5.53,0,0,0,2.4-.7c4.66-1.91,9.93.55,14,3.53,10.84,8,18.16,19.72,25.21,31.17,2.17,3.51,4.42,7.54,3.35,11.53A8.27,8.27,0,0,1,171.13,218.52Z"/><path class="cls-11" d="M171.13,218.52c-1.71,3.52-3.41,2.3-4.38,2.24-2.26-.15-2-4-3-6a39.91,39.91,0,0,0-6-9c-4.56-5.33-19-7.39-26-8s-14,3.07-21,4c-19.64,2.61-41.66,7.16-60.62,1.37C35.64,198.69,22,189.75,13.59,176.92c-2.16-3.31-5.27-8-5.66-12,4.82,4.89,18.68,11.35,20.24,11.77,3.68,1,7.63-.65,10.54-3.12s5-5.69,7.48-8.62a52,52,0,0,1,12.55-11,9.47,9.47,0,0,1,5.2-1.85c2.78.12,4.92,2.36,7.06,4.14s5.3,3.21,7.6,1.63c1.15-.8,1.75-2.16,2.58-3.29s2.23-2.12,3.55-1.65c2.19.78,2.27,4.86,4.6,4.85,1.84,0,2.63-2.77,4.45-3,2.26-.26,2.9,3.24,4.91,4.3s4.17-.58,5.37-2.36,2.07-4,4-5c2.06-1.11,4.71-.38,6.5,1.12a17.72,17.72,0,0,1,4,5.7l5.26,10.21c.65,1.26,1.54,2.69,3,2.79a5.53,5.53,0,0,0,2.4-.7c4.66-1.91,9.93.55,14,3.53,10.84,8,18.16,19.72,25.21,31.17,2.17,3.51,4.42,7.54,3.35,11.53A8.27,8.27,0,0,1,171.13,218.52Z"/><path class="cls-13" d="M172.24,218.44c-1.18,1.14-1.86,2.7-2.84,4s-2.49,2.5-4.12,2.25a5.45,5.45,0,0,1-3.05-2.13c-5.92-6.83-10-16-18.32-19.54-4.25-1.83-9-1.89-13.63-1.53-10.1.78-20,3.42-29.95,5a118.16,118.16,0,0,1-40.45-.09,90.65,90.65,0,0,1-19.19-5.83A81.16,81.16,0,0,1,31.63,196c-1.44-.84-7.75-4-7.68-5.59,1.77,0,4.61,2.21,6.31,3,2.22,1,4.48,2,6.76,2.88a112.84,112.84,0,0,0,43.21,7.6,109,109,0,0,0,14.64-1.32c16.63-2.67,32.92-9.17,49.72-7.9,5.4.41,10.92,1.71,15.19,5C165.73,204.35,168.25,212,172.24,218.44Z"/><path class="cls-11" d="M172.24,218.44c-1.18,1.14-1.86,2.7-2.84,4s-2.49,2.5-4.12,2.25a5.45,5.45,0,0,1-3.05-2.13c-5.92-6.83-10-16-18.32-19.54-4.25-1.83-9-1.89-13.63-1.53-10.1.78-20,3.42-29.95,5a118.16,118.16,0,0,1-40.45-.09,90.65,90.65,0,0,1-19.19-5.83A81.16,81.16,0,0,1,31.63,196c-1.44-.84-7.75-4-7.68-5.59,1.77,0,4.61,2.21,6.31,3,2.22,1,4.48,2,6.76,2.88a112.84,112.84,0,0,0,43.21,7.6,109,109,0,0,0,14.64-1.32c16.63-2.67,32.92-9.17,49.72-7.9,5.4.41,10.92,1.71,15.19,5C165.73,204.35,168.25,212,172.24,218.44Z"/><circle class="cls-8" cx="184.75" cy="216.76" r="26.5"/><circle class="cls-5" cx="184.25" cy="216.26" r="14"/><circle class="cls-1" cx="184.25" cy="216.26" r="9"/><polygon class="cls-4" points="423.69 0.75 423.81 448.75 374.79 394.76 375.71 57.76 423.69 0.75"/></g></g></svg>