<svg xmlns="http://www.w3.org/2000/svg" xmlns:xlink="http://www.w3.org/1999/xlink" viewBox="0 0 1039.61 896.49"><defs><style>.cls-1,.cls-7{fill:none;}.cls-2,.cls-6{fill:#f8eee2;}.cls-2,.cls-3,.cls-5,.cls-6,.cls-7,.cls-8,.cls-9{stroke:#31302e;stroke-miterlimit:10;}.cls-3{fill:#8a8d56;}.cls-3,.cls-5,.cls-6,.cls-7,.cls-8,.cls-9{stroke-width:1.5px;}.cls-4{clip-path:url(#clip-path);}.cls-5{fill:#fbb04b;}.cls-8{fill:#8590c8;}.cls-9{fill:#f47f6b;}.cls-10{fill:#31302e;}</style><clipPath id="clip-path"><rect class="cls-1" x="265.15" y="4.88" width="487.93" height="312.15"/></clipPath></defs><g id="Capa_2" data-name="Capa 2"><g id="Layer_1" data-name="Layer 1"><rect class="cls-2" x="0.5" y="0.5" width="1038.61" height="895.49"/><rect class="cls-3" x="417.16" y="372.08" width="219.98" height="190.1"/><g class="cls-4"><path class="cls-3" d="M825.5,243.35q18.24-14.78,35-31.2a500.14,500.14,0,0,0-699.42,0q16.77,16.4,35,31.2a500.19,500.19,0,0,1,629.36,0Z"/><path class="cls-3" d="M825.5,297.39q18.24-14.77,35-31.2a500.14,500.14,0,0,0-699.42,0q16.77,16.41,35,31.2a500.19,500.19,0,0,1,629.36,0Z"/></g><path class="cls-5" d="M256,372.08,229.38,702.36h0c21.7,68.32,84.72,99.37,137.48,67.73h0c11.08-6.64,19.52-18.68,23.38-33.35l112-323.37Z"/><path class="cls-5" d="M767.15,370.08l26.58,330.28h0C772,768.68,709,799.73,656.24,768.09h0c-11.07-6.64-19.52-18.68-23.37-33.35l-112-323.37Z"/><rect class="cls-6" x="368.1" y="595.61" width="294.76" height="231.16"/><line class="cls-7" x1="440.22" y1="617.86" x2="493.97" y2="617.86"/><line class="cls-7" x1="388.68" y1="642.8" x2="493.97" y2="642.8"/><line class="cls-7" x1="388.68" y1="667.73" x2="493.97" y2="667.73"/><line class="cls-7" x1="388.68" y1="692.67" x2="493.97" y2="692.67"/><line class="cls-7" x1="388.68" y1="717.6" x2="493.97" y2="717.6"/><line class="cls-7" x1="588.73" y1="617.86" x2="642.48" y2="617.86"/><line class="cls-7" x1="537.19" y1="642.8" x2="642.48" y2="642.8"/><line class="cls-7" x1="537.19" y1="667.73" x2="642.48" y2="667.73"/><line class="cls-7" x1="537.19" y1="692.67" x2="642.48" y2="692.67"/><line class="cls-7" x1="537.19" y1="717.6" x2="642.48" y2="717.6"/><line class="cls-7" x1="388.68" y1="742.54" x2="493.97" y2="742.54"/><line class="cls-7" x1="388.68" y1="767.48" x2="493.97" y2="767.48"/><line class="cls-7" x1="388.68" y1="792.41" x2="493.97" y2="792.41"/><rect class="cls-8" x="537.19" y="742.54" width="105.28" height="60.35"/><path class="cls-9" d="M332,625.57l27.33,8.16a124,124,0,0,1,50.43,29.41l19.88,19.1a12,12,0,0,1,3.7,8.7h0A12.07,12.07,0,0,1,424,702.69l-2.61.61a12,12,0,0,1-8.15-.94L358.1,674.93l9.73,4.84.26,94.32L350.66,768a12.1,12.1,0,0,1-5.64-4.1l-43.57-57.45a12.09,12.09,0,0,1-2-10.56l17.44-62A12.06,12.06,0,0,1,332,625.57Z"/><path class="cls-9" d="M698.13,625.57l-27.32,8.16a123.94,123.94,0,0,0-50.44,29.41l-19.88,19.1a12.09,12.09,0,0,0-3.7,8.7h0a12.07,12.07,0,0,0,9.29,11.75l2.61.61a12,12,0,0,0,8.15-.94L672,674.93l-9.72,4.84L662,774.09,679.43,768a12.1,12.1,0,0,0,5.64-4.1l43.57-57.45a12.09,12.09,0,0,0,2-10.56l-17.43-62A12.07,12.07,0,0,0,698.13,625.57Z"/><path class="cls-8" d="M167.16,327.45S56.69,441.1,48.62,537.89,95.41,650.81,95.41,650.81l209.71,80.66,29-122.6L196.92,552.06,315,424.44Z"/><path class="cls-8" d="M855.94,325.45S966.42,439.1,974.48,535.89,927.7,648.81,927.7,648.81L718,729.47l-29-122.6,137.24-56.81L708.08,422.44Z"/><ellipse class="cls-6" cx="510.82" cy="321.64" rx="349.71" ry="142.59"/><rect class="cls-10" x="368.23" y="179.05" width="285.18" height="285.18" rx="142.59"/><line class="cls-7" x1="753.07" y1="132.05" x2="753.07" y2="242.15"/><line class="cls-7" x1="265.15" y1="133.96" x2="265.15" y2="243.45"/></g></g></svg>