<svg xmlns="http://www.w3.org/2000/svg" viewBox="0 0 974 974">
  <defs>
    <style>
      .cls-1, .cls-15 {
        fill: #f8eee2;
      }

      .cls-2 {
        fill: #4c4b49;
      }

      .cls-3, .cls-9 {
        fill: #31302e;
      }

      .cls-10, .cls-11, .cls-12, .cls-13, .cls-14, .cls-15, .cls-18, .cls-19, .cls-3, .cls-4, .cls-5, .cls-7 {
        stroke: #31302e;
      }

      .cls-10, .cls-11, .cls-12, .cls-13, .cls-17, .cls-18, .cls-3, .cls-4, .cls-5 {
        stroke-miterlimit: 10;
      }

      .cls-4 {
        fill: #8590c8;
      }

      .cls-10, .cls-4 {
        stroke-width: 1.5px;
      }

      .cls-5, .cls-6, .cls-7 {
        fill: none;
      }

      .cls-11, .cls-12, .cls-13, .cls-14, .cls-15, .cls-17, .cls-18, .cls-19, .cls-5, .cls-6, .cls-7, .cls-8 {
        stroke-width: 2px;
      }

      .cls-6, .cls-8 {
        stroke: #4c4b49;
      }

      .cls-14, .cls-15, .cls-19, .cls-6, .cls-7, .cls-8 {
        stroke-linecap: round;
        stroke-linejoin: round;
      }

      .cls-8 {
        fill: #fff;
      }

      .cls-10, .cls-11 {
        fill: #8a8d56;
      }

      .cls-12, .cls-19 {
        fill: #f47f6b;
      }

      .cls-13, .cls-16 {
        fill: #fbb04b;
      }

      .cls-14, .cls-17, .cls-18 {
        fill: #e65a41;
      }

      .cls-17 {
        stroke: #e65a41;
      }
    </style>
  </defs>
  <g id="Capa_2" data-name="Capa 2">
    <g id="Layer_1" data-name="Layer 1">
      <g id="Layer_6" data-name="Layer 6">
        <rect class="cls-1" width="974" height="974"/>
        <g>
          <path class="cls-2" d="M455.9,90.2c-1.48,18.21,1.56,39.2,1.55,49.69l-.06,119.58-.11,239.16-.1,222.42c0,11.12,2.87,16.09,8.89,25.43,4.43,6.85,15.65,14.32,22.51,18.75C550.1,805,606,846.79,669.87,882.62c11.75,6.59,25,13.33,38.07,10.14,11.7-2.85,20.32-13.34,24.25-24.73s4-23.69,4-35.74Q736,542.13,735.77,252c0-11.11-.09-22.61-4.63-32.76-6.3-14.1-20-23.18-33-31.48L513.62,70.16c-11.05-7-23.27-14.37-36.27-12.85C462.45,59.05,457.26,73.45,455.9,90.2Z"/>
          <path class="cls-3" d="M458.19,74.5c6,8.84,118.93,75.78,142.76,91l38.6,24.69,19.3,12.35c6,3.82,36.7,23.61,41.59,32.48s5,19.69,5,29.92l-.2,569.61c0,10.41-.23,21.54-6.18,30.07-7.56,10.83-22.63,14.22-35.58,11.61s-24.31-10.06-35.32-17.35L472.61,755.78c-4.5-3-9.16-6.14-11.81-10.84-2.87-5.11-2.95-11.26-2.95-17.12l0-169.59,0-169.58,0-169.58V92.73C458,87,456.87,80,458.19,74.5Z"/>
          <path class="cls-4" d="M707.41,263.71,459.82,101.4s.05,32.2.05,44.35v72.07l0,169.58,0,169.58,0,122.06,245.06,161.2Z"/>
          <circle class="cls-5" cx="722.35" cy="341.43" r="8.13"/>
          <circle class="cls-5" cx="722.35" cy="395.19" r="8.13"/>
          <rect class="cls-6" x="542.96" y="783.36" width="60.01" height="17.5" rx="7" transform="translate(527.28 -184.43) rotate(33.2)"/>
          <path class="cls-7" d="M297.31,912.75s30-11.25,32.5,26.25c0,0,21.25-26.25,46.25,0,0,0,3.75-36.25,41.26-27.5,0,0-43.76-28.76,0-56.26"/>
          <line class="cls-8" x1="553.58" y1="151.41" x2="618.59" y2="192.66"/>
          <path id="bota" class="cls-9" d="M325.61,763.47c-8,12.17-16.17,24.52-27.24,34s-25.68,15.83-40.11,13.81c-12.37-1.73-23.12-9.27-35-13-5.49-1.7-11.47-2.57-16.93-.8-12.15,4-11.62,17-8.72,27.07,3.36,11.72,10.32,22.19,18.4,31.2C226,867,238.39,876.7,252.86,881c24,7.06,50.68-2.15,69.08-19,2.76-2.53,6.25-5.45,9.79-4.22,3,1,4.27,4.6,4.55,7.77.66,7.41-1.79,15.49,1.85,22,3.26,5.81,10.3,8.25,16.85,9.48,4.5.85,9.56,1.25,13.29-1.43,5.15-3.69,5.23-11.18,4.83-17.51-1.1-17.52-1.92-35.18.48-52.57s8.23-34.65,19.18-48.37Z"/>
          <path class="cls-10" d="M519.83,536.45c2.5,7.5-13.84,88.45,185,165L706.1,589s-96.26-45-125-113.76Z"/>
          <path class="cls-11" d="M312.31,767.73l92.51,33.75s21.25-152.51,140-233.77,18.76-171.27,18.76-171.27S307.31,599,312.31,767.73Z"/>
          <path class="cls-12" d="M301.06,298.93c2.7-5.17.22-11.2-2.77-16.21s-7.27-9.12-10.53-14c-11.16-16.55-8.23-43.66-18-61.09-5.35-9.59-11.25-15-16.19-24.15-1.15-2.11,0-4.91,1.12-7a11.52,11.52,0,0,1,5.73-4.75c9.67-4.08,21.14,1.15,28,9.11s10.37,18.14,14.81,27.65a144.37,144.37,0,0,0,40.46,51.38c3.27,2.62,6.85,5.34,8.16,9.32,1.39,4.21-.16,8.94-2.9,12.42s-6.53,6-10.25,8.37c-8,5.22-16.44,10.58-26,11.7C308.34,302.24,304.18,302.11,301.06,298.93Z"/>
          <path class="cls-13" d="M325.24,147.75c-3-13.5-2.5-27.84,3-40.46a54.91,54.91,0,0,1,38.29-31.35,52.78,52.78,0,0,1,47.32,13.91C434.7,110.67,435,146.49,457,166c8.32,7.38,23.56,12.92,27.94,23.89,4.73,11.84-1.8,29.52-9.2,38.83a47.34,47.34,0,0,1-32.92,17.5c-12,.94-24-2.82-35-7.89C387.38,228.89,369.25,214.71,354,198c-11.23-12.29-21-26.2-26.43-41.95A77.64,77.64,0,0,1,325.24,147.75Z"/>
          <path class="cls-13" d="M325.24,147.75c-3-13.5-2.5-27.84,3-40.46a54.91,54.91,0,0,1,38.29-31.35,52.78,52.78,0,0,1,47.32,13.91C434.7,110.67,435,146.49,457,166c8.32,7.38,23.56,12.92,27.94,23.89,4.73,11.84-1.8,29.52-9.2,38.83a47.34,47.34,0,0,1-32.92,17.5c-12,.94-24-2.82-35-7.89C387.38,228.89,369.25,214.71,354,198c-11.23-12.29-21-26.2-26.43-41.95A77.64,77.64,0,0,1,325.24,147.75Z"/>
          <path class="cls-5" d="M426.69,125.78s-.6-13.62-36.25-6.25"/>
          <path class="cls-13" d="M607.34,452.69s-50-127.51-53.76-133.76c0,0,0-117.51-123.76-76.26l-61.88,34.38L296.68,300.8l45,123.77s11.25,43.75,56.25,35l16.25,61.26S548,464.57,607.34,452.69Z"/>
          <path class="cls-14" d="M280.53,38.21S281.74,82,258,129.45L296.59,262s98.77-17.41,142.5,10.13c0,0-36.13-133.8-38.63-133.8s-53.15-15.67-108.13-10.72l8.77-28.75Z"/>
          <path class="cls-5" d="M280.53,38.21S281.74,82,258,129.45L296.59,262s98.77-17.41,142.5,10.13c0,0-36.13-133.8-38.63-133.8s-53.15-15.67-108.13-10.72l8.77-28.75Z"/>
          <path class="cls-15" d="M265.43,130.78s38.75-35,30-102.51l12.5,46.26,3.75,15Z"/>
          <path class="cls-15" d="M336.68,74.53S320.43,15.77,319.18,17s7.5,63.76-53.75,113.76l57.5-31.25Z"/>
          <path class="cls-15" d="M341.69,33.27s2.5,55-76.26,97.51l70.63-3.12L359.4,78Z"/>
          <path class="cls-16" d="M337.31,127.66l13.75-17.5,12.5-30-2.5-1.25c-15,3.75-25.69,15-31.56,28.39a63.18,63.18,0,0,0-4.69,20.37c5.49-.32,10.89,0,12.5,0"/>
          <path class="cls-12" d="M391.69,207c2.5,0,38.76,1.25,35-52.5s-31.25-32.51-45-33.76-40-15-47.51,8.75S391.69,207,391.69,207Z"/>
          <path class="cls-17" d="M329.81,130.16a13.59,13.59,0,0,1,3.12-1.88c1.12-.56,4.19.22,6.25,1.25,3.54,1.77,74.39,55.63,74.39,55.63l3.75,12.51-7.5,10-18.75,3.75s-35-27.51-36.26-28.76-26.25-36.25-26.25-36.25Z"/>
          <path class="cls-5" d="M359.39,78a55.27,55.27,0,0,0-31.14,29.27,63.18,63.18,0,0,0-4.69,20.37c5.49-.32,9.64,0,11.25,0"/>
          <path class="cls-18" d="M417.82,194.91c-8.36-29.68-16.24-56.58-17.36-56.58-1.83,0-29.37-8.36-65.51-10.94"/>
          <line class="cls-19" x1="266.05" y1="131.41" x2="304.81" y2="260.17"/>
          <path class="cls-5" d="M473,338.31s0,68.75-35,0c0,0-15-28.76-18.76-45l-75,30s29.49,72.6,44.95,112.52c4.42,11.4,7.69,20.14,8.8,23.75"/>
          <path class="cls-5" d="M553,318.3c4.16,34.46-6.16,69.74-22.43,99.88-13.21,24.47-27.61,46.11-55.5,54-18.41,5.19-38.38,3.45-54.92-6.5-19.27-11.6-31.58-31.89-39.77-52.28"/>
          <path class="cls-12" d="M408.57,297.68a149.19,149.19,0,0,1,0-36.33,76.41,76.41,0,0,0-26.92-3.87c.41-15.1-.28-30.47-5-44.82-1.7-5.11-4-10.24-8.12-13.76-3.12-2.68-7.39-4.27-11.42-3.42s-7.51,4.54-7.36,8.65a14.32,14.32,0,0,0-26.09,1.12c.5-1.25-17.65-9.79-18.52,3.31-.2,3,.7,6,1.5,9a164,164,0,0,1,5.82,41.67,11.94,11.94,0,0,0,.93,5.61c1.1,2.05,3.3,3.21,5.35,4.32a123.93,123.93,0,0,1,47.59,45.92Z"/>
          <path class="cls-5" d="M357.31,255.17s6.25-17.5-7.5-51.25"/>
          <path class="cls-5" d="M336.06,255.17s0-36.25-12.5-51.25"/>
        </g>
      </g>
    </g>
  </g>
</svg>
