<svg xmlns="http://www.w3.org/2000/svg" viewBox="0 0 849 849">
  <defs>
    <style>
      .cls-1 {
        fill: #f8eee2;
      }

      .cls-2, .cls-4 {
        fill: #f47f6b;
      }

      .cls-2, .cls-3, .cls-5 {
        stroke: #31302e;
        stroke-width: 1.5px;
      }

      .cls-2, .cls-3, .cls-5, .cls-7 {
        stroke-miterlimit: 10;
      }

      .cls-3, .cls-8 {
        fill: #e65a41;
      }

      .cls-5 {
        fill: #8590c8;
      }

      .cls-6 {
        fill: #fbb04b;
      }

      .cls-7 {
        fill: none;
        stroke: #fbb04b;
        stroke-width: 3px;
      }
    </style>
  </defs>
  <g id="Capa_2" data-name="Capa 2">
    <g id="Layer_1" data-name="Layer 1">
      <rect class="cls-1" width="849" height="849"/>
      <path class="cls-2" d="M536.7,296.17a5.64,5.64,0,0,1,1.5,6.87c-6.13,12.29-21.28,49.64,10.32,66.88,38.13,20.81,68.09,44.41,89,24.44,20.06-19.19,52.68-74.4,55.23-78.72A4.73,4.73,0,0,0,693,315c1.38-3.22,10.44-27.4-18.32-46.85-20.45-13.84-35.33-19.3-55.45-41-10.25-11-21.85-26.25-36.25-48.92-42.67-67.18-63.56-67.18-94.43-71.72s-68.09-9.08-84.44,23.6c-15.45,30.9-49.31,61.56-14,69.15a5.65,5.65,0,0,1,4.11,7.54c-4.62,12-12.13,37.18,2.91,44.27a5.71,5.71,0,0,1,3.15,6.86c-2.92,9.22-6.24,27.47,12,30.17,24.52,3.63,8.18-45.4,46.31-42.68,23.88,1.71,34.95,2.35,39.88,2.59a5.6,5.6,0,0,1,4.95,3.51A115.19,115.19,0,0,0,536.7,296.17Z"/>
      <path class="cls-3" d="M213.59,340,573.52,49.87a8.47,8.47,0,0,1,10.62,13.19S219,346.84,219,346.86c-4.29,3.26-10-2.91-5.43-6.86Z"/>
      <path class="cls-3" d="M234,366.4,603.08,88.07a8.47,8.47,0,0,1,10.2,13.52S239.18,373.41,239.16,373.43c-4.39,3.13-9.87-3.22-5.21-7Z"/>
      <path class="cls-2" d="M614,221.31s27.54,18.76,9.13,52.86c-17.54,32.51-32.22,52.66-35.08,56.62-.16.22-23.42,14.72-23.61,14.92-2.28,2.36-15.83,9.41-25,17.6"/>
      <path class="cls-3" d="M540.07,299.54c.26.13.51.28.76.42l46,27.75a2,2,0,0,1,1,3.17,62.14,62.14,0,0,1-38.22,31.89,19.13,19.13,0,0,1-8,.9c-12.55-1.89-15.4-16.82-15.62-27.1a63,63,0,0,1,9.81-35.21c.65-1,1.51-2.12,2.72-2.19A2.9,2.9,0,0,1,540.07,299.54Z"/>
      <path class="cls-4" d="M497.27,204.59a5.71,5.71,0,0,1-4.21-1.87c-4-4.35-15.7-15.11-37.92-19.92-28.21-6.1-38-18.16-37.37-30.87s16-15,28.29-15.2c10.09-.19,65.16,12.19,86.58,16.41,8.87,1.76,10.47,9.73,8.54,13l-21.29,35.72a5.67,5.67,0,0,1-4.87,2.76Z"/>
      <path class="cls-2" d="M538.92,153.92,446.75,137s-29-5.07-29,14.9,15.44,26.33,31.78,31.78,49,2.73,52.66,64.47"/>
      <path class="cls-5" d="M695.48,621.18a43.7,43.7,0,0,0,0-13.41v-.49l-.1,0a43.54,43.54,0,0,0-43-36.38H200.8a43.64,43.64,0,0,0-35.26,18l-99.39,129c-.17.22-.34.45-.5.68a43.46,43.46,0,0,0-7.52,31.93,5.68,5.68,0,0,0,0,1.09l4,30.16c-.05.62-.09,1.25-.09,1.88a21.56,21.56,0,0,0,21.56,21.56H565.33a43.68,43.68,0,0,0,35.31-18l90.92-123.35a21.51,21.51,0,0,0,3.92-16.28ZM178.21,643c.72-.84,2.73-3.42,5.31-6.77A58.08,58.08,0,0,1,222.93,614H637.78a9.31,9.31,0,0,1,5.43,13.89l-8.09,13h0l-49.59,73.65a1.27,1.27,0,0,1-.06-.16c0-.16-2.38,2.88-5.61,7.07a58.07,58.07,0,0,1-46,22.68H513.11l0,.13H136.55l.08-.1H119.49a9.3,9.3,0,0,1-7.9-14.22L112.8,728Z"/>
      <path class="cls-6" d="M449.67,722.51H373.58a6,6,0,0,1-4.66-9.64l69-87.31a6,6,0,0,1,4.67-2.26h76.08a6,6,0,0,1,4.67,9.64l-69,87.31A6,6,0,0,1,449.67,722.51Z"/>
      <line class="cls-7" x1="557.2" y1="629.8" x2="488.33" y2="716.93"/>
      <line class="cls-7" x1="585.65" y1="629.8" x2="516.78" y2="716.93"/>
      <line class="cls-7" x1="380.18" y1="629.8" x2="311.31" y2="716.93"/>
      <line class="cls-7" x1="351.09" y1="629.8" x2="282.22" y2="716.93"/>
      <line class="cls-7" x1="406.67" y1="629.8" x2="337.8" y2="716.93"/>
      <path class="cls-7" d="M159.41,722.51s87.6-72.38,77.15-173.87S210,348.41,243.61,321.82s89.79-71.47,78.19,21.61,9,106.1-5.15,105.87-17.12-51.6-14.14-79.38,6.89-36.73-.06-48.78"/>
      <path class="cls-7" d="M255.64,316.33c-15.12,32.16-14.26,73.33-10.6,138.3,1.51,26.9,4.08,53.75,6.53,80.57,1.86,20.36,6.91,42.67,2.05,62.88a271.85,271.85,0,0,1-7.74,26.08c-9.95,28.41-24.09,55.66-43.09,79.1a202.87,202.87,0,0,1-17.71,19.25"/>
      <path class="cls-7" d="M291.08,290.26c-34.37,38.27-29.85,77.38-30,116-.18,67.69,13.5,172.18,13.51,172.26,2.07,15.83-2.79,31.91-7.5,46.86-9,28.65-22.68,56.14-41.68,79.5a190.37,190.37,0,0,1-16.29,17.66"/>
      <path class="cls-7" d="M317.17,300.84C246.84,328.91,290.68,574,291.08,576.2c3.45,19.22-3,42.41-8.64,60.58-9.4,30.53-25.05,59.43-47.61,82.24-1.17,1.18-2.35,2.35-3.55,3.49"/>
      <path class="cls-6" d="M225.3,395.74s-1-52.77,78.51-108.4l-24.7,12.36L229.4,333.06Z"/>
      <path class="cls-8" d="M309.14,309.54h0a4,4,0,0,1,3.85,4.93l-.46,1.86,13.57-7.93-8.91-9L306,306.19Z"/>
      <path class="cls-7" d="M302.21,373.09l-3.3,6.87a10.77,10.77,0,0,1-19.1.6l-.32-.56"/>
    </g>
  </g>
</svg>
