<svg xmlns="http://www.w3.org/2000/svg" viewBox="0 0 648.06 642.93"><defs><style>.cls-1{fill:#f47f6b;}.cls-1,.cls-10,.cls-11,.cls-3,.cls-4,.cls-5,.cls-6,.cls-8,.cls-9{stroke:#31302e;}.cls-1,.cls-10,.cls-4,.cls-5{stroke-linecap:round;stroke-linejoin:round;}.cls-1,.cls-11,.cls-4,.cls-5,.cls-6,.cls-8,.cls-9{stroke-width:1.5px;}.cls-10,.cls-11,.cls-2{fill:none;}.cls-3{fill:#e65a41;}.cls-11,.cls-3,.cls-6,.cls-8,.cls-9{stroke-miterlimit:10;}.cls-10,.cls-3{stroke-width:3px;}.cls-4{fill:#c98077;}.cls-5,.cls-6{fill:#8590c8;}.cls-12,.cls-13,.cls-14,.cls-7{fill:#31302e;}.cls-8{fill:#fbb04b;}.cls-9{fill:#f8eee2;}.cls-12,.cls-13,.cls-14{font-size:30.05px;}.cls-12{font-family:Fraunces-Regular, Fraunces Regular;}.cls-13{font-family:Fraunces-MediumItalic, Fraunces MediumItalic;font-weight:500;font-style:italic;}.cls-14{font-family:Fraunces-SemiBold, Fraunces SemiBold;font-weight:600;}</style></defs><g id="Capa_2" data-name="Capa 2"><g id="Layer_1" data-name="Layer 1"><path id="cara" class="cls-1" d="M534.33,485.09c-.2-6.47,1.15-12.95,5-18.07,4.74-6.32,13.41-11.73,11.81-19.46-.63-3-2.9-5.75-2.62-8.83.48-5.34,7.42-6.92,11.48-10.43,5.84-5,5.38-14.27,2.92-21.58s-6.45-14.44-6.1-22.15c1.12-24.1,40.79-31.23,42.74-55.29.7-8.61-3.14-17.9-10.12-23-16.32-11.91-33.34-24.73-47.5-38.64-20.71-20.35-24.8-47.67-30.69-76.1-5.46-26.34-14.13-51.89-22.9-77.32-5-14.58-10.49-29.77-21.82-40.25-1.61-1.49-3.69-3-5.83-2.44s-3.26,2.71-4.1,4.7c-6.18,14.59-9.1,30.32-11.67,46a1185,1185,0,0,0-9.82,308.42q3.11,31.26,7.86,62.32c1.55,10.1,6.89,45.65,13.69,52.2,5.52,5.32,12.7,8.51,19.71,11.6,10.32,4.53,20.86,9.13,32.08,10.14S531.88,564.72,539,556c8.65-10.52,7.79-26,3.83-39-2.53-8.34-6.13-16.38-7.76-24.95A44.92,44.92,0,0,1,534.33,485.09Z"/><path class="cls-2" d="M220.86,536.2c0,1.78-13.79,65.63,29.35,106H115.88l12.9-83.74Z"/><path id="cara-2" data-name="cara" class="cls-1" d="M435.1,430.62q3.11,31.26,7.86,62.32c1.55,10.1,6.89,45.65,13.69,52.2,5.52,5.32,12.7,8.51,19.71,11.6,10.32,4.53,20.86,9.13,32.08,10.14S531.88,564.72,539,556c8.65-10.52,7.79-26,3.83-39-2.53-8.34-6.13-16.38-7.76-24.95a44.92,44.92,0,0,1-.78-7c-.2-6.47,1.15-12.95,5-18.07,4.74-6.32,13.41-11.73,11.81-19.46-.63-3-2.9-5.75-2.62-8.83.48-5.34,7.42-6.92,11.48-10.43,5.84-5,5.38-14.27,2.92-21.58s-6.45-14.44-6.1-22.15c1.12-24.1,40.79-31.23,42.74-55.29.7-8.61-3.14-17.9-10.12-23"/><path id="labios" class="cls-3" d="M511.64,427.68a35.15,35.15,0,0,0,2.79,5.55c1,1.91,2.11,3.81,3.26,5.65A59.7,59.7,0,0,0,525.44,449c6,6.13,14,10.68,22.55,10.79a11.64,11.64,0,0,0,3.58-.43,8.86,8.86,0,0,0,5.71-6.94,13.64,13.64,0,0,0-1.88-9.07,30.68,30.68,0,0,0-6.12-7.14A28,28,0,0,0,563,430a19,19,0,0,0,6.62-13.25A10,10,0,0,0,567,409.2c-2.4-2.36-6.22-2.71-9.47-1.83s-6.09,2.82-9,4.58c-9.46,5.84-19.76,10.19-30.12,14.24a26.71,26.71,0,0,1-3.37,1.14C514,427.6,512.72,427.43,511.64,427.68Z"/><path id="cara_cuello" data-name="cara/cuello" class="cls-1" d="M131.14,641.3s27.94-125,147.8-89.94L266,387.52l3.85-163.26-13.39-50.87L50.29,238.81l72.1,215.13L76.17,551.36,1.3,641.3Z"/><ellipse class="cls-4" cx="280.55" cy="323.47" rx="27.69" ry="229.4"/><path class="cls-5" d="M258.4,461.15c28.54,2,167.35-9.29,149.41-47.68-2.55-5.46-14.67-10.83-17.62-16.09-2.84-5.07.33-11.69,5-15.14s10.55-4.78,15.86-7.15,10.56-6.52,11.29-12.29-6.08-9.3-10.86-8.77a176.79,176.79,0,0,0,62.41-18c7-3.52,13.95-7.68,18.67-13.94s6.78-15.06,3.3-22.08c-3.07-6.18-9.62-9.78-16-12.41a114.09,114.09,0,0,0-24.77-7c3.7-3.7,7.6-7.8,8.28-13,1.15-8.88-7.3-15.73-14.79-20.64l-22.41-14.68c-3.49-2.28-7.27-5-8.08-9.07s2-8.49,5.76-10.67,5.76-2.42,10-2.91c0-2.11,1.23-10.78,1.21-12.89,0,0-117.44,8.06-118.28,10.14S340,306.3,340,306.3l-1.08,63.95,6.5,41.19,3.25,21.93L327.46,446.5Z"/><path class="cls-6" d="M508.91,201.73s114.39-2.67,122.85-32-47.92-30.67-26.26-49c8-6.71,39.1-4.89,41.81-9.34V82l-157,13.83Z"/><path class="cls-7" d="M1.42,639.33c.67.42,1.94.25,4.31-.46,4.2-1.25,8.35-2.72,12.5-4.14,29.93-10.26,59.27-22.82,85.89-40,31.71-20.47,59.57-47.87,76.31-81.57a169.57,169.57,0,0,0,7-132.72c-5.16,8.64-16.34,12.36-26.37,11.13S142,385,133.93,379a151.14,151.14,0,0,1-51.51-69.24c-6.94-19.16-9.63-41.35.11-59.26s35.34-27.82,51.85-15.77c3.85,2.8,7.18,6.67,11.81,7.84,4.29,1.08,8.78-.4,13-1.86,29.73-10.41,61-21.88,80.93-46.15,14.77-18,21.54-41,28-63.33l24.7-85.84c1.77-6.17,3.56-12.53,2.82-18.91-1.39-11.78-11.42-19-22.59-23.17s-23.43-2-35.37-2C158.65,1.68,79.7,1,.75,1.34c0,0,0,198.72,0,217.08V605.86c0,9.23,0,18.45,0,27.68C.72,636.85.45,638.71,1.42,639.33Z"/><path class="cls-8" d="M647.31,82v.09a766.41,766.41,0,0,0-105,21.55c-5.12,1.43-10.55,3.14-13.84,7.3-6.38,8.08-.78,20.58,7.74,26.35s19.13,7.49,28.32,12.12,17.51,14.46,14.64,24.35c-2.78,9.61-14.09,13.49-23.87,15.63a495.52,495.52,0,0,1-93.93,11.27c-18.13.43-36.94,0-53.55,7.3-3.85,1.69-7.69,3.94-9.87,7.54-6.3,10.44,5.05,23,16.28,27.69s25,8,29.92,19.18c3.68,8.38.43,18.57-5.81,25.27s-14.92,10.53-23.57,13.53c9.55,1.1,15.86,12,14.18,21.48s-9.46,16.93-18.24,20.83-18.56,4.82-28.13,5.69c4.06,7.54.66,17.42-5.73,23.12s-15,8.11-23.42,9.79c8.52,9.79,17.63,21.46,15.55,34.27-1.92,11.9-12.9,20.09-23.73,25.37-26.54,12.95-56.64,16.17-86.08,18.35l0-9.08A177.19,177.19,0,0,0,319.6,439c5-1.93,10.07-4.27,13.15-8.61,7.4-10.43-1.65-25.41-13.17-30.94s-25-5.72-36.74-10.76-21.93-18.83-15.91-30.11c4.7-8.8,16.07-10.79,25.23-14.73s17.7-15.51,11.15-23c-2.47-2.83-6.32-3.93-9.92-5a181.66,181.66,0,0,1-40.34-17.56c-.85-.5,2-71.47,4.18-95.36l32.63-14c-22.87-3.22-46.5-6.7-66.09-18.93-9.32-5.81-18.11-15-17.62-26,.39-8.88,6.91-16.42,14.4-21.2s16.09-7.47,24-11.47c17.49-8.82,32.56-28.23,26.66-46.91C267.36,52.18,255.41,44,243,40.63S217.53,38,204.68,38c-39.11.06-81.42-7.91-107.79-36.8H647.24Z"/><path id="cara-3" data-name="cara" class="cls-1" d="M513.74,203.77c-.83-4-1.65-8.11-2.5-12.22-5.46-26.34-14.13-51.89-22.9-77.32-5-14.58-10.49-29.77-21.82-40.25-1.61-1.49-3.69-3-5.83-2.44s-3.26,2.71-4.1,4.7c-6.18,14.59-9.1,30.32-11.67,46q-7.11,43.23-11,86.93-1.18,13.31-2.06,26.63"/><circle class="cls-7" cx="475.59" cy="225.65" r="14.67"/><path class="cls-9" d="M479.23,222l5.56.72a.72.72,0,0,1,.41,1.22l-4,4a.7.7,0,0,0-.2.63l1,5.52a.72.72,0,0,1-1,.77l-5-2.54a.75.75,0,0,0-.67,0L470.43,235a.72.72,0,0,1-1.05-.75l.88-5.54a.71.71,0,0,0-.21-.63L466,224.21a.72.72,0,0,1,.38-1.23l5.54-.88a.72.72,0,0,0,.53-.41l2.42-5.06a.72.72,0,0,1,1.29,0l2.54,5A.72.72,0,0,0,479.23,222Z"/><path class="cls-10" d="M191.85,356.88s3.23,21.49-4.29,30.54"/><path class="cls-10" d="M158.51,285.72s-1.13-33.3-15.35-44.2"/><path class="cls-10" d="M135.43,300.46c5.4-9.81,8.33-22.61,4.81-33.48-2.1-6.45-9.86-24.43-30.57-17.94-10.78,3.38-16.44,14.11-17.34,25.29-1.54,18.83,7.28,36.58,16.18,52.56,0,0,25.64,37.68,47.44,40.24"/><path class="cls-10" d="M130.5,287.22c-4.75,3.51-9.79,6.93-11.93,12.46-3.87,10,2.11,20.49,10.12,26.48,5.77,4.32,15.69,1.44,19.48,8.85,5.81,11.36,19,18.88,23.24,11.23,1.64-2.95-3.48-9.28-7.77-16.29-5.69-9.3-1-11.49-1-11.49"/><path class="cls-7" d="M569.16,343.92c-1.18-3.3-5.45-4.78-9.53-3.32A12.44,12.44,0,0,0,557,342l-.15.07-.63.49a21.51,21.51,0,0,0-4.93,5.12,26.48,26.48,0,0,0-2.29,3.6,15.3,15.3,0,0,1-1.86,2.75c-3.56,4.23-9.74,7.31-14.66,5a9.42,9.42,0,0,1-5.37-7.61A10.45,10.45,0,0,1,530.9,342a1.07,1.07,0,0,0-1.33-1.68,12.66,12.66,0,0,0-4.56,11.3,11.54,11.54,0,0,0,6.59,9.3,10.77,10.77,0,0,0,4.63,1c4.82,0,9.6-3,12.59-6.57a17,17,0,0,0,1.81-2.62c2.19,2.28,9.56,1.1,13.28-.23C568,351.07,570.34,347.22,569.16,343.92Z"/><path class="cls-10" d="M514.1,429s29.55,10.42,35.18,7.25"/><rect class="cls-11" x="0.75" y="0.75" width="646.56" height="641.43"/><text class="cls-12" transform="matrix(0.49, -0.87, 0.87, 0.49, 326.86, 364)">i</text><text class="cls-12" transform="translate(330.99 357.07) rotate(-65.16)">d</text><text class="cls-12" transform="translate(338.87 339.73) rotate(-74.43)">e</text><text class="cls-12" transform="matrix(-0.01, -1, 1, -0.01, 343.59, 321.61)">a</text><text class="cls-12" transform="translate(342.1 302.23) rotate(-112.34)">s</text><text class="cls-12" transform="matrix(-0.49, -0.87, 0.87, -0.49, 336.69, 289.86)"> </text><text class="cls-12" transform="translate(333.08 283.32) rotate(-124.41)">c</text><text class="cls-12" transform="translate(325.17 271.9) rotate(-127.47)">o</text><text class="cls-12" transform="translate(314.92 259.46) rotate(-122.86)">m</text><text class="cls-12" transform="translate(302.18 239.95) rotate(-99.7)">e</text><text class="cls-12" transform="matrix(0.22, -0.98, 0.98, 0.22, 300.38, 226.92)"> </text><text class="cls-12" transform="translate(300.56 221.96) rotate(-57.44)">a</text><text class="cls-12" transform="translate(309.67 210.06) rotate(-54.92)">n</text><text class="cls-12" transform="translate(321.36 192.36) rotate(-74.54)">d</text><text class="cls-12" transform="translate(325.64 172.49) rotate(-89.72)"> </text><text class="cls-12" transform="translate(325.56 164.42) rotate(-97.17)"> </text><text class="cls-12" transform="translate(324.65 155.55) rotate(-108.23)">g</text><text class="cls-12" transform="translate(318.26 137.31) rotate(-119.39)">o</text><text class="cls-12" transform="translate(344.08 243.41) rotate(-99.4)">s</text><text class="cls-12" transform="translate(341.98 233) rotate(-83.08)">o</text><text class="cls-12" transform="matrix(0.33, -0.94, 0.94, 0.33, 343.6, 217.58)">m</text><text class="cls-12" transform="translate(352.13 194.43) rotate(-65.78)">e</text><text class="cls-12" transform="translate(358.3 180.81) rotate(-64.88)"> </text><text class="cls-13" transform="translate(361.02 175.04) rotate(-64.77)">fl</text><text class="cls-13" transform="translate(367.71 160.93) rotate(-65.87)">o</text><text class="cls-13" transform="translate(374.71 145.37) rotate(-68.5)">u</text><text class="cls-13" transform="translate(381.4 128.62) rotate(-75.01)">r</text><text class="cls-13" transform="matrix(-0.07, -1, 1, -0.07, 383.97, 114.62)">i</text><text class="cls-13" transform="matrix(-0.26, -0.96, 0.96, -0.26, 383.17, 105.07)">s</text><text class="cls-13" transform="translate(379.39 91.66) rotate(-114.3)">h</text><text class="cls-12" transform="translate(371.92 75.72) rotate(-118.54)"> </text><text class="cls-12" transform="translate(368.65 69.58) rotate(-121.17)">a</text><text class="cls-12" transform="matrix(-0.55, -0.83, 0.83, -0.55, 360.88, 56.77)">n</text><text class="cls-12" transform="translate(351.62 42.95) rotate(-124.54)">d</text><text/><text class="cls-12" transform="translate(414.43 284.95) rotate(-134.63)">a</text><text class="cls-12" transform="matrix(-0.6, -0.8, 0.8, -0.6, 404.6, 275.22)">n</text><text class="cls-12" transform="translate(395 262.69) rotate(-115.56)">d</text><text class="cls-12" transform="translate(388.41 248.08) rotate(-105.18)"> </text><text class="cls-12" transform="translate(386.63 242.78) rotate(-95.28)">s</text><text class="cls-12" transform="translate(385.08 232.33) rotate(-78.01)">o</text><text class="cls-12" transform="translate(387.21 217.51) rotate(-54.76)">m</text><text class="cls-12" transform="matrix(0.51, -0.86, 0.86, 0.51, 403.41, 196.29)">e</text><text class="cls-12" transform="translate(411.55 181.69) rotate(-66.93)"> </text><text class="cls-14" transform="matrix(0.27, -0.96, 0.96, 0.27, 414.89, 174.39)">d</text><text class="cls-14" transform="translate(419.83 156.11) rotate(-83.04)">o</text><text class="cls-14" transform="translate(421.89 138.14) rotate(-90.15)">n</text><text class="cls-14" transform="matrix(-0.07, -1, 1, -0.07, 421.67, 121.61)">’</text><text class="cls-14" transform="translate(421.26 115.13) rotate(-96.63)">t</text></g></g></svg>