<svg xmlns="http://www.w3.org/2000/svg" viewBox="0 0 639.43 639.43"><defs><style>.cls-1{fill:#f8eee2;}.cls-1,.cls-2,.cls-3,.cls-4,.cls-5,.cls-7{stroke:#31302e;stroke-width:1.5px;}.cls-1,.cls-2,.cls-3,.cls-4,.cls-5{stroke-miterlimit:10;}.cls-2{fill:#fbb04b;}.cls-3{fill:#e65a41;}.cls-4,.cls-8{fill:#f47f6b;}.cls-5,.cls-7{fill:none;}.cls-10,.cls-6{fill:#31302e;}.cls-7{stroke-linecap:round;stroke-linejoin:round;}.cls-10,.cls-8{font-size:25px;font-family:Fraunces-Regular, Fraunces Regular;}.cls-9{fill:#8590c8;}.cls-11{letter-spacing:0em;}.cls-12{letter-spacing:-0.01em;}.cls-13{letter-spacing:0em;}.cls-14,.cls-15{font-family:Fraunces-Medium, Fraunces Medium;font-weight:500;}.cls-15{letter-spacing:0.02em;}.cls-16{letter-spacing:-0.01em;}</style></defs><g id="Capa_2" data-name="Capa 2"><g id="Layer_1" data-name="Layer 1"><rect class="cls-1" x="0.75" y="0.75" width="637.93" height="637.93"/><polygon class="cls-2" points="154.94 362.16 154.94 420.96 247.43 475.45 247.43 413.94 350.66 310.34 262.96 260.22 154.94 362.16"/><polygon class="cls-3" points="449.38 598.01 560.43 492.65 560.43 428.73 545.27 428.73 449.38 524.11 449.38 598.01"/><polygon class="cls-4" points="448.85 598.01 448.85 533.67 560.43 428.6 350.66 303.98 242.78 411.49 242.78 472.7 448.85 598.01"/><polygon class="cls-5" points="271.29 409.86 356 328.41 524.6 425.34 437.44 509.23 271.29 409.86"/><polygon class="cls-6" points="437.44 509.23 524.6 425.34 356 328.41 437.44 509.23"/><line class="cls-5" x1="154.94" y1="360.99" x2="448.03" y2="532.85"/><polyline class="cls-7" points="508.31 536.1 556.93 489.43 522.79 465.68"/><line class="cls-7" x1="557.25" y1="431.59" x2="557.25" y2="489.07"/><path class="cls-6" d="M241.55,359s6.12-1.84,9.78-12.23c0,0-9.17-20.78-22.92-17.11-7.2,1.92-11.15,10.53-8.46,17.36C223.15,355.18,233.84,357.77,241.55,359Z"/><path class="cls-5" d="M193,383.32c-.45-.26,69.76-68.6,69.76-68.6l48.7,26.57"/><line class="cls-5" x1="262.78" y1="260.22" x2="262.78" y2="314.72"/><polygon class="cls-6" points="251.51 463.95 251.51 431.49 432.31 540.38 432.31 569.55 251.51 463.95"/><line class="cls-5" x1="239.83" y1="356.86" x2="274.59" y2="378.52"/><line class="cls-5" x1="286.7" y1="366.93" x2="249.06" y2="345.95"/><path class="cls-6" d="M328.57,369.84a56,56,0,0,1,27.11,25,56,56,0,0,0,7-34.79A55.88,55.88,0,0,0,328.57,369.84Z"/><path class="cls-6" d="M311.77,388a55.88,55.88,0,0,0-7,34.8,56,56,0,0,0,34.12-9.78,56.13,56.13,0,0,1-27.11-25Z"/><circle class="cls-6" cx="333.72" cy="391.45" r="8.5" transform="translate(-180.41 407.74) rotate(-51.37)"/><text class="cls-8" transform="matrix(0.86, 0.52, -0.52, 0.86, 249.56, 454.68)">w</text><text class="cls-8" transform="matrix(0.86, 0.52, -0.52, 0.86, 265.23, 464.11)">a</text><text class="cls-8" transform="translate(275.57 470.34) rotate(31.04)">k</text><text class="cls-8" transform="matrix(0.86, 0.52, -0.52, 0.86, 285.62, 476.39)">e</text><text class="cls-8" transform="matrix(0.86, 0.52, -0.52, 0.86, 296.36, 482.85)">c</text><text class="cls-8" transform="translate(305.96 488.62) rotate(31.04)">r</text><text class="cls-8" transform="matrix(0.86, 0.52, -0.52, 0.86, 312.75, 492.71)">e</text><text class="cls-8" transform="matrix(0.86, 0.52, -0.52, 0.86, 323.47, 499.17)">a</text><text class="cls-8" transform="translate(333.71 505.33) rotate(31.04)">t</text><text class="cls-8" transform="matrix(0.86, 0.52, -0.52, 0.86, 340.8, 509.59)">i</text><text class="cls-8" transform="matrix(0.86, 0.52, -0.52, 0.86, 345.81, 512.61)">v</text><text class="cls-8" transform="matrix(0.86, 0.52, -0.52, 0.86, 355.9, 518.68)">e</text><text class="cls-8" transform="matrix(0.86, 0.52, -0.52, 0.86, 366.63, 525.14)">h</text><text class="cls-8" transform="matrix(0.86, 0.52, -0.52, 0.86, 378.52, 532.3)">u</text><text class="cls-8" transform="matrix(0.86, 0.52, -0.52, 0.86, 390.34, 539.41)">b</text><path class="cls-9" d="M448,129c0,2.86-36.46,3.5-36.8,6.26s34.92,12.12,34.25,14.83-36.22-5.35-37.22-2.73,31,20.15,29.67,22.64S404.06,156,402.46,158.35s25.25,27,23.39,29.09-29.57-21.6-31.68-19.73,18.11,32.21,15.79,33.81-23.56-28-26.06-26.71,9.88,35.61,7.23,36.61-16.12-32.87-18.87-32.2,1,36.94-1.8,37.28-7.75-35.78-10.61-35.78S352,216.83,349.24,216.5s.92-36.61-1.79-37.28-16.26,33.19-18.88,32.2,9.72-35.31,7.24-36.61-23.75,28.31-26.06,26.71,17.89-32,15.79-33.81-29.81,21.83-31.68,19.73,25-26.77,23.38-29.09S283.09,172.46,281.77,170s30.68-20,29.67-22.64-36.54,5.49-37.22,2.73,34.59-12,34.25-14.83-36.79-3.4-36.79-6.26,36.46-3.5,36.79-6.26-34.91-12.12-34.25-14.83,36.23,5.35,37.22,2.73-31-20.15-29.67-22.64,33.88,13.92,35.47,11.61-25.25-27-23.38-29.08,29.57,21.6,31.68,19.73S307.43,58,309.75,56.4s23.56,28,26.06,26.71-9.88-35.6-7.23-36.61,16.11,32.88,18.87,32.2-1-36.94,1.79-37.28S357,77.21,359.85,77.21s7.85-36.12,10.61-35.79-.92,36.61,1.8,37.28,16.25-33.19,18.87-32.2-9.72,35.31-7.23,36.61S407.65,54.8,410,56.4s-17.9,31.95-15.79,33.82S424,68.38,425.85,70.49s-25,26.76-23.39,29.08S436.62,85.46,437.93,88s-30.67,20-29.67,22.64,36.55-5.5,37.22-2.74-34.59,12-34.25,14.83S448,126.11,448,129Z"/><path class="cls-5" d="M448,129c0,2.86-36.46,3.5-36.8,6.26s34.92,12.12,34.25,14.83-36.22-5.35-37.22-2.73,31,20.15,29.67,22.64S404.06,156,402.46,158.35s25.25,27,23.39,29.09-29.57-21.6-31.68-19.73,18.11,32.21,15.79,33.81-23.56-28-26.06-26.71,9.88,35.61,7.23,36.61-16.12-32.87-18.87-32.2,1,36.94-1.8,37.28-7.75-35.78-10.61-35.78S352,216.83,349.24,216.5s.92-36.61-1.79-37.28-16.26,33.19-18.88,32.2,9.72-35.31,7.24-36.61-23.75,28.31-26.06,26.71,17.89-32,15.79-33.81-29.81,21.83-31.68,19.73,25-26.77,23.38-29.09S283.09,172.46,281.77,170s30.68-20,29.67-22.64-36.54,5.49-37.22,2.73,34.59-12,34.25-14.83-36.79-3.4-36.79-6.26,36.46-3.5,36.79-6.26-34.91-12.12-34.25-14.83,36.23,5.35,37.22,2.73-31-20.15-29.67-22.64,33.88,13.92,35.47,11.61-25.25-27-23.38-29.08,29.57,21.6,31.68,19.73S307.43,58,309.75,56.4s23.56,28,26.06,26.71-9.88-35.6-7.23-36.61,16.11,32.88,18.87,32.2-1-36.94,1.79-37.28S357,77.21,359.85,77.21s7.85-36.12,10.61-35.79-.92,36.61,1.8,37.28,16.25-33.19,18.87-32.2-9.72,35.31-7.23,36.61S407.65,54.8,410,56.4s-17.9,31.95-15.79,33.82S424,68.38,425.85,70.49s-25,26.76-23.39,29.08S436.62,85.46,437.93,88s-30.67,20-29.67,22.64,36.55-5.5,37.22-2.74-34.59,12-34.25,14.83S448,126.11,448,129Z"/><text class="cls-10" transform="translate(79 155.61)">the m<tspan class="cls-11" x="60.82" y="0">a</tspan><tspan class="cls-12" x="72.77" y="0">t</tspan><tspan class="cls-13" x="80.9" y="0">ch</tspan><tspan x="0" y="30">th</tspan><tspan class="cls-11" x="22.15" y="30">a</tspan><tspan x="34.1" y="30">t </tspan><tspan class="cls-14" x="47.67" y="30">sta</tspan><tspan class="cls-15" x="77.9" y="30">r</tspan><tspan class="cls-14" x="86.67" y="30">ts</tspan><tspan x="104.85" y="30"> </tspan><tspan x="0" y="60">the fi</tspan><tspan class="cls-16" x="53.05" y="60">r</tspan><tspan x="60.97" y="60">e</tspan></text></g></g></svg>