<svg xmlns="http://www.w3.org/2000/svg" viewBox="0 0 1000 1000">
  <g id="Capa_2" data-name="Capa 2">
    <g id="Layer_1" data-name="Layer 1">
      <path d="M603.37,279.31a5.76,5.76,0,0,1-4.22-1.88c-4-4.35-15.69-15.11-37.91-19.91-28.21-6.11-38-18.17-37.37-30.87s16-15,28.29-15.21c10.09-.19,65.16,12.19,86.57,16.42,8.88,1.75,10.47,9.72,8.55,13L626,276.54a5.67,5.67,0,0,1-4.87,2.77Z" fill="#f47f6b"/>
      <rect width="1000" height="1000" fill="#f8eee2"/>
      <g>
        <path d="M659.9,369.59a5.64,5.64,0,0,1,1.5,6.87c-6.13,12.3-21.28,49.64,10.32,66.88,38.13,20.81,68.09,44.42,89,24.44,20.06-19.19,52.68-74.4,55.22-78.72a4.15,4.15,0,0,0,.32-.63c1.38-3.23,10.43-27.4-18.32-46.85-20.45-13.84-35.33-19.31-55.46-41-10.24-11-21.85-26.26-36.24-48.92C663.54,184.5,642.66,184.5,611.79,180s-68.1-9.08-84.44,23.61c-15.45,30.9-49.31,61.55-14,69.14a5.65,5.65,0,0,1,4.11,7.54c-4.63,12-12.13,37.18,2.91,44.28a5.7,5.7,0,0,1,3.15,6.85c-2.92,9.22-6.24,27.47,12,30.17,24.52,3.63,8.17-45.4,46.31-42.67,23.88,1.7,34.94,2.34,39.88,2.58a5.61,5.61,0,0,1,4.95,3.52A115.07,115.07,0,0,0,659.9,369.59Z" fill="#f47f6b" stroke="#31302e" stroke-miterlimit="10" stroke-width="1.5"/>
        <path d="M336.78,413.42,696.72,123.3a8.46,8.46,0,0,1,10.62,13.18S342.23,420.26,342.21,420.28c-4.29,3.27-10-2.9-5.43-6.86Z" fill="#e65a41" stroke="#31302e" stroke-miterlimit="10" stroke-width="1.5"/>
        <path d="M357.15,439.83,726.28,161.49A8.47,8.47,0,1,1,736.47,175S362.38,446.83,362.36,446.86c-4.39,3.12-9.87-3.23-5.21-7Z" fill="#e65a41" stroke="#31302e" stroke-miterlimit="10" stroke-width="1.5"/>
        <path d="M737.24,294.74s27.53,18.75,9.13,52.86c-17.54,32.5-32.23,52.66-35.08,56.61-.16.22-23.42,14.73-23.61,14.92-2.28,2.36-15.83,9.42-25,17.61" fill="#f47f6b" stroke="#31302e" stroke-miterlimit="10" stroke-width="1.5"/>
        <path d="M663.27,373c.26.13.51.28.75.43l46.06,27.74a2.68,2.68,0,0,1,1.39,1.44,2.58,2.58,0,0,1-.39,1.73,62.09,62.09,0,0,1-38.21,31.89,19,19,0,0,1-8,.91c-12.55-1.9-15.4-16.83-15.62-27.11a62.91,62.91,0,0,1,9.81-35.21c.65-1,1.51-2.11,2.71-2.18A2.9,2.9,0,0,1,663.27,373Z" fill="#e65a41" stroke="#31302e" stroke-miterlimit="10" stroke-width="1.5"/>
        <path d="M662.12,227.34,570,210.45s-29-5.07-29,14.91,15.44,26.33,31.78,31.78,49,2.72,52.66,64.46" fill="#f47f6b" stroke="#31302e" stroke-miterlimit="10" stroke-width="1.5"/>
        <path d="M818.67,694.61a43.08,43.08,0,0,0,0-13.41v-.5l-.09-.05a43.54,43.54,0,0,0-43-36.38H324a43.7,43.7,0,0,0-35.27,18l-99.38,129c-.17.23-.34.45-.5.68a43.44,43.44,0,0,0-7.52,31.94,5.58,5.58,0,0,0,0,1.08l3.95,30.16c0,.63-.09,1.25-.09,1.88a21.57,21.57,0,0,0,21.56,21.57H688.53a43.69,43.69,0,0,0,35.31-18L814.76,737.2a21.45,21.45,0,0,0,3.91-16.27ZM301.41,716.46c.71-.83,2.73-3.42,5.31-6.77a58.11,58.11,0,0,1,39.41-22.29H761a9.31,9.31,0,0,1,5.43,13.89l-8.09,13h0l-49.59,73.65-.06-.16c0-.17-2.38,2.87-5.61,7.07a58.1,58.1,0,0,1-46,22.68H636.31l0,.12H259.75l.07-.09H242.69a9.31,9.31,0,0,1-7.9-14.23l1.21-2Z" fill="#8590c8" stroke="#31302e" stroke-miterlimit="10" stroke-width="1.5"/>
        <path d="M572.87,795.93H496.78a6,6,0,0,1-4.66-9.64l69-87.3a5.93,5.93,0,0,1,4.66-2.26h76.09a6,6,0,0,1,4.67,9.64l-69,87.3A6,6,0,0,1,572.87,795.93Z" fill="#fbb04b"/>
        <line x1="680.4" y1="703.23" x2="611.52" y2="790.36" fill="none" stroke="#fbb04b" stroke-linecap="round" stroke-linejoin="round" stroke-width="9"/>
        <line x1="708.84" y1="703.23" x2="639.97" y2="790.36" fill="none" stroke="#fbb04b" stroke-linecap="round" stroke-linejoin="round" stroke-width="9"/>
        <line x1="506.38" y1="700.23" x2="437.51" y2="787.36" fill="none" stroke="#fbb04b" stroke-linecap="round" stroke-linejoin="round" stroke-width="9"/>
        <line x1="477.29" y1="700.23" x2="408.42" y2="787.36" fill="none" stroke="#fbb04b" stroke-linecap="round" stroke-linejoin="round" stroke-width="9"/>
        <line x1="532.87" y1="700.23" x2="464" y2="787.36" fill="none" stroke="#fbb04b" stroke-linecap="round" stroke-linejoin="round" stroke-width="9"/>
        <path d="M282.61,795.93s87.6-72.38,77.14-173.87c-10.61-103-18.39-206.68,7.05-226.82,33.6-26.59,89.79-71.47,78.2,21.61s9,106.11-5.15,105.88-17.12-51.6-14.14-79.39,8-45.42,0-51.42" fill="none" stroke="#fbb04b" stroke-linecap="round" stroke-linejoin="round" stroke-width="9"/>
        <path d="M378.84,389.75c-15.12,32.16-14.26,73.33-10.6,138.31,1.37,24.28,3.81,50.86,6.53,80.56,1.86,20.36,6.9,42.68,2.05,62.88a269.07,269.07,0,0,1-7.75,26.08C359.13,726,345,753.24,326,776.68a202.87,202.87,0,0,1-17.71,19.25" fill="none" stroke="#fbb04b" stroke-linecap="round" stroke-linejoin="round" stroke-width="9"/>
        <path d="M414.28,363.68c-34.37,38.27-29.86,77.38-30,116-.18,64.74,12.95,168,13.51,172.25,2.07,15.83-2.79,31.92-7.5,46.87-9,28.64-22.69,56.13-41.68,79.49a190.37,190.37,0,0,1-16.29,17.66" fill="none" stroke="#fbb04b" stroke-linecap="round" stroke-linejoin="round" stroke-width="9"/>
        <path d="M440.37,374.26c-61.53,24.56-27.29,268.68-26.09,275.37,3.45,19.21-3,42.4-8.64,60.58-9.4,30.52-25.05,59.42-47.61,82.24q-1.75,1.77-3.55,3.48" fill="none" stroke="#fbb04b" stroke-linecap="round" stroke-linejoin="round" stroke-width="9"/>
        <path d="M347.2,459.42s7-65,79.81-98.66l-17.81,4.66-30,21-20,17-9,21Z" fill="#fbb04b"/>
        <path d="M425.4,446.52l-2.7,8.4c-3,6-11.32,5.85-16.89,2" fill="none" stroke="#fbb04b" stroke-miterlimit="10" stroke-width="9"/>
      </g>
    </g>
  </g>
</svg>
