<svg xmlns="http://www.w3.org/2000/svg" viewBox="0 0 891.85 891.85">
  <defs>
    <style>
      .cls-1 {
        fill: #f8eee2;
      }

      .cls-2 {
        fill: #e65a41;
      }

      .cls-2, .cls-3 {
        stroke: #31302e;
        stroke-miterlimit: 10;
        stroke-width: 1.5px;
      }

      .cls-3 {
        fill: #f47f6b;
      }
    </style>
  </defs>
  <g id="Capa_2" data-name="Capa 2">
    <g id="Layer_1" data-name="Layer 1">
      <rect class="cls-1" width="891.85" height="891.85"/>
      <g>
        <g>
          <path class="cls-2" d="M509.34,338a284.12,284.12,0,0,1,0,186.74,283,283,0,0,0,153.5-93.37A283,283,0,0,0,509.34,338Z"/>
          <path class="cls-2" d="M383.94,338a283,283,0,0,0-153.5,93.37,283,283,0,0,0,153.5,93.37,284.12,284.12,0,0,1,0-186.74Z"/>
          <circle class="cls-2" cx="446.64" cy="431.4" r="43.05" transform="translate(-29.46 32.75) rotate(-4.07)"/>
        </g>
        <g>
          <path class="cls-3" d="M278.07,520.2c-12.72-5.52-25.82-9.68-39.61-10.28-31.48-1.37-62.17,17.39-78.2,44.51s-18.08,61.3-8.68,91.36c17.66,56.45,68.21,91.77,120.64,113,42.12,17.08,87.37,25.84,132.66,28.33,70.82,3.88,141.64-7,211.12-21.3,2.35-.49,4.84-1.05,6.55-2.73,3.89-3.83,1.26-10.66-2.8-14.31-8.72-7.83-21.55-8.54-33.28-8.39-42.32.55-84.38,6.88-126.68,8.37s-85.87-2.15-124.08-20.36c155.78,37.53,315.71-15,427.64-120.08,2.69-2.52,5.5-5.37,5.95-9,.78-6.31-6.3-11.29-12.64-10.89s-11.81,4.35-16.95,8.07C662.32,652.63,565,693,486.41,703.16c-5.8.75-22.85,3.78-21.47-1.91.84-3.49,5.19-4.58,8.76-5A505.83,505.83,0,0,0,748.48,567.59c2.79-2.58,5.73-5.5,6.21-9.27.81-6.42-6.36-11.53-12.81-11.17s-12.06,4.33-17.31,8.11c-75.07,54-161.78,96.56-254.12,101.32a7.39,7.39,0,0,1-4-.54c-2.8-1.56-2.31-6.11.13-8.2s5.88-2.39,9.08-2.64A422.58,422.58,0,0,0,724,538c2.44-2.21,5-4.77,5.29-8,.4-4.77-6.83-10.69-11.61-10.89s-10.11.07-14.08,2.76c-70.23,47.53-137.83,87.06-223,93.88-1.76.14-12.17.42-13.65-.55-2.86-1.85-4.58-4.29-2-6.49s6.26-2.39,9.63-2.89c66.49-9.87,135.68-36.41,196.21-76.62,4.56-3,8.88-7,10.64-12.2s-.6-12.15-6-13.25c-2.86-.59-5.77.56-8.47,1.71-72.09,30.73-143.34,73.61-221.68,71.5-48.13-1.29-94.15-19.79-137-41.8C298.41,530,288.37,524.67,278.07,520.2Z"/>
          <path class="cls-3" d="M616.44,342.6c12.71,5.52,25.82,9.68,39.61,10.28,31.47,1.37,62.17-17.39,78.19-44.51s18.09-61.3,8.68-91.36c-17.66-56.45-68.21-91.77-120.63-113-42.12-17.08-87.37-25.84-132.66-28.33C418.8,71.78,348,82.67,278.51,97c-2.35.49-4.84,1.05-6.55,2.73-3.89,3.83-1.27,10.66,2.79,14.31,8.72,7.83,21.56,8.54,33.28,8.39,42.33-.55,84.38-6.88,126.68-8.37s85.87,2.15,124.08,20.36c-155.78-37.53-315.7,15-427.64,120.08-2.68,2.52-5.49,5.37-5.94,9-.78,6.31,6.29,11.29,12.63,10.89s11.82-4.35,17-8.07c77.38-56.13,174.74-96.53,253.29-106.66,5.8-.75,22.86-3.78,21.48,1.91-.85,3.49-5.2,4.58-8.77,5A505.86,505.86,0,0,0,146,295.21c-2.79,2.58-5.72,5.5-6.2,9.27-.81,6.42,6.35,11.53,12.81,11.17s12.06-4.33,17.31-8.11C245,253.57,331.71,211,424.05,206.21a7.49,7.49,0,0,1,4,.55c2.81,1.56,2.32,6.11-.12,8.2s-5.89,2.39-9.08,2.64A422.55,422.55,0,0,0,170.54,324.76c-2.44,2.21-5,4.77-5.29,8.05-.41,4.77,6.82,10.69,11.61,10.88s10.1-.06,14.07-2.75c70.24-47.53,137.83-87.06,223-93.88,1.75-.14,12.17-.42,13.65.55,2.85,1.85,4.58,4.29,2,6.49s-6.25,2.39-9.62,2.89c-66.49,9.87-135.69,36.41-196.21,76.62-4.57,3-8.88,7-10.65,12.2s.6,12.15,6,13.25c2.87.59,5.78-.56,8.47-1.71,72.09-30.73,143.35-73.61,221.68-71.5,48.13,1.29,94.15,19.79,137,41.8C596.1,332.76,606.14,338.13,616.44,342.6Z"/>
        </g>
      </g>
    </g>
  </g>
</svg>
