<svg xmlns="http://www.w3.org/2000/svg" viewBox="0 0 212.71 149.68">
  <defs>
    <style>
      .cls-1 {
        fill: #31302e;
        fill-rule: evenodd;
      }
    </style>
  </defs>
  <g id="Capa_2" data-name="Capa 2">
    <g id="Layer_1" data-name="Layer 1">
      <path class="cls-1" d="M146.53,121.14V65.31l-1.87-1.87L106.39,25.15,68.1,63.44l-1.87,1.87v55.83H79V70.59l27.4-27.4,27.39,27.4v50.55ZM0,24.37v18L28.18,70.59v50.55H40.94V65.31l-1.87-1.87L0,24.37ZM171.8,65.31v55.83h12.75V70.59l28.16-28.18v-18l-39,39.07-1.87,1.87ZM53.2,36.9A18.45,18.45,0,1,0,34.75,18.45,18.45,18.45,0,0,0,53.2,36.9Zm106.35,0a18.45,18.45,0,1,0-18.43-18.45A18.44,18.44,0,0,0,159.55,36.9Zm-.05,17L106.39.78,53.25,53.92,0,.67v18L46.87,65.59v55.55H59.63V65.59l46.76-46.77,46.73,46.77v55.55h12.75V65.59l46.84-46.88V.67L159.5,53.92ZM.23,149.18H6.61V128.36H.23v20.82Zm30.44-6.85h-.1l-12.07-14H12.18v20.82h6V135.24h.08l12.05,13.94h6.36V128.36h-6v14Zm11.54,6.85h6.38v-8.62H60.7V137H48.59v-4.84h14v-3.83H42.21v20.82ZM89.68,131a13.67,13.67,0,0,0-4.46-2.34,21.78,21.78,0,0,0-12,0A13.68,13.68,0,0,0,68.76,131a10.4,10.4,0,0,0-2.79,3.5,9.74,9.74,0,0,0-1,4.33,9.44,9.44,0,0,0,1,4.25,10.19,10.19,0,0,0,2.79,3.44,13.61,13.61,0,0,0,4.48,2.29,22,22,0,0,0,12,0,13.6,13.6,0,0,0,4.46-2.29,10.22,10.22,0,0,0,2.8-3.44,9.57,9.57,0,0,0,1-4.25,9.88,9.88,0,0,0-1-4.33,10.43,10.43,0,0,0-2.8-3.5Zm-3,10.38a6.21,6.21,0,0,1-1.36,2.23,6.56,6.56,0,0,1-2.43,1.6,11.34,11.34,0,0,1-7.28,0,6.56,6.56,0,0,1-2.43-1.6,6,6,0,0,1-1.35-2.23,7.69,7.69,0,0,1-.43-2.56,8.24,8.24,0,0,1,.43-2.66,6.16,6.16,0,0,1,1.35-2.3,6.58,6.58,0,0,1,2.43-1.61,11.34,11.34,0,0,1,7.28,0,6.58,6.58,0,0,1,2.43,1.61,6.32,6.32,0,0,1,1.36,2.3,8.51,8.51,0,0,1,.42,2.66,7.94,7.94,0,0,1-.42,2.56Zm29.6.91h-.1l-12.06-14H97.77v20.82h6V135.24h.08l12,13.94h6.36V128.36h-6v14Zm45.81.67H162l-7.22-14.64h-7.32l10.5,20.82h8l10.78-20.82h-7.37L162.06,143ZM135.3,128.36l-10.38,20.82H132l7.06-14.64h.08l7,14.64h7.06l-10.13-20.82Zm43.92,20.82h6.38V128.36h-6.38v20.82Zm9.66-17h8.67v17h6.38v-17h8.67v-3.83H188.88v3.83Z"/>
    </g>
  </g>
</svg>
