<svg xmlns="http://www.w3.org/2000/svg" viewBox="0 0 568.14 655.98"><defs><style>.cls-1{fill:#fbb04b;}.cls-1,.cls-3,.cls-4,.cls-5,.cls-6{stroke:#31302e;stroke-miterlimit:10;}.cls-1,.cls-3,.cls-6{stroke-width:1.5px;}.cls-2,.cls-7,.cls-8{fill:#31302e;}.cls-3{fill:#8590c8;}.cls-4{fill:#f47f6b;}.cls-4,.cls-5{stroke-width:2px;}.cls-5{fill:none;}.cls-6{fill:#f8eee2;}.cls-7,.cls-8{font-size:72px;font-weight:600;}.cls-7{font-family:NotoSerifDisplayCondensed-SemiBold, Noto Serif Display Condensed;}.cls-8{font-family:NotoSerifDisplay-SemiBoldItalic, Noto Serif Display;font-style:italic;}</style></defs><g id="Capa_2" data-name="Capa 2"><g id="Layer_1" data-name="Layer 1"><rect class="cls-1" x="1" y="0.75" width="566.39" height="654.48"/><polygon class="cls-2" points="394.7 488.92 489.93 488.92 429.99 299.43 388.9 488.92 394.7 488.92"/><path class="cls-3" d="M392.65,516,420,371.46l54.07-257.39H183.69L106.58,514Z"/><path class="cls-4" d="M277.6,161.1s8.8-19.8,22.66-16.94,8.34,31.24,8.34,31.24l-11.74,21.3-21-12.28Z"/><path class="cls-4" d="M302.11,166.84s8.8-19.81,22.66-17,8.34,31.24,8.34,31.24l-11.74,21.3-21-12.28Z"/><g id="Layer_2" data-name="Layer 2"><path class="cls-4" d="M326.33,181.42l1.38-1.64c3.1-3.67,6.23-7.37,10.05-10.27,3.2-2.42,7.38-4.29,11.15-2.92s5.68,5.24,6.67,9c1.86,7,1.33,14.43.71,21.67-1.52,17.82-3.5,35.64-7.34,53.11a5.85,5.85,0,0,1-.86,2.27,5.62,5.62,0,0,1-1.37,1.15,181.76,181.76,0,0,1-23.82,13.65c-2.16,1-7.06,3.31-9.18,1.12s-1.54-8.25-1.56-10.91c-.18-20.08,1.29-40.14,2.76-60.17a6.64,6.64,0,0,1,2.07-5Z"/></g><path class="cls-4" d="M340.38,234.69l.83-2c2.15-5.27,4.4-10.68,8.4-14.74s10.21-6.48,15.51-4.39c4.61,1.81,7.5,6.6,8.39,11.47s.12,9.87-.65,14.76q-5.42,34.16-10.82,68.32c-1.75,11.05-3.37,23,1.74,32.94,5,9.71,15.35,15.41,25.64,19.05s21.36,8.64,30.62,11.38L392.65,516c0-2.45-30.39-13.67-33.9-15.25l-35.32-15.88-35.31-15.89-16.95-7.62c-3.68-1.66-16.35-4.93-18.31-8.23-3.24-5.44,9.33-27.2,12-33.71l14.68-35.91,29.37-71.8Z"/><path class="cls-4" d="M1,650.49C72.32,603.87,152.57,554,246.91,491.27c14.35-9.56,45.85-25.83,51.82-72.66.66-5.19,9-89,31.77-141.7,6.11-14.15,15.34-30.19,8.22-43.86-2.27-4.37-5.79-7.31-12.67-4.67l8.73-25.48c1.18-3.46,2.39-7.09,1.81-10.71-1.47-9.21-16.82-10.24-23-3-.18-6.9,1.37-14.88-4.17-19.57-8.82-7.47-19.31,1.39-27.86,11.44,5.06-5.41,4.9-22.59-8.16-21.3-8.05.79-16.22,7.52-21.48,13.67-19.07,22.29-33,49.23-42.29,77.07-1.06-5.65-1.41-15.28-3.42-20.52-4.45-11.61-15.66-11.94-20.56,1.65-8.15,22.6-10.35,47-12.65,70.75-.92,9.47-2.45,16.76-3.24,26.25-1.51,18.44-10.6,32.38-24.28,44.85s-31.16,19.59-47.14,28.92C63.75,422.56,33.15,438.72,1,454.76Z"/><path class="cls-5" d="M330.5,276.91c4.4-10.17,10.39-21.32,10.78-31.86a23.65,23.65,0,0,0-2.56-12c-10.9-21-35,22.2-38.39,28.79-12,23-18.59,48.67-22.26,74.26"/><path class="cls-5" d="M326.05,228.38l8.73-25.48c1.18-3.46,2.39-7.09,1.81-10.71-1.47-9.21-16.82-10.24-23-3,0,0-65.35,83.52-62.07,152"/><path class="cls-5" d="M313.57,189.18c-.18-6.9,1.37-14.88-4.17-19.57-27.11-23-77.1,103.1-80.66,115.57-4.15,14.55-6.88,29.72-6.38,44.9"/><path class="cls-5" d="M281.38,181.44c5.06-5.4,5.06-23-8-21.69-8.05.79-16.22,7.52-21.48,13.67-19.07,22.29-48.52,73.73-58.07,141.84"/><path class="cls-6" d="M317.71,202.43c1.88.09,3.48-1.28,4.8-2.62,2.31-2.34,7.3-7,6.44-10.72s-4.25-3.61-7-2.4C317.91,188.46,308.25,202,317.71,202.43Z"/><path class="cls-6" d="M320.92,248.44a3.58,3.58,0,0,0,2.44,1,8.35,8.35,0,0,0,7-3.64c2.61-3.52,5.38-13.12-2.15-10.8C324.59,236.13,317.59,244.72,320.92,248.44Z"/><path class="cls-6" d="M291.19,178.6c-.3,2.53.8,5.37,3.1,6.45a6.35,6.35,0,0,0,5.79-.55,15.05,15.05,0,0,0,4.27-4.22,11.23,11.23,0,0,0,1.64-2.82c1.44-4-2-9.29-6.53-8.9C295.39,168.91,291.64,174.93,291.19,178.6Z"/><path class="cls-6" d="M262.84,177.76a4.89,4.89,0,0,0,5,1.92c5-.86,14.52-11.08,7.29-14.77C268.94,161.77,259.4,172.24,262.84,177.76Z"/><path class="cls-6" d="M192.37,239.16a17.27,17.27,0,0,0,2.86-5.27,31.52,31.52,0,0,0,1.69-8.26,3.62,3.62,0,0,0-.72-2.93c-.88-.82-2.28-.53-3.35,0a14.38,14.38,0,0,0-6.41,7.05c-1.16,2.5-4.72,10.37-1.32,12.06a4.36,4.36,0,0,0,3.06.18A8.31,8.31,0,0,0,192.37,239.16Z"/><text class="cls-7" transform="translate(53.79 78.14)">Nuestros</text><text class="cls-8" transform="translate(222.3 616.7)">Clientes</text></g></g></svg>