<svg xmlns="http://www.w3.org/2000/svg" viewBox="0 0 322.45 162.5">
  <defs>
    <style>
      .cls-1, .cls-2, .cls-3 {
        fill: #31302e;
      }

      .cls-2, .cls-3 {
        opacity: 0.4;
      }

      .cls-3 {
        fill-rule: evenodd;
      }
    </style>
  </defs>
  <g id="Capa_2" data-name="Capa 2">
    <g id="Layer_1" data-name="Layer 1">
      <g>
        <g>
          <path class="cls-1" d="M289.82,89.21c-7.85-.78-31.08,9.41-28.76,33.06,3,24,27.55,28,33.85,26.55,9.85-.21,27.46-11,27.54-30.59C322.45,118.23,322,87.65,289.82,89.21Zm2.94,55.17s-18-.08-20-23.31c-3.2-25.82,16-27.29,16-27.29s18.64-2.58,21.06,24.27C308.8,146.55,292.76,144.38,292.76,144.38Z"/>
          <path class="cls-1" d="M125.53,97.72v41.66c-.23,6.25-8.92,6.25-8.92,6.25v1.86h27.45V145.4c-10.19-.23-9.5-5.67-9.5-5.67V97.13c0-4.16,8.8-5.09,8.8-5.09v-2h-27.2v2C125.76,92.16,125.53,97.72,125.53,97.72Z"/>
          <path class="cls-1" d="M119.47,152.87C115.28,151.14,103,140.2,93,120.06c12-5.82,10.66-13.9,10.85-16.32s-2.35-12.68-18.94-13.66h-25V92s8.75.09,8.75,6.52v40.1s-.08,7.5-8.75,6.92v1.94H87v-1.94s-9.63,0-9.63-6.13v-15a25.82,25.82,0,0,0,6.77-1s11.11,22.83,26,33.59c2.52,2.09,20.65,11.38,35.68,0l-1.7-1.73S131.61,161.64,119.47,152.87ZM77.52,120.41V94.19c13.21.69,16.33,9.89,16,13.1C94.36,118.67,77.52,120.41,77.52,120.41Z"/>
          <path class="cls-1" d="M33.86,92c14.93-.51,19.27,13.29,19.27,13.29h3.13L53.13,90.62C27.35,82,11.46,95.4,10.25,96.36-10.43,114.5,5.56,139.85,11.72,143c19.19,14.67,44.54,3.56,44.54,3.56V118.79H35.77v2.92c10,.17,9.64,6.15,9.64,6.15V144.2c-19.72,5.37-33.6-12-33.69-25.88S19,93.84,33.86,92Z"/>
          <path class="cls-1" d="M232.54,92c14.94-.51,19.28,13.29,19.28,13.29h3.12l-3.12-14.68C226,82,210.15,95.4,208.94,96.36c-20.66,18.14-4.7,43.49,1.47,46.61,19.2,14.67,44.53,3.56,44.53,3.56V118.79H234.46v2.92c10,.17,9.64,6.15,9.64,6.15V144.2c-19.7,5.37-33.6-12-33.69-25.88S217.71,93.84,232.54,92Z"/>
          <path class="cls-1" d="M175.81,93.48C190,93,193,106.6,193,106.6l3.4-.61-3.14-14s-22.39-9.81-38.72,5.82c-7.38,8.16-14.06,20.93-5,37.15s29.78,15.63,42,11.39l3.9-13.47-2.34-2.33s-3.56,14.15-17.11,13.88c-1.47.09-19.18-2.08-18.76-23.09h9.91s5.64-.87,5.91,8.86h3.29s-1.47-15.63,1-20.33l-2.51-1.73s-.18,6.51-6.43,6.78H157S157.65,94.1,175.81,93.48Z"/>
        </g>
        <path class="cls-1" d="M144.91,52.85a10.35,10.35,0,0,1-2.83-7.29,10.58,10.58,0,0,1,2.64-7.45,8.66,8.66,0,0,1,6.5-2.93,8,8,0,0,1,3.31.64,8.92,8.92,0,0,1,2.87,2l.36.35,0-2.47,4.59,0,.15,19.49-4.59,0,0-2.37-.35.32a9.57,9.57,0,0,1-2.86,2,8,8,0,0,1-3.14.62,8.84,8.84,0,0,1-6.61-2.87m2.94-11.78a6.11,6.11,0,0,0-1.57,4.38,6.19,6.19,0,0,0,1.67,4.4,5.25,5.25,0,0,0,4,1.7,5.45,5.45,0,0,0,4.07-1.73,6.21,6.21,0,0,0,1.58-4.47A6,6,0,0,0,156,41a5.45,5.45,0,0,0-4.11-1.67,5.33,5.33,0,0,0-4,1.75"/>
        <path class="cls-1" d="M94.48,53.15a10.49,10.49,0,0,1,.26-14.89,9.49,9.49,0,0,1,6.61-2.7,10.19,10.19,0,0,1,8.85,5.07,10.2,10.2,0,0,1,1.37,5.1,10.5,10.5,0,0,1-1.31,5.18,9.76,9.76,0,0,1-3.64,3.79,10,10,0,0,1-5.1,1.4,9.44,9.44,0,0,1-7-3m3-11.57A6,6,0,0,0,96,45.86a6.1,6.1,0,0,0,1.59,4.33,5.2,5.2,0,0,0,4,1.64,5.26,5.26,0,0,0,4-1.71,6.72,6.72,0,0,0,0-8.62,5.55,5.55,0,0,0-7.94.08"/>
        <path class="cls-1" d="M76.06,62.79h.36a7,7,0,0,0,6.17-3.46L95,31.28h0a7,7,0,0,0-6.48,3.59L82.9,47.52l-.18-.45C78.65,37,77.48,33.69,77,32.27l-4.93,0c.21.55,8.31,21.18,8.31,21.18s-4.05,8.75-4.31,9.3"/>
        <path class="cls-1" d="M139.79,29.79s-4.5.05-4.51,4.07l.16,21.46,4.59,0-.19-25.49Z"/>
        <path class="cls-1" d="M130.72,38.22a8.35,8.35,0,0,0-6.39-2.84,7.84,7.84,0,0,0-3.23.69,9.15,9.15,0,0,0-2.79,2l-.36.36V36l-4.48,0,.2,26.7c.48,0,4.42-.28,4.45-4l0-5.57.35.33a9.49,9.49,0,0,0,2.85,2,8,8,0,0,0,3.07.57,8.52,8.52,0,0,0,6.39-3,10.47,10.47,0,0,0,2.66-7.34,10.65,10.65,0,0,0-2.67-7.4m-3,11.78h0a5.22,5.22,0,0,1-3.92,1.77,5.31,5.31,0,0,1-4-1.68,6.37,6.37,0,0,1-1.61-4.45,6.1,6.1,0,0,1,1.55-4.38,5.25,5.25,0,0,1,4-1.72,5.18,5.18,0,0,1,4,1.68,6.24,6.24,0,0,1,1.6,4.36A6.36,6.36,0,0,1,127.76,50"/>
        <path class="cls-1" d="M170.37,35.56c-.76,0-4.39.45-4.37,4.11v.11l.12,15.31,4.58,0-.15-19.5Z"/>
        <path class="cls-1" d="M183.79,35.45l-5.44,0,0-6h-.06s-4.51,0-4.48,4.11c0,.21,0,.37,0,.52l.16,20.9,4.58,0-.12-15.6H180c3-.14,3.66-2.74,3.81-3.93"/>
        <path class="cls-1" d="M166.24,34.66a1.08,1.08,0,0,1-1-.58,2.1,2.1,0,0,1,.58-1.91A5.71,5.71,0,0,1,170.2,30a1.06,1.06,0,0,1,1,.58,2,2,0,0,1-.58,1.9,5.65,5.65,0,0,1-4.34,2.21"/>
        <path class="cls-2" d="M197.9,56.11c-.31-.41-.52-1-.93-1.24-.93-.9-.34-2.11-2-2.46-.5-1.5-1.27-1-1.63-2.29-.37-.23-1-.49-1.13-.72-.05-1.63-.87-.87-1.3-1.33-.06-1.43-.82-1.07-1-1.32-.13-.64-.49-.47-.73-.66-.4-.54-.62-1.14-1.22-1.38-.2-.25-.41-.49-.62-.74-.46-.94-1-.36-1.57-.54a1,1,0,0,0-1-.78c-.55.19-.52.76-.62,1.23-5.14,1.87.2,15.52,2.48,18.07a11.62,11.62,0,0,0,6.8,3.27c.12.08.23.16.36.23a1.43,1.43,0,0,0,1.77.45c.22-.16.12-.56.23-.85a4.1,4.1,0,0,0,2.35-1.66,5.26,5.26,0,0,0,.47-4.54c.27-.88.78-1.9-.65-2.74"/>
        <path class="cls-2" d="M211.9,40a4.52,4.52,0,0,0,.43-5.2c-1.36-2.4-4.26-3.14-7.62-3a28.17,28.17,0,0,0-4.21,0,13,13,0,0,0-8.06,1.88c-.86.62-1.26-.38-2.62,1.6-.61.7-1.77.48-1.73,2-.22,1.73,1.18.77,1.66,1.92.16.53,1.15.75,2.06,1.19.7.23,1,1,2.08.65.88,1,1.87.93,2.79,1.37a4.65,4.65,0,0,0,3,.69c.57.23.81-.15,1.21.14.6.26,1-.18,1.81,0a1.76,1.76,0,0,0,1.51.31c1.05.06,1.85.59,2.6.36a9.43,9.43,0,0,0,4.65-.84l1.13-2c.1-.79-.58-.77-.73-1.08"/>
        <path class="cls-2" d="M179.14,1.37a3,3,0,0,1,2,1c2.33,2.4,1.51,10.28,1.38,13.5,0,.67-.06,1.6-.14,2.64v.84a2.19,2.19,0,0,1-.12,1.81,3,3,0,0,1-.62,1.73c-.48,1.7-1.22,3.06-2.4,3.25a2.52,2.52,0,0,1-1.74-.35,1.6,1.6,0,0,1-.71-.51,10.48,10.48,0,0,1-2.18-3.1c-1.15-.89-.82-1.94-1.35-2.9a2.68,2.68,0,0,1-.07-.62c-.08-.24-.15-.49-.24-.75a1.3,1.3,0,0,0-.69-.34c-.65-.79-.33-2-.87-2.09-.29-1.07-.89-1.91-.87-3.21a1.45,1.45,0,0,1-.29-1,2.49,2.49,0,0,1-.18-1.7,7.69,7.69,0,0,1-.37-2.37c.06-.65-.44-1.32.18-1.87l.06-.07a4,4,0,0,1,1.47-2.11,3.14,3.14,0,0,1,.39-.24A4.36,4.36,0,0,1,173,2.52c1.75-1.68,4-3.24,5.51-2.17a2.49,2.49,0,0,1,.67,1"/>
        <path class="cls-2" d="M162.47,18c-.22-.17-.45-.33-.69-.49a3.33,3.33,0,0,0-1.06-.38l-1.14-.52c-.31-.37-.68-.39-1-.69a2.24,2.24,0,0,0-1.67-.39,12.58,12.58,0,0,0-2-.58c-4.46-.77-6.86,1.79-4.71,5.12a1.61,1.61,0,0,0-.2.5c-.09.42-.17.84-.26,1.26,0,.9.7.51.75,1.75.24.48.44,1,.7,1.44.15.78.69.7,1,1.05.15.89.8.63,1.22.93l.44.25a14.79,14.79,0,0,0,2.88,1.61l1.36.77c.57.73,1.93,1,2.9,1.49a8.61,8.61,0,0,0,3.71,1.29,4.14,4.14,0,0,0,.77.32,4.12,4.12,0,0,1,.35-.54A5.71,5.71,0,0,1,170.2,30a1.06,1.06,0,0,1,1,.58s0,.06,0,.09c.07-.18.21-.5.47-1.13,2.54-4-3.53-8.57-9.18-11.53"/>
        <path class="cls-2" d="M187.59,25.8c.25.35.48.72.74,1.06s.5.5.84.29.89-.31,1.33-.49c.88.17,1.45-.58,2.17-.86a4.87,4.87,0,0,0,2.4-1.12c.76,0,1.25-.81,1.78-1.53.32-.18.64-.38,1-.58a.84.84,0,0,0,.85-.08,1,1,0,0,0,.09-.49c7.32-4.63,14.9-11.36,4-14.93-3.58-1.17-7.09,1.11-10.13,4.11a14.52,14.52,0,0,0-2.13,2.61c-.18,0-.42-.06-.51.08a.56.56,0,0,0,0,.71,15.47,15.47,0,0,0-.76,1.45c-.67-.27-.82.35-.84.92-.34.3-.62.64-.48,1.09a.63.63,0,0,1,.34.39l-.42,1.19a.33.33,0,0,0-.15.14c-.21.3-.15.7-.25,1a4.51,4.51,0,0,0-.78,2.68c-.25.8-.53,1.59-.82,2.4a5.91,5.91,0,0,0,1.78,0"/>
        <path class="cls-3" d="M152.09,58.62a92.9,92.9,0,0,1-21.24,9.21c-19.81,5.76-33.25,2.87-38-5.59C93.28,75.67,105.6,82.42,127.43,76c11.16-3.27,22.73-9.6,32.83-17.37Z"/>
        <path class="cls-2" d="M181.69,34c2.73-3.78,4.16-6.22,4.16-6.22h-.72Q182.37,31,179.64,34Z"/>
        <path class="cls-1" d="M218,22.39a3.4,3.4,0,0,1-3.47,3.43,3.41,3.41,0,1,1,0-6.82A3.39,3.39,0,0,1,218,22.39Zm-6.09,0a2.63,2.63,0,0,0,2.64,2.71,2.6,2.6,0,0,0,2.59-2.69,2.62,2.62,0,1,0-5.23,0ZM214,24.17h-.79V20.78a7,7,0,0,1,1.3-.1,2.18,2.18,0,0,1,1.18.24,1,1,0,0,1,.33.75.86.86,0,0,1-.7.78v0a1,1,0,0,1,.62.83,2.36,2.36,0,0,0,.25.85h-.85a3,3,0,0,1-.27-.83c-.06-.37-.27-.54-.7-.54H214Zm0-1.92h.37c.43,0,.78-.15.78-.5s-.22-.52-.72-.52a1.86,1.86,0,0,0-.43,0Z"/>
      </g>
    </g>
  </g>
</svg>
