<svg xmlns="http://www.w3.org/2000/svg" viewBox="0 0 229.11 147.64">
  <defs>
    <style>
      .cls-1 {
        fill: #31302e;
      }
    </style>
  </defs>
  <g id="Capa_2" data-name="Capa 2">
    <g id="Layer_1" data-name="Layer 1">
      <g>
        <path class="cls-1" d="M143.89,31.6c1.27-1.32,3.6-2.93,2.13-4.69-1.69-2-3.19.61-4.68,1.5s-2.14,3.39-4.91,2.25a78.3,78.3,0,0,0,.77-8.08c0-4.38-5.19-10.35-9.29-10.94-4.89-.71-6.42,3.3-7.45,6.47-4.09,12.58-18.36,14.75-24.38,25.3.53-6.52,1.8-12.5,2.85-18.52.33-1.87.31-4.07-2-4.89-2-.71-3.29.69-4.07,2.25-4.75,9.55-13.6,16.31-17.85,26.2-.37.85-1.06,1.92-2.92,1.14,0-7.54,3.72-14.47,4.65-22,1.55-12.78,5.37-15.46,18.72-16.69.64-.06,1.28,0,1.91-.08,1.63-.14,3.84.19,3.38-2.47A3.15,3.15,0,0,0,97,5.7c-3.17.35-6.42.43-9.45,1.27C83.83,8,81.31,8,81,3.25A3.44,3.44,0,0,0,77.55,0a2.84,2.84,0,0,0-2.84,2.21c-1.55,6.48-3.5,12.55-12.21,13.58,4.59,2.25,10.26,2.9,6,9-3.47,5.07-7.33,9.88-11,14.82-.75,1-1.42,2.39-2.94,1.7s-1-2.08-.7-3.35c1.22-5.38,2.48-10.75,3.54-16.17,1.43-7.32-2.92-11.08-9.87-8.48a12.07,12.07,0,0,0-5.31,3.39c-4.12,5.41-10.24,4.62-16.8,6.55a34.17,34.17,0,0,1,2.36-3.57c2.9-3.2,6.51-6.8,4-11.11-2.7-4.67-7.56-2.86-11.35-.84-3.42,1.83-4-1.51-6.18-3.11C6.54,19.58,4.47,35.73.24,51.19c-.82,3,.48,6.07,3.67,6.35,3.88.35,2.69-3.38,3.21-5.66C11,34.94,11.77,29.46,30,24.85c5.06-1.27,7-1.13,4.92,4.66-1.3,3.57.57,6.47,3.68,7.86s5.65-.28,7.48-3.14c.85-1.32,1.25-3.14,3.28-3.89,1,5.84-3.2,13.68,4.07,16.74C59.58,49.65,61.78,42.41,66,38c-.34,6.34-.76,11.51-.84,16.68,0,2.91-.24,6.45,3.32,7.54s5.4-1.65,7.12-4.17L87.74,40.27a14.85,14.85,0,0,1,.13,3.09c-.74,3.35-.67,6.41,2.7,8.36,4,2.31,5.57-1.84,8-3.34,1.35-.82,2.12-2.6,3.16-4a44.74,44.74,0,0,1,12.72-11.22c-.26,4.33-.48,7.85-.69,11.38-.23,3.84.5,7.61,4.21,9.26,4.22,1.89,6.2-2.12,8-4.7,3.62-5.27,7.12-10.41,13.2-13.28C141,35,142.41,33.13,143.89,31.6ZM15,25.36c-1.65.55-2.74-2.67-.55-7.81S26.52,8.24,26.52,8.24c3-1.44,2.6,1.92,1.92,4S16.59,24.81,15,25.36Zm36.84-6.92c-.21,1.85-8.35,12.67-9.86,13.7s-4.38,3.29-2.06-3.22,8.56-11.37,8.56-11.37C52,15.16,52,16.59,51.79,18.44Zm71.59,23.89c-1.16,2.12-3.92,5.51-3.92,1.48s2.23-10.6,2.23-10.6,1.38-4.66,4-.85S124.55,40.21,123.38,42.33Zm8.06-16.85c-.11.74-1.48,5.19-2.86.63s2-8.58,2-8.58C132.5,18.59,131.55,24.73,131.44,25.48Z"/>
        <path class="cls-1" d="M229,32c-4,3.44-7.35,7.51-10.82,11.48a15.19,15.19,0,0,1-9.29,5.17c-2.16.34-4.34.49-5.76-1.6-1.27-1.86-.15-3.53.51-5.37,2.47-6.93,9-6,14.21-7.77,2.68-.89,6.76-1.15,6.81-4.68s-2.73-6.11-6.21-7.38c-5.58-2-10.37-2.19-14.73,3.27s-11.46,8.51-16,14.58c2.93-10.24,5.1-20.31,7.25-30.38C195.39,7,197.4,4,193.56,2.93c-3.17-.86-5,1.13-5.94,4.28-1.64,5.7-3.39,11.38-5.36,17a44.76,44.76,0,0,1-8.64,15.06c-.39-6.31,2.61-9.39,4-13,.49-1.3,1.94-2.75.49-4-1.29-1.12-2.81,0-4.13.63a18.62,18.62,0,0,0-8.52,9.2c-2.81,6,1.52,13.77,7.85,14,3.69.12,6.43,0,8.39,4.25,1.34,2.91,4.82,1.7,7-.61,2.42-2.57,4.77-5.21,7.57-8.27.72,5.17,1.77,9.93,6.51,11.44C213.94,56.4,230.79,42.54,229,32Zm-16.36-6.4c3.18.43,2.33,3.5,2,4.45s-4.88,1.59-5.09-1.06S212.62,25.58,212.62,25.58Z"/>
        <path class="cls-1" d="M49.28,88.5c-.26-2.37-.21-5-2.86-5.87-3.08-1-3.86,1.7-4.82,3.84-2.41,5.38-4.86,10.74-7.88,17.4-2.24-7.05-2.58-13.08-5-18.48-.83-1.82-1.63-3.47-4-3.4a4,4,0,0,0-4.19,3.17c-.79,3.07-2.26,5.85-2.83,9.07-2.58,14.66,1.48,29.22.24,43.83-.16,1.91.24,4.08,2.88,4.13s3.08-2.1,3.39-3.94c1.4-8.24.81-16.52.53-24.81-.16-4.53,0-9.07,0-15.4,1.2,2.34,1.73,3,1.89,3.73,1.42,6.62,2.72,13.28,4.2,19.89.52,2.27,1.41,5,4.1,5,3.36,0,2.68-3.11,3-5.32.77-5.8.71-11.81,5.53-16.92v6.78c0,10.43,0,20.85.06,31.28,0,2.41.53,5.21,3.53,5.05,2.84-.15,2.53-3.05,2.48-5.09C49,124.48,51.24,106.49,49.28,88.5Z"/>
        <path class="cls-1" d="M158.06,127.48c.19-13.83-2-27.52-2.35-41.31-.08-3-.19-6.77-4.86-6.91-4.18-.12-6.06,2.57-7.15,6a110.86,110.86,0,0,0-3.9,18c-1.73,12.57-5.9,24.76-5.82,37.61,0,1.34-.91,3.43,1,3.86,2.17.49,2.83-1.85,3.19-3.27,1.19-4.72,2-9.54,2.91-14.34.57-3.19,2.19-4.87,5.54-5,3.7-.11,4.57,2.28,5.13,5.23.84,4.35,1.83,8.68,2.71,13,.31,1.48.63,3.4,2.32,3.29,2.23-.13,1.25-2.17,1.25-3.54C158.05,136,158.06,131.73,158.06,127.48Zm-8.2-11.74c-.1,1.32-4.77,3.46-5.69.81S147,105.67,147,105.67C149.46,102.83,150,114.42,149.86,115.74Z"/>
        <path class="cls-1" d="M211.41,85.15c0-3.11-.69-6.39-4.41-6.7-3.18-.26-5.55,1.79-6.63,5-.41,1.21-.84,2.41-1.16,3.64-3,11.69-4.51,23.7-7.33,35.46-1.41,5.84-1.43,12.16-2.41,18.22-.24,1.46-.68,3.28,1.06,3.9,2.21.79,2.83-1.42,3.58-2.79a12.82,12.82,0,0,0,.89-3.67c.79-3.95,1.63-7.9,2.31-11.87.56-3.27,2.76-4.72,5.69-5.1,3.56-.46,4,2.52,4.69,4.91.79,2.85,1,5.87,1.87,8.69,1,3.24,1,7.12,5.16,9.69-.26-3.77-.78-6.86-.65-9.93C214.76,118,211.57,101.66,211.41,85.15Zm-5.83,30.55c-.11,1.32-4.78,3.45-5.7.81s2.85-10.88,2.85-10.88C205.17,102.79,205.68,114.38,205.58,115.7Z"/>
        <path class="cls-1" d="M181.58,109c-3-5.54-6.51-11.1-5.86-17.53,0-7.18.93-8.83,3.86-7.16,2.56,1.45,4.46,2.22,5.3-1.06.77-3-1.15-4.67-4.11-5.27-9.4-1.91-14.1,2.52-14,12,.08,10.54,5.37,19.07,9.49,28.07a26.52,26.52,0,0,1,2.32,14.25c-.29,2.64-1.56,5.53-4.06,5.95-2.89.48-1.88-3.21-3.07-4.67-2.39-2.93-3.11-9.44-7.31-8.08-3.74,1.2,0,6.3.24,9.68a19.26,19.26,0,0,0,.77,3.74c1,3.66,3.46,5.59,7.25,6.19,9.28,1.47,15.66-4.18,14.6-14C186.17,123.65,185.31,116.05,181.58,109Z"/>
        <path class="cls-1" d="M117.93,133.37c-2.51,2.78-5,6.47-9.45,4.79-4.27-1.61-5.46-5.47-5.58-9.83-.39-13.74,4.16-26.31,9.18-38.72,1.94-4.79,5.53-6.74,10.44-3,.72-6.54-1.27-8.57-6.67-7.41-3.1.66-5.13,2.68-7,5.13-7.44,9.81-10.35,21.14-12.07,33.09-1.26,8.81-.76,16.94,4.67,24.24,4.38,5.89,13.27,6.65,17.74,1.08,7-8.71,11.85-18.48,12.12-30.88a35.56,35.56,0,0,0-7.2,10.42C122.28,126.13,120.81,130.17,117.93,133.37Z"/>
        <path class="cls-1" d="M66.85,81.06c-2.07-1-4.13-.21-6.1.74-1.38.67-2,1.62-1.15,3a5.75,5.75,0,0,1,1.23,4.12c-2,13.26-1.7,26.63-2,40-.14,5.4,1.11,11-1.37,16.28-1.26,2.71,1.46,2.17,3.12,2.47,2.93-.94,7.06-.77,4.43-6.28-.92-1.93-.51-4.63-.27-6.93,1.39-13.34,1.12-26.73,1.15-40.1,0-3.37-.41-6.82,1.31-10C67.76,83.21,68.42,81.79,66.85,81.06Z"/>
      </g>
    </g>
  </g>
</svg>
