<svg xmlns="http://www.w3.org/2000/svg" viewBox="0 0 248.93 168.94">
  <defs>
    <style>
      .cls-1 {
        fill: #31302e;
        fill-rule: evenodd;
      }
    </style>
  </defs>
  <g id="Capa_2" data-name="Capa 2">
    <g id="Layer_1" data-name="Layer 1">
      <g>
        <polygon class="cls-1" points="60.87 71.55 35.86 58.12 38.46 53.5 63.39 66.84 60.87 71.55 60.87 71.55"/>
        <path class="cls-1" d="M65.41,63.12,67,60.17A12.93,12.93,0,0,0,68.15,50c-2-7.91-11.56-12.8-19.08-9.49-4.21,1.59-7,5.28-8.58,9.35l4.91,2.66a17.91,17.91,0,0,1,4.16-5.7C54,43.55,60.64,46,62.55,51a21.26,21.26,0,0,1,.27,4.36,31.41,31.41,0,0,1-2.38,5.13l5,2.66Z"/>
        <path class="cls-1" d="M68.5,24.92,67,27.53A11.73,11.73,0,0,0,67,33.86c1.63,4.77,7.8,7.51,12.29,5l3.79,4.84a33,33,0,0,1-4.36,1.63c-8.16,2.08-17-4.29-18-12.58a18.23,18.23,0,0,1,1.11-8.08,35.92,35.92,0,0,1,3-4.35l3.58,4.63Z"/>
        <path class="cls-1" d="M82.55,36.16l1.68-2.52a10.45,10.45,0,0,0,0-6.19c-1.58-4.85-7.82-7.6-12.36-5.11l-3.58-4.57a23.32,23.32,0,0,1,2.33-1.33c7.82-3.1,17.4,2,19.37,10.11a18.84,18.84,0,0,1,.06,8,16,16,0,0,1-3.72,6.39l-3.78-4.76Z"/>
        <path class="cls-1" d="M104.59,25.7c-1.68.29-3.16-.59-4.7-1.12a9.51,9.51,0,0,1-4.14-11.11,10.75,10.75,0,0,1,4.14-4.83L98.47,2.88l-1.32.62-1.4.85a15.79,15.79,0,0,0-6.19,14.33,18.28,18.28,0,0,0,3.31,7.43,14.84,14.84,0,0,0,13.27,5.35l-1.55-5.76Z"/>
        <path class="cls-1" d="M104,7.53a8.24,8.24,0,0,1,3.45.41,6.28,6.28,0,0,1,2,1.19l3.65-4.57c-1.63-1.47-3.76-2-5.76-2.73-1.6,0-3.27-.47-4.84,0L104,7.53Z"/>
        <path class="cls-1" d="M112.53,20.71c-.73,1.62-2.16,2.67-3.46,3.79l-.49.22,1.55,5.54,1.2-.35c2.77-1.76,5.38-4.06,6.66-7.16l-5.46-2Z"/>
        <polygon class="cls-1" points="118.83 28.23 121.79 0 127.12 0.57 124.18 28.8 118.83 28.23 118.83 28.23"/>
        <polygon class="cls-1" points="137.22 12.5 146.08 2.6 139.48 1.83 134.35 7.88 137.22 12.5 137.22 12.5"/>
        <polygon class="cls-1" points="131.48 10.89 144.05 30.89 137.22 30.05 127.76 15.02 131.48 10.89 131.48 10.89"/>
        <polygon class="cls-1" points="145.24 31.25 158.58 6.25 163.2 8.77 149.86 33.78 145.24 31.25 145.24 31.25"/>
        <polygon class="cls-1" points="173.66 20.71 164.12 15.65 166.65 10.76 176.19 15.81 173.66 20.71 173.66 20.71"/>
        <polygon class="cls-1" points="168.39 30.54 158.85 25.49 161.38 20.57 170.92 25.62 168.39 30.54 168.39 30.54"/>
        <polygon class="cls-1" points="163.14 40.29 153.58 35.24 156.12 30.32 165.67 35.38 163.14 40.29 163.14 40.29"/>
        <polygon class="cls-1" points="164.75 42.2 185.1 22.55 188.82 26.41 168.47 46.05 164.75 42.2 164.75 42.2"/>
        <path class="cls-1" d="M179.7,41.22l2.82,2.88c3.7,3.75,10.59,2.52,12.83-2.26l.92-2.93.08-1.2-.49-3a15,15,0,0,0-4.43-5.4l-3.93,3.92,2,2.11a3.94,3.94,0,0,1,1.41,2.39l-.43,1.34-1,1-1.41.41c-2-.29-3-2-4.41-3.21l-4,4Z"/>
        <polygon class="cls-1" points="179.15 57.85 183.55 48.23 181.6 47.04 179.15 45.08 175.13 53.56 179.15 57.85 179.15 57.85"/>
        <path class="cls-1" d="M203.5,58.42l.84-.85.35-1.33-.35-1.32-.9-1-1.35-.35-1.26.35-1,1a5,5,0,0,0-.29,2.52L194,57.36a10.09,10.09,0,0,1,1.28-6c2.71-4.45,9.75-5,13-.84a11,11,0,0,1,2.09,5.7l-.06,1a8.36,8.36,0,0,1-5.05,6.8l-1.76-5.6Z"/>
        <path class="cls-1" d="M187.09,52.66l-.65.21A9.7,9.7,0,0,0,181.87,64c1.49,5.37,8.23,8.43,13.2,5.76a10.14,10.14,0,0,0,5.41-8.15l-5.76-.22L194.17,63l-1.34,1.41-1.89.49-1.82-.49L187.71,63l-.49-1.82.49-1.9L189.12,58l-2-5.33Z"/>
        <path class="cls-1" d="M130.13,43l2.69,2.74.41-1.68a17.92,17.92,0,0,0-.41-4.78c-1.71-5.23-8.39-8.19-13.29-5.4a10.3,10.3,0,0,0-4.91,11.16c1.26,5.44,7.71,8.81,12.85,6.52l1.49-.9-2.2-2.39c-1.12.78-2.48.61-3.77.77a6.75,6.75,0,0,1-5.33-8,6.94,6.94,0,0,1,5.6-5,6.54,6.54,0,0,1,6.87,6.47V43Z"/>
        <path class="cls-1" d="M122.36,56.08l-.57-.13-.35-.35L121.3,55l.14-.49.35-.35.57-.14h4.48l.49.14a1.67,1.67,0,0,1,.57.84l-.14.63-.35.35-.49.13Z"/>
        <path class="cls-1" d="M126.14,121.16l2.61,1.28-1.28-53.07.29-.78.69-.63.22-.06h7.57l-.06-4h-7.57l-.65-.13-.49-.49-.14-.71V58.83l-.06-.27-.21-.28-.35-.16H122.2l-.33.16a1,1,0,0,0-.3.55v3.72l-.13.71-.5.49-.62.13H100.87a3,3,0,0,0-1.06,1l-.2,1.19.41,1.19a2.34,2.34,0,0,0,.93.65h19.29l.21.06.71.63.28.78-1.12,49.35,2.18.91,3.64,1.53Z"/>
        <path class="cls-1" d="M141.43,67.9c0-1.35,0-2.67-.05-4h5.05a3,3,0,0,1,1.06,1l.2,1.19-.42,1.19a2.31,2.31,0,0,1-.92.65Z"/>
        <path class="cls-1" d="M123.75,143.36h1.9a68.33,68.33,0,0,0,11.93-1.27l1.82-.63a20,20,0,0,0-3-6.25c-2.07.26-4.16.55-6.25.7l-.62-.21-.41-.56-.22-6.1a55.13,55.13,0,0,0-8.78-4.43l-.27,10.53-.43.56-.62.21-2.4-.21a63.92,63.92,0,0,1-15.24-4.07c-4.67-2.33-11-6.82-8.56-13a9.13,9.13,0,0,1,2.25-2.59l.28-.43-.28-.28-15.16-4.28h-.14l-1.27,17.42a7.24,7.24,0,0,1,7.23-2l2.38,1.42a56.43,56.43,0,0,0,10.54,9,47.66,47.66,0,0,0,25.34,6.47Z"/>
        <path class="cls-1" d="M142.57,134.86c.85,1.56,1.65,3.16,2.4,4.78a45.3,45.3,0,0,0,5.54-2.75,56.36,56.36,0,0,0,10.52-9,6.91,6.91,0,0,1,9.62.63l-1.26-17.42h-.15l-15.17,4.28-.27.28.27.43a22.82,22.82,0,0,1,1.85,1.83l.4.76a8.44,8.44,0,0,1,.08,5.35c-2.79,5.41-8.93,8.14-14.47,9.75l.64,1.12Z"/>
        <polygon class="cls-1" points="129.02 146.92 129.51 146.79 129.87 146.43 129.99 145.81 129.81 145.32 129.45 144.97 128.96 144.83 120.94 144.83 120.38 144.97 120.02 145.32 119.88 145.81 120.02 146.43 120.38 146.79 120.94 146.92 129.02 146.92 129.02 146.92"/>
        <polygon class="cls-1" points="97.78 64.73 96.79 63.69 95.4 63.33 93.99 63.69 92.94 64.73 92.58 66.06 92.94 67.54 93.99 68.59 95.4 69.02 96.79 68.59 97.78 67.54 98.2 66.06 97.78 64.73 97.78 64.73"/>
        <polygon class="cls-1" points="149.51 64.73 150.51 63.69 151.9 63.33 153.31 63.69 154.37 64.73 154.72 66.14 154.37 67.54 153.31 68.59 151.9 69.02 150.51 68.59 149.51 67.54 149.1 66.14 149.51 64.73 149.51 64.73"/>
        <path class="cls-1" d="M133,48.45a1.72,1.72,0,0,1,0,1.12l-.41.57a1.91,1.91,0,0,1-1.33.13l-.57-.41-4.13-4.22a2.2,2.2,0,0,1-.14-1l.33-.57.57-.35a1.8,1.8,0,0,1,1.2.43L133,48.45Z"/>
        <path class="cls-1" d="M131.9,86.71c6.34-5.45,8.81-14.28,8.15-22.39a37.58,37.58,0,0,0-2.61-9.76,22.35,22.35,0,0,0-2.66-3.73l-.57-.21a1.84,1.84,0,0,0-1.2.49l-.19.63.06.29a26.26,26.26,0,0,1,4,8.14,32.65,32.65,0,0,1,.71,9.61,22.16,22.16,0,0,1-8.13,15.38v3.23l2.45-1.68Z"/>
        <path class="cls-1" d="M144.67,145.6l-1.33-5.41c-3.53-10.62-13.89-16.67-23.81-20.28a50.17,50.17,0,0,1-6.38-2.8,11.22,11.22,0,0,1-5.05-13.78c2.43-4.6,7.05-7.5,11.43-10V90.78c-8.4,3.22-18.42,12.15-13.75,22.18,4.27,8.47,15.14,8.92,22.34,13.61,7.69,3.66,13.61,11.18,13.88,19.86l2.67-.83Z"/>
        <path class="cls-1" d="M119.75,77.65q-5.7-1.35-11.43-2.52l-3.16-.49a3,3,0,0,1-1.14-.71l-.14-.78.35-.71.57-.27c5.09.28,10,1.6,15,2.8v2.68Z"/>
        <path class="cls-1" d="M129.37,78.63v3.16l1,.28,1.55-2.32a5.62,5.62,0,0,0-2.53-1.12Z"/>
        <path class="cls-1" d="M130.13,118.86l4.3-1.61c8.59-4.51,12.87-15.65,9.34-24.72a21.41,21.41,0,0,0-7-9.41L135.18,85l2.12,2a18.64,18.64,0,0,1,4.43,16.63,18.3,18.3,0,0,1-11.66,12.66l.06,2.59Z"/>
        <path class="cls-1" d="M116.87,123.56a47.06,47.06,0,0,0-8.06,8.56l-.36.49,2.25.7a58.85,58.85,0,0,1,5.9-6.52l2.45-2.25-2.18-1Z"/>
        <polygon class="cls-1" points="104.86 145.81 104.94 142.16 106.27 142.58 107.61 143.01 107.61 146.65 104.86 145.81 104.86 145.81"/>
        <path class="cls-1" d="M101.14,83.9c-.31-1.34-.33-2.82-1.25-3.93a5.7,5.7,0,0,0-5-2.67H71.81a11,11,0,0,0-2.46,10,13.16,13.16,0,0,0,3.79,6l.63.5-.13,4.27,1,4.21A20.16,20.16,0,0,0,79,108.82q9.28,3.14,18.74,5.74l.42.35-.48.79-2.61,2.8a5.84,5.84,0,0,0-.77,4.65c1.12,2.89,3.74,4.69,6.25,6.31l.41.21h.14V83.9Z"/>
        <path class="cls-1" d="M67.09,80.6A14.79,14.79,0,0,0,67,87.9a14.19,14.19,0,0,0,4,6.11l.69.55L71.53,99l1,4.34a20.18,20.18,0,0,0,5.21,7.18l-1.54,20.57c3.19-1.77,7.44-4.48,11-1.62a55.44,55.44,0,0,0,11,9.26l3,1.69-.06,3.93-5.68-2.8-2.12-.93a7.44,7.44,0,0,0-3.29.71H82.33L75,135.64l-1.18,5.6H67.17c-4.63-.86-9-6.17-7.66-11a5.44,5.44,0,0,1,2.19-2.09H74.54l-.77-2.88H48.92c-5-.8-8.89-6.36-7.86-11.31a4.48,4.48,0,0,1,2.25-2.6H67.6L66,108.61H29.89c-5.31-.81-9.92-7-8.13-12.28l1-1.28,1.33-.63H60.22l-1.61-2.93H8.55C3.73,90.54.16,85.87,0,81l.76-2.18L2.45,77.3H68.72a19.1,19.1,0,0,0-1.63,3.3Z"/>
        <path class="cls-1" d="M147.76,83.9c.33-1.35.36-2.8,1.26-3.93a5.7,5.7,0,0,1,5-2.67h23.1a11.08,11.08,0,0,1,2.44,10,13,13,0,0,1-3.78,6l-.65.5a24.76,24.76,0,0,1-.84,8.48,20.51,20.51,0,0,1-4.41,6.54c-6.18,2.09-12.45,4-18.75,5.74l-.42.35.48.79,2.61,2.8a5.75,5.75,0,0,1,.76,4.65c-1.09,2.9-3.74,4.67-6.23,6.31l-.43.21h-.14V83.9Z"/>
        <path class="cls-1" d="M181.82,80.6a14.79,14.79,0,0,1,.13,7.3A13.79,13.79,0,0,1,178,94l-.71.55.08,4.43-1,4.34a20.37,20.37,0,0,1-5.19,7.18l1.54,20.57c-3.2-1.75-7.45-4.48-10.95-1.62a56.48,56.48,0,0,1-11,9.26l-3,1.69.06,3.93,5.7-2.8,2.1-.93a7.53,7.53,0,0,1,3.31.71h7.65l7.3-5.68,1.19,5.6h6.67c4.63-.87,9-6.16,7.65-11a5.52,5.52,0,0,0-2.17-2.09H174.37l.76-2.88H200c5-.8,8.89-6.36,7.86-11.31a4.52,4.52,0,0,0-2.24-2.6H181.33l1.59-2.8H219c5.32-.8,9.9-7,8.14-12.28l-1-1.28-1.34-.63H188.69l1.6-2.93h50.06c4.83-.93,8.4-5.63,8.58-10.46l-.79-2.18-1.68-1.55H180.19a19.85,19.85,0,0,1,1.63,3.3Z"/>
        <path class="cls-1" d="M175.62,146.24a65.64,65.64,0,0,0-1.74-10.6l-7.3,5.68a31.52,31.52,0,0,1-4.93,3.51l-2.72-3.51a7.5,7.5,0,0,0-3.31-.71l-2.1.93-5.7,2.8a36,36,0,0,1-5.82,2.09l-.7.22a59.94,59.94,0,0,1-40.22-2.31l-5.68-2.8-2.12-.93a7.44,7.44,0,0,0-3.29.71l-2.73,3.51a31.52,31.52,0,0,1-4.93-3.51L75,135.64l-1.18,5.6-.57,5-13.2,2.1q3,3.1,6.12,6.11c6.29,4.12,13.9,15.55,22,11.85l3.45-5.25c4.2,1.77,8.34,3.72,12.69,5.12a68.56,68.56,0,0,0,22.06,2.74c10.75.05,21.24-3.14,30.81-7.86l3.44,5.25c3.74,4.16,8.68-2,12.08-3.51,5.91-4.16,11.06-9.27,16.06-14.45ZM87.46,165.19l-.56.84-1.12.57H84.51L83.39,166A75.44,75.44,0,0,1,67,153.61c-1.54-1.54-3.14-3-4.62-4.65l11.93-1.82.93-6.25.55-3.07,7.92,6.74,2.67,1.87-5.74,7.94-1,1.69a4.21,4.21,0,0,0-.19,2.17l.55.71c2.4,1.69,4.85,3.34,7.31,5l.27.69Zm40.8,2.16a67.19,67.19,0,0,1-33.51-6.51c-4.33-1.63-8.1-4.32-12.07-6.66l8.08-11.31.84-.65,1.06-.13,1.25.43a60.15,60.15,0,0,0,29.92,7.78h1.11a64.69,64.69,0,0,0,15.17-1.75,74,74,0,0,0,14.89-6l1.24-.43,1.06.13.85.65,8.07,11.31C155,161.57,141.84,166.9,128.26,167.35ZM182,153.61A74.52,74.52,0,0,1,165.52,166l-1.12.63h-1.26L162,166a2.47,2.47,0,0,1-.62-1.41l.27-.69c2.45-1.65,4.9-3.3,7.31-5l.57-.71a4.57,4.57,0,0,0-.22-2.17l-1-1.69-5.76-7.94,2.67-1.87,7.93-6.74.57,3.07.9,6.25,12,1.82C185.1,150.56,183.5,152.07,182,153.61Z"/>
        <polygon class="cls-1" points="97.64 159.64 101.79 148.42 103.53 149.04 100.02 158.66 105.7 160.76 105.16 162.3 97.64 159.64 97.64 159.64"/>
        <polygon class="cls-1" points="107.69 163.14 109.56 151.35 118.34 152.76 118.15 154.45 111.19 153.33 110.7 156.49 117.01 157.46 116.73 159.15 110.41 158.17 109.86 161.81 116.81 162.87 116.52 164.56 107.69 163.14 107.69 163.14"/>
        <polygon class="cls-1" points="119.34 152.98 121.22 152.98 124.53 162.44 127.82 152.98 129.81 152.98 125.51 164.91 123.48 164.91 119.34 152.98 119.34 152.98"/>
        <polygon class="cls-1" points="131.27 152.82 133.23 152.68 134.7 164.62 132.74 164.77 131.27 152.82 131.27 152.82"/>
        <path class="cls-1" d="M136.73,156.7l.65-.64a2.28,2.28,0,0,0,.34-2.18l-1.4.3-.35-1.63,1.69-.36a9.15,9.15,0,0,1,.35,3.16,4.13,4.13,0,0,1-1.2,1.54l-.08-.19Z"/>
        <path class="cls-1" d="M141.24,159.15a11,11,0,0,0,1,1.61c1,1.27,2.62,1.24,4.07,1,2-.6,4.84-1.78,4.57-4.37a4.64,4.64,0,0,0-.43-1.59c-1.54-2.59-4.85-1.46-7.23-1.34l-.71-.22-.41-.56-.08-.5.22-.62c.37-1,1.49-1,2.32-1.26h1a1.73,1.73,0,0,1,1.4,1.26l1.75-.63a3.32,3.32,0,0,0-.77-1.46c-2.22-1.85-5.78-.8-7.44,1.32a3.38,3.38,0,0,0-.49,2.4,3,3,0,0,0,3.64,2.23c1.51.09,3.11-.59,4.57-.14l.35.27.29.65.14.19a1.65,1.65,0,0,1-.14.93,4.2,4.2,0,0,1-4.64,1.61,5.08,5.08,0,0,1-1.12-1.4l-1.82.63Z"/>
      </g>
    </g>
  </g>
</svg>
