<svg xmlns="http://www.w3.org/2000/svg" viewBox="0 0 372.22 58.54">
  <defs>
    <style>
      .cls-1, .cls-2 {
        fill: #31302e;
      }

      .cls-2 {
        opacity: 0.4;
      }
    </style>
  </defs>
  <g id="Capa_2" data-name="Capa 2">
    <g id="Layer_1" data-name="Layer 1">
      <g>
        <g>
          <path class="cls-1" d="M372.22,0H302.8A66.18,66.18,0,0,1,318,8.14l40.12.14L338.35,41.56a63,63,0,0,1-.07,16.28Z"/>
          <path class="cls-1" d="M349.38,13.29l-25.18,0a47.14,47.14,0,0,1,12.5,20.48Z"/>
        </g>
        <g>
          <path class="cls-2" d="M27.72,23.11h6.62L19.85,58.19H14.48L0,23.11H6.77l10.5,26.77Z"/>
          <path class="cls-2" d="M40.8,51.89a7.45,7.45,0,0,0,5,1.72,8.81,8.81,0,0,0,3.88-.79,12.64,12.64,0,0,0,3.24-2.34l3.53,3.13a14.49,14.49,0,0,1-4.5,3.58,13.47,13.47,0,0,1-6.25,1.35,13.89,13.89,0,0,1-5.3-1,12.65,12.65,0,0,1-7.14-7.09,14.37,14.37,0,0,1-1-5.6,14.85,14.85,0,0,1,.94-5.32,13.37,13.37,0,0,1,2.66-4.35,12.87,12.87,0,0,1,4.06-3A12,12,0,0,1,45,31.12a12.51,12.51,0,0,1,5.5,1.14,11.36,11.36,0,0,1,3.93,3.09,13.23,13.23,0,0,1,2.37,4.53,18.32,18.32,0,0,1,.79,5.42c0,.27,0,.53,0,.8s0,.55-.08.84H38.22A7.88,7.88,0,0,0,40.8,51.89ZM51.65,43A10.42,10.42,0,0,0,51,40.25a7,7,0,0,0-1.35-2.19,6.45,6.45,0,0,0-2-1.47A6.3,6.3,0,0,0,45,36.05,6.06,6.06,0,0,0,40.38,38a8.65,8.65,0,0,0-2.21,5Z"/>
          <path class="cls-2" d="M79.72,57.17a13.06,13.06,0,0,1-6.32,1.37A13.67,13.67,0,0,1,68,57.47a13.24,13.24,0,0,1-4.32-2.94,13.56,13.56,0,0,1-2.86-4.33,13.72,13.72,0,0,1-1-5.3,13.84,13.84,0,0,1,3.89-9.7,13.48,13.48,0,0,1,9.8-4.08,13.65,13.65,0,0,1,6.19,1.24A14.62,14.62,0,0,1,84,35.65l-3.73,4a14.19,14.19,0,0,0-3-2.37,7.52,7.52,0,0,0-3.85-.92,6.88,6.88,0,0,0-3,.68A7.35,7.35,0,0,0,68,38.88a8.8,8.8,0,0,0-1.56,2.66,9,9,0,0,0-.58,3.26,9.34,9.34,0,0,0,.58,3.34A8.27,8.27,0,0,0,68,50.83a7.9,7.9,0,0,0,2.49,1.81,8,8,0,0,0,6.94-.25A14.26,14.26,0,0,0,80.51,50l3.64,3.58A16.58,16.58,0,0,1,79.72,57.17Z"/>
          <path class="cls-2" d="M94.45,49.72a3.27,3.27,0,0,0,.84,2.52,3.4,3.4,0,0,0,2.39.77,8.16,8.16,0,0,0,3.73-.89v4.93A10.34,10.34,0,0,1,99,58a11.69,11.69,0,0,1-3,.35,11,11,0,0,1-3-.4,6.27,6.27,0,0,1-2.43-1.3,5.69,5.69,0,0,1-1.58-2.37,10.45,10.45,0,0,1-.55-3.66V36.79H85V31.67h3.34V24.45h6.07v7.22h7.06v5.12H94.45Z"/>
          <path class="cls-2" d="M129.8,50.13a13.6,13.6,0,0,1-7.39,7.31,14.92,14.92,0,0,1-11.17,0,13.69,13.69,0,0,1-7.31-17.92,13.7,13.7,0,0,1,2.93-4.37,13.91,13.91,0,0,1,4.43-3,14.12,14.12,0,0,1,5.6-1.09,14.47,14.47,0,0,1,5.6,1.07,13.43,13.43,0,0,1,7.34,7.29,13.71,13.71,0,0,1,1,5.32A13.25,13.25,0,0,1,129.8,50.13Zm-5.59-8.51a8.6,8.6,0,0,0-1.66-2.71,7.8,7.8,0,0,0-11.5,0,7.93,7.93,0,0,0-1.58,2.66,9.7,9.7,0,0,0-.54,3.26,9.34,9.34,0,0,0,.59,3.31,8.32,8.32,0,0,0,1.66,2.72,8,8,0,0,0,2.52,1.81,7.51,7.51,0,0,0,3.19.67,7.74,7.74,0,0,0,3.29-.67,7.6,7.6,0,0,0,4.08-4.48,9.65,9.65,0,0,0,.54-3.26A9.17,9.17,0,0,0,124.21,41.62Z"/>
          <path class="cls-2" d="M140.58,57.94h-6.07V31.67h6.07v5.92a11.5,11.5,0,0,1,3.53-4.78,8.47,8.47,0,0,1,5.77-1.64v6.37h-.35a9.69,9.69,0,0,0-3.63.65,7.58,7.58,0,0,0-2.84,1.94,8.82,8.82,0,0,0-1.84,3.26,14.57,14.57,0,0,0-.64,4.55Z"/>
          <path class="cls-1" d="M186.16,57.94h-4.23l-4.08-9.2h-19l-4.13,9.2h-4L166.6,22.86h3.68ZM168.39,27.49l-8,17.76H176.3Z"/>
          <path class="cls-1" d="M193.72,57.94h-3.83V32.21h3.83v4.48a12.17,12.17,0,0,1,3.38-3.56,9.34,9.34,0,0,1,5.43-1.46,11,11,0,0,1,4.15.74,8.74,8.74,0,0,1,3.09,2.12,9.27,9.27,0,0,1,1.94,3.26,12.34,12.34,0,0,1,.67,4.18v16h-3.83v-15a8.25,8.25,0,0,0-1.84-5.67,6.68,6.68,0,0,0-5.28-2.09,8.16,8.16,0,0,0-3.06.57,7.22,7.22,0,0,0-2.46,1.64,7.4,7.4,0,0,0-1.62,2.57,9.11,9.11,0,0,0-.57,3.28Z"/>
          <path class="cls-1" d="M223.2,35.77a23.7,23.7,0,0,0-3.65,1.37L218.4,34a25,25,0,0,1,4.33-1.57,20.07,20.07,0,0,1,5-.57c3.51,0,6.22.87,8.11,2.61s2.84,4.32,2.84,7.74V57.94H235V54.06a12.52,12.52,0,0,1-3.6,3.08,11,11,0,0,1-5.7,1.35,12.56,12.56,0,0,1-3.51-.5,9.59,9.59,0,0,1-3.09-1.52A7.77,7.77,0,0,1,216.93,54a7.31,7.31,0,0,1-.82-3.53,7.87,7.87,0,0,1,.8-3.61,7,7,0,0,1,2.26-2.61,10.89,10.89,0,0,1,3.49-1.6,17.12,17.12,0,0,1,4.45-.54,27.3,27.3,0,0,1,4.33.3,29.54,29.54,0,0,1,3.58.79v-.89A6.6,6.6,0,0,0,233,37a8.3,8.3,0,0,0-5.65-1.77A15.38,15.38,0,0,0,223.2,35.77ZM222,46.35A4.64,4.64,0,0,0,220,50.28a4.44,4.44,0,0,0,.53,2.19A4.82,4.82,0,0,0,222,54.08a6.31,6.31,0,0,0,2.06,1,8.2,8.2,0,0,0,2.45.35,10.45,10.45,0,0,0,3.35-.52,9.1,9.1,0,0,0,2.73-1.44,7,7,0,0,0,1.83-2.19,5.89,5.89,0,0,0,.67-2.81V46q-1.44-.41-3.3-.75a23.35,23.35,0,0,0-4.24-.35A9.11,9.11,0,0,0,222,46.35Zm4.14-18,4.72-7.21,4,1.84-5.62,5.37Z"/>
          <path class="cls-1" d="M244.73,57.94V21.61h3.83V57.94Z"/>
          <path class="cls-1" d="M255.08,26.59V22.36h4.37v4.23Zm.24,31.35V32.21h3.84V57.94Z"/>
          <path class="cls-1" d="M282.52,54a7.39,7.39,0,0,1-1.94,2.42,8.75,8.75,0,0,1-2.89,1.52,12.25,12.25,0,0,1-3.61.52,16.55,16.55,0,0,1-5.62-1,17.4,17.4,0,0,1-5-2.76l1.94-2.74a17.14,17.14,0,0,0,4.35,2.44,13,13,0,0,0,4.55.84,6.3,6.3,0,0,0,3.83-1.09,3.51,3.51,0,0,0,1.5-3V51a2.72,2.72,0,0,0-.52-1.64,4.91,4.91,0,0,0-1.42-1.22,11.7,11.7,0,0,0-2.07-.92c-.78-.26-1.58-.51-2.41-.74-1-.3-2-.63-3-1a12.42,12.42,0,0,1-2.74-1.32,6.74,6.74,0,0,1-2-2,5.47,5.47,0,0,1-.77-3v-.1a6.83,6.83,0,0,1,2.46-5.35,8.28,8.28,0,0,1,2.79-1.49,11.33,11.33,0,0,1,3.51-.52,15.7,15.7,0,0,1,4.82.77,17.83,17.83,0,0,1,4.43,2.06L281,37.49a17.62,17.62,0,0,0-3.76-1.82,11.78,11.78,0,0,0-3.85-.67,5.66,5.66,0,0,0-3.63,1.07,3.27,3.27,0,0,0-1.35,2.66v.1a2.39,2.39,0,0,0,.55,1.57,4.64,4.64,0,0,0,1.47,1.17,13.94,13.94,0,0,0,2.11.9c.8.26,1.63.53,2.49.79s2,.63,3,1a11.37,11.37,0,0,1,2.66,1.39,6.65,6.65,0,0,1,1.92,2,5.62,5.62,0,0,1,.72,2.94v.1A7.07,7.07,0,0,1,282.52,54Z"/>
          <path class="cls-1" d="M288,26.59V22.36h4.38v4.23Zm.25,31.35V32.21h3.83V57.94Z"/>
          <path class="cls-1" d="M315.41,54a7.39,7.39,0,0,1-1.94,2.42,8.66,8.66,0,0,1-2.89,1.52,12.23,12.23,0,0,1-3.6.52,16.56,16.56,0,0,1-5.63-1,17.54,17.54,0,0,1-5-2.76l1.94-2.74a17.14,17.14,0,0,0,4.35,2.44,13,13,0,0,0,4.55.84A6.35,6.35,0,0,0,311,54.11a3.52,3.52,0,0,0,1.49-3V51a2.72,2.72,0,0,0-.52-1.64,4.78,4.78,0,0,0-1.42-1.22,11.7,11.7,0,0,0-2.07-.92c-.78-.26-1.58-.51-2.41-.74-1-.3-2-.63-3-1a12.42,12.42,0,0,1-2.74-1.32,6.86,6.86,0,0,1-2-2,5.47,5.47,0,0,1-.77-3v-.1a7,7,0,0,1,.65-3A6.77,6.77,0,0,1,300,33.78a8.28,8.28,0,0,1,2.79-1.49,11.33,11.33,0,0,1,3.51-.52,15.81,15.81,0,0,1,4.83.77,17.93,17.93,0,0,1,4.42,2.06l-1.74,2.89a17.54,17.54,0,0,0-3.75-1.82,11.89,11.89,0,0,0-3.86-.67,5.66,5.66,0,0,0-3.63,1.07,3.27,3.27,0,0,0-1.35,2.66v.1a2.39,2.39,0,0,0,.55,1.57,4.64,4.64,0,0,0,1.47,1.17,13.94,13.94,0,0,0,2.11.9c.8.26,1.63.53,2.49.79s2,.63,3,1a11.37,11.37,0,0,1,2.66,1.39,6.65,6.65,0,0,1,1.92,2,5.62,5.62,0,0,1,.72,2.94v.1A7.07,7.07,0,0,1,315.41,54Z"/>
        </g>
      </g>
    </g>
  </g>
</svg>
