<svg xmlns="http://www.w3.org/2000/svg" viewBox="0 0 212.8 179">
  <defs>
    <style>
      .cls-1 {
        fill: #31302e;
      }
    </style>
  </defs>
  <g id="Capa_2" data-name="Capa 2">
    <g id="Layer_1" data-name="Layer 1">
      <g>
        <path class="cls-1" d="M145.58,54.36l2,2L108.8,95.13c11.8,11.78,23.48,23.45,35.22,35.16l-2.18,2-35-35L71.67,132.37l-1.93-2.08,35.09-35L66,56.43l2-2.06L106.69,93.2Z"/>
        <path class="cls-1" d="M105.2,42.39a12.49,12.49,0,0,1-13.54,1.74,9.35,9.35,0,0,1-5.79-10.49,17.34,17.34,0,0,0-3.5-14.15c-.56-.7-1.22-1.33-1.93-2.1l.85-1.81a74.51,74.51,0,0,1,14.07,5.64,11.75,11.75,0,0,1-.91-9.61A16.66,16.66,0,0,1,99.6,4.42,61.76,61.76,0,0,1,105.3.24a2,2,0,0,1,1.78-.07A30,30,0,0,1,115.37,7c3.43,4.23,4.4,8.83,1.79,14.19a74.6,74.6,0,0,1,14-5.58,5.31,5.31,0,0,1,.58,1.21,1.41,1.41,0,0,1-.21,1.08,16.43,16.43,0,0,0-5,15.1c1.24,7.62-4.23,11.76-9.93,12.26a11.66,11.66,0,0,1-9.27-2.89v14H105.2ZM84.92,19c0,.19,0,.27,0,.32a19.51,19.51,0,0,1,3,14.76,7.1,7.1,0,0,0,1.71,6.09c3,3.35,9.27,4.1,12.92,1.52a5.78,5.78,0,0,0,2.59-4.79c0-1.27,0-2.55,0-3.82V28.49h2.12c0,2.72,0,5.37,0,8a6.06,6.06,0,0,0,4,5.93,10.35,10.35,0,0,0,5.34.7c5.65-.62,8.59-4.42,7.79-10a18.93,18.93,0,0,1,2.74-13.26c.15-.23.26-.47.52-.94a70.5,70.5,0,0,0-15.16,7.52l-1.11-1.58c1.07-1.23,2.14-2.27,3-3.47a9.61,9.61,0,0,0,.24-11.77,25.88,25.88,0,0,0-8-7.25,1,1,0,0,0-.86,0A26.45,26.45,0,0,0,98,9.31c-2.84,4-2.82,8.25.12,12.22.86,1.16,1.9,2.18,2.91,3.31-.16.24-.35.55-.55.84s-.35.45-.58.75A69.71,69.71,0,0,0,84.92,19Z"/>
        <path class="cls-1" d="M163.57,82.54l-2.33,2.51a4,4,0,0,1-.53-.33,9.73,9.73,0,0,0-11.39-.58,10.09,10.09,0,0,0-3.43,11.22,9,9,0,0,0,9.13,6.38,31.69,31.69,0,0,0,4.8-.82c.67-.12.92-.54.9-1.25-.05-1.88,0-3.77,0-5.8h-5.29V90.78h8.42a4.85,4.85,0,0,1,.12.77c0,3.45,0,6.9,0,10.36a1.42,1.42,0,0,1-.64,1.06,18,18,0,0,1-12.84,1.22c-6.55-2-10-8.93-8-15.86a12.08,12.08,0,0,1,11.36-8.79,14,14,0,0,1,6.91,1.2A32,32,0,0,1,163.57,82.54Z"/>
        <path class="cls-1" d="M48.52,80.27c3.5,0,6.89-.22,10.24.06,3.73.32,5.69,2.61,5.88,6.12.18,3.26-1.78,5.78-5.21,6.68l-.63.18,6.78,10.93c-1.35,0-2.5.05-3.65,0-.29,0-.65-.4-.83-.7-1.75-3-3.49-6-5.17-9a1.51,1.51,0,0,0-1.62-.93c-.79.08-1.59,0-2.52,0v10.54H48.52Zm3.3,2.89v7.45c2.1,0,4.14.15,6.14,0a3.72,3.72,0,0,0,0-7.37C56,83,54,83.16,51.82,83.16Z"/>
        <path class="cls-1" d="M138.66,162.45h2.84v16.21c-1.09,0-2.14.06-3.18,0-.33,0-.7-.44-.91-.77-2.24-3.51-4.45-7-6.67-10.55-.19-.29-.39-.57-.75-1.1v12.4h-2.84V162.4a32.61,32.61,0,0,1,3.29,0c.35,0,.75.49,1,.84,2.28,3.49,4.52,7,6.77,10.49.09.14.2.26.47.6Z"/>
        <path class="cls-1" d="M115.78,162.13c4.79,0,8.52,3.1,8.46,8.43,0,5-3.44,8.32-8.6,8.36s-8.55-3.31-8.51-8.38S110.56,162.14,115.78,162.13Zm5.42,8.4c0-3.37-2.24-5.77-5.41-5.78-3.35,0-5.62,2.32-5.62,5.78a5.52,5.52,0,1,0,11,0Z"/>
        <path class="cls-1" d="M72.17,162.12c4.71,0,8.45,3,8.46,8.33,0,5.06-3.39,8.37-8.49,8.47s-8.66-3.3-8.62-8.38S67,162.14,72.17,162.12Zm5.41,8.41c0-3.42-2.24-5.78-5.52-5.78s-5.5,2.36-5.51,5.78a5.52,5.52,0,1,0,11,0Z"/>
        <path class="cls-1" d="M104.31,164.22l-2.25,1.91c-2.68-1.79-5.25-1.92-7.49-.31a6.17,6.17,0,0,0-1.84,6.89,5.16,5.16,0,0,0,5.13,3.6,17.82,17.82,0,0,0,3.27-.58.79.79,0,0,0,.51-.54c0-1.07,0-2.16,0-3.36H98.49v-2.55h6.05a6.06,6.06,0,0,1,.1.71c0,2.18,0,4.36,0,6.54,0,.33-.16.86-.4,1-3.72,1.7-7.49,2.25-11.22.09a8.19,8.19,0,0,1-3.45-9c1-4.45,4.9-7,9.66-6.44A8.69,8.69,0,0,1,104.31,164.22Z"/>
        <path class="cls-1" d="M57.91,171.63l4.24,7c-1.13,0-2.13,0-3.12,0-.27,0-.59-.38-.75-.67-.88-1.58-1.72-3.18-2.55-4.79S54.86,171.63,53,172v6.63H50.1V162.37c3.07.27,6.18-.56,9.12.79a4.08,4.08,0,0,1,2.41,4.21,4.19,4.19,0,0,1-3,4C58.42,171.42,58.2,171.52,57.91,171.63ZM53,169.45a39.66,39.66,0,0,0,4-.32,1.8,1.8,0,0,0,1.49-2A1.85,1.85,0,0,0,57,165.09a36.92,36.92,0,0,0-4-.27Z"/>
        <path class="cls-1" d="M0,178.59V162.37c3.09.28,6.17-.49,9.15.77a4.32,4.32,0,0,1,2.38,4.15,4.19,4.19,0,0,1-2.9,4l-.85.26c1.42,2.34,2.78,4.61,4.26,7.07-1.12,0-2.12.05-3.11,0-.27,0-.6-.38-.76-.67-.86-1.55-1.68-3.12-2.49-4.7s-.88-1.6-2.8-1.31v6.64Zm2.91-9.14c1.38-.1,2.71-.09,4-.31a1.82,1.82,0,0,0,1.54-1.95A1.85,1.85,0,0,0,7,165.11c-1.33-.22-2.69-.21-4-.3Z"/>
        <path class="cls-1" d="M46.71,162.46V165H39v4H46.2v2.64H39V176H47v2.58h-11V162.46Z"/>
        <path class="cls-1" d="M198.43,162.47V165H190.7v4.07H198v2.63h-7.29V176h8.09v2.55h-11V162.47Z"/>
        <path class="cls-1" d="M173.8,178.61c-3.2.2-3.23.21-4.28-2.63a1.31,1.31,0,0,0-1.48-1c-1.75.06-3.49,0-5.23,0-.35,0-.73.4-1,.69a2.57,2.57,0,0,0-.33.79c-1,2.51-1.09,2.54-4.06,2.06l7-16.08c2.42-.12,2.41-.12,3.38,2.13q2.9,6.72,5.81,13.45C173.66,178.18,173.71,178.34,173.8,178.61Zm-10.72-6.23H168c-.81-2.16-1.59-4.21-2.46-6.5C164.69,168.16,163.91,170.2,163.08,172.38Z"/>
        <path class="cls-1" d="M204,176.05h8.77v2.54H200.59a4.49,4.49,0,0,1,.9-3.84c2.54-3,4.89-6.18,7.31-9.29a2.39,2.39,0,0,0,.18-.4h-8.25V162.5h11.93c0,1.2.29,2.38-.69,3.56C209.32,169.26,206.79,172.56,204,176.05Z"/>
        <path class="cls-1" d="M152.85,165h-8.39v-2.56h11.88a4.64,4.64,0,0,1-.93,3.91c-2.45,2.84-4.7,5.85-7,8.8-.17.22-.31.46-.55.83h8.66v2.59H144.28a4.57,4.57,0,0,1,.91-3.85C147.78,171.66,150.2,168.42,152.85,165Z"/>
        <path class="cls-1" d="M34.2,162.4c-.84,2.14-1.61,4.16-2.42,6.17-1.23,3.05-2.5,6.09-3.7,9.15a1.29,1.29,0,0,1-1.53,1c-.76-.06-1.39,0-1.76-1-1.86-5-3.83-9.93-5.76-14.88a3.27,3.27,0,0,1-.1-.45,24.32,24.32,0,0,1,2.71,0c.29,0,.66.48.78.81,1.29,3.49,2.53,7,3.78,10.52.08.2.19.39.37.79.73-1.9,1.39-3.64,2-5.38.75-2,1.5-4,2.2-6a1,1,0,0,1,1.11-.78C32.63,162.44,33.35,162.4,34.2,162.4Z"/>
        <path class="cls-1" d="M178.68,176h6.76v2.52h-9.62V162.49h2.86Z"/>
        <path class="cls-1" d="M17,178.59H14.22v-16.1H17Z"/>
        <path class="cls-1" d="M169.78,158.21a29.58,29.58,0,0,1-2.94,2.89c-.48.36-1.37.2-2.13.27C166.08,158.3,167,157.72,169.78,158.21Z"/>
      </g>
    </g>
  </g>
</svg>
