<svg xmlns="http://www.w3.org/2000/svg" viewBox="0 0 322.57 135.49">
  <defs>
    <style>
      .cls-1 {
        fill: #31302e;
      }
    </style>
  </defs>
  <g id="Capa_2" data-name="Capa 2">
    <g id="Layer_1" data-name="Layer 1">
      <g>
        <g>
          <g>
            <path class="cls-1" d="M32,114.85c0,11.07-7.51,18.74-18.43,18.74H0V96H13.53C24.35,96,32,103.69,32,114.85Zm-6.95,0c0-7.56-4.78-12.76-12.09-12.76H6.59v25.43h6.33C20.33,127.52,25,122.37,25,114.85Z"/>
            <path class="cls-1" d="M41.79,102.19v9.52H56.87v5.82H41.79v9.88H58.62v6.18H35.25V96H58.62v6.23Z"/>
            <path class="cls-1" d="M61,114.8c0-11.68,7.41-19.51,18.37-19.51,8.55,0,15.08,5.25,16.37,13.28h-7c-1.29-4.42-5-6.84-9.52-6.84-7,0-11.33,5.19-11.33,13,0,8.13,4.58,13,11.33,13,4.84,0,8.85-2.68,10.24-6.69h6.85c-1.5,8-8.44,13.17-17.25,13.17C68.39,134.2,61,127,61,114.8Z"/>
            <path class="cls-1" d="M134.65,114.75c0,11.27-7.36,19.45-18.32,19.45s-18.17-8.13-18.17-19.45,7.31-19.46,18.22-19.46S134.65,103.43,134.65,114.75Zm-6.94,0c0-8-4.43-13.07-11.33-13.07s-11.32,5.09-11.32,13.07,4.37,13,11.32,13S127.71,122.73,127.71,114.75Z"/>
            <path class="cls-1" d="M138.49,97H153c9,.06,13.59,4.28,13.59,11.74,0,5.25-2.47,9.06-6.75,10.65l7,15.24h-7.41l-6.17-14.15h-8.08v14.15h-6.59ZM153,114.75c4.63,0,6.64-2.52,6.64-6s-2.06-5.87-6.64-5.87h-7.87v11.84Z"/>
            <path class="cls-1" d="M183,97h6.74l13.59,37.63h-6.95l-3-8.7h-14l-3.09,8.7h-6.79Zm8.44,23.42-4.28-12.19a20.91,20.91,0,0,1-.77-2.89,14.56,14.56,0,0,1-.82,2.89l-4.38,12.19Z"/>
            <path class="cls-1" d="M228.56,103.27H216.82v31.4h-6.59v-31.4H198.4V97h30.16Z"/>
            <path class="cls-1" d="M232.9,134.67V97h6.59v37.63Z"/>
            <path class="cls-1" d="M251,97l8.09,21.67a74.75,74.75,0,0,1,2.47,7.52,77.28,77.28,0,0,1,2.52-7.52L272.2,97h7L265,134.67H258.2L243.84,97Z"/>
            <path class="cls-1" d="M287.31,97h6.74l13.59,37.63h-6.95l-3-8.7H283.61l-3.09,8.7h-6.8Zm8.44,23.42-4.27-12.19a18.42,18.42,0,0,1-.77-2.89,14.56,14.56,0,0,1-.82,2.89l-4.38,12.19Z"/>
            <path class="cls-1" d="M0,45.72H14.46c9,.05,13.59,4.27,13.59,11.73,0,5.25-2.47,9.06-6.74,10.66l7,15.23H20.84L14.67,69.19H6.59V83.34H0Zm14.46,17.7c4.63,0,6.64-2.52,6.64-6S19,51.58,14.46,51.58H6.59V63.42Z"/>
            <path class="cls-1" d="M68.83,64.5C68.83,75.78,61.47,84,50.51,84S32.34,75.83,32.34,64.5s7.31-19.45,18.22-19.45S68.83,53.18,68.83,64.5Zm-6.94,0c0-8-4.43-13.07-11.33-13.07S39.24,56.52,39.24,64.5s4.37,13,11.32,13S61.89,72.48,61.89,64.5Z"/>
            <path class="cls-1" d="M72.82,64.55c0-11.68,7.41-19.5,18.38-19.5,8.54,0,15.08,5.25,16.36,13.28h-7c-1.28-4.43-5-6.85-9.52-6.85-7.05,0-11.32,5.2-11.32,13,0,8.13,4.58,13,11.32,13,4.84,0,8.85-2.67,10.24-6.69h6.85C106.64,78.81,99.69,84,90.89,84,80.23,84,72.82,76.7,72.82,64.55Z"/>
            <path class="cls-1" d="M121.94,45.72h6.75l13.58,37.62h-6.94l-3-8.7h-14l-3.09,8.7h-6.79Zm8.44,23.41-4.27-12.19a18.32,18.32,0,0,1-.77-2.88,14.48,14.48,0,0,1-.82,2.88l-4.38,12.19Z"/>
          </g>
          <path class="cls-1" d="M318.09,126.53a4.62,4.62,0,0,1,2.21.58,4.06,4.06,0,0,1,1.66,1.65,4.48,4.48,0,0,1,.61,2.25,4.54,4.54,0,0,1-.59,2.23,4.21,4.21,0,0,1-1.66,1.66,4.51,4.51,0,0,1-4.46,0,4.21,4.21,0,0,1-1.66-1.66,4.51,4.51,0,0,1,0-4.48,4.14,4.14,0,0,1,1.67-1.65A4.59,4.59,0,0,1,318.09,126.53Zm0,.88a3.65,3.65,0,0,0-1.77.46A3.34,3.34,0,0,0,315,129.2a3.6,3.6,0,0,0-.49,1.81,3.72,3.72,0,0,0,.47,1.8,3.47,3.47,0,0,0,1.33,1.33,3.6,3.6,0,0,0,3.59,0,3.4,3.4,0,0,0,1.33-1.33,3.6,3.6,0,0,0,0-3.61,3.36,3.36,0,0,0-1.34-1.33A3.66,3.66,0,0,0,318.09,127.41Zm-1.84,5.79v-4.33h2.26a2,2,0,0,1,.68.17,1.18,1.18,0,0,1,.41.42,1.3,1.3,0,0,1,.16.62,1.12,1.12,0,0,1-.31.8,1.37,1.37,0,0,1-.86.41,1.1,1.1,0,0,1,.31.17,1.48,1.48,0,0,1,.29.33l.32.52.51.88h-1.09l-.36-.71a2.83,2.83,0,0,0-.6-.89,1,1,0,0,0-.61-.18h-.23v1.78Zm.88-2.46h.36a4.21,4.21,0,0,0,.94-.06.61.61,0,0,0,.29-.2.58.58,0,0,0,.11-.34.54.54,0,0,0-.11-.32.56.56,0,0,0-.29-.2,4.28,4.28,0,0,0-.94-.06h-.36Z"/>
        </g>
        <g>
          <path class="cls-1" d="M230.47,29.29a71.07,71.07,0,0,1,24.36-8.14,84.64,84.64,0,0,1,31.66,1.76c-1.58-7.68-6.15-14.55-15.79-19.42-15.27-7.73-40.41-1.52-60.79,8A97.35,97.35,0,0,1,230.47,29.29Z"/>
          <path class="cls-1" d="M199,67.44c3.51-9.59,11-24.36,26.13-34.84-.55-.62-1.08-1.25-1.66-1.87a92.53,92.53,0,0,0-20.09-16c-3.45,1.82-6.69,3.7-9.64,5.6-21.14,13.58-28.22,29.24,3.94,46.45Z"/>
          <path class="cls-1" d="M255.78,27.31a66,66,0,0,0-21.41,6.89A67.51,67.51,0,0,1,247.8,77a51.83,51.83,0,0,0,8.46-1.69c3.17-.81,23-10.48,27.83-27a65.64,65.64,0,0,0,3.09-18.77C277,26.89,266.28,25.74,255.78,27.31Z"/>
          <path class="cls-1" d="M229.07,37.39c-14.57,9.82-21.41,24-24.42,32.72a84.37,84.37,0,0,0,36.82,7.37A61.13,61.13,0,0,0,229.07,37.39Z"/>
        </g>
      </g>
    </g>
  </g>
</svg>
