<svg xmlns="http://www.w3.org/2000/svg" viewBox="0 0 226.44 157.75">
  <defs>
    <style>
      .cls-1, .cls-2 {
        fill: #31302e;
        fill-rule: evenodd;
      }

      .cls-1 {
        opacity: 0.4;
      }
    </style>
  </defs>
  <g id="Capa_2" data-name="Capa 2">
    <g id="Layer_1" data-name="Layer 1">
      <g>
        <path class="cls-1" d="M93.27,157.63q-45.73,0-91.46.05c-1.41,0-1.8-.48-1.8-1.85q0-27.06,0-54.13c0-1.53.52-1.86,2-1.86q63.79,0,127.6,0c.33,0,.67,0,1,.06,0,1.2-1,1-1.72,1.08a40.1,40.1,0,0,0-11.21,2.8c-3,1.32-5.65,3.07-7.2,6A9.71,9.71,0,0,0,111.5,121a17.23,17.23,0,0,0,6,5c3.77,1.85,7.44,3.9,11.07,6a12.87,12.87,0,0,1,6.86,11.7,10.07,10.07,0,0,1-4.13,8.25,25.82,25.82,0,0,1-17.38,5.52C107,157.6,100.15,157.43,93.27,157.63Z"/>
        <path class="cls-2" d="M114.43,157.38c6.14-.58,11.85-2.38,16.73-6.27s4.52-12.71-.57-16.57c-4.26-3.22-9.11-5.46-13.81-7.93a17.28,17.28,0,0,1-7.4-7.33c-2.5-4.75-.66-10.75,4.2-14.15,4.55-3.18,9.78-4.29,15.16-4.91a5.53,5.53,0,0,0,1.81-.29c3.08,0,6.16-.06,9.24-.06h84.37c2.24,0,2.25,0,2.25,2.28,0,17.87,0,35.74,0,53.61,0,1.49-.34,2-1.93,2q-54.28-.08-108.57,0c-.51,0-1,0-1.51-.05C114.18,157.57,114.18,157.47,114.43,157.38Z"/>
        <g>
          <path class="cls-2" d="M45.92,32.54q-6-1.58-12-3c-4.63-1.09-9.34-1.87-13.76-3.69-3.53-1.46-6.53-6.23-6.43-10.29s2.6-6.65,6.18-8.21c6.56-2.86,13-2.61,19.12,1.17,6.51,4,10.9,9.84,13.94,16.78.48,1.08.3,2.7,1.43,3.17s2.43.07,3.66.16,1.39-.42,1.31-1.47c-.2-2.46-.27-4.92-.41-7.38q-.51-8.89-1-17.77c0-.61,0-1.27-.94-1.26-2.06,0-4.13-.21-5.54,1.89A34,34,0,0,1,49,5.2c-.6.73-1,.78-1.89.25C36.21-1.12,24.9-2,13.64,4.17A22.27,22.27,0,0,0,3.87,33.36c3.36,7,9.32,11.13,16.46,13.72,4.52,1.64,9.31,1.85,14,2.7,4,.73,8,1.57,11.47,4,5.34,3.67,6.54,13.92-.06,17.62a21.69,21.69,0,0,1-13.59,2.71c-6.33-.82-11.34-4.26-15.6-8.85A47.63,47.63,0,0,1,7.6,50.71c-.2-.48-.21-1.26-.89-1.28-1.56,0-3.31-.54-4.61.22-.84.48-.12,2.08-.12,3.18,0,.16,0,.33,0,.5q.39,12.26.77,24.51c0,.84.24,1.15,1.14,1.2C6,79.17,7.81,79,9.28,77.18c1-1.24,2.43-2.15,3.56-3.32.78-.81,1.31-.79,2.22-.14A30,30,0,0,0,33.72,79.8c2.12-.15,4.25-.23,6.36-.46,4.9-.52,9.7-1.61,13.53-4.91C61.06,68,63.87,59.7,62.08,50.13,60.39,41.07,55.1,35,45.92,32.54Z"/>
          <path class="cls-2" d="M153.2,56.29c-1.08-.21-1.45,0-1.68,1.08a26.9,26.9,0,0,1-4.74,10.47c-4.16,5.47-9.72,7.55-16.43,6.41-6-1-9.75-4.86-11.9-10.42A34.67,34.67,0,0,1,117,57.48a58.61,58.61,0,0,1,.58-23.34,27.55,27.55,0,0,1,1.95-5.53c5-10.77,14.87-9.84,21.19-5.84,5.74,3.64,8.44,9.37,10.27,15.62.73,2.47.67,2.45,3.29,2.14.92-.1,1.34-.31,1.31-1.4l-.67-20.81c0-2.78,0-2.77-2.82-2.55a2.07,2.07,0,0,0-1.42.78c-1,1.05-2,2.08-3,3.18-.62.69-1.14.91-2,.27A21,21,0,0,0,134,16c-11.32-.84-20.76,2.85-27.6,12.06-5.81,7.83-7.36,16.78-5.91,26.31a28.86,28.86,0,0,0,8.82,17.32c7.06,6.57,15.61,8.89,25,7.63,11.66-1.56,18.88-7.48,21.75-18.46C157,57,157,57,153.2,56.29Z"/>
          <path class="cls-2" d="M96.29,73.7c-1.4,0-2.8,0-4.2,0a2.81,2.81,0,0,1-2.87-2.36A10,10,0,0,1,89,69c0-6.95,0-13.89,0-20.84V27.67c0-5.24.88-6.11,6.1-6.13,2.76,0,2.42.46,2.45-2.54,0-.16,0-.33,0-.5.1-.9-.35-1.15-1.19-1.15-9.91,0-19.83,0-29.74,0-.43,0-1.07-.11-1.11.46a8.64,8.64,0,0,0,.06,3.33c.26.81,1.4.31,2.14.37s1.68,0,2.52,0a3.34,3.34,0,0,1,3.45,2.61A10.33,10.33,0,0,1,74,27q0,20.51,0,41c0,5.19-.54,5.71-5.78,5.73-3.18,0-2.64-.44-2.81,2.74-.09,1.65.45,2.05,2,2,9-.08,17.93,0,26.89,0,3.74,0,3.15.83,3.24-3.46C97.55,74,97.25,73.66,96.29,73.7Z"/>
          <path class="cls-2" d="M216.5,26c-8.74-9.68-19.95-11.73-32.11-8.9-13.93,3.24-23.23,16-23.23,31.12a25.74,25.74,0,0,0,.45,5.53c4.66,25.58,32,31.74,48.47,21,8.58-5.62,13-13.84,14-23.92C225,41.43,222.8,32.94,216.5,26Zm-11,39c-1.21,3.86-3.08,7.34-7.1,9.09-6.52,2.83-12.85.86-16.56-5.19A29.56,29.56,0,0,1,178,56.66a67.72,67.72,0,0,1-.47-8.89c.07-6.57.48-13.08,3.18-19.22,1.89-4.28,5-7.12,9.67-8a12.24,12.24,0,0,1,13.8,7.11,38.44,38.44,0,0,1,3.51,14.42C208.18,49.83,207.84,57.52,205.5,65Z"/>
        </g>
      </g>
    </g>
  </g>
</svg>
