<svg xmlns="http://www.w3.org/2000/svg" viewBox="0 0 282.82 158.54">
  <defs>
    <style>
      .cls-1 {
        fill: #31302e;
      }
    </style>
  </defs>
  <g id="Capa_2" data-name="Capa 2">
    <g id="Layer_1" data-name="Layer 1">
      <g>
        <path class="cls-1" d="M208.37,56.26h18.35c.17.53-.21.56-.5.62-.73.16-1.47.27-2.19.46a18.64,18.64,0,0,0-2,.66,2.76,2.76,0,0,0-1.84,2.58c0,.49-.05,1-.05,1.49V95c1.05,0,2,0,3,0a38.77,38.77,0,0,0,4.45-.45,8.73,8.73,0,0,0,6.06-4.29,24.6,24.6,0,0,0,2.23-5.13c.15-.46.16-.46.66-.48.13,4.19.26,8.38.39,12.62-4.72,0-9.44,0-14.16,0l-14.16.09c-.11,2.27-.27,4.45-.25,6.72.87-.08,1.64-.14,2.4-.22,4.61-.53,9.22-1.12,13.83-1.57,4-.39,8.07-.66,12.11-.9a47,47,0,0,1,8.3.08c1.39.16,2.77.4,4.28.62l2.2-5.89c-.25-.16-.45-.3-.66-.42a19.22,19.22,0,0,1-9.85-14,22.59,22.59,0,0,1,1.79-14.23c3.39-7,8.95-11.12,16.71-12.08a21.18,21.18,0,0,1,14.4,3.11,18.75,18.75,0,0,1,8.48,12.59,23.12,23.12,0,0,1-1.75,15.22A20.49,20.49,0,0,1,264.28,98.1a22.64,22.64,0,0,1-9.71-.75c-.2-.06-.41-.1-.62-.15a1.25,1.25,0,0,0-.15.27c-.53,3.6-1.11,7.19-1.56,10.81a123.11,123.11,0,0,0-.87,17.06c.06,4,.25,8,.46,11.95.22,4.13.56,8.26.8,12.39.09,1.71.07,3.43.09,5.14a4.13,4.13,0,0,1-.09.93,1,1,0,0,1-1.06.86,1,1,0,0,1-1-.84,17.58,17.58,0,0,1-.42-2.39c-.22-2.82-.42-5.65-.59-8.47-.26-4.14-.53-8.27-.72-12.41-.14-3.2-.25-6.41-.24-9.61a107.56,107.56,0,0,1,1-15.84,1.49,1.49,0,0,0-.07-.77,5.92,5.92,0,0,0-.3.62c-1.8,4.54-3.61,9.08-5.38,13.64a7.15,7.15,0,0,0-.33,1.54,2.93,2.93,0,0,1-.77,1.55A4.67,4.67,0,0,0,242,125a68.86,68.86,0,0,1-5.22,11,20,20,0,0,1-1.55,2.22,5.23,5.23,0,0,1-1.41,1.2,2.23,2.23,0,0,1-3.39-1.28,7.74,7.74,0,0,1-.35-3.41,28.56,28.56,0,0,1,5.73-15,24.64,24.64,0,0,1,1.8-2,4.56,4.56,0,0,1,1.1-.85,2.93,2.93,0,0,1,3.78.36,6.84,6.84,0,0,1,.48.51c2.12-4.74,3.93-9.49,5.74-14.28a7.64,7.64,0,0,0-3.1-.7,55.52,55.52,0,0,0-10.63.06c-3.19.26-6.39.54-9.58.86-3.56.37-7.12.79-10.67,1.21-1.7.19-3.4.43-5.1.65l-1.42.21c-.07.66-.16,1.27-.19,1.89q-.24,6-.44,12-.24,7.19-.43,14.38c-.07,3.14-.09,6.29-.13,9.43,0,2.9-.08,5.79-.13,8.69a3.77,3.77,0,0,1-.1.83,1,1,0,0,1-1,.76.93.93,0,0,1-1-.72,6,6,0,0,1-.18-1.19c-.1-2.15-.21-4.29-.25-6.44q-.18-8.4-.28-16.82c0-1.92.09-3.85.14-5.78,0-.28,0-.56,0-.85-1.18.48-11,8.49-11.89,9.67.19,1.35.43,2.61.52,3.87a16.3,16.3,0,0,1-1.53,7.62,29.25,29.25,0,0,1-9.39,12,14.93,14.93,0,0,1-2.42,1.4,4.46,4.46,0,0,1-1.52.41c-1.83.15-2.81-.81-2.58-2.63a11,11,0,0,1,.75-2.68,36.52,36.52,0,0,1,4.23-7.35c2.8-4.06,5.85-7.92,9-11.68l.65-.79a9.58,9.58,0,0,0-2.22-2.92,16.92,16.92,0,0,0-6-3.35c-2.35-.8-4.75-1.46-7.12-2.23-1.83-.6-3.66-1.23-5.45-1.94a13.3,13.3,0,0,1-2.61-1.44,6.19,6.19,0,0,1-2.69-6.42A16.54,16.54,0,0,1,166,108a45.12,45.12,0,0,1,4.88-7.07,70.62,70.62,0,0,1,9.45-9.8,1.37,1.37,0,0,0,.49-1.22q0-8.17,0-16.36v-12c0-.31,0-.62,0-.93a2.92,2.92,0,0,0-1.95-2.81c-.93-.36-1.9-.6-2.85-.9-.3-.09-.73-.1-.51-.67h18.33c.09.25.15.48-.2.56-.52.12-1,.2-1.55.33-.91.23-1.82.45-2.7.76a2.83,2.83,0,0,0-2.06,2.8c0,.28,0,.56,0,.84V86.69c.37-.1.63-.15.88-.23a10.9,10.9,0,0,1,3.76-.57,6.15,6.15,0,0,1,5.11,2.83,25.3,25.3,0,0,1,1.55,3c.1.21.18.44.29.72a6.84,6.84,0,0,0,2-2.41c.68-1.36,1.25-2.78,1.86-4.17.13-.32.2-.66.35-1,.07-.15.26-.24.53-.47.14,4.41.28,8.62.43,12.93h-4.17v7.86l5.09-.66c.06-.76.12-1.46.19-2.17.24-2.64.45-5.27.74-7.9a5.93,5.93,0,0,1,.64-1.84.94.94,0,0,1,1.25-.5.93.93,0,0,1,.71,1c0,1,0,2,0,3,0,.18,0,.36,0,.59a10.81,10.81,0,0,0,3.65-1.19,2.55,2.55,0,0,0,1.35-2,13.27,13.27,0,0,0,.13-1.67q0-15,0-30c0-2.81-.65-3.67-3.38-4.47-.54-.16-1.08-.28-1.62-.43C208.4,56.79,208.41,56.78,208.37,56.26Zm67.25,21.85c-.19-1.92-.3-3.85-.6-5.75a21.49,21.49,0,0,0-2.91-8.22,12.57,12.57,0,0,0-9.31-6.33,11.45,11.45,0,0,0-10.41,3.61,16.73,16.73,0,0,0-4.06,8.38,30.19,30.19,0,0,0,.44,13.6,19,19,0,0,0,4.56,8.66,12.27,12.27,0,0,0,14.5,2.48,12.89,12.89,0,0,0,5.59-6.08A25.06,25.06,0,0,0,275.62,78.11Zm-75.86,28.83c.21.35.34.52.43.7.18.39.28.82-.08,1.12a1.51,1.51,0,0,0-.47,1,3.58,3.58,0,0,1-.36,1,1.2,1.2,0,0,1-1.16.64,1.19,1.19,0,0,1-1.15-.81,5.64,5.64,0,0,1-.26-1.36c0-.52,0-1,0-1.65-.84.13-1.57.26-2.3.36-3.33.47-6.65.95-10,1.36a6.42,6.42,0,0,1-1.94-.18.69.69,0,0,1-.59-.82c.08-.48.45-.55.84-.57.15,0,.31,0,.46,0a6.85,6.85,0,0,0,1.11,0c2.28-.33,4.56-.66,6.83-1,1.9-.3,3.79-.65,5.72-1a56.57,56.57,0,0,0,.25-8.33c-.92,0-1.72-.1-2.53-.09l-15.87,0c-.5,0-1,0-1.5,0a1.1,1.1,0,0,0-1,.45c-.38.45-.79.88-1.19,1.31a56.47,56.47,0,0,0-7.63,10.47,13.4,13.4,0,0,0-1.45,3.82c-.4,1.92-.08,3.63,1.59,4.83a12.06,12.06,0,0,0,2.75,1.55c2,.77,4.06,1.4,6.09,2.08,2.56.87,5.16,1.65,7.67,2.64a14.25,14.25,0,0,1,7.23,5.66,1.49,1.49,0,0,0,.21.15c.32-.27.66-.53,1-.82,3.24-3,6.88-5.44,10.35-8.13a8.18,8.18,0,0,1,1.36-.69c.22-4.7.45-9.5.69-14.44Zm-22.39,48a4.14,4.14,0,0,0,2.86-1,27.56,27.56,0,0,0,8.38-9.51,18.09,18.09,0,0,0,2.32-8.19,7.57,7.57,0,0,0-.27-2.57,1.44,1.44,0,0,0-.27.2,110.47,110.47,0,0,0-10.78,14.65q-.95,1.6-1.74,3.3A4.91,4.91,0,0,0,177.37,155Zm55.32-17.6a6.41,6.41,0,0,0,.89-.74,13,13,0,0,0,.94-1.27A64.72,64.72,0,0,0,239,127c.46-1,.85-2,1.36-3a4.73,4.73,0,0,0,.61-2.41,4,4,0,0,0-.62-2.53,6.81,6.81,0,0,0-1.1.75,16.27,16.27,0,0,0-1.61,1.81A28.71,28.71,0,0,0,233,131.84,14.11,14.11,0,0,0,232.69,137.35ZM187.37,95c3.17,0,6.29.22,9.29-1.08a8.12,8.12,0,0,0-2.13-4.45,3.73,3.73,0,0,0-3.09-1.25,26,26,0,0,0-3.37.63c-.77.19-.76.26-.77,1,0,1.43,0,2.86,0,4.29C187.3,94.4,187.34,94.64,187.37,95Zm-9.23.86c1.63-.34,2.42-1.1,2.37-2.14Z"/>
        <path class="cls-1" d="M74.79,42H57.57c-.11-.43.13-.49.39-.56.69-.18,1.39-.35,2.07-.56a7.32,7.32,0,0,0,1.12-.46,2.84,2.84,0,0,0,1.76-2.83c-.08-2.09-.2-4.17-.3-6.25-.23-4.48-.47-8.95-.68-13.43-.14-3-.24-5.91-.36-8.87,0-.21,0-.42-.06-.62-.39-.18-.45.1-.55.33L59.13,13Q53.05,27.35,47,41.66c-.14.34-.12.87-.66.91s-.63-.53-.8-.88q-7.12-14.5-14.22-29c-.46-.95-.93-1.9-1.4-2.84-.11-.22-.25-.41-.4-.65-.39.29-.31.65-.32,1-.12,2.68-.22,5.35-.32,8q-.26,6.34-.52,12.69c0,1.27-.12,2.55-.16,3.82a13.06,13.06,0,0,0,0,1.4,4.81,4.81,0,0,0,3.2,4.34c1,.41,2.12.69,3.2,1,.28.08.55.13.42.6H18.83c.18-.26.25-.46.39-.54a3.21,3.21,0,0,1,.62-.2c.59-.2,1.19-.38,1.76-.61a5.41,5.41,0,0,0,3.52-4.77c.18-1.71.26-3.42.35-5.13q.39-6.71.74-13.43c.16-3.2.3-6.4.44-9.6a7.15,7.15,0,0,0-.06-1.31,4.49,4.49,0,0,0-2.65-3.7C23,2.3,22,2,21,1.66c-.26-.09-.58-.09-.47-.58H33q7.47,15.26,15,30.61c.54-.12.55-.52.67-.81q2.72-6.4,5.41-12.82L60.94,1.79c.09-.23.2-.45.32-.72H73c.14.32,0,.47-.28.54-.48.11-1,.23-1.44.37a11.1,11.1,0,0,0-1.15.39A3.36,3.36,0,0,0,67.73,6c.08,2.49.2,5,.32,7.47.21,4.13.41,8.27.65,12.4.22,3.86.48,7.71.73,11.56a3.47,3.47,0,0,0,2.4,3.25c.81.31,1.66.52,2.49.76C74.59,41.5,74.91,41.51,74.79,42Z"/>
        <path class="cls-1" d="M20.87,98.43c-1.7-.24-3.32-.39-4.89-.71A19.38,19.38,0,0,1,.43,81.65a23.41,23.41,0,0,1,.84-12.17c2.48-6.89,7.39-11.23,14.37-13.26a26.26,26.26,0,0,1,12.21-.5c2.51.45,5,1,7.52,1.57l-.45,10.87c-.39.23-.54,0-.69-.34-.36-.72-.69-1.47-1.09-2.17a38.64,38.64,0,0,0-2.08-3.43,10.38,10.38,0,0,0-9.32-4.53c-5.57.17-9.5,3-12.09,7.78a20.18,20.18,0,0,0-2.28,8.41,28,28,0,0,0,1.68,12,16.1,16.1,0,0,0,5.57,7.56,12.83,12.83,0,0,0,11.2,1.94,9.17,9.17,0,0,0,5-3.59,26.79,26.79,0,0,0,3.48-6.69,3,3,0,0,1,.29-.68c.1-.13.33-.16.55-.25.16,3.72.31,7.33.46,11A28.1,28.1,0,0,1,30,97.33c1.84,2.65,1.54,5.51,1.09,8.35A16.53,16.53,0,0,1,29.38,111s-.06.1-.08.16c-.54,1-1.25,1.45-2.05,1.3a2.41,2.41,0,0,1-1.42-1.92c-.09-.62,0-.94.62-1a1.41,1.41,0,0,0,1.14-1.17,27.66,27.66,0,0,0,1.08-6.24,4.62,4.62,0,0,0-.43-2.37,1.64,1.64,0,0,0-1.74-1A7.11,7.11,0,0,0,23.21,100,23.33,23.33,0,0,0,19,103.6a51.49,51.49,0,0,0-8.38,12.2A78.76,78.76,0,0,0,4.33,132a45.05,45.05,0,0,0-1.59,11.72,16.7,16.7,0,0,0,.84,5.05,9,9,0,0,0,8,6.37,23.69,23.69,0,0,0,8.79-.73,64.73,64.73,0,0,0,19.4-8,31,31,0,0,0,3.73-3,7.45,7.45,0,0,0,1.22-1.64,2.79,2.79,0,0,0,.46-2.05,1.58,1.58,0,0,1,0-.65c.07-.24.18-.62.35-.66a.79.79,0,0,1,.71.28,2.73,2.73,0,0,1,.44,1.19,5.63,5.63,0,0,1-1.11,3.68,13.41,13.41,0,0,1-3,3A49.83,49.83,0,0,1,33.17,152a68.58,68.58,0,0,1-15.21,5,21.59,21.59,0,0,1-7.52.33,11,11,0,0,1-9.59-8.81,24.15,24.15,0,0,1-.51-7.34,62.69,62.69,0,0,1,3.83-16.31,75.55,75.55,0,0,1,9-18,43.36,43.36,0,0,1,7.41-8.25A3.75,3.75,0,0,0,20.87,98.43Z"/>
        <path class="cls-1" d="M91.7,124.69l-1.29,2C89,129,87.57,131.19,86.1,133.4a12,12,0,0,1-2.85,3.19,4.56,4.56,0,0,1-1.31.69,2.32,2.32,0,0,1-2.82-1.23,8.49,8.49,0,0,1-.9-3.79,31,31,0,0,1,.69-8c0-.18,0-.36.09-.65-.28.12-.46.2-.63.29-3.28,1.79-6.54,3.62-9.84,5.37a20.38,20.38,0,0,1-7.81,2.37c-.25,0-.49.07-.82.11l-.33,3.42c-.13,1.36-.26,2.73-.36,4.09a2.12,2.12,0,0,0,.06,1,3.46,3.46,0,0,1,.09,2.11c-.13.8-.27,1.6-.43,2.39a2.68,2.68,0,0,1-.37.85.87.87,0,0,1-1,.42.81.81,0,0,1-.68-.68,8.27,8.27,0,0,1-.16-1.48q.06-4,.18-8c.05-1.46.16-2.92.25-4.41-.31-.19-.64-.36-.94-.57a1.93,1.93,0,0,1-.89-1.92,5.39,5.39,0,0,1,.78-2.28,3.84,3.84,0,0,1,.59-.84,6.23,6.23,0,0,0,1.68-4.21,96.35,96.35,0,0,1,2-12.52c.37-1.42.86-2.8,1.32-4.18a1.51,1.51,0,0,1,1.39-1.08c.64-.06,1,.21.94.85a7.36,7.36,0,0,1-.29,1.74A64.07,64.07,0,0,0,62,115c-.25,1.54-.46,3.08-.69,4.62,0,.24,0,.49-.07,1,.37-.35.61-.57.84-.81a45.9,45.9,0,0,1,6-5.27,3.58,3.58,0,0,1,1.89-.72,1,1,0,0,1,1,.47,1.11,1.11,0,0,1-.15,1.23,2.74,2.74,0,0,1-.62.56,23.78,23.78,0,0,0-4.35,3.52c-1.67,1.58-3.23,3.28-4.85,4.91a2.08,2.08,0,0,0-.6,1.42c-.08,1.17-.23,2.34-.37,3.56a10.56,10.56,0,0,0,3.47-.25,24.38,24.38,0,0,0,6.51-2.5c3-1.57,5.91-3.2,8.87-4.8a1.84,1.84,0,0,0,.91-1,3,3,0,0,1,.61-.93,1.3,1.3,0,0,1,1.7-.13,1.5,1.5,0,0,1,.16,1.78,2.54,2.54,0,0,0-.37.63,31.56,31.56,0,0,0-1.3,10.88,4.45,4.45,0,0,0,.65,2.15,2.67,2.67,0,0,0,1.68-.73,14.2,14.2,0,0,0,1.62-1.67c2.38-2.85,4.3-6,6.38-9.09a10.4,10.4,0,0,0,1.82-4.42,7.6,7.6,0,0,1,.59-1.76,1.12,1.12,0,0,1,1.1-.73,1.08,1.08,0,0,1,1,.86c.18.55.29,1.12.45,1.73l-1,.37c-.27,2.46-.56,5-.84,7.5l.18,0c.13-.28.26-.55.38-.82.8-1.72,1.59-3.45,2.41-5.15a4.93,4.93,0,0,1,.86-1.21,1.64,1.64,0,0,1,2.55,0,2.91,2.91,0,0,1,.75,1.26c.42,1.56.75,3.15,1.12,4.72.17.73.34,1.46.55,2.17a4.25,4.25,0,0,0,.48,1c.63,1,1.14,1.17,2.21.73a8.78,8.78,0,0,0,2.18-1.22c2.28-1.88,4.52-3.82,6.74-5.76.82-.72,1.54-1.55,2.38-2.24a9,9,0,0,1,2.19-1.39,2.29,2.29,0,0,1,3.18,1.27c.17.33.31.67.5,1.1.37-.26.7-.47,1-.7.84-.65,1.65-1.33,2.51-2a7.47,7.47,0,0,1,3.1-1.22,2.55,2.55,0,0,1,2.86,1.54,10.69,10.69,0,0,1,.65,4.22,54.72,54.72,0,0,1-1.1,7.85,1.86,1.86,0,0,0,0,.93l.66-.7c1.56-1.69,3.05-3.45,4.7-5.06,2.06-2,4.24-3.94,6.37-5.9.46-.42.94-.81,1.43-1.2a1.51,1.51,0,0,1,1.76-.25,3.27,3.27,0,0,1-.41.77,13,13,0,0,1-1.13,1,81.26,81.26,0,0,0-9.72,9.56c-1.39,1.63-2.78,3.27-4.19,4.89a3.34,3.34,0,0,0-.72,1.49,91,91,0,0,1-3.72,12.42,39.66,39.66,0,0,1-3.07,6.28,6.23,6.23,0,0,1-2.66,2.55,2.09,2.09,0,0,1-3.06-1.29,4.27,4.27,0,0,1-.18-1.37,15.75,15.75,0,0,1,1.75-6.44,54.15,54.15,0,0,1,5.76-9c.87-1.1,1.77-2.17,2.63-3.28a2.86,2.86,0,0,0,.51-1.07,77,77,0,0,0,1.93-10.46c.1-1.11.11-2.23.12-3.35a2.65,2.65,0,0,0-.67-1.83,4.58,4.58,0,0,0-2.86,1.2c-1.5,1.21-3,2.46-4.45,3.71-2,1.67-3.9,3.39-5.89,5a10.86,10.86,0,0,1-2.11,1.36,2.12,2.12,0,0,1-2.46-.14,2.21,2.21,0,0,1-.5-2.34c.13-.51.28-1,.46-1.65-.23.16-.4.25-.55.36-1.16.94-2.31,1.89-3.49,2.81a6.64,6.64,0,0,1-2.65,1.33,2.83,2.83,0,0,1-3-.94,5.85,5.85,0,0,1-1.24-2.38c-.4-1.57-.73-3.15-1.12-4.72-.2-.78-.47-1.54-.77-2.51a5.84,5.84,0,0,0-.74.86,37.27,37.27,0,0,0-1.82,3.56c-.76,1.91-1.38,3.87-2.07,5.8a5.67,5.67,0,0,1-.57,1.28A1.13,1.13,0,0,1,92,132.6a3.31,3.31,0,0,1-.33-1.34c0-1.8,0-3.61.09-5.41,0-.37.07-.74.11-1.11ZM120,156.3a1.92,1.92,0,0,0,1.16-.84,22.77,22.77,0,0,0,1.75-2.64,58.74,58.74,0,0,0,4.2-11.44,3,3,0,0,0,0-.44c-.32.43-.55.72-.77,1a67.76,67.76,0,0,0-5,8.31,13.06,13.06,0,0,0-.8,1.89A10.44,10.44,0,0,0,120,156.3Zm-6.07-27.25c1.55-.61,6.67-4.91,7.84-6.56-.12-.24-.23-.5-.36-.74-.56-1-1.12-1.2-2.12-.56a8.86,8.86,0,0,0-1.64,1.35,17.57,17.57,0,0,0-3.52,5.77A5.59,5.59,0,0,0,113.9,129.05Z"/>
        <path class="cls-1" d="M200.84,2.16,200.39,13c-.43.25-.58-.08-.73-.39-.48-1-.93-2-1.46-2.93a25.54,25.54,0,0,0-1.75-2.75,10.8,10.8,0,0,0-8.82-4.48c-6.57-.25-11.53,3.62-13.83,9.67a24.08,24.08,0,0,0-1.42,9.63A26,26,0,0,0,174,30.16a15.68,15.68,0,0,0,7.25,8.58,17.09,17.09,0,0,0,9.31,1.87,21.76,21.76,0,0,0,5.17-1,5.85,5.85,0,0,0,.07-.72c0-2.8,0-5.61,0-8.41,0-2.51-.66-3.43-3-4.15-1.22-.36-2.49-.55-3.73-.85-.28-.06-.75,0-.64-.61h17.85a.38.38,0,0,1-.25.59l-1.31.5a3.6,3.6,0,0,0-2.51,3.73c0,2.9,0,5.79,0,8.69v1.06a5.46,5.46,0,0,1-.55.34A33.06,33.06,0,0,1,187,43.08,25.07,25.07,0,0,1,176,40.64a18.43,18.43,0,0,1-10.16-12.58c-1.62-6.58-.93-12.89,2.91-18.61a21,21,0,0,1,13.91-9,29.28,29.28,0,0,1,11,.08c2.21.39,4.38.93,6.57,1.4A5.17,5.17,0,0,1,200.84,2.16Z"/>
        <path class="cls-1" d="M156.26,2.16c-.15,3.66-.31,7.28-.46,10.87-.54.15-.62-.21-.75-.48-.46-.92-.87-1.86-1.37-2.76A28.4,28.4,0,0,0,151.94,7a10.82,10.82,0,0,0-9-4.58c-6.62-.23-11.65,3.77-13.89,10a25.23,25.23,0,0,0-1.22,10.77,25.11,25.11,0,0,0,1.4,6.65,15.78,15.78,0,0,0,7.43,8.91,17,17,0,0,0,9.22,1.83,21.1,21.1,0,0,0,5.16-1,5.82,5.82,0,0,0,.07-.73c0-2.8,0-5.6,0-8.41,0-2.57-.64-3.44-3.12-4.17-1.19-.35-2.43-.54-3.64-.82-.3-.06-.74,0-.68-.61h17.88a.37.37,0,0,1-.22.59c-.32.13-.65.23-1,.35-2.25.91-2.88,1.82-2.89,4.25v9.47l-1.12.53a32.87,32.87,0,0,1-14,3,25,25,0,0,1-11.1-2.54,18.46,18.46,0,0,1-9.55-11,23,23,0,0,1,.37-16.1C124.69,6.87,129.63,2.78,136.4.88A26.38,26.38,0,0,1,146.68.23a66.37,66.37,0,0,1,9,1.73A6.21,6.21,0,0,1,156.26,2.16Z"/>
        <path class="cls-1" d="M243.74,39.6c.09.06.11.1.14.1a36,36,0,0,0,9.1-.51,8.66,8.66,0,0,0,6-4.47c.68-1.28,1.19-2.66,1.78-4,.11-.26.06-.65.64-.67.15,4,.31,7.91.47,12-2.5.19-5-.05-7.51,0s-5,0-7.47,0l-7.57,0h-7.62c.19-.27.26-.48.4-.54a8.48,8.48,0,0,1,.9-.24c.62-.19,1.25-.37,1.87-.58a3.22,3.22,0,0,0,2.35-3.23v-31c0-2.63-.62-3.49-3.12-4.27-.62-.19-1.26-.34-1.89-.52-.24-.06-.24-.07-.36-.56h29.82c-.15,3.5-.3,7-.45,10.43-.3.18-.49.1-.6-.19l-.57-1.48a9,9,0,0,0-7.42-6.07,51.06,51.06,0,0,0-8.82-.41c-.2.71-.26,14.36-.09,15.69.05,0,.1.11.15.11,2.08-.05,4.17,0,6.24-.17a5.77,5.77,0,0,0,4.52-2.81c.48-.76.87-1.58,1.31-2.37.14-.26.19-.63.67-.51V27.34c-.36.21-.48-.1-.63-.38-.36-.72-.7-1.46-1.11-2.16a6.05,6.05,0,0,0-4.44-3.09,15.26,15.26,0,0,0-2.13-.24c-1.4,0-2.8,0-4.2,0a2.41,2.41,0,0,0-.4.07Z"/>
        <path class="cls-1" d="M66.74,85H50.79c-.14.34-.29.67-.44,1-.56,1.35-1.15,2.69-1.68,4A12.22,12.22,0,0,0,48,92.2a3,3,0,0,0,1.65,3.44,23.72,23.72,0,0,0,2.79,1c.27.1.75,0,.68.61H38.9c.14-.22.2-.43.34-.52a3.16,3.16,0,0,1,.68-.29,8,8,0,0,0,4.47-3.77,37.49,37.49,0,0,0,1.66-3.44Q52.8,73.09,59.51,56.91a6.07,6.07,0,0,1,.41-.94.67.67,0,0,1,.47-.33c.16,0,.35.2.47.34a1.84,1.84,0,0,1,.24.51L77.27,91.91c.26.57.53,1.13.83,1.68a5.63,5.63,0,0,0,4,3,2.84,2.84,0,0,1,.72.2c.11.06.14.28.24.5H65.6c-.2-.52.18-.56.46-.65.72-.21,1.45-.37,2.16-.6,2.13-.71,2.59-1.69,1.72-3.76C69,90,68,87.76,67,85.51,66.93,85.34,66.84,85.18,66.74,85ZM58.83,66.32h-.35C56.25,71.7,54,77.08,51.8,82.55h14C63.43,77.09,61.13,71.7,58.83,66.32Z"/>
        <path class="cls-1" d="M120.52,42H103.1c-.17-.35,0-.51.26-.58.52-.13,1-.24,1.54-.4a13.56,13.56,0,0,0,1.75-.64,1.84,1.84,0,0,0,1.11-2.3A5.69,5.69,0,0,0,107.4,37c-.94-2.21-1.91-4.4-2.84-6.61a.92.92,0,0,0-1-.68c-5,0-10,0-15,0-.09,0-.19,0-.34,0-.11.22-.24.46-.35.72-.62,1.46-1.27,2.91-1.83,4.39a11.08,11.08,0,0,0-.63,2.52,2.8,2.8,0,0,0,1.63,3,24.3,24.3,0,0,0,3,1.06c.25.09.59,0,.58.5-.09,0-.19.14-.29.14h-14c.15-.29.19-.52.32-.6a7.89,7.89,0,0,1,1-.39,7.78,7.78,0,0,0,4-3.44,29.18,29.18,0,0,0,1.59-3.16q6.89-16.5,13.75-33a4.26,4.26,0,0,1,.33-.76c.11-.16.31-.35.47-.35s.35.2.46.36a3.76,3.76,0,0,1,.32.67q8.07,17.71,16.16,35.42c.15.34.31.68.47,1a6.05,6.05,0,0,0,4.58,3.6C120.22,41.49,120.21,41.51,120.52,42ZM96,11c-2.27,5.52-4.49,10.9-6.74,16.36h13.86C102.91,26.26,96.63,11.66,96,11Z"/>
        <path class="cls-1" d="M149.68,56.25c-.16,4.27-.31,8.43-.47,12.58-.3.15-.48,0-.56-.26-.16-.53-.32-1.07-.49-1.6a16.72,16.72,0,0,0-2-4.22,9,9,0,0,0-6.09-4,31.77,31.77,0,0,0-5.27-.18c0,.37-.06.67-.06,1q0,16.06,0,32.14c0,.37.05.75.05,1.12a2.74,2.74,0,0,0,2,2.76c1.2.41,2.45.67,3.68,1a4.31,4.31,0,0,1,.73.17c.12.06.19.25.37.5H121.71c-.16-.33,0-.47.29-.53.82-.17,1.65-.32,2.46-.53a17.91,17.91,0,0,0,2-.68,2.63,2.63,0,0,0,1.73-2.35,10.37,10.37,0,0,0,.06-1.12V58.65c-2.79-.09-5.49-.24-8,1.07a9.37,9.37,0,0,0-4,4.1,20.79,20.79,0,0,0-1.68,4.45c-.08.29-.07.75-.65.58-.16-4.18-.31-8.36-.47-12.6Z"/>
        <path class="cls-1" d="M86.51,95.92c.15-3.54.3-7,.44-10.49.58-.26.66.09.79.37.58,1.17,1.12,2.36,1.74,3.51a17.9,17.9,0,0,0,3.16,4.38,7.25,7.25,0,0,0,7.93,1.72A6.62,6.62,0,0,0,105,89.26a7.72,7.72,0,0,0-2.36-6A22.34,22.34,0,0,0,98,79.84c-2.16-1.29-4.37-2.52-6.49-3.89a19.35,19.35,0,0,1-3-2.47c-4.74-4.7-3.26-12.24,1.37-15.59A14.4,14.4,0,0,1,98,55.26,28.83,28.83,0,0,1,106,56.48l2.43.63c-.15,3.35-.3,6.64-.45,9.92-.42.22-.55,0-.69-.35-.28-.66-.57-1.32-.87-2a16,16,0,0,0-2.82-4.39,8,8,0,0,0-8.71-2.21,6,6,0,0,0-3.1,9.15,11.42,11.42,0,0,0,3.14,3c1.85,1.22,3.76,2.33,5.62,3.52,1.65,1.06,3.3,2.12,4.88,3.28A12.08,12.08,0,0,1,109,81.15a11.66,11.66,0,0,1-3.66,14.65,13.61,13.61,0,0,1-7,2.45A22.52,22.52,0,0,1,88,96.58C87.52,96.4,87.11,96.19,86.51,95.92Z"/>
        <path class="cls-1" d="M153.43,56.25h17.18c.22.39,0,.53-.31.61-.51.14-1,.23-1.53.4a14.19,14.19,0,0,0-1.91.73,2.63,2.63,0,0,0-1.53,2.3c-.05.56-.08,1.12-.08,1.68q0,14.81,0,29.62c0,.49,0,1,.07,1.49a2.8,2.8,0,0,0,1.87,2.66c.95.37,2,.61,2.93.92.26.08.69,0,.54.62H153.29c.15-.24.22-.47.36-.52.4-.15.84-.21,1.25-.35.71-.23,1.42-.45,2.11-.75A2.85,2.85,0,0,0,158.78,93c0-.43,0-.87,0-1.3V61.82c0-.41,0-.81,0-1.22a2.87,2.87,0,0,0-1.89-2.75c-.95-.37-1.95-.62-2.92-.93C153.69,56.83,153.3,56.83,153.43,56.25Z"/>
        <path class="cls-1" d="M227,1.06c.12.37,0,.5-.32.57-.52.11-1,.25-1.54.39-.27.07-.53.17-.8.26a3.33,3.33,0,0,0-2.66,3.48c0,.31,0,.62,0,.93V36.42c0,.53.05,1,.1,1.58a2.67,2.67,0,0,0,1.75,2.44c1,.39,2,.66,3,1,.27.08.58.08.5.62-1.86.15-3.74-.05-5.61,0s-3.86,0-5.79,0h-5.7c-.19-.28-.1-.47.21-.56l1.26-.31c.36-.1.73-.2,1.08-.32,2.09-.73,2.71-1.57,2.78-3.78,0-.78,0-1.56,0-2.34q0-13.93,0-27.86c0-.49,0-1,0-1.49a3,3,0,0,0-2.05-2.84c-.76-.28-1.54-.5-2.31-.74a6.23,6.23,0,0,1-.8-.23c-.12-.06-.17-.27-.3-.5Z"/>
        <path class="cls-1" d="M269.39,127l-.54.83c-1.27,2-2.5,4-3.85,5.85a23.8,23.8,0,0,1-2.41,2.72,3.64,3.64,0,0,1-1.09.7,2.36,2.36,0,0,1-3.2-1,7.38,7.38,0,0,1-.83-2.75,20.12,20.12,0,0,1,0-5.59c.28-2,.69-3.92,1.1-5.87a5.25,5.25,0,0,1,.71-1.61,1.3,1.3,0,0,1,1.92-.47,1.45,1.45,0,0,1,.1,1.9,3,3,0,0,0-.34.76,32.56,32.56,0,0,0-1.27,10.25,4.62,4.62,0,0,0,.74,2.57,3.68,3.68,0,0,0,2.18-1.21,26.48,26.48,0,0,0,2.15-2.58c1.83-2.63,3.61-5.3,5.41-7.95.18-.26.32-.54.52-.78a2.81,2.81,0,0,0,.79-2.46,2.51,2.51,0,0,1,.24-1.36,1.58,1.58,0,0,1,2.15-.88,1.48,1.48,0,0,0,1.25,0,1.53,1.53,0,0,1,1.83.47c.51.64.38,1.23-.4,1.66a13.83,13.83,0,0,1,1.73,4.38,11.43,11.43,0,0,1,.08,4.73,5.13,5.13,0,0,1-4.17,4.15,3.76,3.76,0,0,1-4.41-2.29,6.26,6.26,0,0,1-.41-2.84c0-.42.06-.84.09-1.26Zm5.42-6.23c-.48.89-.9,1.65-1.3,2.41a11.53,11.53,0,0,0-1.41,5.17,6.38,6.38,0,0,0,.21,1.74,1.34,1.34,0,0,0,1.53,1.08A2.43,2.43,0,0,0,276,130a6.53,6.53,0,0,0,.76-2.17,9.88,9.88,0,0,0-1.16-6C275.37,121.57,275.11,121.26,274.81,120.8Z"/>
        <path class="cls-1" d="M226.69,117l-.54.83c-1.53,2.52-3,5.08-4.63,7.56a35.92,35.92,0,0,1-2.87,3.55,8.19,8.19,0,0,1-1.41,1.21,3.31,3.31,0,0,1-5-1.31,9,9,0,0,1-.67-2.12,18.86,18.86,0,0,1,.14-6,6.5,6.5,0,0,1,.29-1,1.63,1.63,0,0,1,2.13-1.17,1.74,1.74,0,0,1,1.42,2,7.21,7.21,0,0,1-.13.74l-.75.18a.65.65,0,0,0-.09.16c-.08,1.33-.19,2.67-.22,4a5.18,5.18,0,0,0,.24,1.56c.3,1.06.83,1.27,1.71.64a12,12,0,0,0,1.81-1.6,44.4,44.4,0,0,0,5-7.08c1-1.59,1.85-3.24,2.79-4.85a6.25,6.25,0,0,1,.74-1.08,1.12,1.12,0,0,1,2,.53,13.6,13.6,0,0,1,.13,3.06c-.18,3-.49,5.95-.64,8.94-.16,3.26-.22,6.53-.28,9.79,0,1.18,0,2.37.11,3.55a7.23,7.23,0,0,0,.28,1.27c.1.39.08.76-.33,1a.74.74,0,0,1-1-.3,3.42,3.42,0,0,1-.48-1.09,24.18,24.18,0,0,1-.44-5.94c.05-2,0-4,.15-6,.16-3.26.4-6.52.61-9.78l.06-1.25Z"/>
        <path class="cls-1" d="M51.71,120.21a13.62,13.62,0,0,1,2,7.16,6.78,6.78,0,0,1-.79,3.51,5.12,5.12,0,0,1-4.33,2.69,4,4,0,0,1-4.07-4,11.19,11.19,0,0,1,.84-4.92c.18-.43.37-.86.58-1.28a4.12,4.12,0,0,0,.7-3,2.72,2.72,0,0,1,.33-1.6,1.48,1.48,0,0,1,2-.72,1.59,1.59,0,0,0,1.33,0,1.48,1.48,0,0,1,1.77.42C52.64,119.14,52.52,119.76,51.71,120.21ZM50.1,121l-.28,0c-.5,1-1,1.9-1.5,2.88a11,11,0,0,0-1.12,4.87,5.28,5.28,0,0,0,.2,1.37,1.43,1.43,0,0,0,1.77,1.12,2.67,2.67,0,0,0,2.28-1.84A9.52,9.52,0,0,0,50.1,121Z"/>
        <path class="cls-1" d="M39.59,120.22a13.1,13.1,0,0,1,1.9,5.4,10,10,0,0,1-.32,4.52,5.42,5.42,0,0,1-4.61,3.44,4.06,4.06,0,0,1-4.14-4,10.17,10.17,0,0,1,.7-4.57c.36-.9.77-1.77,1.2-2.63a2.15,2.15,0,0,0,.24-1.41,4.75,4.75,0,0,1,.12-1.84A1.59,1.59,0,0,1,37,118.1a1.4,1.4,0,0,0,1.25,0,1.37,1.37,0,0,1,1.62.33C40.53,119,40.44,119.73,39.59,120.22Zm-1.75.58a19.57,19.57,0,0,0-2.31,4.81,8.33,8.33,0,0,0-.31,4.23,1.57,1.57,0,0,0,2.24,1.26,3,3,0,0,0,2.07-2.32,9.72,9.72,0,0,0-.81-6.53A15.24,15.24,0,0,0,37.84,120.8Z"/>
        <path class="cls-1" d="M82.65,112.1a.76.76,0,0,1-.78-.83.82.82,0,0,1,.84-.81.86.86,0,0,1,1,.8C83.68,111.75,83.27,112.09,82.65,112.1Z"/>
        <path class="cls-1" d="M261.92,110.46a.82.82,0,0,1,.88.87c0,.47-.46.79-1.07.77a.78.78,0,0,1-.72-.8A.84.84,0,0,1,261.92,110.46Z"/>
      </g>
    </g>
  </g>
</svg>
