<svg xmlns="http://www.w3.org/2000/svg" viewBox="0 0 300.34 97.84">
  <defs>
    <style>
      .cls-1 {
        fill: #31302e;
      }
    </style>
  </defs>
  <g id="Capa_2" data-name="Capa 2">
    <g id="Layer_1" data-name="Layer 1">
      <g>
        <path class="cls-1" d="M294.14,69.34,163,88.69a87.84,87.84,0,0,1-25.7,0L6.2,69.34A6.22,6.22,0,0,1,0,63.14v2.79c0,4,2.79,7.31,6.2,7.31L145.07,97.4a29.61,29.61,0,0,0,10.2,0L294.14,73.24c3.41,0,6.2-3.29,6.2-7.31V63.14A6.22,6.22,0,0,1,294.14,69.34Z"/>
        <path class="cls-1" d="M294.14,24.84,155.32.45a29.69,29.69,0,0,0-10.3,0L6.2,24.84c-3.41,0-6.2,3.29-6.2,7.31v2.34a6.22,6.22,0,0,1,6.2-6.2l131-19.52a88.1,88.1,0,0,1,25.94,0l131,19.52a6.22,6.22,0,0,1,6.2,6.2V32.15C300.34,28.13,297.55,24.84,294.14,24.84Z"/>
      </g>
      <g>
        <path class="cls-1" d="M114.66,61.6c3.57-7.73,7-15.36,10.64-22.89a6.4,6.4,0,0,1,3.23-3.08c2.39-.81,3.18,1.17,4,3.06,2.45,5.72,5,11.39,7.6,17.07.7,1.56,1.47,3.09,2.2,4.64l.93-.16,2.93-24.6c3.25-.93,5.72.21,7.31,4.07,1.68,4.07,4,7.88,6.31,12.39,2.16-4.1,4.11-7.61,5.89-11.21,2.78-5.64,2.73-5.66,8.47-5.21.86,8.15,1.71,16.18,2.68,25.31.85-1.57,1.23-2.19,1.53-2.85,3.15-6.86,6.21-13.76,9.51-20.54a3.51,3.51,0,0,1,6.27,0c3.28,6.92,6.29,14,9.45,20.93a17.28,17.28,0,0,0,2,2.8l1-.4V34.85l19.67,16.43V35.65h4.15V62.17L210.55,45.92c0,4.66-.09,8.59,0,12.51.08,2.5-.85,3.65-3.4,3.31a13.72,13.72,0,0,0-1.81-.09c-6.72,0-6.6,0-9.36-5.88-.63-1.34-2.24-2.94-3.56-3.1-3-.37-6.41-.83-8.45,2.51a18.26,18.26,0,0,0-.85,2c-2,4.32-5.46,6.09-9.8,4.4-1.13-.44-1.91-2.51-2.27-4a60.35,60.35,0,0,1-.81-6.78c-.25-2.06-.56-4.11-1-7.3-1.94,4-3.38,7-4.84,9.94l-4.54,9.22L149.69,44c-.74,5.51-1.55,10-1.89,14.58-.18,2.38-1,3.31-3.28,3.16a14.89,14.89,0,0,0-3.27,0c-3.44.53-5.44-1-6.49-4.17-.89-2.7-1.43-5.41-5.56-5.22s-7.32.88-8.51,5.39C119.86,60.92,117.94,62.53,114.66,61.6Zm75.35-20c-1.37,3-2.54,5.52-3.8,8.24h7.44Zm-65.82,8.32h7.34c-1.21-2.78-2.32-5.29-3.68-8.4C126.47,44.72,125.39,47.19,124.19,49.93Z"/>
        <path class="cls-1" d="M32,61.61c3.43-7.53,6.87-15.15,10.39-22.73.8-1.73,1.3-3.65,4.18-3.47s2.85,2.25,3.57,3.8c3,6.39,5.74,12.88,8.66,19.31a18.55,18.55,0,0,0,2,2.82l1-.38V34.83L81.38,51.28V35.66h4.17v26.5L65.72,45.94c0,4.63-.09,8.57,0,12.49.08,2.52-.88,3.62-3.42,3.32a8.58,8.58,0,0,0-2.53,0c-4.48.84-7.07-1.12-8.21-5.38-.68-2.57-1.94-4.19-5.07-3.92-3.31.28-6.56.06-8,4.05C37.39,59.57,36.2,62.88,32,61.61ZM48.92,50l-3.81-8.45c-1.37,3.1-2.51,5.65-3.75,8.45Z"/>
        <path class="cls-1" d="M290,63.74c-5.89.5-6.75.16-9-6.37-1-3-2.49-4.1-5.45-3.65a6.93,6.93,0,0,1-2.18,0c-4-.73-6.54,1.06-7.7,4.79s-3.25,5.67-6.85,5.1c2.92-6.15,5.91-12.4,8.86-18.67,1.43-3,2.64-6.17,4.22-9.12.56-1,2-2.33,2.92-2.27s2.34,1.38,2.84,2.47C281.93,45.25,286,54.55,290,63.74ZM278,50.35l-4.41-9.89c-1.66,3.78-3,6.74-4.35,9.89Z"/>
        <path class="cls-1" d="M113.44,37.46v5c-2.87-3.83-6.16-5.19-10.25-4.8-5,.47-9.55,5.54-9.25,11.09.33,6.15,3.71,10.75,9.23,10.86,5.19.11,6.86-2.54,4.85-8.08a12.06,12.06,0,0,0-.76-1.36h7a33.79,33.79,0,0,0-.68,4.35c-.12,5.72,0,6-5.55,7.41-8.92,2.34-17.52-1.41-19.56-10.31-1.66-7.29,2.39-14.35,10.38-16.24C104.17,34.14,108.63,36.06,113.44,37.46Z"/>
        <path class="cls-1" d="M258.27,36.3v6.15c-2.9-3.81-6.21-5.2-10.35-4.76-4.84.5-8.52,4.58-9.14,10.51-.49,4.69,3.07,10.56,7.25,11.2,2.14.33,5.63.34,6.39-.85,1.11-1.73.32-4.69.28-7.13,0-.32-.3-.64-.57-1.15H259c-.23,1.51-.85,3.07-.62,4.48.75,4.48-1.64,6.33-5.46,7.24-8.94,2.14-17.53-1.27-19.67-10.3-1.73-7.29,2.36-15.19,10.43-16C248.42,35.19,253.26,36,258.27,36.3Z"/>
        <path class="cls-1" d="M27.65,63.13H21.59v-27l-11.29.76V33.65H39.73L40,37.17c-3.46-.31-6.83-.78-10.2-.75-.71,0-2,1.82-2,2.83-.18,6.66-.1,13.33-.1,20Z"/>
      </g>
      <path class="cls-1" d="M296.53,62.11a1.67,1.67,0,0,1-3.33,0,1.67,1.67,0,0,1,3.33,0Zm-2.92,0a1.26,1.26,0,0,0,1.27,1.29,1.24,1.24,0,0,0,1.24-1.28,1.26,1.26,0,1,0-2.51,0Zm1,.85h-.37V61.34a3.13,3.13,0,0,1,.62-.05,1.1,1.1,0,0,1,.56.11.45.45,0,0,1,.16.36.42.42,0,0,1-.33.38v0a.48.48,0,0,1,.29.39,1.25,1.25,0,0,0,.12.41h-.4a1.4,1.4,0,0,1-.13-.4c0-.18-.13-.25-.34-.25h-.18Zm0-.92h.18c.21,0,.38-.07.38-.24s-.11-.25-.35-.25l-.21,0Z"/>
    </g>
  </g>
</svg>
