<svg xmlns="http://www.w3.org/2000/svg" viewBox="0 0 343.71 88.6">
  <defs>
    <style>
      .cls-1, .cls-3 {
        opacity: 0.4;
      }

      .cls-2, .cls-3 {
        fill: #31302e;
      }
    </style>
  </defs>
  <g id="Capa_2" data-name="Capa 2">
    <g id="Layer_1" data-name="Layer 1">
      <g>
        <g class="cls-1">
          <path class="cls-2" d="M149.29,80.48a3.31,3.31,0,0,1-1.18.69,13.84,13.84,0,0,1-1.65.53,15.24,15.24,0,0,1-1.69.33,9.78,9.78,0,0,1-1.32.12,9.25,9.25,0,0,1-3.93-.75,6.81,6.81,0,0,1-2.62-2.1,8.83,8.83,0,0,1-1.46-3.24,17.75,17.75,0,0,1-.45-4.12,14.07,14.07,0,0,1,.68-4.59,9.48,9.48,0,0,1,1.9-3.36,8.07,8.07,0,0,1,2.88-2.06,9.31,9.31,0,0,1,3.6-.7h4.57l-.11,2.17H144.1a4.76,4.76,0,0,0-2.65.75,7.2,7.2,0,0,0-2,2,9.17,9.17,0,0,0-1.29,2.69,10.22,10.22,0,0,0-.46,3,16.23,16.23,0,0,0,.28,2.93,8.47,8.47,0,0,0,.91,2.65,5.28,5.28,0,0,0,1.69,1.91,4.86,4.86,0,0,0,2.71.73,8.38,8.38,0,0,0,1.4-.14,12.8,12.8,0,0,0,1.57-.38,12,12,0,0,0,1.52-.59,5.58,5.58,0,0,0,1.21-.76Z"/>
          <path class="cls-2" d="M163.57,81.83l-1.58-6-6.55.16-1.71,5.88h-2.94l6.61-20.41,3.12-.19,6,20.6ZM158.79,63.6l-2.86,10.33h5.67Z"/>
          <path class="cls-2" d="M180.61,76.11a6.33,6.33,0,0,1-.52,2.67,5.32,5.32,0,0,1-1.41,1.88,6.29,6.29,0,0,1-2.06,1.11,7.88,7.88,0,0,1-2.5.38,11.13,11.13,0,0,1-2.8-.34,8.41,8.41,0,0,1-2.83-1.5l.78-2.5a5.63,5.63,0,0,0,1.11,1,8.6,8.6,0,0,0,1.27.67,6.41,6.41,0,0,0,2.43.51,3.92,3.92,0,0,0,1.44-.28,4.69,4.69,0,0,0,1.31-.78,4,4,0,0,0,.92-1.18,3.19,3.19,0,0,0,.33-1.56,2.42,2.42,0,0,0-.45-1.41,3.9,3.9,0,0,0-1.07-1,11.82,11.82,0,0,0-1.5-.81l-1.69-.75a16.89,16.89,0,0,1-1.69-.88,6.74,6.74,0,0,1-1.48-1.18,5.52,5.52,0,0,1-1.44-3.94,4.16,4.16,0,0,1,1.77-3.72,9.8,9.8,0,0,1,5.4-1.19h3.59V63.4h-3.71a7.79,7.79,0,0,0-1.73.18,4.85,4.85,0,0,0-1.38.53,2.54,2.54,0,0,0-.91.79,1.66,1.66,0,0,0-.32,1,3.16,3.16,0,0,0,.67,2.15,5.41,5.41,0,0,0,1.69,1.29,17.28,17.28,0,0,0,2.21,1,10.1,10.1,0,0,1,2.21,1.09,5.55,5.55,0,0,1,1.68,1.79A5.47,5.47,0,0,1,180.61,76.11Z"/>
          <path class="cls-2" d="M195.3,81.83l-1.57-6-6.56.16-1.71,5.88h-2.94l6.61-20.41,3.13-.19,6,20.6ZM190.52,63.6l-2.86,10.33h5.68Z"/>
          <path class="cls-2" d="M222.49,71.45q0,5.1-2.5,7.74t-7.29,2.64h-5.42V62c.3-.06.72-.12,1.28-.21s1.2-.18,1.92-.27,1.49-.17,2.29-.24,1.61-.09,2.38-.09a7.16,7.16,0,0,1,3.66.83,6,6,0,0,1,2.24,2.22,9.51,9.51,0,0,1,1.13,3.27A24.36,24.36,0,0,1,222.49,71.45Zm-2.71-.21a15.07,15.07,0,0,0-.44-4,6.5,6.5,0,0,0-1.16-2.39,3.66,3.66,0,0,0-1.65-1.16,6.19,6.19,0,0,0-1.93-.3c-.41,0-.84,0-1.3,0s-.9.07-1.34.12a12.21,12.21,0,0,0-1.21.2c-.37.07-.66.14-.89.2V79.59h2.86a6.61,6.61,0,0,0,5.21-2C219.16,76.18,219.78,74.07,219.78,71.24Z"/>
          <path class="cls-2" d="M225.84,81.83V61.23H237.1v1.92l-8.75.22v6.32h7.25V71.5l-7.25.19v8.2l8.75-.3v2.24Z"/>
          <path class="cls-2" d="M260.52,80.48a3.31,3.31,0,0,1-1.18.69,13.67,13.67,0,0,1-1.64.53A16.36,16.36,0,0,1,256,82a9.66,9.66,0,0,1-1.31.12,9.37,9.37,0,0,1-3.95-.75,6.85,6.85,0,0,1-2.61-2.1,8.67,8.67,0,0,1-1.46-3.24,17.23,17.23,0,0,1-.45-4.12,14.07,14.07,0,0,1,.68-4.59A9.63,9.63,0,0,1,248.8,64a8,8,0,0,1,2.88-2.06,9.3,9.3,0,0,1,3.59-.7h4.58l-.1,2.17h-4.42a4.71,4.71,0,0,0-2.64.75,7.1,7.1,0,0,0-2,2,9.43,9.43,0,0,0-1.29,2.69,10.22,10.22,0,0,0-.46,3,15.38,15.38,0,0,0,.28,2.93,9,9,0,0,0,.9,2.65,5.43,5.43,0,0,0,1.71,1.91,4.77,4.77,0,0,0,2.69.73,8.49,8.49,0,0,0,1.41-.14,12.8,12.8,0,0,0,1.57-.38,12,12,0,0,0,1.52-.59,5.27,5.27,0,0,0,1.2-.76Z"/>
          <path class="cls-2" d="M274.8,81.83l-1.58-6-6.55.16L265,81.83H262l6.62-20.41,3.12-.19,6,20.6ZM270,63.6l-2.86,10.33h5.68Z"/>
          <path class="cls-2" d="M297.36,81.83V64.47l-6,13.83H289L283,64.47V81.83h-2.5V61.23h3.95l.39.92c.23.52.5,1.17.83,2l1.13,2.62L288,69.67c.41,1,.81,1.94,1.2,2.86l1,2.4c.27-.69.6-1.48,1-2.4s.76-1.87,1.17-2.86.83-2,1.24-2.94.8-1.84,1.13-2.62.61-1.44.84-2,.36-.83.38-.92h4v20.6Z"/>
          <path class="cls-2" d="M317.63,75.74a5.84,5.84,0,0,1-2.31,4.84,7.33,7.33,0,0,1-2.41,1.18,9.6,9.6,0,0,1-2.79.39c-.45,0-.93,0-1.46-.08s-1.06-.12-1.6-.2l-1.57-.23c-.52-.06-1-.14-1.36-.19V62.61c.93-.31,2-.61,3.11-.92a13.84,13.84,0,0,1,3.53-.46,14.26,14.26,0,0,1,2.34.18A5.49,5.49,0,0,1,315,62a3.26,3.26,0,0,1,1.24,1.26,4.19,4.19,0,0,1,.46,2.08,5.32,5.32,0,0,1-.26,1.73,5.68,5.68,0,0,1-.71,1.44,6,6,0,0,1-1.06,1.14,8.28,8.28,0,0,1-1.3.92,4.21,4.21,0,0,1,1.75.42,3.93,3.93,0,0,1,1.35,1.07,4.76,4.76,0,0,1,.88,1.6A6.61,6.61,0,0,1,317.63,75.74ZM314,65.47a1.64,1.64,0,0,0-.34-1.09,2.36,2.36,0,0,0-.87-.61,4.35,4.35,0,0,0-1.1-.3,8,8,0,0,0-1-.07,7.42,7.42,0,0,0-.77,0c-.3,0-.63.07-1,.13a7,7,0,0,0-1.08.29,8,8,0,0,0-1.09.45v6.26l3.46-.81a6.06,6.06,0,0,0,1.42-.51,4.33,4.33,0,0,0,1.21-.88A4,4,0,0,0,314,65.47Zm1,10.16a3.49,3.49,0,0,0-.53-2,3.54,3.54,0,0,0-1.31-1.19,4.52,4.52,0,0,0-1.68-.52,4.74,4.74,0,0,0-1.66.1l-3.08.72v6.74c.55.15,1.14.26,1.76.37a11.13,11.13,0,0,0,1.77.15,5.68,5.68,0,0,0,1.89-.3,4.1,4.1,0,0,0,1.5-.86,4,4,0,0,0,1-1.38A4.63,4.63,0,0,0,315,75.63Z"/>
          <path class="cls-2" d="M321.5,81.83V61.23H324v20.6Z"/>
          <path class="cls-2" d="M343.71,72a18.42,18.42,0,0,1-.38,3.69A9.65,9.65,0,0,1,342,78.93a6.85,6.85,0,0,1-2.45,2.33,7.63,7.63,0,0,1-3.86.89,7.39,7.39,0,0,1-3.87-.92,6.93,6.93,0,0,1-2.45-2.45,10.35,10.35,0,0,1-1.29-3.46,22.12,22.12,0,0,1-.36-4,14.44,14.44,0,0,1,.5-3.91,9.62,9.62,0,0,1,1.51-3.21A7.13,7.13,0,0,1,332.29,62a7.43,7.43,0,0,1,3.52-.8,8.07,8.07,0,0,1,3.94.86,6.6,6.6,0,0,1,2.41,2.34,9.7,9.7,0,0,1,1.21,3.42A23.7,23.7,0,0,1,343.71,72ZM341,71.19a21,21,0,0,0-.18-2.71,7.8,7.8,0,0,0-.76-2.52,4.68,4.68,0,0,0-1.59-1.85,4.46,4.46,0,0,0-2.69-.71,4.34,4.34,0,0,0-2.81.84,5.84,5.84,0,0,0-1.62,2.13,9.39,9.39,0,0,0-.76,2.81,24.81,24.81,0,0,0-.18,2.91,19.76,19.76,0,0,0,.2,2.74,8.18,8.18,0,0,0,.8,2.52,5.07,5.07,0,0,0,1.6,1.87,4.68,4.68,0,0,0,2.72.72,4.79,4.79,0,0,0,2-.39,4.07,4.07,0,0,0,1.42-1.07,5.35,5.35,0,0,0,.94-1.55,10.77,10.77,0,0,0,.57-1.85,18.31,18.31,0,0,0,.28-2C341,72.44,341,71.81,341,71.19Z"/>
        </g>
        <path class="cls-3" d="M44.2,0A44.3,44.3,0,1,0,88.38,44.3,44.24,44.24,0,0,0,44.2,0Zm0,86A41.67,41.67,0,1,1,85.75,44.3,41.62,41.62,0,0,1,44.2,86Z"/>
        <path class="cls-2" d="M120.73,31.49c-4.18-1.61-5.88-2.53-5.88-5.13,0-.75,1.93-2.15,5.6-2.15h8.79V16.1l-9.08.31c-8,.46-14.24,2.87-14.44,10.31-.21,8.25,6.37,10.93,11,12.88,3.78,1.59,5.56,2.53,5.63,4.31a3.5,3.5,0,0,1-1,2.57,5.91,5.91,0,0,1-4,1.72h-.1a10.66,10.66,0,0,1-6.91-3l-2.49-2.53-3,9.14,1.27.91a17.6,17.6,0,0,0,11.3,3.54c8.21,0,13.72-5,13.72-12.47C131.17,35.53,125.14,33.2,120.73,31.49Zm119.16-15.3c-10,0-16.53,7.61-16.53,19.39,0,13.15,6,20.68,16.39,20.68s16.4-7.13,16.4-19.57C256.15,23.09,250.68,16.19,239.89,16.19Zm-.09,32c-1.82,0-7.36,0-7.36-11.28,0-12.71,5.61-12.71,7.45-12.71,3.34,0,7.18,1.27,7.18,11.19C247.07,46.87,242.92,48.2,239.8,48.2Zm38.07-11a13.15,13.15,0,0,0,6.64-11.75c0-9.24-9.39-9.24-12.94-9.24a67.85,67.85,0,0,0-9.17,1c-1.25.19-2.43.38-3.34.48l-1.89.23v37.8H266v-15l2.33-.34a11.85,11.85,0,0,0,1.55-.29c2.29,5.59,3.88,10,5.12,14.06l.46,1.52h10.85l-1.59-3.11A150.68,150.68,0,0,1,277.87,37.18ZM266,32.63V25a30.29,30.29,0,0,1,5.56-.69c1.3,0,3.48.21,3.48,1.6S275,31.48,266,32.63Zm40.54,14.45a8.33,8.33,0,0,1-4.64,1.16c-7,0-8.09-8-8.09-12.75,0-4.53,2.63-11.28,9.89-11.28h11V16.06l-12.17.5c-11,.54-17.84,7.33-17.84,19.25,0,12.8,6,20.45,16.11,20.45,3.15,0,9.1-.47,13.55-3.62l.9-.64.07-16.93-8.82,2Zm-93.39-1.77c0,1.15-.33,2.33-2.79,2.33h-7.12v8.07h7.63c7.62,0,11-5.23,11-10.4V16.09l-8.77,1.08Zm-29-6-13-22.79-9.51.73V53.73L150.24,16.1l-9,1.07-13,38.54h9.84l3.05-10.09,8.48-.36,2.81,10.45h17.89V32L184.1,55.71h8.73V16.06l-8.75,1.14Zm-40.76-1.37,2.25-7.76,2.21,7.76ZM341.9,23.7V16.21l-24.39,1V55.71H341.9V47.53l-15.63.5V38.32l13-.32V30.67h-13v-6.6Z"/>
        <path class="cls-2" d="M54.57,31.14c.82,0,0-.82.82-1.25,0,.43,0,.84.43.84a.4.4,0,0,0,.41.41h.84c.42-.82,0-2.08.42-2.92.42-1.26.84-3.36-.83-3.77A3.16,3.16,0,0,0,54.57,24c-.84.42-2.1.42-2.51.83,0,2.1,0,4.61,1.25,6.7ZM54.15,27a.42.42,0,0,1-.84,0C53.31,26.55,54.15,26.55,54.15,27ZM37.44,19.84c0-.42-.43,1.25-1.26,1.25-1.25.42-2.09,0-2.09-.41a6.07,6.07,0,0,1-1.67-.84s-1.25.42-1.25.84a1.46,1.46,0,0,0,.42.83l-1.26,1.26.42.41,3.76,1.27a1.76,1.76,0,0,0,1.67-1.68C35.77,22.35,36.6,22.35,37.44,19.84Zm-9.62-2.1c0,.42-.41.42-.83.84-.42-.42-.42-.84-.84-1.26h-.83c1.25,2.52,2.92,4.61,4.18,6.71a58.59,58.59,0,0,1,4.59,6.29v.41c.42,0,.84,0,.84-1.26h.84a.41.41,0,0,0-.43-.41L34.09,27.8c-.83,0-.83-1.68-2.08-2.51a4.45,4.45,0,0,1-2.51-2.94c.83-.42.83-.42,1.25-1.26-.84-1.25.84-1.25,1.26-1.67-.42-.42,1.25.42,2.5.84,1.67.83,2.09,0,2.93-1.68a6.92,6.92,0,0,0-1.67-2.93,3.18,3.18,0,0,1-2.1.84v-.41c.84,0,1.26-.43,1.67-.43l-.83-1.26h-.42l-.83-.84A5.69,5.69,0,0,1,37.44,24c-.43,0,.41.42.41.42a5.1,5.1,0,0,0,2.09-2.1,5.88,5.88,0,0,0,.42-5.86C37.44,10.2,28.24,12.29,27.82,17.74Zm2.93-.84h.42a.9.9,0,0,0-.84.84,5.33,5.33,0,0,0-.42,2.52c0,.42-.41,1.25-.41,1.67-1.26-.42-.83-2.09-.83-3.35-.85-.42.41-2.93,2.92-4.61-.42.84-.42,1.68-.84,2.11a5,5,0,0,0-1.25.82Zm21.31,2.52c-10-2.1-13,7.13-11.29,16.76h.84c0-3.78,0-8,1.68-11.32,2.51-3.77,5.43-4.6,8.35-4.18C52.06,20.68,53.31,19.42,52.06,19.42Zm-28-.42-.83-.42c-.85-.42-2.1,2.93-2.52,3.77-.84.42-2.5,3.77-1.66,4.61.41.84,1.25,1.26,1.66.84.84,0,.84-.43.84-.84.83-.84,0,.84.42.84h2.09c0-.43.83-1.68-.42-2.51-.84,0-.84-.84-.84-1.69a9.19,9.19,0,0,0,.43-1.67A17.48,17.48,0,0,0,24.07,19Zm2.5,12.56a12.15,12.15,0,0,0-2.5-1.24.88.88,0,0,0-.83.82c-.43.42.41.42.83.84a5.84,5.84,0,0,1,.83,1.26c-.41,0-.41,0-.83-.42-.83-.42-2.09-1.26-2.51,0-.42.42-.42-.42-.42-.84l1.67-1.66c.43,0,.43-.43,0-.85-.83,0-1.67-.41-1.67,0A25.19,25.19,0,0,0,15.71,40c1.25,2.92,1.67,3.34,3.35,4.6.41.42-3.35,2.1-2.52,2.93a17.86,17.86,0,0,1-2.92,3.77c.83.42.83-.41,1.67-.41,1.25,0,2.09-2.52,3.35-3.36a.58.58,0,0,1,0,.84c0,.43.42,0,.83.43,0,.41-.41.41-.83.83-.42,0-.42.42,0,.83.42-.41.42-.41,2.08-1.25,3.77-2.1,8-2.51,7.52-4.19l-.42.42c-.83.42-2.09,1.26-3.33.84,0-.42.83-.42,1.24-.84.84-.42,2.94-1.26,2.09-2.1a5.25,5.25,0,0,0-2.5-.42c-1.25,0-1.25,2.52-2.93,2.1.42-.42,1.68-1.25,1.68-2.1-.42-.42-1.26.42-2.09.42a.9.9,0,0,1-.84-.84c-.42-.82-1.26,0-1.26-.82a3.19,3.19,0,0,1,0-3.78c.43,1.25-.41,2.93.84,3.78h.84c.42,0,.83-.43,1.25-.43,0,0-.83.84-.83,1.25.83,0,2.09-1.25,2.92-1.25.83.43-.41.43-.41.84.41.41.83,0,1.24.41,1.26-.41,2.09.42,2.09,0S27,41.63,27,41.2c.83,0,1.25.84,1.68,1.25v1.27c.41,2.93,0,2.93-5.86,5.44-3.34,1.25,0,2.51.43,2.51,2.91-1.26,6.26-6.28,7.51-8.38a2.66,2.66,0,0,0,0-2.51c2.09-2.51-1.25-.42.42-2.1,0-.83-.84-1.67-1.26-2.5s-.41-2.1-1.24-2.1c-.43.84,0,1.68-.85,2.52A6.54,6.54,0,0,0,26.57,31.56ZM17,65.5c-.83,0-1.25-1.26-1.25-1.68,0,0-1.26,0-.42,1.68s2.09,2.92,2.09,2.09C17,67.18,17.8,65.5,17,65.5Zm12.12-18c-1.26.42-2.51,2.52-4.59,4.61-.84.84-.84,2.52-1.25,2.94.41,1.66.83,3.76,2.08,4.19a78.28,78.28,0,0,1,10-.43h.43a2.47,2.47,0,0,0-.43-1.67c-.83-.43-1.67,0-2.5.42-1.67.42-1.25.42-1.67-.85v-4.6a6.88,6.88,0,0,1,.42-4.19A2.56,2.56,0,0,0,29.08,47.48Zm5.43-22.19-1.67-.84L31.17,24v.42s-.42,0,.84.41a9.41,9.41,0,0,1,2.08,2.51l1.25.85.43-2.52c0-.84,0-.84-.84-.84C34.93,24.86,34.93,25.7,34.51,25.29Zm20.06-3.36c0-.42.41-.84-.42-1.67-.42-.42-.42-1.26-.84-.42a1.88,1.88,0,0,0,0,2.51A1.54,1.54,0,0,0,54.57,21.93Zm2.5-3.35c-.84.42-1.25.84-1.25,1.26a4.25,4.25,0,0,0,1.25.42ZM51.64,24a20.38,20.38,0,0,1,5-.85c-.43-.41,0-.83.41-.41a1.48,1.48,0,0,0,.84.41c-.42-1.25-.84-2.92-2.52-2.92,0,.42-.41,1.25-.41,1.67-.41,1.25-2.09.84-2.92.84C51.64,22.77,51.64,23.6,51.64,24ZM22.93,13.2c0-.42-.42-1.26-.42-1.68-.42-.42-.85-.15-1.27-.57a1,1,0,0,0,0,1.41C21.25,12.78,22.09,13.2,22.93,13.2Zm35,27.16c0-.41-1.25-.84-1.25-.84h-.43c.84.43,1.26.84,1.26,1.26A.41.41,0,0,0,57.91,40.36ZM43.7,25.7C42,28.64,42.45,32.82,42,36.6a3,3,0,0,0,1.67,2.92,5.69,5.69,0,0,0,5,.84c2.09-1.26,2.5-3.35,2.92-5.44A6.85,6.85,0,0,1,50,32a3.71,3.71,0,0,1-1.67-3.34,17.5,17.5,0,0,1,.42-2.09c.41-.43.41-.43.41,0,0,.82-.41,2.09,0,2.92,0,1.26.84,2.09,1.68,2.93A1.53,1.53,0,0,0,52.06,32l-.84-5.43c0-.43,0-.85-.83-1.26a.41.41,0,0,1-.42-.43c-.42-1.26.84-2.09,1.25-3.35C48.3,21.09,45.37,22.77,43.7,25.7Zm10,10.48a.41.41,0,0,0,.42.42c.42.41.83.41.83,0,2.09,0,2.93-3.36,2.09-4.62-.84,0-2.5,0-2.92.42-1.26,0-1.26,1.26-.84,2.52,0,.42.84.42.84.42v.42Zm-.42,0c-.84-.84-.84-4.2-2.09-2.94C51.64,33.66,52.89,36.18,53.31,36.18ZM54.57,40c-.42.83-.84,2.09-.42,2.5a1.69,1.69,0,1,0,2.92-1.67C56.66,40,55,39.52,54.57,40ZM39.94,27.8c.42-1.25.83-1.68-1.25-2.94a5.16,5.16,0,0,0-2.51.43v3.35A2.24,2.24,0,0,0,37,30.32a6.08,6.08,0,0,0,2.51.82c.42-.41,0-1.67.42-2.5-.42,0-2.09-1.27-1.67-1.68A6.88,6.88,0,0,0,39.94,27.8ZM70.85,55.44c.42-.41-.41-1.25-.41-2.09a7.34,7.34,0,0,0-2.51.42,2.49,2.49,0,0,0,.42,1.67A2.64,2.64,0,0,0,70.85,55.44ZM64.17,67.59c-.41,0-.41.83-.83,1.67-.42.42,0,1.68-.84,2.1-.83,1.68-.83,3.76,0,4.19a2.14,2.14,0,0,0,2.09-1.68c0-.42.84,1.25,2.93-.83s.83-2.52.83-2.52-2.09.84-2.51-.84-.83-1.26.42-3.35c1.26-1.67-2.09-1.67-.83-.83C65.84,65.91,65.43,66.75,64.17,67.59Zm-.83-10.9a2.17,2.17,0,0,0-1.67.85c-.43.42-.84.84-.43,1.68.85,0,1.68,0,2.1-.84.42-.42.42,0,.83,0a4.19,4.19,0,0,0,2.93-2.94,4.87,4.87,0,0,0-.84-4.19c-.42-2.09-2.92-2.5-4.17-3.35-.85,0-2.09,1.26-2.93,2.1,1.25,1.25,3.76,1.25,5.43,2.09a6,6,0,0,1,.84,2.52,5.87,5.87,0,0,1-1.26,1.67C63.76,57.12,63.34,56.69,63.34,56.69Zm-37.19,8c.84.84.42.84.84.84.83,0,1.25-.42,2.09-.42-.84-.42-2.09-.42-2.51-.84A12.6,12.6,0,0,1,24.9,63c-.41-.42-.41.42-.41.42v2.1C24.49,65.91,24.9,64.24,26.15,64.66ZM44.2,5.26a38.71,38.71,0,0,0-20.86,6.09v.17a5.29,5.29,0,0,0,.17.58c0,.15.09.28.13.42A37.85,37.85,0,1,1,44.2,82.19a37.52,37.52,0,0,1-14.86-3A5.76,5.76,0,0,0,32.84,76c0,2.09,3.76,3.34,5.85,2.09-5.85,0-3.76-6.28,0-6.7,3.34-.84-1.25.84-.42.84a4.77,4.77,0,0,1,3.34,1.25,3.27,3.27,0,0,1,2.51-1.25c-.42,0-1.25.84-1.67,1.67A9.14,9.14,0,0,1,45.8,76c.4.42,1.67-2.1,1.67-1.68s-.85,1.68-.85,2.1c1.26.41,4.19,1.25,5,.84,2.93-4.61.42-.43.83,0a15.39,15.39,0,0,0,6.27-1.68,5.12,5.12,0,0,0,2.93-2.93,5.91,5.91,0,0,1-2.51.83c-7.1.84-12.54-4.19-19.22-5.45-2.93,0-5.43.42-7.93,2.52-.42.84,0,2.1-.42,2.1,0,.42,0,.83-.42.83-.42-.41-.42-1.67-.42-2.51,4.18-4.19,8.36-4.19,10.86-3.35,4.19.83,7.52,3.77,12.12,4.61,3.34,1.25,6.68,1.25,8.36-1.68.83-2.1,1.25-3.77,2.08-4.19.84,0,.84-.42.42-.83-.42,0-.83-.42-1.25-.84h2.5c-1.25-2.1-4.17-1.68-5.43-3.35-1.25-2.09-.41-1.26-1.67-3.77-.41-1.26-1.67-2.51-2.92-1.68-.84.42-.43.42,0,2.52a2.16,2.16,0,0,1-1.67-.84c-3.34-5-7.11-9.22-10-14.25L43.29,42c.83-.41,1.25.83,1.66,1.25,2.93.43,4.18,0,2.93.43-.41.41-1.68,0-1.68.41-.4,1.26,2.52,4.19,3.35,5.87.42.84,1.67,2.51,2.51,2.51,2.92.42,8.35-4.19,9.61-5.86,2.09-.84,3.76,1.25,5,2.51l.43,1.68c.42,1.25.83,2.09,1.25,2.09.84,0,1.26,0,1.67-.42,0-1.26-.83-2.93-1.25-4.61-1.25-2.09-3.34-2.09-5-3.77-2.09-1.26-3.35,1.68-5,2.1,0,0-.41-.42,0-.42,1.26-1.68.42-3.36-.41-5-.42,0-.42.42-.42.85s.42,1.24-.42,1.66a1.85,1.85,0,0,1-2.1.43c-.82,0-.82.41-.82.83s0,1.26-.42,1.26V44.55c0-.42,0-.83-.84-.83a9.31,9.31,0,0,1-2.5.41H49.13a.91.91,0,0,1,.84-.84h3.76c.42,0-.42-2.09-1.26-1.66H50.81a.42.42,0,0,1-.42-.43c.42,0,2.92-.42,2.92-.42.42,0,.42-.42.42-.83.42,0,.84-.85,1.66-.85,1.27.42,1.27,0,.84,0l-.84-1.25c-.41,0-.82-.42-1.24-.42s-1.26-1.25-2.09-1.25c0,1.25-.42,2.09-1.67,4.18a6.85,6.85,0,0,1-5.85.42C42.45,40,41.61,39.1,41.2,37l-.43-.41s-.41,0-.83-.84c0-.84.42-1.26-.83-.84a1.3,1.3,0,0,1-.84.42c-.42-.84.84-.42,1.67-1.26l-.42-.42-.41-.84a4.76,4.76,0,0,1-2.51,1.26,52.66,52.66,0,0,0,3.34,5v.42l-.83-.84c-.42-.41-1.67-2.5-2.1-2.5H35.34c0-.42,1.26-.42,1.67-.84-.83-1.68-2.08,0-2.92-.42A8.89,8.89,0,0,1,37,33.66h.43a.4.4,0,0,1,.41-.42l.84-.84-.42-.84L37,31.14a2.24,2.24,0,0,0-1.67-1.25c.43.84-.41.84-.83,1.25,0,.42.42.84,0,1.26-.42,0-1.67-2.51-2.09-3.34h-.83a2.9,2.9,0,0,1-1.68,2.08c-1.24.42-2.5,0-2.5.42.41,1.26,2.5,3.36,3.76,4.2.84,0,1.67-.84,2.09-.42-.42.84-2.51.42-2.51,1.67.42,1.26,1.26,0,1.67.42,0,.42-.83.84-.83,1.67,0,.42.83,0,1.25.42-.42.43-1.25.84-1.25,1.26.42.85,0,2.09,0,2.51,1.67-1.25,0-.84,1.67-2.09,0,.43-.42.43-.42.84.42,1.25-1.67,1.68-1.67,1.68a5.53,5.53,0,0,0-1.26,2.93h1.68a17.72,17.72,0,0,1,1.67-2.93h.83a13.59,13.59,0,0,0-1.25,2.09,1.53,1.53,0,0,0-.42,1.25c.84,0,2.09.42,2.92.42a8.3,8.3,0,0,1-.41-3.35c.41-.41.41-1.26.84-1.26,0,1.26-.43,2.94,0,4.19a14.08,14.08,0,0,1,2.5-1.25c2.93-1.26,4.6-2.94,5-2.09-.84.41-2.52.83-.42,1.25,0,1.26-.42,7.12-.42,8.38,4.17-2.51,4.17-4.6,5.85-2.1h-.83C47,50,43.29,54.19,41.2,54.19c0,.42.41,1.25.83,1.25a.58.58,0,0,0,.84,0c0,.84-2.1,2.52,0,3.35,1.67-.41,5-2.51,6.68-3.76s-2.51-2.52-.42-2.94c1.26,2.1,4.6,6.29,4.6,6.7-.42,0-.42-.41-.84-.41a9.25,9.25,0,0,0,.42,3.35c.42.83,1.67,1.67,1.67,2.93a5,5,0,0,0,2.09,3.76c.42.42-.41.42-1.25.42-1.67-3.34-.84,1.25-2.09-2.93,0,.42-2.51.84-2.92,1.68-1.26-.41-6.27-3.35-9.61-3.77-8.78-1.26-3.35-1.26-.43-.84l2.1-.84,1.67,1.68,2.08-.42,1.26,1.68,2.51.42c.42-.42.42,1.25.42.83.41-.42,2.5-.83,2.08-.83-2.08-1.68-7.09-3.77-10-4.63.83,0-.42-1.65-1.26-2.08,0,.43-.41.83-.84,1.26l-.41-.43c.41,0,1.25-.83.84-1.24,0-.42.41-2.1,0-2.1,0-.42-1.26-.42-1.26-.42,0-.42.42-.42.83-.42,0-.83-.83-1.25-1.25-2.09a1.54,1.54,0,0,1,.42-1.26c.83.42,0,1.26.83,1.68,0,0,.84,0,.84-.42A42.9,42.9,0,0,0,42,45.81C42,45,41.2,45,40.77,45c-2.08,1.26-4.17,2.09-4.59,2.51,0,.42.83,1.27.42,1.27a35.51,35.51,0,0,0-4.18-.85c-.41,0-.83,1.26-.83,2.1s0,6.28.83,6.69a9.81,9.81,0,0,0,3.35-.83c.83-.83.41-1.67.41-2.93.42-.42.83-1.26.42-1.68,0-.84-1.67,0-2.09-.41a30.4,30.4,0,0,0,3.34-1.26c0,1.26-.84,2.51-.84,3.77,0,.42.84.84.84,1.26-.41,0-.84-.42-.84,0v1.25a6.28,6.28,0,0,0-.83,1.26c.83.42,0,2.5-.41,2.5a32.59,32.59,0,0,0-9.2.43h-.84C37.85,61.73,32,62.56,32,61.73H28.67c-2.1,0-5-2.11-6.28-2.94,2.93,3.35,2.51,5,8.78,6.29h.42c-1.26.42-2.92.42-4.18.83.41,1.27.41,1.68,1.67,2.09,1.25,0-1.26,2.09-.84,1.26.43-1.26-.83-.84-.83-1.26L27,66.33c-2.5-2.93-2.5,2.09-3.75,2.93,0,1.26,1.66,1.68,3.33,2.52s3.34,1.26,3.76,2.93c1.68,4.6-6.26,2.93-4.6,1.26.84.42,1.26,0,1.68-.42.41-1.26.83-1.68.83-2.51-1.25.41-2.92,0-3.75,1.25,0,.42,0,.42.41.83a4.87,4.87,0,0,0-.91,1.2,32,32,0,0,1-2.8-2,2.75,2.75,0,0,1,.37-.48A6.55,6.55,0,0,0,22,69.68c2.09-1.68,2.09-8,1.67-7.54,0,.84-.41.84-.41.84,0-2.51-.85-1.67-.85-2.93-1.25,0-.41-.83-.41-2.93,0-.84-.84-.84-.84-1.68.42-.41.42-.41.84-.41.83,0,.83,0,.83-.42a3.26,3.26,0,0,1,.84-2.1,11.67,11.67,0,0,0-7.11,2.1c-.83,1.67-1.25,4.18.42,5.44a5.29,5.29,0,0,0-.42,3.77c.42,1.68,0,0,.84,0,.42.84-.42.42.42,1.26,0,1.25,0,3.34.42,3.34.42-.83.42-1.67,1.25-2.51l-.41,1.68c.31,2.54-.57,3.16-.29,4.75a37.91,37.91,0,0,1,3-58.52,2.36,2.36,0,0,1-1-.66A38.88,38.88,0,1,0,44.2,5.26Zm17,58.56c-.41,0-.83-.42-1.24-.42-.84-.42-.84-.42-1.26-1.26A3.42,3.42,0,0,1,61.24,63.82ZM57.91,58c0,.83-.84,0-.42,0C57.91,57.54,57.91,57.54,57.91,58Zm-.42-.84s-.42.42-.42,0S57.49,56.69,57.49,57.12Zm-1.67,5.44c0-.42-1.67-1.69-1.25-2.94.82,2.11,1.66-.4,1.66,0,.43.85.84,2.11,1.26,2.94-.83-.83-1.26-1.25-1.67-1.69h-.43a6.25,6.25,0,0,1,.84,1.69c.43.84.84.84,1.26.42-.42.42.42,1.26.42,1.26C57.49,64.24,55.82,63,55.82,62.56Zm-23,2.52c1.25-1.68,3.34-.84,5-1.26,0,.42-1.25.42-3.76.84C32,65.91,32,66.75,31.59,66.33,30.75,65.91,32.84,65.08,32.84,65.08Zm4.6,10s.41.43.41,0c1.26-.83-1.25-.83-1.25-.83-.83,0-1.26,3.35,2.51,2.51,2.5-.41,3.76-2.09.41-3.76-1.67-.42-3.34,0-2.92.41,0,.42,1.67,0,2.09.42.42,0,1.25.42.83,1.25C38.69,76.8,36.18,76,37.44,75.12ZM24.9,29.89c.42-.83-.41-1.67-.41-1.67H22.81C20.31,28.22,24.07,29.47,24.9,29.89Zm5.43,0a1.83,1.83,0,0,0,.42-2.09c.42-.84-.42,0-.84-.43,0-.41.42,0,.42-.41,0-.84-.42-1.26-.83-2.1,0-.83-.83-.41-1.68-.83-.41.42-1.67.42-1.67.83.84,1.69-1.25,0-1.66,1.26.41,0,.41.84,0,1.25.41.43.41.85.83.85.41.84,0,1.25,0,1.67a.41.41,0,0,0,.41.43A5.77,5.77,0,0,0,30.33,29.89Zm-5.84-15.5c-1.68.84-1.68,2.1-1.68,3.35a.91.91,0,0,0,.84.84c.84,0,.84-.84.84-1.26,0-1.24,1.24-.83,1.66-1.67-.42-.42,0-.42-.42-.84S25.32,14.39,24.49,14.39Z"/>
      </g>
    </g>
  </g>
</svg>
