<svg xmlns="http://www.w3.org/2000/svg" viewBox="0 0 325.41 82.24">
  <defs>
    <style>
      .cls-1 {
        fill: #31302e;
      }

      .cls-2 {
        opacity: 0.4;
      }
    </style>
  </defs>
  <g id="Capa_2" data-name="Capa 2">
    <g id="Layer_1" data-name="Layer 1">
      <g>
        <polygon class="cls-1" points="287.15 26.23 287.15 26.23 287.16 26.23 287.15 26.23"/>
        <g class="cls-2">
          <g>
            <g>
              <path class="cls-1" d="M163.15,15a36.29,36.29,0,0,1,4.26,6.38,45.05,45.05,0,0,1,3.06,10H152.94a20.11,20.11,0,0,1,1.8,3.12h18.85a45.54,45.54,0,0,0-3.06-10,37.92,37.92,0,0,0-7.26-9.67Z"/>
              <path class="cls-1" d="M115.65,71.83c10.31,11,24.4,10.4,24.4,10.4a49.33,49.33,0,0,0,11.26-1.82,32.64,32.64,0,0,0,10.87-6.48,36.54,36.54,0,0,0,10.51-16.44,38,38,0,0,0,.9-3.91h-3.81l-.21.8a36.57,36.57,0,0,1-10.51,16.43,32.54,32.54,0,0,1-10.87,6.48,49.33,49.33,0,0,1-11.26,1.82,34.84,34.84,0,0,1-21.17-7.42Z"/>
            </g>
            <polygon class="cls-1" points="88.56 6.77 88.56 78.22 71.45 78.22 71.45 81.34 72.47 81.34 91.68 81.34 91.68 6.77 88.56 6.77"/>
            <g>
              <polygon class="cls-1" points="306.41 6.26 303.31 6.26 321.53 78.73 302.7 78.73 303.4 81.85 325.41 81.85 306.41 6.26"/>
              <polygon class="cls-1" points="276.89 65.86 274.03 78.73 256.69 78.73 255.9 81.85 277.15 81.85 280.01 68.98 295.69 68.98 294.99 65.86 276.89 65.86"/>
            </g>
            <g>
              <polygon class="cls-1" points="201.43 45.74 201.43 78.22 184.32 78.22 184.32 81.34 204.55 81.34 204.55 48.86 219.46 48.86 219.46 45.74 201.43 45.74"/>
              <rect class="cls-1" x="201.74" y="6.77" width="3.12" height="22.16"/>
              <polygon class="cls-1" points="242.8 6.77 242.8 78.22 225.69 78.22 225.69 81.34 245.92 81.34 245.92 6.77 242.8 6.77"/>
            </g>
            <g>
              <polygon class="cls-1" points="44.18 45.74 23.34 45.74 23.34 78.22 6.24 78.22 6.24 81.34 7.26 81.34 26.46 81.34 26.46 48.86 47.3 48.86 47.3 35.17 44.18 35.17 44.18 45.74"/>
              <polygon class="cls-1" points="53.78 6.77 53.78 17.75 23.65 17.75 23.65 28.93 26.77 28.93 26.77 20.87 56.9 20.87 56.9 6.77 53.78 6.77"/>
            </g>
          </g>
        </g>
        <polygon class="cls-1" points="284.04 23.11 284.04 23.11 284.04 23.11 284.04 23.11"/>
        <polygon class="cls-1" points="276.89 47.22 291.19 47.22 284.04 23.11 276.89 47.22"/>
        <path class="cls-1" d="M50.67,14.63V.53H0V75.1H20.23V42.62H41.06V28.93H20.53V14.63ZM31,35.2v1.15H10.69V65H9.54V7h31V8.15H10.69V35.2Z"/>
        <path class="cls-1" d="M65.22.53V75.1H85.44V.53ZM75.9,65H74.76V10.65H75.9Z"/>
        <path class="cls-1" d="M219.15.53v28.4H198.62V.53H178.09V75.1h20.22V42.62h21.15V75.1h20.22V.53ZM230,65h-1.15V36.35H188.93V65h-1.15V10.65h1.15V35.2h39.91V10.65H230Z"/>
        <polygon class="cls-1" points="284.04 23.11 284.04 23.11 284.04 23.11 284.04 23.11"/>
        <polygon class="cls-1" points="276.89 47.22 291.19 47.22 284.04 23.11 276.89 47.22"/>
        <path class="cls-1" d="M299.41,0H268.66l-19,75.59h21.25l2.86-12.87H294.3l2.86,12.87h21.25Zm2.74,55.53H265.92l-2.53,10.09-1.12-.28,14-55.8h15.47l.11.43L305.8,65.36l-1.11.28Z"/>
        <path class="cls-1" d="M277.19,10.71l-11,43.7h35.65l-11-43.7Zm-.3,36.51L284,23.11h0l7.15,24.11Z"/>
        <path class="cls-1" d="M134.61,58c-6.16.32-12.51-4.2-15-11.16a25,25,0,0,1,2.28-21.86c3.28-4.56,7.85-7.52,12.73-7.27,9.58.51,13.89,10.62,13.89,10.62h18.85a45.31,45.31,0,0,0-3-10A37.78,37.78,0,0,0,149.75,3.11,40.39,40.39,0,0,0,141.66.62a43.44,43.44,0,0,0-16,.28,35.06,35.06,0,0,0-20.18,14.74,49.8,49.8,0,0,0-3.86,8.9c-1.78,6.65-3.76,18.76,1,30.26C111.63,76.91,133.81,76,133.81,76a49.85,49.85,0,0,0,11.26-1.83,41.14,41.14,0,0,0,10.87-6.47c6.72-6.84,9.44-13.09,10.51-16.44a37.75,37.75,0,0,0,.9-3.92H148.5S144.19,57.45,134.61,58Zm16.48-1,.88.75c-3.22,3.76-8.73,8.33-16.78,8.79l-1.07,0H134c-9.63,0-18.85-6.88-22.46-16.76C106.17,35,114.7,20.18,114.79,20c4.65-7.18,11.91-11,19.09-11,.35,0,.7,0,1.05,0a23.87,23.87,0,0,1,16.85,8.64l-.86.75c-3.1-3.56-8.4-7.88-16-8.24l-1,0a21.8,21.8,0,0,0-18.14,10.47c-.06.1-8.32,14.44-3.11,28.74,3.44,9.44,12.22,16,21.38,16h.09q.51,0,1,0A22.72,22.72,0,0,0,151.09,57Z"/>
      </g>
    </g>
  </g>
</svg>
