<svg xmlns="http://www.w3.org/2000/svg" viewBox="0 0 286.1 98.89">
  <defs>
    <style>
      .cls-1 {
        fill: #31302e;
      }
    </style>
  </defs>
  <g id="Capa_2" data-name="Capa 2">
    <g id="Layer_1" data-name="Layer 1">
      <g>
        <g>
          <path class="cls-1" d="M286.1,0H189.44a92.06,92.06,0,0,1,21.2,11.33l55.85.2L238.94,57.86a87.41,87.41,0,0,1-.1,22.67Z"/>
          <path class="cls-1" d="M254.3,18.5l-35.05.06a65.62,65.62,0,0,1,17.39,28.51Z"/>
        </g>
        <g>
          <path class="cls-1" d="M39,29.92h9.32L28,79.33H20.39L0,29.92H9.53L24.32,67.63Z"/>
          <path class="cls-1" d="M57.47,70.47a10.53,10.53,0,0,0,7,2.41A12.42,12.42,0,0,0,70,71.76a17.45,17.45,0,0,0,4.55-3.29l5,4.41a20.44,20.44,0,0,1-6.34,5.05,19.08,19.08,0,0,1-8.8,1.89,19.8,19.8,0,0,1-7.46-1.4,18,18,0,0,1-6-3.92,18.26,18.26,0,0,1-4-6.07,20.34,20.34,0,0,1-1.47-7.88,20.88,20.88,0,0,1,1.33-7.5,18.67,18.67,0,0,1,3.75-6.13,17.8,17.8,0,0,1,5.71-4.17,17,17,0,0,1,7.29-1.55,17.49,17.49,0,0,1,7.74,1.62,15.87,15.87,0,0,1,5.54,4.34A18.92,18.92,0,0,1,80,53.54a25.77,25.77,0,0,1,1.12,7.64c0,.37,0,.75,0,1.12s-.06.77-.11,1.19H53.83A11.16,11.16,0,0,0,57.47,70.47ZM72.75,57.88a14.35,14.35,0,0,0-.91-3.81A9.9,9.9,0,0,0,70,51a9.2,9.2,0,0,0-2.84-2.07,8.82,8.82,0,0,0-3.75-.77,8.53,8.53,0,0,0-6.48,2.7,12.15,12.15,0,0,0-3.12,7Z"/>
          <path class="cls-1" d="M112.28,77.89a18.3,18.3,0,0,1-8.9,1.93,19,19,0,0,1-19.21-19.2A19.48,19.48,0,0,1,89.65,47a19.09,19.09,0,0,1,13.8-5.75A19.23,19.23,0,0,1,112.17,43a20.68,20.68,0,0,1,6.07,4.62L113,53.26a19.74,19.74,0,0,0-4.17-3.33,10.59,10.59,0,0,0-5.43-1.3,9.73,9.73,0,0,0-4.28.95,10.22,10.22,0,0,0-3.36,2.56,12.07,12.07,0,0,0-2.21,3.75,12.81,12.81,0,0,0-.81,4.59,13.28,13.28,0,0,0,.81,4.69A11.59,11.59,0,0,0,95.81,69a11,11,0,0,0,3.5,2.56,11.35,11.35,0,0,0,9.78-.35,20.78,20.78,0,0,0,4.31-3.33l5.12,5A23.34,23.34,0,0,1,112.28,77.89Z"/>
          <path class="cls-1" d="M133,67.4A4.62,4.62,0,0,0,134.21,71,4.81,4.81,0,0,0,137.58,72a11.67,11.67,0,0,0,5.26-1.26v6.94a14.79,14.79,0,0,1-3.44,1.4,16.09,16.09,0,0,1-4.2.49,15.86,15.86,0,0,1-4.3-.56,8.56,8.56,0,0,1-3.42-1.83,8.05,8.05,0,0,1-2.23-3.33,14.81,14.81,0,0,1-.78-5.17V49.19h-4.69V42h4.69V31.81H133V42h10v7.21H133Z"/>
          <path class="cls-1" d="M182.82,68a19.26,19.26,0,0,1-10.41,10.3,21.11,21.11,0,0,1-15.73,0,19.22,19.22,0,0,1-6.24-4.14,19.42,19.42,0,0,1-4.07-21.1,19.53,19.53,0,0,1,4.14-6.16,19.3,19.3,0,0,1,6.24-4.17,19.79,19.79,0,0,1,7.88-1.55,20.39,20.39,0,0,1,7.89,1.51,19.13,19.13,0,0,1,6.23,4.14,18.75,18.75,0,0,1,4.1,6.13,19.56,19.56,0,0,1,0,15Zm-7.88-12a12.25,12.25,0,0,0-2.33-3.82,11.07,11.07,0,0,0-3.56-2.59,11,11,0,0,0-12.64,2.56,11.06,11.06,0,0,0-2.23,3.75,13.48,13.48,0,0,0-.76,4.59,13.22,13.22,0,0,0,.83,4.66A11.66,11.66,0,0,0,156.59,69a11.13,11.13,0,0,0,3.55,2.56,10.62,10.62,0,0,0,4.49.94,11,11,0,0,0,4.63-.94A10.79,10.79,0,0,0,172.78,69,11.25,11.25,0,0,0,175,65.21a13.57,13.57,0,0,0,.77-4.59A12.73,12.73,0,0,0,174.94,56Z"/>
          <path class="cls-1" d="M198,79h-8.55V42H198v8.34a16.26,16.26,0,0,1,5-6.73,11.94,11.94,0,0,1,8.13-2.32v9h-.49a13.8,13.8,0,0,0-5.12.91,10.66,10.66,0,0,0-4,2.73,12.5,12.5,0,0,0-2.6,4.59,20.74,20.74,0,0,0-.91,6.41Z"/>
        </g>
        <g>
          <path class="cls-1" d="M120,97.83a4.89,4.89,0,0,1-.93.56,5.19,5.19,0,0,1-1.07.37,5.51,5.51,0,0,1-1.27.13,5.06,5.06,0,0,1-2-.41,4.89,4.89,0,0,1-1.63-1.12A5.26,5.26,0,0,1,112,95.69a5.51,5.51,0,0,1,1.07-5.82,4.84,4.84,0,0,1,1.64-1.14,5.05,5.05,0,0,1,2.08-.42,6.13,6.13,0,0,1,1.26.12,5.5,5.5,0,0,1,1,.33,4.66,4.66,0,0,1,.9.51,8,8,0,0,1,.78.66l-.78.85a6.42,6.42,0,0,0-1.41-1,3.93,3.93,0,0,0-1.81-.39,3.74,3.74,0,0,0-1.57.32,3.85,3.85,0,0,0-1.26.89,4.26,4.26,0,0,0-.83,1.34,4.74,4.74,0,0,0,0,3.32,4.2,4.2,0,0,0,.83,1.35,4,4,0,0,0,1.26.9,3.9,3.9,0,0,0,1.57.32,4,4,0,0,0,1.81-.38,6.09,6.09,0,0,0,1.49-1.09l.76.74A7,7,0,0,1,120,97.83Z"/>
          <path class="cls-1" d="M124.15,92.21a6.31,6.31,0,0,0-1.07.4l-.34-.92a6.92,6.92,0,0,1,1.27-.46,5.53,5.53,0,0,1,1.48-.17,3.34,3.34,0,0,1,2.38.77,2.9,2.9,0,0,1,.83,2.27v4.62h-1.08V97.58a3.53,3.53,0,0,1-1.06.9,3.25,3.25,0,0,1-1.67.4,3.62,3.62,0,0,1-1-.15,2.87,2.87,0,0,1-.91-.45,2.36,2.36,0,0,1-.64-.73,2.16,2.16,0,0,1-.24-1,2.39,2.39,0,0,1,.23-1.06,2.15,2.15,0,0,1,.67-.77,3.42,3.42,0,0,1,1-.47,5.34,5.34,0,0,1,1.31-.16,7.8,7.8,0,0,1,1.27.09,8.91,8.91,0,0,1,1.05.24v-.27a1.93,1.93,0,0,0-.59-1.54,2.41,2.41,0,0,0-1.66-.52A4.24,4.24,0,0,0,124.15,92.21Zm-.36,3.1a1.43,1.43,0,0,0-.41,1.8,1.53,1.53,0,0,0,.41.47,2,2,0,0,0,.61.3,2.41,2.41,0,0,0,.72.1,3.14,3.14,0,0,0,1-.15,2.54,2.54,0,0,0,.8-.42,2,2,0,0,0,.54-.65,1.72,1.72,0,0,0,.2-.82v-.73c-.28-.08-.61-.15-1-.22a6.66,6.66,0,0,0-1.25-.1A2.73,2.73,0,0,0,123.79,95.31Z"/>
          <path class="cls-1" d="M136.08,97.55a2.08,2.08,0,0,1-.57.71,2.39,2.39,0,0,1-.85.45,3.62,3.62,0,0,1-1.06.15,4.8,4.8,0,0,1-1.65-.3,5.16,5.16,0,0,1-1.48-.81L131,97a4.93,4.93,0,0,0,1.28.71,3.7,3.7,0,0,0,1.34.25,1.86,1.86,0,0,0,1.12-.32,1,1,0,0,0,.44-.88v0a.81.81,0,0,0-.15-.48,1.52,1.52,0,0,0-.42-.36,3.72,3.72,0,0,0-.6-.27l-.71-.22c-.3-.08-.59-.18-.89-.28a3.49,3.49,0,0,1-.8-.39,2,2,0,0,1-.59-.58,1.62,1.62,0,0,1-.22-.88v0a2,2,0,0,1,.19-.88,1.88,1.88,0,0,1,.53-.69,2.39,2.39,0,0,1,.82-.44,3.42,3.42,0,0,1,1-.15,4.44,4.44,0,0,1,1.42.23,5.52,5.52,0,0,1,1.3.6l-.51.85a5.14,5.14,0,0,0-1.11-.53,3.25,3.25,0,0,0-1.13-.2,1.68,1.68,0,0,0-1.07.31,1,1,0,0,0-.39.78v0a.68.68,0,0,0,.16.46,1.37,1.37,0,0,0,.43.35,4,4,0,0,0,.62.26l.73.23c.3.09.58.19.87.3a2.9,2.9,0,0,1,.78.41,1.81,1.81,0,0,1,.57.6,1.64,1.64,0,0,1,.21.86v0A2,2,0,0,1,136.08,97.55Z"/>
          <path class="cls-1" d="M139.89,92.21a6.31,6.31,0,0,0-1.07.4l-.34-.92a6.92,6.92,0,0,1,1.27-.46,5.53,5.53,0,0,1,1.48-.17,3.36,3.36,0,0,1,2.38.77,2.94,2.94,0,0,1,.83,2.27v4.62h-1.08V97.58a3.66,3.66,0,0,1-1.06.9,3.25,3.25,0,0,1-1.67.4,3.57,3.57,0,0,1-1-.15,2.87,2.87,0,0,1-.91-.45,2.24,2.24,0,0,1-.64-.73,2.16,2.16,0,0,1-.24-1,2.39,2.39,0,0,1,.23-1.06,2.15,2.15,0,0,1,.67-.77,3.31,3.31,0,0,1,1-.47,5.28,5.28,0,0,1,1.31-.16,7.88,7.88,0,0,1,1.27.09,8.91,8.91,0,0,1,1.05.24v-.27a2,2,0,0,0-.59-1.54,2.43,2.43,0,0,0-1.66-.52A4.24,4.24,0,0,0,139.89,92.21Zm-.36,3.1a1.36,1.36,0,0,0-.57,1.15,1.25,1.25,0,0,0,.16.65,1.53,1.53,0,0,0,.41.47,2,2,0,0,0,.61.3,2.37,2.37,0,0,0,.72.1,3.14,3.14,0,0,0,1-.15,2.54,2.54,0,0,0,.8-.42,2,2,0,0,0,.54-.65,1.72,1.72,0,0,0,.2-.82v-.73c-.29-.08-.61-.15-1-.22a6.73,6.73,0,0,0-1.25-.1A2.71,2.71,0,0,0,139.53,95.31Z"/>
          <path class="cls-1" d="M157.29,98.72V97.2a7.67,7.67,0,0,1-.52.64,3.73,3.73,0,0,1-.64.54,2.53,2.53,0,0,1-.78.36,3.22,3.22,0,0,1-1,.14,3.44,3.44,0,0,1-1.33-.27,3.6,3.6,0,0,1-1.15-.76,3.89,3.89,0,0,1-.82-1.24,4.63,4.63,0,0,1,0-3.33,3.89,3.89,0,0,1,.82-1.24,3.81,3.81,0,0,1,1.15-.77,3.44,3.44,0,0,1,1.33-.27,3.3,3.3,0,0,1,1,.13,3.78,3.78,0,0,1,.79.35,3.9,3.9,0,0,1,.63.51,4.94,4.94,0,0,1,.51.62V88.05h1.12V98.72Zm-.19-5a2.69,2.69,0,0,0-.61-.92,2.89,2.89,0,0,0-.88-.59,2.5,2.5,0,0,0-1-.21,2.75,2.75,0,0,0-1,.2,2.41,2.41,0,0,0-.84.57,2.61,2.61,0,0,0-.57.91,3.41,3.41,0,0,0-.21,1.23,3.3,3.3,0,0,0,.21,1.21,2.72,2.72,0,0,0,.58.92,2.41,2.41,0,0,0,.85.59,2.62,2.62,0,0,0,2,0,2.72,2.72,0,0,0,.88-.59,2.69,2.69,0,0,0,.61-.92,2.92,2.92,0,0,0,.23-1.2A2.87,2.87,0,0,0,157.1,93.74Z"/>
          <path class="cls-1" d="M161.91,96.44a2.45,2.45,0,0,0,1.41,1.3,2.54,2.54,0,0,0,1,.17,2.93,2.93,0,0,0,1.35-.29,3.84,3.84,0,0,0,1-.78l.71.63a4.55,4.55,0,0,1-1.3,1,3.86,3.86,0,0,1-1.82.39,3.79,3.79,0,0,1-1.46-.28,3.54,3.54,0,0,1-1.2-.81,3.77,3.77,0,0,1-.82-1.25,4.15,4.15,0,0,1-.3-1.6,4.43,4.43,0,0,1,.27-1.55,3.82,3.82,0,0,1,.75-1.25,3.48,3.48,0,0,1,2.6-1.15,3.39,3.39,0,0,1,1.49.31,3.25,3.25,0,0,1,1.11.86,3.63,3.63,0,0,1,.69,1.27A5,5,0,0,1,167.6,95v.16a1.21,1.21,0,0,1,0,.19h-6A3,3,0,0,0,161.91,96.44Zm4.54-1.92a4,4,0,0,0-.21-1,2.66,2.66,0,0,0-.47-.82,2.22,2.22,0,0,0-.72-.56,2.26,2.26,0,0,0-1-.21,2.13,2.13,0,0,0-.91.2,2.31,2.31,0,0,0-.74.54,2.84,2.84,0,0,0-.53.81,3.64,3.64,0,0,0-.26,1Z"/>
          <path class="cls-1" d="M179.87,88.67a3.21,3.21,0,0,1,1,.51,2.33,2.33,0,0,1,.67.8,2.46,2.46,0,0,1,.23,1.06,2.41,2.41,0,0,1-.14.89,2.23,2.23,0,0,1-.37.68,2.41,2.41,0,0,1-.52.49,3.08,3.08,0,0,1-.59.33,4.06,4.06,0,0,1,.86.34,2.78,2.78,0,0,1,.69.5,2.27,2.27,0,0,1,.47.7,2.75,2.75,0,0,1-.09,2.12,2.57,2.57,0,0,1-.75.89,3.68,3.68,0,0,1-1.18.55,5.88,5.88,0,0,1-1.51.19h-4.54V88.49h4.35A4.89,4.89,0,0,1,179.87,88.67Zm.14,3.91a1.6,1.6,0,0,0,.66-1.38,1.52,1.52,0,0,0-.58-1.24,2.71,2.71,0,0,0-1.68-.45h-3.1v3.54h3A2.84,2.84,0,0,0,180,92.58Zm.56,4.63a1.6,1.6,0,0,0,.67-1.37,1.49,1.49,0,0,0-.69-1.31,3.59,3.59,0,0,0-2-.46h-3.22v3.62h3.42A3.12,3.12,0,0,0,180.57,97.21Z"/>
          <path class="cls-1" d="M191.62,96.46A3.88,3.88,0,0,1,188,98.89a3.78,3.78,0,0,1-1.56-.31,4.19,4.19,0,0,1-1.25-.85,3.74,3.74,0,0,1-.81-1.25A3.89,3.89,0,0,1,184,95a3.94,3.94,0,0,1,.3-1.53,3.79,3.79,0,0,1,.81-1.26,4,4,0,0,1,1.25-.86A4,4,0,0,1,188,91a3.89,3.89,0,0,1,1.57.31,4.07,4.07,0,0,1,1.25.85,3.93,3.93,0,0,1,.82,1.25,4.07,4.07,0,0,1,.29,1.52A3.94,3.94,0,0,1,191.62,96.46Zm-1.07-2.66a2.77,2.77,0,0,0-.59-.94,2.67,2.67,0,0,0-.89-.63A2.57,2.57,0,0,0,188,92a2.82,2.82,0,0,0-1.13.23,2.37,2.37,0,0,0-.86.63,2.91,2.91,0,0,0-.57.93,3.29,3.29,0,0,0-.2,1.14,3.19,3.19,0,0,0,.21,1.16A3,3,0,0,0,186,97a2.79,2.79,0,0,0,.89.62,2.57,2.57,0,0,0,1.11.24,2.73,2.73,0,0,0,1.12-.23A2.55,2.55,0,0,0,190,97a3,3,0,0,0,.57-.92,3.13,3.13,0,0,0,.21-1.15A2.94,2.94,0,0,0,190.55,93.8Z"/>
          <path class="cls-1" d="M194.05,98.72V88.05h1.13V98.72Z"/>
          <path class="cls-1" d="M202.77,97.55a2.08,2.08,0,0,1-.57.71,2.39,2.39,0,0,1-.85.45,3.57,3.57,0,0,1-1.06.15,4.89,4.89,0,0,1-1.65-.3,5.23,5.23,0,0,1-1.47-.81l.57-.8a4.87,4.87,0,0,0,1.27.71,3.74,3.74,0,0,0,1.34.25,1.91,1.91,0,0,0,1.13-.32,1,1,0,0,0,.44-.88v0a.81.81,0,0,0-.16-.48,1.63,1.63,0,0,0-.41-.36,3.85,3.85,0,0,0-.61-.27l-.71-.22c-.29-.08-.59-.18-.88-.28a3.38,3.38,0,0,1-.81-.39,1.89,1.89,0,0,1-.58-.58,1.62,1.62,0,0,1-.23-.88v0a2.14,2.14,0,0,1,.19-.88,2,2,0,0,1,.54-.69,2.34,2.34,0,0,1,.81-.44,3.42,3.42,0,0,1,1-.15,4.44,4.44,0,0,1,1.42.23,5.34,5.34,0,0,1,1.3.6l-.51.85a5.3,5.3,0,0,0-1.1-.53,3.34,3.34,0,0,0-1.14-.2,1.65,1.65,0,0,0-1.06.31,1,1,0,0,0-.4.78v0a.73.73,0,0,0,.16.46,1.37,1.37,0,0,0,.43.35,4.12,4.12,0,0,0,.63.26c.23.08.47.16.73.23s.58.19.87.3a3.23,3.23,0,0,1,.78.41,1.89,1.89,0,0,1,.56.6,1.64,1.64,0,0,1,.21.86v0A2,2,0,0,1,202.77,97.55Z"/>
          <path class="cls-1" d="M206.58,92.21a6.31,6.31,0,0,0-1.07.4l-.34-.92a7,7,0,0,1,1.28-.46,5.45,5.45,0,0,1,1.47-.17,3.34,3.34,0,0,1,2.38.77,2.91,2.91,0,0,1,.84,2.27v4.62h-1.08V97.58a3.79,3.79,0,0,1-1.06.9,3.31,3.31,0,0,1-1.68.4,3.62,3.62,0,0,1-1-.15,2.82,2.82,0,0,1-.9-.45,2.27,2.27,0,0,1-.65-.73,2.16,2.16,0,0,1-.24-1,2.27,2.27,0,0,1,.24-1.06,2,2,0,0,1,.66-.77,3.42,3.42,0,0,1,1-.47,5.34,5.34,0,0,1,1.31-.16,7.8,7.8,0,0,1,1.27.09,9.56,9.56,0,0,1,1.06.24v-.27a1.93,1.93,0,0,0-.6-1.54,2.39,2.39,0,0,0-1.66-.52A4.29,4.29,0,0,0,206.58,92.21Zm-.36,3.1a1.38,1.38,0,0,0-.56,1.15,1.36,1.36,0,0,0,.15.65,1.53,1.53,0,0,0,.41.47,2,2,0,0,0,.61.3,2.46,2.46,0,0,0,.72.1,3.1,3.1,0,0,0,1-.15,2.43,2.43,0,0,0,.8-.42,2,2,0,0,0,.54-.65,1.72,1.72,0,0,0,.2-.82v-.73c-.28-.08-.6-.15-1-.22a6.62,6.62,0,0,0-1.24-.1A2.74,2.74,0,0,0,206.22,95.31Z"/>
        </g>
      </g>
    </g>
  </g>
</svg>
