<svg xmlns="http://www.w3.org/2000/svg" viewBox="0 0 1146.4 622.83">
  <defs>
    <style>
      .cls-1 {
        fill: #f47f6b;
      }

      .cls-2 {
        fill: none;
      }

      .cls-2, .cls-4, .cls-6 {
        stroke: #31302e;
        stroke-miterlimit: 10;
        stroke-width: 1.5px;
      }

      .cls-3 {
        fill: #31302e;
      }

      .cls-4, .cls-5 {
        fill: #f8eee2;
      }

      .cls-6 {
        fill: #e65a41;
      }
    </style>
  </defs>
  <g id="Capa_2" data-name="Capa 2">
    <g id="Layer_1" data-name="Layer 1">
      <rect class="cls-1" y="356.82" width="1146.4" height="266.01"/>
      <line class="cls-2" y1="356.82" x2="1146.4" y2="356.82"/>
      <g>
        <ellipse class="cls-3" cx="176.46" cy="512.78" rx="44.63" ry="11.28"/>
        <circle class="cls-4" cx="144.36" cy="480.54" r="39.36"/>
      </g>
      <g>
        <g>
          <g>
            <polygon class="cls-3" points="791.74 331.45 766.37 356.81 818.95 356.81 791.74 331.45"/>
            <polygon class="cls-3" points="753.7 324.4 721.33 356.77 788.43 356.77 753.7 324.4"/>
            <path class="cls-5" d="M753.83,330.23a1.53,1.53,0,0,1,.82,2.21,6.77,6.77,0,0,1-1.39,1,3.73,3.73,0,0,0-1.13,3.25c.1,1.18.51,2.32.69,3.5.07.43.07,1-.29,1.2a1.66,1.66,0,0,1-.69.19,2.64,2.64,0,0,0-2.05,2.25c-.07.45.26,1.07-.13,1.37s-1.22-.39-1.72.06a1,1,0,0,0-.24.56,19,19,0,0,0,.22,2.9c0,1-.49,2.12-1.46,2.24a2.69,2.69,0,0,1-2-1.06l-3.57-3.61A3.21,3.21,0,0,1,740,345c-.32-1.08.51-2.13,1.29-3q5.19-5.49,10.47-10.89a2.91,2.91,0,0,1,1.62-1A1.07,1.07,0,0,1,753.83,330.23Z"/>
            <polygon class="cls-3" points="658.15 324.4 625.78 356.77 692.87 356.77 658.15 324.4"/>
            <path class="cls-5" d="M658.27,330.23a1.52,1.52,0,0,1,.82,2.21c-.34.47-.93.67-1.38,1a3.7,3.7,0,0,0-1.13,3.25c.1,1.18.5,2.32.69,3.5.07.43.07,1-.29,1.2a1.66,1.66,0,0,1-.7.19,2.62,2.62,0,0,0-2,2.25c-.07.45.25,1.07-.14,1.37s-1.21-.39-1.71.06a1,1,0,0,0-.24.56,20.31,20.31,0,0,0,.21,2.9c0,1-.48,2.12-1.45,2.24a2.66,2.66,0,0,1-2-1.06l-3.57-3.61a3.21,3.21,0,0,1-.91-1.28c-.32-1.08.51-2.13,1.28-3q5.19-5.49,10.48-10.89a2.92,2.92,0,0,1,1.61-1A1,1,0,0,1,658.27,330.23Z"/>
            <path class="cls-5" d="M789.57,338.32a2.42,2.42,0,0,1,.55-.24,1.52,1.52,0,0,1,1.09.08,1,1,0,0,1,.57.89c0,.55-.52,1-1,1.2a3.63,3.63,0,0,0-1.44.83,2.32,2.32,0,0,0-.14,2.18,5.54,5.54,0,0,1,.52,2.2,3.84,3.84,0,0,1-.82,1.83,22.1,22.1,0,0,1-4.58,5,1.81,1.81,0,0,1-1.62.49c-.48-.18-.72-.72-1.13-1a2.23,2.23,0,0,0-2.33.1,12.24,12.24,0,0,1-2.14,1.21,1.37,1.37,0,0,1-.87,0c-1.29-.46.41-1.73.82-2.17s1.09-1.15,1.64-1.73c1.06-1.12,2.14-2.24,3.22-3.35q3.29-3.36,6.66-6.65A5.54,5.54,0,0,1,789.57,338.32Z"/>
            <polygon class="cls-3" points="705.45 331.41 680.09 356.77 732.66 356.77 705.45 331.41"/>
            <path class="cls-5" d="M703.29,338.28a2.09,2.09,0,0,1,.55-.24,1.52,1.52,0,0,1,1.09.08,1,1,0,0,1,.57.88c0,.56-.53,1-1,1.21A3.57,3.57,0,0,0,703,341a2.33,2.33,0,0,0-.15,2.17,5.82,5.82,0,0,1,.53,2.21,4,4,0,0,1-.82,1.83,21.66,21.66,0,0,1-4.59,5,1.77,1.77,0,0,1-1.61.5c-.48-.18-.72-.72-1.13-1a2.23,2.23,0,0,0-2.33.1,13.33,13.33,0,0,1-2.14,1.21,1.4,1.4,0,0,1-.88,0c-1.28-.46.42-1.73.83-2.17l1.63-1.73q1.61-1.68,3.22-3.35,3.28-3.36,6.66-6.65A5.61,5.61,0,0,1,703.29,338.28Z"/>
            <polygon class="cls-3" points="729.83 338.23 711.03 357.03 750 357.03 729.83 338.23"/>
            <path class="cls-5" d="M728.23,343.32a1.68,1.68,0,0,1,.41-.17,1.1,1.1,0,0,1,.8.05.8.8,0,0,1,.43.66,1.12,1.12,0,0,1-.77.89,2.92,2.92,0,0,0-1.07.62,1.72,1.72,0,0,0-.1,1.61,4.52,4.52,0,0,1,.39,1.63,3,3,0,0,1-.61,1.36,16.31,16.31,0,0,1-3.4,3.68,1.3,1.3,0,0,1-1.2.37c-.35-.14-.53-.53-.84-.76a1.65,1.65,0,0,0-1.72.08,9.21,9.21,0,0,1-1.59.89,1,1,0,0,1-.65,0c-.95-.34.31-1.28.61-1.6l1.22-1.29c.79-.83,1.58-1.65,2.38-2.47,1.63-1.67,3.27-3.31,4.94-4.93A4.29,4.29,0,0,1,728.23,343.32Z"/>
            <polygon class="cls-3" points="834.25 324.4 801.88 356.77 868.98 356.77 834.25 324.4"/>
            <path class="cls-5" d="M834.38,330.23a1.53,1.53,0,0,1,.82,2.21,6.51,6.51,0,0,1-1.39,1,3.72,3.72,0,0,0-1.12,3.25c.09,1.18.5,2.32.69,3.5.06.43.06,1-.29,1.2a1.66,1.66,0,0,1-.7.19,2.64,2.64,0,0,0-2,2.25c-.07.45.26,1.07-.13,1.37s-1.22-.39-1.71.06a.89.89,0,0,0-.24.56,19,19,0,0,0,.21,2.9c0,1-.49,2.12-1.45,2.24a2.66,2.66,0,0,1-2-1.06l-3.57-3.61a3.23,3.23,0,0,1-.92-1.28c-.32-1.08.52-2.13,1.29-3Q827,336.6,832.3,331.2a2.86,2.86,0,0,1,1.61-1A1.07,1.07,0,0,1,834.38,330.23Z"/>
            <polygon class="cls-3" points="881.56 331.41 856.2 356.77 908.77 356.77 881.56 331.41"/>
            <path class="cls-5" d="M879.4,338.28A2.09,2.09,0,0,1,880,338a1.49,1.49,0,0,1,1.08.08,1,1,0,0,1,.58.88c0,.56-.53,1-1,1.21a3.53,3.53,0,0,0-1.43.83,2.3,2.3,0,0,0-.15,2.17,5.82,5.82,0,0,1,.53,2.21,4,4,0,0,1-.83,1.83,21.4,21.4,0,0,1-4.58,5,1.79,1.79,0,0,1-1.62.5c-.47-.18-.71-.72-1.13-1a2.21,2.21,0,0,0-2.32.1A13.33,13.33,0,0,1,866.9,353a1.4,1.4,0,0,1-.88,0c-1.28-.46.42-1.73.82-2.17s1.09-1.16,1.64-1.73q1.6-1.68,3.22-3.35,3.28-3.36,6.66-6.65A5.3,5.3,0,0,1,879.4,338.28Z"/>
            <polygon class="cls-3" points="811.46 337.7 792.66 356.5 831.62 356.5 811.46 337.7"/>
            <path class="cls-5" d="M809.85,342.8a1.65,1.65,0,0,1,.41-.18,1.13,1.13,0,0,1,.81.06.76.76,0,0,1,.42.66c0,.41-.39.71-.77.89a2.73,2.73,0,0,0-1.06.61,1.74,1.74,0,0,0-.11,1.62,4.1,4.1,0,0,1,.39,1.63,2.89,2.89,0,0,1-.61,1.36,16.25,16.25,0,0,1-3.39,3.68,1.32,1.32,0,0,1-1.2.36c-.36-.13-.53-.53-.84-.76a1.65,1.65,0,0,0-1.72.08,10.45,10.45,0,0,1-1.59.9,1.11,1.11,0,0,1-.65,0c-1-.34.31-1.29.61-1.61l1.21-1.28c.79-.83,1.59-1.66,2.39-2.48,1.62-1.67,3.27-3.31,4.93-4.93A4.16,4.16,0,0,1,809.85,342.8Z"/>
            <polygon class="cls-3" points="924.11 324.6 891.74 356.97 958.84 356.97 924.11 324.6"/>
            <path class="cls-5" d="M924.24,330.43a1.53,1.53,0,0,1,.82,2.22,6.87,6.87,0,0,1-1.39,1,3.7,3.7,0,0,0-1.12,3.24c.09,1.19.5,2.33.69,3.51.06.43.06.95-.3,1.2a1.61,1.61,0,0,1-.69.18,2.64,2.64,0,0,0-2,2.26c-.07.45.26,1.06-.13,1.37s-1.22-.4-1.71.05a.89.89,0,0,0-.24.57,17.77,17.77,0,0,0,.21,2.9c0,1-.49,2.11-1.45,2.23a2.6,2.6,0,0,1-2-1.06l-3.57-3.6a3.38,3.38,0,0,1-.92-1.28c-.32-1.08.52-2.14,1.29-3q5.19-5.49,10.48-10.88a2.82,2.82,0,0,1,1.61-1A1.07,1.07,0,0,1,924.24,330.43Z"/>
            <polygon class="cls-3" points="901.32 337.91 882.52 356.71 921.48 356.71 901.32 337.91"/>
            <path class="cls-5" d="M898.8,340.56a1.5,1.5,0,0,1,.41-.18,1.11,1.11,0,0,1,.8.06.75.75,0,0,1,.43.66c0,.41-.39.72-.77.89a2.66,2.66,0,0,0-1.06.61,1.71,1.71,0,0,0-.11,1.62,4.1,4.1,0,0,1,.39,1.63,2.89,2.89,0,0,1-.61,1.36,16.08,16.08,0,0,1-3.4,3.68,1.32,1.32,0,0,1-1.2.36c-.35-.13-.53-.53-.83-.75a1.64,1.64,0,0,0-1.73.07,9.18,9.18,0,0,1-1.58.9,1.11,1.11,0,0,1-.65,0c-.95-.34.31-1.28.61-1.61l1.21-1.28c.79-.83,1.59-1.66,2.39-2.48,1.62-1.66,3.27-3.31,4.93-4.93A4.61,4.61,0,0,1,898.8,340.56Z"/>
            <polygon class="cls-3" points="965.05 331.2 939.68 356.56 992.25 356.56 965.05 331.2"/>
            <path class="cls-5" d="M962.88,338.07a2.7,2.7,0,0,1,.55-.24,1.52,1.52,0,0,1,1.09.08,1,1,0,0,1,.57.89c0,.56-.52,1-1,1.2a3.68,3.68,0,0,0-1.44.83,2.32,2.32,0,0,0-.14,2.18,5.9,5.9,0,0,1,.52,2.2,3.83,3.83,0,0,1-.82,1.84,22.05,22.05,0,0,1-4.58,5,1.79,1.79,0,0,1-1.62.5c-.48-.19-.72-.72-1.13-1a2.21,2.21,0,0,0-2.33.11,12.19,12.19,0,0,1-2.14,1.2,1.4,1.4,0,0,1-.88,0c-1.28-.46.42-1.73.83-2.16l1.64-1.74c1.06-1.12,2.14-2.23,3.22-3.34q3.28-3.37,6.66-6.65A6,6,0,0,1,962.88,338.07Z"/>
            <polygon class="cls-3" points="1007.6 324.4 975.23 356.77 1042.33 356.77 1007.6 324.4"/>
            <path class="cls-5" d="M1007.73,331.67a1.54,1.54,0,0,1,.82,2.22,6.77,6.77,0,0,1-1.39,1,3.68,3.68,0,0,0-1.13,3.24c.1,1.19.51,2.33.69,3.51a1.19,1.19,0,0,1-.29,1.2,1.52,1.52,0,0,1-.7.18,2.63,2.63,0,0,0-2,2.26c-.07.45.25,1.07-.13,1.37s-1.22-.4-1.72.06a.92.92,0,0,0-.24.56,20.31,20.31,0,0,0,.21,2.9c0,1-.48,2.11-1.45,2.23a2.6,2.6,0,0,1-2-1.06l-3.57-3.6a3.28,3.28,0,0,1-.91-1.28c-.32-1.08.51-2.14,1.29-3q5.18-5.47,10.47-10.88a3,3,0,0,1,1.61-1A1.51,1.51,0,0,1,1007.73,331.67Z"/>
            <polygon class="cls-3" points="984.8 337.7 966 356.5 1004.97 356.5 984.8 337.7"/>
            <path class="cls-5" d="M985.49,342.26a1.5,1.5,0,0,1,.41-.18,1.06,1.06,0,0,1,.8.06.75.75,0,0,1,.43.65c0,.42-.39.72-.77.9a2.66,2.66,0,0,0-1.06.61,1.69,1.69,0,0,0-.11,1.61,4.15,4.15,0,0,1,.39,1.64,2.89,2.89,0,0,1-.61,1.36,16,16,0,0,1-3.4,3.67,1.3,1.3,0,0,1-1.2.37c-.35-.13-.53-.53-.83-.76a1.66,1.66,0,0,0-1.73.08,9.13,9.13,0,0,1-1.58.89,1,1,0,0,1-.65,0c-1-.35.31-1.29.61-1.61s.8-.86,1.21-1.28c.79-.83,1.59-1.66,2.39-2.48,1.62-1.67,3.27-3.31,4.93-4.93A4.16,4.16,0,0,1,985.49,342.26Z"/>
          </g>
          <g>
            <polygon class="cls-3" points="405.31 331.52 430.67 356.89 378.1 356.89 405.31 331.52"/>
            <polygon class="cls-3" points="443.35 324.47 475.72 356.85 408.62 356.85 443.35 324.47"/>
            <path class="cls-5" d="M443.22,330.3a1.53,1.53,0,0,0-.82,2.22,6.87,6.87,0,0,0,1.39,1,3.7,3.7,0,0,1,1.12,3.24c-.09,1.19-.5,2.33-.69,3.51a1.21,1.21,0,0,0,.29,1.2,1.65,1.65,0,0,0,.7.18,2.64,2.64,0,0,1,2.05,2.26c.07.45-.26,1.07.13,1.37s1.22-.4,1.71.05a.89.89,0,0,1,.24.57,19,19,0,0,1-.21,2.9c0,1,.49,2.11,1.45,2.23a2.6,2.6,0,0,0,2-1.06l3.57-3.6a3.38,3.38,0,0,0,.92-1.28c.32-1.08-.52-2.14-1.29-3q-5.19-5.49-10.48-10.88a2.87,2.87,0,0,0-1.61-1A1.24,1.24,0,0,0,443.22,330.3Z"/>
            <path class="cls-5" d="M407.47,338.39a2.48,2.48,0,0,0-.55-.24,1.49,1.49,0,0,0-1.08.08,1,1,0,0,0-.58.89c0,.56.53,1,1,1.2a3.64,3.64,0,0,1,1.43.83,2.32,2.32,0,0,1,.15,2.18,5.73,5.73,0,0,0-.53,2.2,3.94,3.94,0,0,0,.83,1.84,21.4,21.4,0,0,0,4.58,5,1.78,1.78,0,0,0,1.62.5c.47-.19.71-.72,1.13-1a2.19,2.19,0,0,1,2.32.11,12.56,12.56,0,0,0,2.14,1.2,1.4,1.4,0,0,0,.88,0c1.28-.46-.42-1.73-.82-2.16l-1.64-1.74q-1.61-1.68-3.22-3.34-3.29-3.37-6.66-6.65A5.73,5.73,0,0,0,407.47,338.39Z"/>
            <polygon class="cls-3" points="491.59 331.48 516.96 356.85 464.38 356.85 491.59 331.48"/>
            <path class="cls-5" d="M493.76,338.35a2.7,2.7,0,0,0-.55-.24,1.52,1.52,0,0,0-1.09.08,1,1,0,0,0-.57.89c0,.56.52,1,1,1.2a3.76,3.76,0,0,1,1.44.83,2.32,2.32,0,0,1,.14,2.18,5.71,5.71,0,0,0-.52,2.2,3.83,3.83,0,0,0,.82,1.84,22.05,22.05,0,0,0,4.58,5,1.79,1.79,0,0,0,1.62.5c.48-.19.72-.72,1.13-1a2.21,2.21,0,0,1,2.33.11,12.19,12.19,0,0,0,2.14,1.2,1.37,1.37,0,0,0,.87,0c1.29-.46-.41-1.73-.82-2.16l-1.64-1.74c-1.06-1.12-2.14-2.23-3.22-3.34q-3.29-3.37-6.66-6.65A6,6,0,0,0,493.76,338.35Z"/>
            <polygon class="cls-3" points="467.21 338.31 486.01 357.1 447.05 357.1 467.21 338.31"/>
            <path class="cls-5" d="M468.82,343.4a1.5,1.5,0,0,0-.41-.18,1.11,1.11,0,0,0-.8.06.76.76,0,0,0-.43.66c0,.41.39.72.77.89a2.73,2.73,0,0,1,1.06.61,1.74,1.74,0,0,1,.11,1.62,4.1,4.1,0,0,0-.39,1.63,2.84,2.84,0,0,0,.61,1.36,16.08,16.08,0,0,0,3.4,3.68,1.34,1.34,0,0,0,1.19.37c.36-.14.54-.54.84-.76a1.64,1.64,0,0,1,1.73.07,8.57,8.57,0,0,0,1.58.9,1.11,1.11,0,0,0,.65,0c.95-.34-.31-1.28-.61-1.6l-1.21-1.29c-.79-.83-1.59-1.66-2.39-2.48-1.62-1.66-3.27-3.31-4.93-4.93A4.61,4.61,0,0,0,468.82,343.4Z"/>
            <polygon class="cls-3" points="561.7 337.78 580.49 356.58 541.53 356.58 561.7 337.78"/>
            <path class="cls-5" d="M563.3,342.87a1.89,1.89,0,0,0-.41-.18,1.16,1.16,0,0,0-.8.06.78.78,0,0,0-.43.66,1.12,1.12,0,0,0,.77.89,2.68,2.68,0,0,1,1.06.62,1.69,1.69,0,0,1,.11,1.61,4.52,4.52,0,0,0-.39,1.63,2.94,2.94,0,0,0,.61,1.36,16.31,16.31,0,0,0,3.4,3.68,1.33,1.33,0,0,0,1.2.37c.35-.14.53-.53.83-.76a1.64,1.64,0,0,1,1.73.08,9.13,9.13,0,0,0,1.58.89,1,1,0,0,0,.65,0c1-.34-.31-1.28-.61-1.6l-1.21-1.29c-.79-.83-1.58-1.65-2.39-2.48q-2.43-2.49-4.93-4.92A4.67,4.67,0,0,0,563.3,342.87Z"/>
            <polygon class="cls-3" points="362.79 324.47 395.16 356.85 328.06 356.85 362.79 324.47"/>
            <path class="cls-5" d="M362.66,330.3a1.54,1.54,0,0,0-.82,2.22,7.16,7.16,0,0,0,1.39,1,3.68,3.68,0,0,1,1.13,3.24c-.1,1.19-.5,2.33-.69,3.51a1.19,1.19,0,0,0,.29,1.2,1.65,1.65,0,0,0,.7.18,2.62,2.62,0,0,1,2,2.26c.07.45-.25,1.07.13,1.37s1.22-.4,1.72.05a1,1,0,0,1,.24.57,20.31,20.31,0,0,1-.21,2.9c0,1,.48,2.11,1.45,2.23a2.6,2.6,0,0,0,2-1.06l3.57-3.6a3.35,3.35,0,0,0,.91-1.28c.32-1.08-.51-2.14-1.28-3q-5.19-5.49-10.48-10.88a2.94,2.94,0,0,0-1.61-1A1.27,1.27,0,0,0,362.66,330.3Z"/>
            <polygon class="cls-3" points="315.49 331.48 340.85 356.85 288.28 356.85 315.49 331.48"/>
            <path class="cls-5" d="M317.65,338.35a2.7,2.7,0,0,0-.55-.24,1.52,1.52,0,0,0-1.09.08,1,1,0,0,0-.57.89c0,.56.53,1,1,1.2a3.68,3.68,0,0,1,1.44.83,2.35,2.35,0,0,1,.15,2.18,5.73,5.73,0,0,0-.53,2.2,4,4,0,0,0,.82,1.84,21.87,21.87,0,0,0,4.59,5,1.77,1.77,0,0,0,1.61.5c.48-.19.72-.72,1.13-1a2.21,2.21,0,0,1,2.33.11,12.56,12.56,0,0,0,2.14,1.2,1.4,1.4,0,0,0,.88,0c1.28-.46-.42-1.73-.83-2.16l-1.63-1.74q-1.6-1.68-3.22-3.34-3.28-3.37-6.66-6.65A6.1,6.1,0,0,0,317.65,338.35Z"/>
            <polygon class="cls-3" points="385.59 337.78 404.39 356.58 365.43 356.58 385.59 337.78"/>
            <path class="cls-5" d="M387.2,342.87a2.13,2.13,0,0,0-.41-.18,1.19,1.19,0,0,0-.81.06.77.77,0,0,0-.42.66c0,.42.39.72.76.89a2.72,2.72,0,0,1,1.07.62,1.72,1.72,0,0,1,.1,1.61,4.31,4.31,0,0,0-.38,1.63,2.93,2.93,0,0,0,.6,1.36,16.31,16.31,0,0,0,3.4,3.68,1.33,1.33,0,0,0,1.2.37c.35-.14.53-.53.84-.76a1.63,1.63,0,0,1,1.72.08,9.6,9.6,0,0,0,1.59.89,1,1,0,0,0,.65,0c.95-.34-.31-1.28-.61-1.6l-1.22-1.29-2.38-2.48c-1.63-1.66-3.27-3.3-4.94-4.92A4.61,4.61,0,0,0,387.2,342.87Z"/>
            <polygon class="cls-3" points="272.93 324.68 305.31 357.05 238.21 357.05 272.93 324.68"/>
            <path class="cls-5" d="M272.81,330.51a1.53,1.53,0,0,0-.82,2.21c.34.47.93.67,1.38,1A3.7,3.7,0,0,1,274.5,337c-.1,1.18-.5,2.32-.69,3.5-.07.43-.07,1,.29,1.2a1.66,1.66,0,0,0,.7.19,2.62,2.62,0,0,1,2,2.25c.07.45-.25,1.07.14,1.37s1.21-.39,1.71.06a.92.92,0,0,1,.24.56,20.31,20.31,0,0,1-.21,2.9c0,1,.49,2.12,1.45,2.23a2.62,2.62,0,0,0,2-1.05l3.57-3.61a3.21,3.21,0,0,0,.91-1.28c.33-1.08-.51-2.13-1.28-2.95q-5.19-5.49-10.48-10.89a2.89,2.89,0,0,0-1.61-1A1,1,0,0,0,272.81,330.51Z"/>
            <polygon class="cls-3" points="295.73 337.98 314.53 356.78 275.57 356.78 295.73 337.98"/>
            <path class="cls-5" d="M296.69,341.8a2.09,2.09,0,0,0-.41-.17,1.13,1.13,0,0,0-.81.05.77.77,0,0,0-.42.66c0,.42.39.72.76.89a2.84,2.84,0,0,1,1.07.62,1.72,1.72,0,0,1,.11,1.61,4.14,4.14,0,0,0-.39,1.63,2.84,2.84,0,0,0,.61,1.36,16,16,0,0,0,3.39,3.68,1.3,1.3,0,0,0,1.2.37c.36-.14.53-.53.84-.76a1.65,1.65,0,0,1,1.72.08,9.6,9.6,0,0,0,1.59.89,1,1,0,0,0,.65,0c.95-.34-.31-1.28-.61-1.6l-1.21-1.29c-.79-.83-1.59-1.65-2.39-2.47q-2.43-2.5-4.94-4.93A4.23,4.23,0,0,0,296.69,341.8Z"/>
            <polygon class="cls-3" points="538.9 324.47 571.27 356.85 504.17 356.85 538.9 324.47"/>
            <path class="cls-5" d="M538.77,330.3a1.54,1.54,0,0,0-.82,2.22,7.16,7.16,0,0,0,1.39,1,3.71,3.71,0,0,1,1.13,3.24c-.1,1.19-.51,2.33-.69,3.51a1.19,1.19,0,0,0,.29,1.2,1.64,1.64,0,0,0,.69.18,2.64,2.64,0,0,1,2,2.26c.07.45-.25,1.07.13,1.37s1.22-.4,1.72.05a1,1,0,0,1,.24.57,19,19,0,0,1-.22,2.9c0,1,.49,2.11,1.46,2.23a2.63,2.63,0,0,0,2-1.06l3.57-3.6a3.35,3.35,0,0,0,.91-1.28c.32-1.08-.51-2.14-1.29-3q-5.19-5.49-10.47-10.88a2.93,2.93,0,0,0-1.62-1A1.24,1.24,0,0,0,538.77,330.3Z"/>
          </g>
        </g>
        <g>
          <ellipse class="cls-3" cx="478.74" cy="461.76" rx="82.54" ry="20.86"/>
          <g>
            <path class="cls-4" d="M466.4,143.58a3,3,0,0,0,2-.33l35.52-14.53c2-.8,4-1.62,6.15-1.34a11.77,11.77,0,0,1,4.59,2c3.16,2,6.26,4.12,9.27,6.33s6.1,4.63,9.69,5.83c3.41,1.13,7.08,1.12,10.68,1.1,2.61,0,5.34-.06,7.64-1.3q-10.34-10.73-21.4-20.7c-6.09-5.48-8.69-13.47-17.34-13.83-4.4-.19-12.8.13-17.21.2-4.85.08-10.15,1-14.9,0-.46-.09-.5-1.51-.92-1.31a2.11,2.11,0,0,0-.8.87l-18.11,29a2.21,2.21,0,0,0-.43,1.11,2.17,2.17,0,0,0,.61,1.25l3.55,4.47A3.12,3.12,0,0,0,466.4,143.58Z"/>
            <path class="cls-4" d="M456.54,62.54,469.8,45l20.29-26.77c2.22-2.92,10.24-14.36,14.83-8.53,3.73,4.74-7.6,29.57-15.5,35.17s-32.88,18.22-32.88,18.22"/>
            <path class="cls-4" d="M507.86,87.76c15.39-10.28,35.61-9.28,52.83-16.05,4.83-1.89,10-5.18,10.6-10.33.23-2-.41-4.19-2.14-5.14a7.24,7.24,0,0,0-3.95-.5L511,59.12c-6.71.41-13.74.93-19.43,4.5C487,66.46,483.79,71,481,75.55A91.66,91.66,0,0,0,468,113.75a9.31,9.31,0,0,0,2.76,7.76C473.11,123.65,499.1,93.61,507.86,87.76Z"/>
            <path class="cls-6" d="M558.11,56.57a.43.43,0,0,0,.08.27c1.28,2.37,5,1.94,7.22,1.8a30.25,30.25,0,0,0,6-.78,5.25,5.25,0,0,0,2.49-1.27c.43-.44.71-1.2.29-1.65a1.57,1.57,0,0,0-1.23-.29,136,136,0,0,0-14.38,1.6c-.2,0-.43.1-.47.29Z"/>
            <path class="cls-4" d="M396,462c-.16-.09-.32-.18-.47-.28C401.5,355.06,384.71,246.33,409,142.34c2.32-10,5.08-20,10.39-28.69,4.25-7,10-12.88,15-19.34,9.87-12.84,16.88-28.08,29.07-38.73,8.53-7.46,19.07-12.17,29.5-16.6,16-6.77,29-12,45.32-18,3.09,16.09-6.77,19.45-16.13,26S502.11,58.58,493.76,66.4c-21.74,20.36-23,53.86-22.7,83.64.12,13.86.36,28.22,6.31,40.73,11,23.08,38.18,33.48,63.46,37.26,13.63,2,28.11,3,39.53,10.73,3.7,2.5,7,8.07,3.56,10.91s-27.11,3.94-32.87,4.66c-9.13,1.13-18.33,1.51-27.47,2.51A100.57,100.57,0,0,0,506.89,260c-10.31,3-20.07,8.43-25.85,17.75-7.44,12-6.56,27.16-5.42,41.23q5.63,69.57,11.24,139.14a9,9,0,0,1-.46,4.77c-.88,1.81-2.82,2.82-4.66,3.64A95.73,95.73,0,0,1,396,462Z"/>
            <path class="cls-6" d="M561.28,253.37a21.88,21.88,0,0,1,12.42-5.66,56.91,56.91,0,0,1,13.86.2,3,3,0,0,1,1.9.65c3.1,3.06-12,3.76-13.22,3.88Q568.77,253.15,561.28,253.37Z"/>
            <path class="cls-6" d="M516.09,29.72a.28.28,0,0,1,0-.26,1.11,1.11,0,0,1,.6-.4l21.95-8.35c.61-.23,1.35-.44,1.85,0a1.26,1.26,0,0,1,.36,1.2,3.52,3.52,0,0,1-1.62,2A35.83,35.83,0,0,1,525.84,30a24.6,24.6,0,0,1-5.34.64C520,30.64,516.37,30.48,516.09,29.72Z"/>
            <path class="cls-6" d="M489.21,19.65c2.3-4.15,7.25-14.4,9.31-17.36.55-.78,1.3-1.65,2.25-1.53a1.8,1.8,0,0,1,1,.57A3.8,3.8,0,0,1,502.54,5a10,10,0,0,1-1.89,3.38C497.32,12.74,494.09,16.93,489.21,19.65Z"/>
            <path class="cls-6" d="M538.55,128.08s-1.56,5.11,0,6.7,3,3.06,4.51,4.53,3.1,3.17,5.15,4c1,.37,4.94,1.19,4.6-.84-.21-1.29-4.53-5.5-5.72-6.73C544.56,133.08,538.55,128.08,538.55,128.08Z"/>
          </g>
        </g>
        <g>
          <ellipse class="cls-3" cx="994.08" cy="526.25" rx="90.96" ry="15.01"/>
          <path class="cls-6" d="M1069.87,413.8s-16.35-52.51-27.44-82.56a37.25,37.25,0,0,0-4.71-8.88c-7.9-10.89-18.06-15.65-31.2-16C994,306,985,315.24,972.14,314.59c-12.85.65-21.82-8.64-34.39-8.27-13.14.39-23.29,5.15-31.2,16a36.86,36.86,0,0,0-4.7,8.88c-11.1,30.05-27.44,82.53-27.44,82.56-5.43,17.42-7.79,35.51-4,53.61,4.54,21.91,19,40.92,37.84,52.73,27.57,17.31,100.28,17.31,127.85,0,18.8-11.81,33.31-30.82,37.85-52.73C1077.65,449.31,1075.29,431.22,1069.87,413.8Z"/>
          <path class="cls-3" d="M917.92,476.3a74.92,74.92,0,1,1,104,.1Z"/>
          <path class="cls-5" d="M1025.67,376.2c-15.2-12.42-30.84-16.21-54.61-16.21-24.09,0-42.32,4-57.55,16.73a1.27,1.27,0,0,0,1.72.39,6.63,6.63,0,0,0,1.75-1.38,18.14,18.14,0,0,1,11.2-4.56,38,38,0,0,1,12.2,1.46,40.74,40.74,0,0,0,8.56,1.72c7.94.29,15.89-5.13,23.42-2.58,4.79,1.63,8.71,6.34,13.74,5.86,2.65-.25,4.9-1.93,7.19-3.28A32.07,32.07,0,0,1,1011.7,370a13.24,13.24,0,0,1,5.69,1.48C1020.53,373.35,1022,376.15,1025.67,376.2Z"/>
        </g>
        <g>
          <g>
            <path class="cls-3" d="M586.94,158.76l2.52,5.22-30.24,50c-.72,1.07-1.3,2-1.74,2.82a15.3,15.3,0,0,0-1.2,3l-1,3.54a5.7,5.7,0,0,1-1.71,2.52,5.21,5.21,0,0,1-3.33.9h-8.16a4,4,0,0,1-3-1,2.84,2.84,0,0,1-.27-2.88l1.26-4.44a11.58,11.58,0,0,0,.57-2.43,23.25,23.25,0,0,0,.15-2.79v-5.86q0-4.09,0-9.68t-.06-11.86q0-6.26-.06-12.44t-.09-11.52q-.06-5.34-.12-8.94a9.14,9.14,0,0,0-.54-3.1,2.61,2.61,0,0,0-2-1.52l-1.92-.6a4.79,4.79,0,0,1-2-1.05,2.11,2.11,0,0,1-.63-1.54,2.07,2.07,0,0,1,.87-1.77,4.28,4.28,0,0,1,2.49-.62H562.4a3.71,3.71,0,0,1,2.34.56,2.1,2.1,0,0,1,.66,1.66,2.25,2.25,0,0,1-.69,1.65,4.91,4.91,0,0,1-2.07,1.11l-3.66.77a4.24,4.24,0,0,0-2.79,1.66,7.73,7.73,0,0,0-.93,3.81q-.06,2.5-.09,6.75t-.09,9.59q-.06,5.38-.06,11.35t0,12.06q0,6.09,0,11.78T554.9,216l-4,.71Zm36.48-13.44a2.19,2.19,0,0,1,.9-1.83,4.06,4.06,0,0,1,2.52-.69h20.82a3.5,3.5,0,0,1,2.34.6,2.08,2.08,0,0,1,.66,1.62c0,1.12-1,2-2.88,2.76l-1.86.72a9.64,9.64,0,0,0-3.12,2.09,29.13,29.13,0,0,0-3.18,3.73q-1.62,2.22-3.36,5.1L604.76,214a20.08,20.08,0,0,0-1.41,2.58,24.11,24.11,0,0,0-1.11,3.11l-.9,3.61a4.82,4.82,0,0,1-1.65,2.64,4.44,4.44,0,0,1-2.79.9h-9a3,3,0,0,1-2.61-1.17,3.44,3.44,0,0,1-.21-3.09l1.08-3.78a13.18,13.18,0,0,0,.6-2.38,12,12,0,0,0,.12-2.42l-.18-6.81q-.12-4.53-.24-10.41t-.33-12.3q-.21-6.42-.39-12.48t-.39-11q-.21-4.92-.45-7.74a12,12,0,0,0-.75-3.48,2.73,2.73,0,0,0-2-1.5l-2.22-.72a3.47,3.47,0,0,1-1.38-.87,1.83,1.83,0,0,1-.54-1.29,2.21,2.21,0,0,1,.93-1.92,4.46,4.46,0,0,1,2.61-.66H606a3.58,3.58,0,0,1,2.16.54,2,2,0,0,1,.72,1.68,2.14,2.14,0,0,1-.72,1.67,5.41,5.41,0,0,1-1.86,1.09l-4,.89a3.81,3.81,0,0,0-2.67,1.84,9.49,9.49,0,0,0-.63,4.29q0,2.16.15,6.62c.1,3,.2,6.42.3,10.33s.21,8,.33,12.3.24,8.5.36,12.6.24,7.83.36,11.19.22,6.06.3,8.1l-3.9.17,33.48-57.65a9.92,9.92,0,0,0,1.65-6.25q-.39-2.69-3.57-3.83l-3.12-.84C624.08,147.05,623.42,146.32,623.42,145.32Z"/>
            <path class="cls-3" d="M641.07,211.13q-2.46,4.16-1.93,6.75a4.27,4.27,0,0,0,3.25,3.4l2.94.66a3,3,0,0,1,1.47,1,2.14,2.14,0,0,1,.45,1.31,2.26,2.26,0,0,1-.9,1.9,4.06,4.06,0,0,1-2.52.69H625.17a4.23,4.23,0,0,1-2.53-.63,2.06,2.06,0,0,1-.84-1.71,2.67,2.67,0,0,1,.75-1.87,9.09,9.09,0,0,1,2.67-1.61,12,12,0,0,0,4.66-3.48,40.86,40.86,0,0,0,4.88-7l30.31-49.2q6.84-10.2,13.89-15a25.4,25.4,0,0,1,14.37-4.76,6.74,6.74,0,0,1,3.6.72,2.23,2.23,0,0,1,.6,3.29,4,4,0,0,1-1.56,1.08,6.6,6.6,0,0,0-3.81,2.52,9.67,9.67,0,0,0-1.48,5.59c0,1.36-.08,3.32-.14,5.87s-.12,5.51-.19,8.83-.13,6.83-.21,10.52-.16,7.38-.23,11-.15,7.1-.21,10.35-.1,6.07-.12,8.48,0,4.22,0,5.37a9,9,0,0,0,.45,3.09,4.46,4.46,0,0,0,1.55,2.08,13.29,13.29,0,0,0,3.16,1.62,2.49,2.49,0,0,1,1.74,2.28,2.25,2.25,0,0,1-.87,1.79,3.93,3.93,0,0,1-2.55.73H667.35a2.78,2.78,0,0,1-2.05-.67,2.16,2.16,0,0,1-.66-1.61,2.13,2.13,0,0,1,.66-1.6,5.3,5.3,0,0,1,1.87-1l4-.9a4.2,4.2,0,0,0,2.67-1.93,7.46,7.46,0,0,0,.94-3.71c0-1.4.09-3.37.14-5.92s.14-5.46.25-8.75.2-6.8.29-10.5.21-7.42.31-11.16.18-7.31.27-10.71.15-6.47.21-9.21.09-4.93.09-6.57l3.06,1a14.32,14.32,0,0,0-2.44,1.73,31.09,31.09,0,0,0-3.21,3.34c-1.19,1.42-2.6,3.27-4.19,5.54Zm3.78-11.63,1.37-4.45h33.67l-.42,4.45Z"/>
            <path class="cls-3" d="M728.84,217.5a3.31,3.31,0,0,0,.21,2.36,2.83,2.83,0,0,0,1.89,1.23l3.36.73a5.28,5.28,0,0,1,1.68,1,2.23,2.23,0,0,1-.33,3.33,4.26,4.26,0,0,1-2.55.67H706.52a3.48,3.48,0,0,1-2.43-.63,2.16,2.16,0,0,1-.63-1.6,2.3,2.3,0,0,1,.72-1.71,4.25,4.25,0,0,1,1.86-1l3.72-.67a4.85,4.85,0,0,0,2.64-1.37A7.52,7.52,0,0,0,714,217q.66-2.28,1.74-6.31t2.52-9.21q1.44-5.17,3-10.94c1-3.85,2-7.69,3.06-11.56s2-7.52,2.88-11,1.69-6.6,2.37-9.37,1.18-4.93,1.5-6.53a3.68,3.68,0,0,0-.09-2.47,2.75,2.75,0,0,0-1.89-1.19l-3.48-.79a4.07,4.07,0,0,1-1.8-.9,1.91,1.91,0,0,1-.54-1.43,2,2,0,0,1,1.08-1.8,5.62,5.62,0,0,1,2.94-.66h26.64a3.22,3.22,0,0,1,2.13.56,2,2,0,0,1,.63,1.54,2,2,0,0,1-.75,1.65,7.46,7.46,0,0,1-2.19,1l-3.84,1a5.23,5.23,0,0,0-2.37,1.12,5.06,5.06,0,0,0-1.41,2.48q-.72,2.59-1.95,6.94T741.38,169q-1.5,5.52-3.12,11.55t-3.18,11.87c-1,3.91-2,7.56-2.85,11s-1.59,6.38-2.19,8.85S729,216.46,728.84,217.5Zm1.44-15.31-1.5-4.62,45.12-46.73a52.71,52.71,0,0,1,6.09-5.61,20,20,0,0,1,5.43-3.06,16.49,16.49,0,0,1,5.52-.93,8,8,0,0,1,5.91,2.06,6.41,6.41,0,0,1,1.83,5.25,6.8,6.8,0,0,1-2.58,5.1,9,9,0,0,1-5.64,1.75,11.09,11.09,0,0,1-4.23-.75,10.34,10.34,0,0,0-8.91.56,21.35,21.35,0,0,0-5.34,4.33Zm15.12-19L756.86,173,771.56,212a18.29,18.29,0,0,0,2.34,4.82,3.72,3.72,0,0,0,3.12,1.6,3.45,3.45,0,0,0,2-.6,8,8,0,0,0,1.77-1.8,2.62,2.62,0,0,1,2.52-.79,1.83,1.83,0,0,1,1.14,1.09,2.84,2.84,0,0,1-.24,2.22,16,16,0,0,1-3.45,5.19,15.52,15.52,0,0,1-11.13,4.59,9.64,9.64,0,0,1-6.75-2.23q-2.43-2.2-4.23-7.19Z"/>
            <path class="cls-3" d="M835,226.8h-42.3a3,3,0,0,1-2.25-.67,2.22,2.22,0,0,1-.63-1.61,2.29,2.29,0,0,1,.69-1.66,4,4,0,0,1,1.77-1l4-.79a4.69,4.69,0,0,0,2.52-1.31,8.09,8.09,0,0,0,1.56-2.94c.28-1.21.76-3.05,1.44-5.55s1.47-5.44,2.37-8.83,1.88-7,2.94-10.85,2.11-7.73,3.15-11.61,2-7.6,3-11.14,1.79-6.69,2.49-9.48,1.23-4.94,1.59-6.5a5.91,5.91,0,0,0,.12-3.09,2,2,0,0,0-1.56-1.35l-3.72-.85a3.54,3.54,0,0,1-1.5-.75,1.79,1.79,0,0,1-.6-1.46,2.3,2.3,0,0,1,.87-1.86,3.81,3.81,0,0,1,2.49-.72h41.76a10.82,10.82,0,0,0,5.13-1.05,7.75,7.75,0,0,1,3.63-1.06c1.8,0,2.88,1,3.24,3l2,17a3.17,3.17,0,0,1-.3,2.44,2.31,2.31,0,0,1-1.8,1,3.32,3.32,0,0,1-2.34-.56,5.89,5.89,0,0,1-1.74-2.61,38.31,38.31,0,0,0-3.48-8.56,10.55,10.55,0,0,0-4-4.1,11.43,11.43,0,0,0-5.28-1.15H834.2c-.56,2-1.27,4.66-2.13,7.83s-1.82,6.73-2.88,10.63-2.16,8-3.3,12.18-2.25,8.38-3.33,12.48-2.09,7.94-3,11.55-1.73,6.73-2.37,9.39-1.1,4.63-1.38,5.9a6.39,6.39,0,0,0,0,3,2.78,2.78,0,0,0,1.56,1.8,8.39,8.39,0,0,0,3.57.6h12.54a18.19,18.19,0,0,0,7.62-1.54,17.28,17.28,0,0,0,6.21-5,45.68,45.68,0,0,0,5.61-9.38q1.32-2.52,3.18-2.52,2.34,0,2.28,3a32.26,32.26,0,0,1-1.41,8.46,24.19,24.19,0,0,1-3.33,6.84,16.13,16.13,0,0,1-4.83,4.56,11.27,11.27,0,0,1-5.85,1.62,8.51,8.51,0,0,1-3.69-.81A9.69,9.69,0,0,0,835,226.8Zm-16.8-44.88h20.7a6.78,6.78,0,0,0,4.74-1.71q1.86-1.71,2.4-6.45a2.84,2.84,0,0,1,1-1.38,2.35,2.35,0,0,1,1.38-.42,2.57,2.57,0,0,1,1.89.63,3,3,0,0,1,.81,1.71l2.7,18.12a2.85,2.85,0,0,1-.42,2.48,2.64,2.64,0,0,1-1.92.88,2.49,2.49,0,0,1-1.71-.46,3.89,3.89,0,0,1-1.17-1.46q-1.5-4.32-3.57-5.94a9.52,9.52,0,0,0-6-1.62h-22.2Z"/>
          </g>
          <g>
            <path class="cls-3" d="M633.72,265.81a1,1,0,0,1,.55.8,2.74,2.74,0,0,1-.52,1.69,18.89,18.89,0,0,1-4.2,5.82,17.88,17.88,0,0,1-5.91,3.66,20.35,20.35,0,0,1-7.26,1.26,15.28,15.28,0,0,1-8.54-2.34,12.88,12.88,0,0,1-5.14-6.86,22.61,22.61,0,0,1-.48-11,31,31,0,0,1,3-9.05,29,29,0,0,1,5.37-7.4,24.21,24.21,0,0,1,7.18-5,20.12,20.12,0,0,1,8.39-1.8,11.25,11.25,0,0,1,3.19.39,10.32,10.32,0,0,1,2.19.91c.59.35,1.08.67,1.46.94a1.76,1.76,0,0,0,.93.4,1.26,1.26,0,0,0,.85-.4c.29-.27.59-.58.89-.9a10.73,10.73,0,0,1,.9-.89,1.38,1.38,0,0,1,.9-.39,1.34,1.34,0,0,1,1,.36,1.45,1.45,0,0,1,.41,1l.21,10.5a1.16,1.16,0,0,1-.39,1,1.76,1.76,0,0,1-1,.37,1.6,1.6,0,0,1-1.53-1.26l-.72-2.31a10.37,10.37,0,0,0-3.14-5.39,8.19,8.19,0,0,0-5.23-1.63,11.06,11.06,0,0,0-5.57,1.5,16.74,16.74,0,0,0-4.75,4.18,26.23,26.23,0,0,0-3.62,6.29,36.68,36.68,0,0,0-2.2,7.77,26.1,26.1,0,0,0-.17,9.81,9.37,9.37,0,0,0,3.12,5.55,8.59,8.59,0,0,0,5.45,1.77,12.23,12.23,0,0,0,4.47-.84,12.63,12.63,0,0,0,4.09-2.67,20.36,20.36,0,0,0,3.59-4.71,4.7,4.7,0,0,1,1.21-1.05A1.19,1.19,0,0,1,633.72,265.81Z"/>
            <path class="cls-3" d="M640.86,256.81a.67.67,0,0,1-.36-.66,2.83,2.83,0,0,1,.36-1.2,9.22,9.22,0,0,1,2-2.51,9.44,9.44,0,0,1,2.82-1.64,9.17,9.17,0,0,1,3.29-.59,3.7,3.7,0,0,1,2.53.78,2.88,2.88,0,0,1,.89,2.28,9.53,9.53,0,0,1-.5,2.78c-.33,1-.72,2.14-1.17,3.29s-.86,2.27-1.23,3.36a14.51,14.51,0,0,0-.7,3l-.48-.09a32.52,32.52,0,0,1,2.47-6.48,23.89,23.89,0,0,1,3.24-4.83,14.28,14.28,0,0,1,3.62-3,7.48,7.48,0,0,1,3.66-1,4.4,4.4,0,0,1,3.49,1.36,5,5,0,0,1,1.13,3.56,6.78,6.78,0,0,1-.71,2.94,5,5,0,0,1-1.65,1.89,3.87,3.87,0,0,1-2.17.66,2.58,2.58,0,0,1-1.89-.6,1.9,1.9,0,0,1-.6-1.38,4.05,4.05,0,0,1,.21-1.29,4.05,4.05,0,0,0,.21-1.29,1.8,1.8,0,0,0-.33-1.14,1.25,1.25,0,0,0-1-.42,4.3,4.3,0,0,0-2.73,1.44,18,18,0,0,0-3.12,4.3,40,40,0,0,0-3,7.22q-.69,2.1-1,3.36a9,9,0,0,0-.33,2.25,1.9,1.9,0,0,0,.33,1.2c.22.28.44.55.66.8a1.6,1.6,0,0,1,.33,1.09,1.89,1.89,0,0,1-.75,1.41,5.45,5.45,0,0,1-2.19,1,14.79,14.79,0,0,1-3.54.37,3.3,3.3,0,0,1-2.22-.64,2.43,2.43,0,0,1-.69-2,11.35,11.35,0,0,1,.69-3.25l4.68-14.07a6.85,6.85,0,0,0,.58-3.27c-.15-.62-.48-.93-1-.93a2.21,2.21,0,0,0-1,.3,6.47,6.47,0,0,0-1.36,1.11,2.21,2.21,0,0,1-.81.55A.86.86,0,0,1,640.86,256.81Z"/>
            <path class="cls-3" d="M670.26,265.87l4-1.41,3.81-1.38,4-1.44,3.32-1.2-.75,1a13.12,13.12,0,0,0,.39-1.86,21,21,0,0,0,.18-2.49,5.77,5.77,0,0,0-.8-3.18,2.41,2.41,0,0,0-2.11-1.23,4.61,4.61,0,0,0-2.7,1,11,11,0,0,0-2.58,2.79,18.36,18.36,0,0,0-2,4.19,21.6,21.6,0,0,0-1.08,5.27q-.33,4.41,1.29,6.65a5.45,5.45,0,0,0,4.71,2.23,9.21,9.21,0,0,0,3.45-.67,9.78,9.78,0,0,0,3-2,10.28,10.28,0,0,0,2.19-3.14,3.62,3.62,0,0,1,.84-.93,1.22,1.22,0,0,1,.78-.21.91.91,0,0,1,.79.43,2,2,0,0,1,.08,1.43,10.9,10.9,0,0,1-2.37,4.53,12.9,12.9,0,0,1-4.79,3.43,17.43,17.43,0,0,1-7.09,1.31,12,12,0,0,1-6-1.35,7.74,7.74,0,0,1-3.39-3.84,13,13,0,0,1-.76-6A20.07,20.07,0,0,1,672,255.42a18,18,0,0,1,5.31-3.85,14.71,14.71,0,0,1,6.27-1.39,8.19,8.19,0,0,1,4.15,1,6.67,6.67,0,0,1,2.55,2.56,8.76,8.76,0,0,1,1,3.59,1.58,1.58,0,0,0,.25.81.71.71,0,0,0,.62.33,1.07,1.07,0,0,1,.63.22.75.75,0,0,1,.21.56,1.23,1.23,0,0,1-.41.88,4.16,4.16,0,0,1-1.51.8L688,261.94l-4.29,1.46c-1.55.52-3.1,1.06-4.65,1.6l-4.27,1.47-4.29,1.47Z"/>
            <path class="cls-3" d="M720.06,270.16a8.51,8.51,0,0,0-.42,3.36q.21.9.9.9a2,2,0,0,0,1-.31,8,8,0,0,0,1.31-1.07,2.94,2.94,0,0,1,.84-.57.77.77,0,0,1,.63,0,.67.67,0,0,1,.36.66,2.85,2.85,0,0,1-.39,1.23,8.75,8.75,0,0,1-3.26,3.33,8.5,8.5,0,0,1-4.42,1.26,3.2,3.2,0,0,1-3.66-3.6,12.35,12.35,0,0,1,.1-1.53c.07-.56.2-1.23.38-2s.42-1.73.73-2.85.71-2.44,1.19-4l.6,1.14a26.21,26.21,0,0,1-3.72,6.94,16.36,16.36,0,0,1-4.86,4.41,10.89,10.89,0,0,1-5.49,1.52,6.2,6.2,0,0,1-5.09-2.2c-1.19-1.48-1.62-3.77-1.3-6.89a20.06,20.06,0,0,1,1.51-5.84,22.9,22.9,0,0,1,3.23-5.36,23.52,23.52,0,0,1,4.66-4.41,22.26,22.26,0,0,1,5.82-3,20.46,20.46,0,0,1,6.65-1.08,22.91,22.91,0,0,1,4.63.39,7.3,7.3,0,0,1,2.75,1.05,1.6,1.6,0,0,1,.81,1.47,1.55,1.55,0,0,1-.45,1c-.26.24-.54.48-.83.72a2,2,0,0,0-.61,1.05Zm-17.25-.42a7.29,7.29,0,0,0,.42,4.18,2.26,2.26,0,0,0,2.07,1.22,4.63,4.63,0,0,0,2.65-1,14.18,14.18,0,0,0,2.82-2.79,26.9,26.9,0,0,0,2.69-4.2,35.88,35.88,0,0,0,2.22-5.24,37.77,37.77,0,0,0,1.47-5.86,4,4,0,0,0-.11-2.45,1.51,1.51,0,0,0-1.45-.76,7.24,7.24,0,0,0-3.48,1,12.65,12.65,0,0,0-3.3,2.64,22.7,22.7,0,0,0-2.84,3.85,24.91,24.91,0,0,0-2.1,4.57A21.64,21.64,0,0,0,702.81,269.74Z"/>
            <path class="cls-3" d="M734.61,254.26l-2.16-.48a1.69,1.69,0,0,1-.77-.5,1.12,1.12,0,0,1-.25-.73,1,1,0,0,1,.48-.9,2.24,2.24,0,0,1,1.29-.33h2.49A2.8,2.8,0,0,0,737,251a4.67,4.67,0,0,0,1.11-.89l3.69-4.47a2.24,2.24,0,0,1,.87-.69,2.56,2.56,0,0,1,1-.18,1.22,1.22,0,0,1,.9.3,1.14,1.14,0,0,1,.3.84,5.34,5.34,0,0,1-.11.92c-.07.37-.17.8-.31,1.3L738,269.53q-.87,2.85-.42,3.84a2,2,0,0,0,2,1,5.15,5.15,0,0,0,2.41-.6,8.53,8.53,0,0,0,2.39-2,3,3,0,0,1,.66-.57,1.1,1.1,0,0,1,.54-.15.76.76,0,0,1,.6.25.88.88,0,0,1,.12.74,5.1,5.1,0,0,1-1.07,2.3,10.53,10.53,0,0,1-2.41,2.26,13.55,13.55,0,0,1-3.47,1.72,12.69,12.69,0,0,1-4.24.68,5.66,5.66,0,0,1-3.56-1,3.7,3.7,0,0,1-1.33-2.83,14,14,0,0,1,.72-4.7l4.11-13.32a5.54,5.54,0,0,0,.34-2.13A1,1,0,0,0,734.61,254.26Zm6-.12.9-2.73h7.8q1.08,0,1.08,1a1.5,1.5,0,0,1-.69,1.29,3.26,3.26,0,0,1-1.89.48Z"/>
            <path class="cls-3" d="M760.35,270.19a6.64,6.64,0,0,0-.62,3.24c.15.62.49.93,1,.93a2,2,0,0,0,1-.31,7.84,7.84,0,0,0,1.35-1.1,2.35,2.35,0,0,1,.81-.55.81.81,0,0,1,.63,0,.67.67,0,0,1,.36.66,2.67,2.67,0,0,1-.39,1.2,8.56,8.56,0,0,1-3.3,3.4,9.38,9.38,0,0,1-4.86,1.28,4.46,4.46,0,0,1-3-.89,3.32,3.32,0,0,1-1.05-2.54,11,11,0,0,1,.83-4l4.56-12.48a6.62,6.62,0,0,0,.64-3.27c-.15-.62-.48-.93-1-.93a2.21,2.21,0,0,0-1,.3,6.47,6.47,0,0,0-1.36,1.11,2.21,2.21,0,0,1-.81.55.86.86,0,0,1-.63,0,.67.67,0,0,1-.36-.66,2.83,2.83,0,0,1,.36-1.2,8.92,8.92,0,0,1,3.31-3.45,9.12,9.12,0,0,1,4.79-1.29,4.23,4.23,0,0,1,2.86.87,3.58,3.58,0,0,1,1.13,2.58,10.77,10.77,0,0,1-.78,4.23Zm3.33-25.14a4.33,4.33,0,0,1-3.17-1.08,3.11,3.11,0,0,1-.94-2.64,4.64,4.64,0,0,1,.87-2.37,5.74,5.74,0,0,1,2.11-1.8,6.56,6.56,0,0,1,3.05-.69,4.14,4.14,0,0,1,3.19,1.1,3.28,3.28,0,0,1,.86,2.65,4.43,4.43,0,0,1-.86,2.45,5.46,5.46,0,0,1-2.11,1.73A6.61,6.61,0,0,1,763.68,245.05Z"/>
            <path class="cls-3" d="M774.49,272.5c.07-1,.16-2.18.26-3.42s.2-2.51.3-3.81.18-2.55.25-3.76.11-2.3.11-3.26a4.58,4.58,0,0,0-.35-2,1.1,1.1,0,0,0-1-.66,1.49,1.49,0,0,0-1,.42,3.54,3.54,0,0,0-.82,1.29,2.88,2.88,0,0,1-.62.93,1,1,0,0,1-.64.24.85.85,0,0,1-.71-.33,1.23,1.23,0,0,1-.1-1,7.75,7.75,0,0,1,1.48-3.2,9.33,9.33,0,0,1,2.93-2.48,8,8,0,0,1,3.93-1,3.31,3.31,0,0,1,3.13,1.47,9.29,9.29,0,0,1,.86,4.53q0,1.47-.06,3.3c-.06,1.22-.14,2.46-.23,3.72s-.17,2.47-.25,3.63-.15,2.21-.21,3.13-.09,1.66-.09,2.18a4.5,4.5,0,0,0,.34,1.94,1,1,0,0,0,.95.55,3.34,3.34,0,0,0,1.93-1,15.67,15.67,0,0,0,2.39-2.58,28.54,28.54,0,0,0,2.32-3.62,25.15,25.15,0,0,0,1.8-4.1,13.53,13.53,0,0,0,.74-4,3,3,0,0,0-.2-1.5,4.2,4.2,0,0,0-1-1.17,4.72,4.72,0,0,1-1.08-1.39,3.5,3.5,0,0,1-.3-1.76,3.65,3.65,0,0,1,1.17-2.52,3.86,3.86,0,0,1,2.76-1,3.41,3.41,0,0,1,2.79,1.2,5.25,5.25,0,0,1,.87,3.66,22.86,22.86,0,0,1-1.31,6.75,31.71,31.71,0,0,1-3.13,6.48,30.78,30.78,0,0,1-4.38,5.5,20.82,20.82,0,0,1-5.09,3.81A11,11,0,0,1,778,279a3.6,3.6,0,0,1-2.7-.94,4.37,4.37,0,0,1-.93-3C774.39,274.39,774.42,273.54,774.49,272.5Z"/>
            <path class="cls-3" d="M803,265.87l4-1.41,3.81-1.38,4-1.44,3.32-1.2-.75,1a13.12,13.12,0,0,0,.39-1.86,21,21,0,0,0,.18-2.49,5.77,5.77,0,0,0-.8-3.18,2.41,2.41,0,0,0-2.11-1.23,4.61,4.61,0,0,0-2.7,1,11,11,0,0,0-2.58,2.79,18.36,18.36,0,0,0-2,4.19,21.6,21.6,0,0,0-1.08,5.27q-.33,4.41,1.29,6.65a5.45,5.45,0,0,0,4.71,2.23,9.21,9.21,0,0,0,3.45-.67,9.78,9.78,0,0,0,3-2,10.28,10.28,0,0,0,2.19-3.14,3.62,3.62,0,0,1,.84-.93,1.22,1.22,0,0,1,.78-.21.91.91,0,0,1,.79.43,2,2,0,0,1,.08,1.43,10.9,10.9,0,0,1-2.37,4.53,12.9,12.9,0,0,1-4.79,3.43,17.43,17.43,0,0,1-7.09,1.31,12,12,0,0,1-6-1.35,7.74,7.74,0,0,1-3.39-3.84,13,13,0,0,1-.76-6,20.07,20.07,0,0,1,5.49-12.37,18,18,0,0,1,5.31-3.85,14.71,14.71,0,0,1,6.27-1.39,8.19,8.19,0,0,1,4.15,1,6.67,6.67,0,0,1,2.55,2.56,8.76,8.76,0,0,1,1,3.59,1.58,1.58,0,0,0,.25.81.71.71,0,0,0,.62.33,1.07,1.07,0,0,1,.63.22.75.75,0,0,1,.21.56,1.23,1.23,0,0,1-.41.88,4.16,4.16,0,0,1-1.51.8l-3.14,1.05-4.29,1.46c-1.55.52-3.1,1.06-4.65,1.6l-4.27,1.47-4.29,1.47Z"/>
            <path class="cls-3" d="M851.94,273.55a2.27,2.27,0,0,0,0,1.37,1.25,1.25,0,0,0,.95.64l1.74.36a1.91,1.91,0,0,1,.85.45,1,1,0,0,1,.26.69,1.05,1.05,0,0,1-.48.91,2.1,2.1,0,0,1-1.29.35H840.48a1.75,1.75,0,0,1-1.19-.31,1.09,1.09,0,0,1-.31-.8,1,1,0,0,1,.33-.85,2.09,2.09,0,0,1,1-.5l1.83-.33a2.66,2.66,0,0,0,1.33-.66,3.39,3.39,0,0,0,.8-1.47c.2-.76.48-1.81.85-3.15l1.26-4.59c.47-1.72,1-3.53,1.47-5.45l1.53-5.72q.76-2.87,1.46-5.48c.46-1.74.85-3.3,1.18-4.68s.58-2.47.74-3.27a2.17,2.17,0,0,0,0-1.28,1.25,1.25,0,0,0-.94-.64l-1.77-.42a2.07,2.07,0,0,1-.87-.45.93.93,0,0,1-.27-.69,1,1,0,0,1,.51-.93,2.71,2.71,0,0,1,1.47-.33h13.38a1.8,1.8,0,0,1,1.2.29,1,1,0,0,1,.3.76,1.12,1.12,0,0,1-.36.87,2.45,2.45,0,0,1-1.05.51l-1.92.45a2.53,2.53,0,0,0-1.22.57,3.21,3.21,0,0,0-.7,1.32c-.24.84-.56,2-1,3.44l-1.35,4.9q-.75,2.73-1.55,5.73L855,261.07c-.51,1.94-1,3.76-1.41,5.44s-.79,3.16-1.09,4.39S852,273,851.94,273.55Zm1-16.29h23.37l-.75,2.46H852.18Zm23.58,16.29a2.16,2.16,0,0,0,0,1.37,1.27,1.27,0,0,0,1,.64l1.71.36a2.06,2.06,0,0,1,.84.45.93.93,0,0,1,.27.69,1,1,0,0,1-.5.91,2.15,2.15,0,0,1-1.3.35H865a1.81,1.81,0,0,1-1.22-.31,1.09,1.09,0,0,1-.31-.8,1,1,0,0,1,.34-.85,2.22,2.22,0,0,1,.95-.5l1.86-.33a2.47,2.47,0,0,0,1.3-.66,3.86,3.86,0,0,0,.8-1.47c.2-.76.48-1.81.85-3.15s.79-2.87,1.25-4.59.95-3.53,1.47-5.45,1-3.81,1.54-5.72,1-3.74,1.44-5.48.85-3.3,1.19-4.68.59-2.47.75-3.27a2.17,2.17,0,0,0,0-1.28,1.28,1.28,0,0,0-1-.64l-1.74-.42a2,2,0,0,1-.89-.45,1,1,0,0,1-.25-.69,1,1,0,0,1,.51-.93,2.71,2.71,0,0,1,1.47-.33h13.41a1.74,1.74,0,0,1,1.17.29,1,1,0,0,1,.3.76,1.12,1.12,0,0,1-.36.87,2.44,2.44,0,0,1-1,.51l-2,.45a2.61,2.61,0,0,0-1.23.57,2.89,2.89,0,0,0-.69,1.32c-.24.84-.57,2-1,3.44s-.86,3.08-1.35,4.9-1,3.73-1.53,5.73l-1.56,5.91c-.51,1.94-1,3.76-1.42,5.44s-.8,3.16-1.08,4.39S876.58,273,876.48,273.55Z"/>
            <path class="cls-3" d="M917.82,272.38a.68.68,0,0,1,.36.67,2.68,2.68,0,0,1-.36,1.19,9,9,0,0,1-3.41,3.45,9.52,9.52,0,0,1-4.9,1.29,4.45,4.45,0,0,1-2.75-.77,2.66,2.66,0,0,1-1-2.26,6.94,6.94,0,0,1,.37-2.1c.25-.78.59-1.68,1-2.72s.91-2.21,1.47-3.55,1.13-2.87,1.71-4.59l.24,1a31.47,31.47,0,0,1-3.81,7.11,22.39,22.39,0,0,1-4.4,4.6,16.12,16.12,0,0,1-4.44,2.49,12.14,12.14,0,0,1-4,.77,5,5,0,0,1-3.59-1.08,4,4,0,0,1-1-3.08,16.3,16.3,0,0,1,1-4.69L894.15,259a6.7,6.7,0,0,0,.61-3.26c-.15-.61-.48-.91-1-.91a2.21,2.21,0,0,0-1,.3,6.27,6.27,0,0,0-1.33,1.08,3.06,3.06,0,0,1-.83.57.8.8,0,0,1-.64,0,.68.68,0,0,1-.33-.66,3,3,0,0,1,.36-1.23,8.92,8.92,0,0,1,3.31-3.37,9.23,9.23,0,0,1,4.85-1.28,4.49,4.49,0,0,1,3,.87,3.35,3.35,0,0,1,1.05,2.52,11.3,11.3,0,0,1-.75,4l-4,11.4a8.08,8.08,0,0,0-.69,4c.2.78.81,1.16,1.83,1.16a5.68,5.68,0,0,0,2.61-.77,12.85,12.85,0,0,0,3-2.27,20.66,20.66,0,0,0,3-3.81,28.76,28.76,0,0,0,2.54-5.39q.66-1.77,1-2.91t.51-1.86a6.09,6.09,0,0,0,.15-1.2,3.31,3.31,0,0,0-.26-1.37,3.21,3.21,0,0,1-.25-1.36,2.47,2.47,0,0,1,1.56-2.18,9.32,9.32,0,0,1,4.26-.82q2.07,0,2.49,1.44t-.63,4.41l-5,14.07a7.07,7.07,0,0,0-.6,3.27q.21.93,1,.93a2.11,2.11,0,0,0,1-.32,7.35,7.35,0,0,0,1.37-1.09,2.63,2.63,0,0,1,.81-.57A.77.77,0,0,1,917.82,272.38Z"/>
            <path class="cls-3" d="M931.86,243.94a7.94,7.94,0,0,0,.46-3.24c-.13-.6-.45-.9-1-.9a2.11,2.11,0,0,0-1,.3,7.12,7.12,0,0,0-1.35,1.08,2.81,2.81,0,0,1-.81.54.77.77,0,0,1-.63,0,.67.67,0,0,1-.36-.66,2.83,2.83,0,0,1,.36-1.2,8.83,8.83,0,0,1,2-2.46,9.26,9.26,0,0,1,2.79-1.63,9.11,9.11,0,0,1,3.3-.59q2.91,0,3.66,1.92t-.3,5.49l-5.79,19.83-1.2.06a22.27,22.27,0,0,1,2.52-5.05,18.13,18.13,0,0,1,3.43-3.86,15.39,15.39,0,0,1,4-2.45,11.61,11.61,0,0,1,4.31-.85,7.24,7.24,0,0,1,3.88,1,6.4,6.4,0,0,1,2.46,2.86,10.67,10.67,0,0,1,.83,4.55,21,21,0,0,1-1.52,7.76,22.91,22.91,0,0,1-3.94,6.5,19.35,19.35,0,0,1-5.46,4.46,12.69,12.69,0,0,1-6.09,1.62,8.25,8.25,0,0,1-5.48-1.76,5.89,5.89,0,0,1-1.93-5.17l1.38.81-3.78,4.32a5.71,5.71,0,0,1-1.37,1.06,2.59,2.59,0,0,1-1.18.32,1.3,1.3,0,0,1-1-.37,1.73,1.73,0,0,1-.38-1.19,8.07,8.07,0,0,1,.38-2.19Zm10.95,9.78a5.29,5.29,0,0,0-3,1.18,15,15,0,0,0-3,3.06,26.42,26.42,0,0,0-2.56,4.26,29.18,29.18,0,0,0-1.83,4.83,18.56,18.56,0,0,0-.72,4.73,4.55,4.55,0,0,0,1,3.35,3.46,3.46,0,0,0,2.57,1.09,5.11,5.11,0,0,0,2.89-1,13.88,13.88,0,0,0,2.9-2.78,21.47,21.47,0,0,0,2.53-4,25.71,25.71,0,0,0,1.8-4.82,20.4,20.4,0,0,0,.71-5,7.37,7.37,0,0,0-.41-2.86,3.14,3.14,0,0,0-1.2-1.54A3.19,3.19,0,0,0,942.81,253.72Z"/>
          </g>
        </g>
      </g>
    </g>
  </g>
</svg>
