<svg xmlns="http://www.w3.org/2000/svg" viewBox="0 0 525.08 238.36"><defs><style>.cls-1,.cls-3{fill:#010101;}.cls-2{fill:#f0ae3e;}.cls-3{font-size:28.65px;font-family:Helvetica;}</style></defs><g id="Capa_2" data-name="Capa 2"><g id="Layer_1" data-name="Layer 1"><path class="cls-1" d="M149.63,124.26c-10.11,1.46-12.71,2.44-19.56,16-8.8,17-21.19,42.21-42.54,85.9H79.21L67.64,152.29,31,226.13H22.82l-9-86.72C12.55,127,11.74,125.23,0,124.26l1.3-5.87H47.1l-1.46,5.87-3.59.65c-6.68,1.14-8.15,2-7.5,11.08l4.57,57.7L76,119.37h7.66L95,194.51c10.59-20.7,19.88-41.73,25.75-55.42,5-11.74,3.26-13.53-6.52-14.51l-2.77-.32,1.47-5.87h38.3Z"/><circle class="cls-2" cx="394.72" cy="135.17" r="103.19"/><text class="cls-3" transform="translate(351.4 77.32) rotate(-33.12)">t</text><text class="cls-3" transform="translate(358.53 72.27) rotate(-23.61)">h</text><text class="cls-3" transform="translate(372.29 66.25) rotate(-12.29)">e</text><text class="cls-3" transform="translate(385.73 63.56) rotate(-4.72)"> </text><text class="cls-3" transform="translate(391.2 62.86) rotate(2.28)">c</text><text class="cls-3" transform="translate(403.36 63.43) rotate(10.53)">r</text><text class="cls-3" transform="translate(411.64 64.7) rotate(19.14)">e</text><text class="cls-3" transform="translate(424.43 69.08) rotate(29.7)">a</text><text class="cls-3" transform="matrix(0.78, 0.62, -0.62, 0.78, 435.67, 75.61)">t</text><text class="cls-3" transform="translate(442.64 81.2) rotate(44.07)">i</text><text class="cls-3" transform="translate(447.24 85.29) rotate(51.86)">v</text><text class="cls-3" transform="matrix(0.47, 0.88, -0.88, 0.47, 455.17, 95.17)">e</text><text class="cls-3" transform="translate(461.36 107.41) rotate(69.83)"> </text><text class="cls-3" transform="matrix(0.21, 0.98, -0.98, 0.21, 463.61, 112.37)">h</text><text class="cls-3" transform="translate(466.8 127.01) rotate(89.79)">u</text><text class="cls-3" transform="matrix(-0.2, 0.98, -0.98, -0.2, 466.98, 141.87)">b</text><text class="cls-3" transform="matrix(-0.33, 0.94, -0.94, -0.33, 463.7, 156.47)">.</text><path class="cls-1" d="M387.94,125.56h11.25c10.92,0,12.88,4.56,13.53,19.23l6.19-.49c1.31-6.84,3.1-21.51,4.24-27.38-6.19.16-77.91,1.47-77.91,1.47l-1.63,5.87c13,1.14,14.34,2.11,11.9,15L342.8,203.63c-2.45,12.72-4.37,13.37-17.45,13.35-10.46,0-13.85-.47-19.88-10.41-9.29-14.83-18.75-30.16-26.25-43.85C289,153.92,299,145,310.52,135c10.43-8.8,14-9.61,24-10.92l1.3-7.17L296,118.39l-1.46,5.87,4.56.48c6.52.82,6.85,2.78,2.44,7.67a356.6,356.6,0,0,1-31,28.36,34.71,34.71,0,0,1-11.58,6l5.22-27.39c2.44-12.71,4.89-14.18,16.95-15.15l1.14-7.34-49.06,1.47-1.47,5.87c12.55,1.14,14.35,1.95,11.74,15l-12.39,64.22c-2.28,12.71-5.17,13.6-16.46,13.44-12.8-.18-14.67-1.54-16.79-14.42-3.42-20.21-8.15-45.31-14.67-85.57l-7.83,1.14-47.43,82C118.67,215.86,117,217,104.82,218.63l-1.47,5.7h40.1l1.3-5.7c-13.85-1.47-14.18-3.91-10.76-11.08,2.78-5.87,6.69-12.23,9.78-17.93h30.81c1,6.52,2,12.55,2.77,18.09,1,7.66.65,9.78-10.76,10.92l-1.46,5.7h98.45l1.3-5.7c-14.18-1.3-15-3.26-12.88-15.32l5.71-30.16c2.28-.81,4.56,0,7.17,4.4,8.64,14.84,18.42,32.6,26.57,46.78H407.83c2.61-5.7,8-19.88,9.94-25.91l-5.87-2.28a59.38,59.38,0,0,1-12.38,16.13c-4.08,3.59-7.66,4.89-16.95,4.89h-9.13c-9.94,0-11.25-2.77-9-14.34L370,173h13.36c13.53,0,13.69,1.31,13.37,13.86h6.19l6.68-34.4h-6.19c-4.73,11.25-5.22,13.21-18.91,13.21H371.81L378,132.73C379.31,126.54,381.75,125.56,387.94,125.56ZM147.85,181.47c6.19-11.58,13.36-24.13,19.72-36.19h.33l5.54,36.19Z"/><path class="cls-1" d="M149.63,124.26c-10.11,1.46-12.71,2.44-19.56,16-8.8,17-21.19,42.21-42.54,85.9H79.21L67.64,152.29,31,226.13H22.82l-9-86.72C12.55,127,11.74,125.23,0,124.26l1.3-5.87H47.1l-1.46,5.87-3.59.65c-6.68,1.14-8.15,2-7.5,11.08l4.57,57.7L76,119.37l7.66-2.45L95,194.51c10.59-20.7,19.88-41.73,25.75-55.42,5-11.74,3.26-13.53-6.52-14.51l-2.77-.32,1.47-5.87h38.3Z"/></g></g></svg>