<svg xmlns="http://www.w3.org/2000/svg" viewBox="0 0 568.45 656.62">
  <defs>
    <style>
      .cls-1, .cls-5 {
        fill: none;
      }

      .cls-1, .cls-3, .cls-4, .cls-5, .cls-6 {
        stroke: #31302e;
        stroke-miterlimit: 10;
      }

      .cls-1, .cls-3, .cls-6 {
        stroke-width: 1.5px;
      }

      .cls-2 {
        fill: #31302e;
      }

      .cls-3 {
        fill: #8590c8;
      }

      .cls-4 {
        fill: #f47f6b;
      }

      .cls-4, .cls-5 {
        stroke-width: 2px;
      }

      .cls-6 {
        fill: #f8eee2;
      }

      .cls-7 {
        font-size: 60px;
        font-family: FrauncesSoft-BoldItalic, Fraunces Soft;
        font-weight: 700;
        font-style: italic;
      }

      .cls-8 {
        letter-spacing: 0em;
      }

      .cls-9 {
        letter-spacing: -0.01em;
      }

      .cls-10 {
        letter-spacing: -0.01em;
      }

      .cls-11 {
        letter-spacing: 0em;
      }

      .cls-12 {
        letter-spacing: -0.01em;
      }

      .cls-13 {
        letter-spacing: 0em;
      }

      .cls-14 {
        letter-spacing: -0.01em;
      }

      .cls-15 {
        letter-spacing: -0.01em;
      }

      .cls-16 {
        letter-spacing: -0.01em;
      }
    </style>
  </defs>
  <g id="Capa_2" data-name="Capa 2">
    <g id="Layer_1" data-name="Layer 1">
      <rect class="cls-1" x="1.31" y="0.75" width="566.39" height="654.48"/>
      <polygon class="cls-2" points="394.7 554.09 489.92 554.09 429.98 364.6 388.89 554.09 394.7 554.09"/>
      <path class="cls-3" d="M392.64,581.12,420,436.63,474.1,179.24H183.68L106.57,579.13Z"/>
      <path class="cls-4" d="M277.59,226.27s8.8-19.8,22.66-16.94,8.34,31.24,8.34,31.24l-11.74,21.3-21-12.28Z"/>
      <path class="cls-4" d="M302.1,232s8.8-19.81,22.66-16.95,8.34,31.24,8.34,31.24l-11.74,21.3-21-12.28Z"/>
      <g id="Layer_2" data-name="Layer 2">
        <path class="cls-4" d="M326.32,246.59,327.7,245c3.1-3.67,6.23-7.37,10.05-10.27,3.2-2.42,7.38-4.28,11.15-2.92s5.68,5.24,6.67,9c1.86,7,1.33,14.43.71,21.67-1.52,17.82-3.5,35.64-7.34,53.11a5.79,5.79,0,0,1-.86,2.27,5.9,5.9,0,0,1-1.37,1.16,182.84,182.84,0,0,1-23.82,13.64c-2.16,1-7.06,3.31-9.18,1.12s-1.54-8.25-1.56-10.91c-.18-20.08,1.29-40.14,2.76-60.16a6.64,6.64,0,0,1,2.07-5Z"/>
      </g>
      <path class="cls-4" d="M340.37,299.86l.83-2c2.15-5.27,4.4-10.68,8.4-14.74s10.21-6.47,15.51-4.39c4.61,1.81,7.5,6.6,8.39,11.47s.12,9.87-.65,14.76Q367.44,339.1,362,373.26c-1.75,11.05-3.37,23,1.74,32.94,5,9.71,15.35,15.41,25.64,19.05s21.36,8.64,30.62,11.38L392.64,581.12c0-2.45-30.39-13.67-33.9-15.25L323.42,550,288.11,534.1l-16.95-7.62c-3.68-1.65-16.35-4.93-18.31-8.23-3.24-5.43,9.33-27.19,12-33.71l14.68-35.91,29.37-71.8Z"/>
      <path class="cls-4" d="M1,655.61l94-.51c30-16.27,64.3-35.59,102-58.05,0,0,70.31-41.92,88.49-75.21a132.13,132.13,0,0,0,13.24-38.06c.66-5.19,9-89,31.77-141.7,6.11-14.15,15.34-30.19,8.22-43.86-2.27-4.37-5.79-7.31-12.67-4.67l8.73-25.47c1.18-3.47,2.39-7.1,1.81-10.71-1.47-9.22-16.82-10.25-23-3-.18-6.9,1.37-14.88-4.17-19.57-8.82-7.47-19.31,1.39-27.86,11.44,5.06-5.41,4.9-22.59-8.16-21.3-8.05.79-16.22,7.52-21.48,13.67-19.07,22.3-33,49.23-42.29,77.08-1.06-5.66-1.41-15.28-3.42-20.53-4.45-11.61-15.66-11.93-20.56,1.65-8.15,22.6-10.35,47-12.65,70.75-.92,9.47-2.45,16.76-3.24,26.25-1.51,18.44-10.6,32.38-24.28,44.85s-31.16,19.59-47.14,28.92C63.74,487.74,33.14,503.89,1,519.93,1,565.16,1,655.61,1,655.61Z"/>
      <path class="cls-5" d="M330.49,342.08c4.4-10.17,10.39-21.32,10.78-31.86a23.65,23.65,0,0,0-2.56-12c-10.9-21-34.95,22.2-38.39,28.79-12,23-18.59,48.68-22.26,74.26"/>
      <path class="cls-5" d="M326,293.55l8.73-25.47c1.18-3.47,2.39-7.1,1.81-10.71-1.47-9.22-16.82-10.25-23-3,0,0-65.35,83.52-62.07,152"/>
      <path class="cls-5" d="M313.56,254.35c-.18-6.9,1.37-14.88-4.17-19.57-27.11-23-77.1,103.1-80.66,115.57-4.15,14.55-6.88,29.72-6.38,44.9"/>
      <path class="cls-5" d="M281.37,246.61c5.06-5.4,5.06-23-8-21.69-8.05.79-16.22,7.52-21.48,13.67-19.07,22.3-48.52,73.74-58.07,141.84"/>
      <g>
        <path class="cls-6" d="M317.7,267.6c1.88.09,3.48-1.28,4.8-2.62,2.31-2.33,7.3-7,6.44-10.72s-4.25-3.61-7-2.4C317.9,253.64,308.24,267.15,317.7,267.6Z"/>
        <path class="cls-6" d="M320.91,313.61a3.58,3.58,0,0,0,2.44,1,8.35,8.35,0,0,0,7-3.64c2.61-3.51,5.38-13.12-2.15-10.8C324.58,301.3,317.58,309.89,320.91,313.61Z"/>
        <path class="cls-6" d="M291.18,243.77c-.3,2.53.8,5.37,3.1,6.45a6.35,6.35,0,0,0,5.79-.55,15.05,15.05,0,0,0,4.27-4.22,11.23,11.23,0,0,0,1.64-2.82c1.44-4-2-9.29-6.53-8.9C295.39,234.08,291.63,240.1,291.18,243.77Z"/>
        <path class="cls-6" d="M262.83,242.93a4.89,4.89,0,0,0,5,1.92c5-.86,14.52-11.08,7.29-14.77C268.93,226.94,259.39,237.41,262.83,242.93Z"/>
        <path class="cls-6" d="M192.36,304.33a17.27,17.27,0,0,0,2.86-5.27,31.44,31.44,0,0,0,1.69-8.26,3.62,3.62,0,0,0-.72-2.93c-.88-.82-2.28-.53-3.35,0a14.42,14.42,0,0,0-6.41,7.05c-1.16,2.5-4.72,10.37-1.32,12.06a4.36,4.36,0,0,0,3.06.18A8.31,8.31,0,0,0,192.36,304.33Z"/>
      </g>
      <text class="cls-7" transform="translate(40.77 79.78)">N<tspan class="cls-8" x="44.79" y="0">u</tspan><tspan class="cls-9" x="83.01" y="0">e</tspan><tspan class="cls-10" x="114.51" y="0">s</tspan><tspan class="cls-11" x="143.58" y="0">t</tspan><tspan class="cls-9" x="168.15" y="0">r</tspan><tspan class="cls-12" x="199.26" y="0">o</tspan><tspan x="233.28" y="0">s</tspan></text>
      <text class="cls-7" transform="translate(102.78 145.43)">C<tspan class="cls-13" x="40.35" y="0">l</tspan><tspan class="cls-8" x="61.08" y="0">i</tspan><tspan class="cls-14" x="82.17" y="0">e</tspan><tspan class="cls-8" x="113.97" y="0">n</tspan><tspan class="cls-15" x="152.25" y="0">t</tspan><tspan class="cls-16" x="176.22" y="0">e</tspan><tspan x="207.72" y="0">s</tspan></text>
    </g>
  </g>
</svg>
