<svg xmlns="http://www.w3.org/2000/svg" viewBox="0 0 489.92 627.84">
  <defs>
    <style>
      .cls-1 {
        fill: #31302e;
      }

      .cls-2 {
        fill: #8590c8;
      }

      .cls-2, .cls-3, .cls-4, .cls-5 {
        stroke: #31302e;
        stroke-miterlimit: 10;
      }

      .cls-2, .cls-5 {
        stroke-width: 1.5px;
      }

      .cls-3 {
        fill: #f47f6b;
      }

      .cls-3, .cls-4 {
        stroke-width: 2px;
      }

      .cls-4 {
        fill: none;
      }

      .cls-5 {
        fill: #f8eee2;
      }

      .cls-6 {
        font-size: 60px;
        font-family: FrauncesSoft-BoldItalic, Fraunces Soft;
        font-weight: 700;
        font-style: italic;
      }

      .cls-7 {
        letter-spacing: 0em;
      }

      .cls-8 {
        letter-spacing: -0.01em;
      }

      .cls-9 {
        letter-spacing: -0.01em;
      }

      .cls-10 {
        letter-spacing: 0em;
      }

      .cls-11 {
        letter-spacing: -0.01em;
      }

      .cls-12 {
        letter-spacing: 0em;
      }

      .cls-13 {
        letter-spacing: -0.01em;
      }

      .cls-14 {
        letter-spacing: -0.01em;
      }

      .cls-15 {
        letter-spacing: -0.01em;
      }
    </style>
  </defs>
  <g id="Capa_2" data-name="Capa 2">
    <g id="Layer_1" data-name="Layer 1">
      <polygon class="cls-1" points="394.7 525.31 489.92 525.31 429.98 335.83 388.89 525.31 394.7 525.31"/>
      <path class="cls-2" d="M392.64,552.35,420,407.86,474.1,150.47H183.68L106.57,550.35Z"/>
      <path class="cls-3" d="M277.59,197.5s8.8-19.8,22.66-16.95,8.34,31.24,8.34,31.24l-11.74,21.3-21-12.28Z"/>
      <path class="cls-3" d="M302.1,203.23s8.8-19.8,22.66-16.94,8.34,31.24,8.34,31.24l-11.74,21.3-21-12.28Z"/>
      <g id="Layer_2" data-name="Layer 2">
        <path class="cls-3" d="M326.32,217.82l1.38-1.65c3.1-3.67,6.23-7.36,10.05-10.26,3.2-2.42,7.38-4.29,11.15-2.93s5.68,5.25,6.67,9c1.86,7,1.33,14.43.71,21.66-1.52,17.82-3.5,35.64-7.34,53.11a5.79,5.79,0,0,1-.86,2.27,5.66,5.66,0,0,1-1.37,1.16,181.69,181.69,0,0,1-23.82,13.64c-2.16,1-7.06,3.31-9.18,1.12s-1.54-8.24-1.56-10.9c-.18-20.09,1.29-40.14,2.76-60.17a9.15,9.15,0,0,1,.45-2.6,9.44,9.44,0,0,1,1.62-2.41Z"/>
      </g>
      <path class="cls-3" d="M340.37,271.08l.83-2c2.15-5.27,4.4-10.69,8.4-14.75s10.21-6.47,15.51-4.39c4.61,1.81,7.5,6.61,8.39,11.48s.12,9.87-.65,14.76q-5.42,34.15-10.82,68.31c-1.75,11.06-3.37,23,1.74,32.95,5,9.71,15.35,15.4,25.64,19s21.36,8.65,30.62,11.39L392.64,552.35c0-2.46-30.39-13.67-33.9-15.25l-35.32-15.89-35.31-15.88-16.95-7.63c-3.68-1.65-16.35-4.93-18.31-8.22-3.24-5.44,9.33-27.2,12-33.72l14.68-35.9,29.37-71.81Z"/>
      <path class="cls-3" d="M1,626.83l94-.51c30-16.27,64.3-35.59,102-58.05,0,0,70.31-41.92,88.49-75.2A132.14,132.14,0,0,0,298.72,455c.66-5.19,9-89,31.77-141.7,6.11-14.15,15.34-30.18,8.22-43.85-2.27-4.37-5.79-7.31-12.67-4.68l8.73-25.47c1.18-3.46,2.39-7.1,1.81-10.71-1.47-9.22-16.82-10.25-23-3-.18-6.91,1.37-14.88-4.17-19.58-8.82-7.47-19.31,1.4-27.86,11.44,5.06-5.4,4.9-22.58-8.16-21.3-8.05.8-16.22,7.52-21.48,13.67-19.07,22.3-33,49.23-42.29,77.08-1.06-5.66-1.41-15.28-3.42-20.53-4.45-11.61-15.66-11.93-20.56,1.65-8.15,22.6-10.35,47-12.65,70.75-.92,9.48-2.45,16.76-3.24,26.25-1.51,18.45-10.6,32.39-24.28,44.86s-31.16,19.59-47.14,28.92C63.74,459,33.14,475.11,1,491.15,1,536.38,1,626.83,1,626.83Z"/>
      <path class="cls-4" d="M330.49,313.3c4.4-10.17,10.39-21.31,10.78-31.85a23.62,23.62,0,0,0-2.56-12c-10.9-21-34.95,22.2-38.39,28.78-12,23-18.59,48.68-22.26,74.27"/>
      <path class="cls-4" d="M326,264.77l8.73-25.47c1.18-3.46,2.39-7.1,1.81-10.71-1.47-9.22-16.82-10.25-23-3,0,0-65.35,83.52-62.07,152"/>
      <path class="cls-4" d="M313.56,225.58c-.18-6.91,1.37-14.88-4.17-19.58-27.11-23-77.1,103.1-80.66,115.57-4.15,14.56-6.88,29.72-6.38,44.91"/>
      <path class="cls-4" d="M281.37,217.84c5.06-5.4,5.06-23-8-21.7-8.05.8-16.22,7.52-21.48,13.67-19.07,22.3-48.52,73.74-58.07,141.84"/>
      <g>
        <path class="cls-5" d="M317.7,238.82c1.88.09,3.48-1.28,4.8-2.62,2.31-2.33,7.3-7,6.44-10.72s-4.25-3.6-7-2.4C317.9,224.86,308.24,238.37,317.7,238.82Z"/>
        <path class="cls-5" d="M320.91,284.83a3.64,3.64,0,0,0,2.44,1,8.37,8.37,0,0,0,7-3.64c2.61-3.52,5.38-13.12-2.15-10.81C324.58,272.53,317.58,281.12,320.91,284.83Z"/>
        <path class="cls-5" d="M291.18,215c-.3,2.53.8,5.36,3.1,6.44a6.35,6.35,0,0,0,5.79-.54,15.22,15.22,0,0,0,4.27-4.23,11,11,0,0,0,1.64-2.81c1.44-4-2-9.3-6.53-8.91C295.39,205.31,291.63,211.32,291.18,215Z"/>
        <path class="cls-5" d="M262.83,214.16a4.93,4.93,0,0,0,5,1.92c5-.86,14.52-11.08,7.29-14.77C268.93,198.17,259.39,208.63,262.83,214.16Z"/>
        <path class="cls-5" d="M192.36,275.55a17,17,0,0,0,2.86-5.27,31.36,31.36,0,0,0,1.69-8.26,3.6,3.6,0,0,0-.72-2.92c-.88-.82-2.28-.54-3.35,0a14.42,14.42,0,0,0-6.41,7.05c-1.16,2.51-4.72,10.38-1.32,12.07a4.47,4.47,0,0,0,3.06.18A8.26,8.26,0,0,0,192.36,275.55Z"/>
      </g>
      <text class="cls-6" transform="translate(40.77 51)">N<tspan class="cls-7" x="44.79" y="0">u</tspan><tspan class="cls-8" x="83.01" y="0">e</tspan><tspan class="cls-9" x="114.51" y="0">s</tspan><tspan class="cls-10" x="143.58" y="0">t</tspan><tspan class="cls-8" x="168.15" y="0">r</tspan><tspan class="cls-11" x="199.26" y="0">o</tspan><tspan x="233.28" y="0">s</tspan></text>
      <text class="cls-6" transform="translate(102.78 116.65)">C<tspan class="cls-12" x="40.35" y="0">l</tspan><tspan class="cls-7" x="61.08" y="0">i</tspan><tspan class="cls-13" x="82.17" y="0">e</tspan><tspan class="cls-7" x="113.97" y="0">n</tspan><tspan class="cls-14" x="152.25" y="0">t</tspan><tspan class="cls-15" x="176.22" y="0">e</tspan><tspan x="207.72" y="0">s</tspan></text>
    </g>
  </g>
</svg>
