<svg xmlns="http://www.w3.org/2000/svg" viewBox="0 0 1147.9 647.85"><defs><style>.cls-1{fill:#fbb04b;}.cls-2{fill:none;}.cls-2,.cls-3,.cls-5,.cls-7{stroke:#31302e;stroke-miterlimit:10;stroke-width:1.5px;}.cls-3{fill:#f47f6b;}.cls-4{fill:#31302e;}.cls-5,.cls-6{fill:#f8eee2;}.cls-7{fill:#e65a41;}</style></defs><g id="Capa_2" data-name="Capa 2"><g id="Layer_1" data-name="Layer 1"><rect class="cls-1" x="0.75" y="0.75" width="1146.4" height="644.42"/><rect class="cls-2" x="0.75" y="0.75" width="1146.4" height="644.42"/><rect class="cls-3" x="0.75" y="381.09" width="1146.4" height="266.01"/><ellipse class="cls-4" cx="177.21" cy="537.04" rx="44.63" ry="11.28"/><path class="cls-5" d="M168.88,102.68c2.55.44,5.11.82,7.68,1,10,.88,20-.57,30-.66s20.48,1.35,28.57,7.24c3.14,2.29,5.84,5.19,9.23,7.11,4.13,2.33,9,3,13.7,3.25,11.18.54,22.35-1.22,33.54-1.06s23,2.59,31.23,10.14c3.19,2.91,5.93,6.62,10,8,2.94,1,6.14.7,9.25.61,5.17-.15,10.52.46,15.05,3s8.12,7.16,8.23,12.33c.12,6.3-4.89,11.78-10.7,14.22s-12.3,2.48-18.6,2.47l-107.64,0-108.17,0c-13.47,0-39.06,4.6-41.82-14.71a16.87,16.87,0,0,1,9-17c2.43-1.21,5.19-1.83,7.35-3.49,6.16-4.71,5.09-15.73,11.92-19.41,3.74-2,8.42-.88,12.5-2.08,4.88-1.43,8.16-5.88,12.32-8.81,6.32-4.44,14.54-5.23,22.22-4.52C158.78,100.75,163.82,101.82,168.88,102.68Z"/><path class="cls-5" d="M983.39,198.77l-1.23-.16c-5.28-.74-11.35-2.89-12.76-8-1.2-4.38,1.86-9.06,5.91-11.14s8.81-2.14,13.35-2,9.21.59,13.57-.71c7.12-2.11,12.24-8.31,18.88-11.64,7-3.51,15.15-3.59,23-3.6l39.83-.06c4.51,0,9.46.15,12.85,3.13a18.64,18.64,0,0,1,4,6l3.62,7.28a9.65,9.65,0,0,1,1.38,4.52c-.14,3.58-3,5.9-6.63,5.91-3.23,0-4.73-.09-9.8,0a22.92,22.92,0,0,1-.23,5.33,6.3,6.3,0,0,1-4.37,3.64,18.92,18.92,0,0,1-5.87.36,593.25,593.25,0,0,0-64.37.79C1004.14,199.08,993.69,200,983.39,198.77Z"/><path class="cls-5" d="M841,50.56c2.55.43,5.11.81,7.69,1,10,.88,20-.56,30-.66s20.49,1.36,28.57,7.24c3.15,2.29,5.85,5.2,9.24,7.11,4.12,2.34,9,3,13.7,3.26,11.18.54,22.35-1.23,33.54-1.06s23,2.58,31.22,10.13c3.19,2.92,5.94,6.63,10,8,2.93,1,6.14.69,9.25.61,5.17-.15,10.52.46,15.05,3s8.12,7.16,8.22,12.34c.13,6.29-4.88,11.78-10.69,14.22s-12.3,2.47-18.61,2.47l-107.63,0-108.18,0c-13.47,0-39.05,4.61-41.82-14.7a16.89,16.89,0,0,1,9-17c2.44-1.21,5.2-1.83,7.36-3.48,6.15-4.72,5.09-15.74,11.91-19.41,3.75-2,8.42-.89,12.5-2.08,4.89-1.43,8.17-5.88,12.33-8.81,6.31-4.45,14.53-5.24,22.22-4.53C830.9,48.63,835.93,49.7,841,50.56Z"/><circle class="cls-5" cx="145.11" cy="504.8" r="39.36"/><ellipse class="cls-4" cx="479.49" cy="486.02" rx="82.54" ry="20.86"/><polygon class="cls-4" points="792.49 355.71 767.12 381.07 819.7 381.07 792.49 355.71"/><polygon class="cls-4" points="754.45 348.66 722.08 381.03 789.18 381.03 754.45 348.66"/><path class="cls-6" d="M754.58,354.49a1.54,1.54,0,0,1,.82,2.22,7.16,7.16,0,0,1-1.39,1,3.7,3.7,0,0,0-1.13,3.24c.1,1.19.51,2.33.69,3.51a1.19,1.19,0,0,1-.29,1.2,1.81,1.81,0,0,1-.69.18,2.64,2.64,0,0,0-2.05,2.25c-.07.45.26,1.07-.13,1.37s-1.22-.39-1.72.06a1,1,0,0,0-.24.56,19,19,0,0,0,.22,2.91c0,1-.49,2.11-1.46,2.23a2.69,2.69,0,0,1-2-1.06l-3.57-3.6a3.31,3.31,0,0,1-.91-1.29c-.32-1.08.51-2.13,1.29-2.95q5.19-5.49,10.47-10.88a2.88,2.88,0,0,1,1.62-1A1.07,1.07,0,0,1,754.58,354.49Z"/><polygon class="cls-4" points="658.9 348.66 626.53 381.03 693.62 381.03 658.9 348.66"/><path class="cls-6" d="M659,354.49a1.53,1.53,0,0,1,.82,2.22,6.8,6.8,0,0,1-1.38,1,3.67,3.67,0,0,0-1.13,3.24c.1,1.19.5,2.33.69,3.51a1.19,1.19,0,0,1-.29,1.2,1.81,1.81,0,0,1-.7.18,2.62,2.62,0,0,0-2,2.25c-.07.45.25,1.07-.14,1.37s-1.21-.39-1.71.06a1,1,0,0,0-.24.56,20.35,20.35,0,0,0,.21,2.91c0,1-.48,2.11-1.45,2.23a2.66,2.66,0,0,1-2-1.06l-3.57-3.6a3.31,3.31,0,0,1-.91-1.29c-.32-1.08.51-2.13,1.28-2.95q5.19-5.49,10.48-10.88a2.89,2.89,0,0,1,1.61-1A1,1,0,0,1,659,354.49Z"/><path class="cls-6" d="M790.32,362.58a3,3,0,0,1,.55-.24,1.52,1.52,0,0,1,1.09.08,1,1,0,0,1,.57.89c0,.56-.52,1-1,1.2a3.76,3.76,0,0,0-1.44.83,2.32,2.32,0,0,0-.14,2.18,5.54,5.54,0,0,1,.52,2.2,3.83,3.83,0,0,1-.82,1.84,22.05,22.05,0,0,1-4.58,5,1.79,1.79,0,0,1-1.62.5c-.48-.19-.72-.72-1.13-1a2.21,2.21,0,0,0-2.33.11,12.19,12.19,0,0,1-2.14,1.2,1.37,1.37,0,0,1-.87,0c-1.29-.46.41-1.73.82-2.16l1.64-1.74c1.06-1.12,2.14-2.23,3.22-3.34q3.29-3.37,6.66-6.65A6,6,0,0,1,790.32,362.58Z"/><polygon class="cls-4" points="706.2 355.67 680.84 381.03 733.41 381.03 706.2 355.67"/><path class="cls-6" d="M704,362.54a2.48,2.48,0,0,1,.55-.24,1.52,1.52,0,0,1,1.09.08,1,1,0,0,1,.57.89c0,.56-.53,1-1,1.2a3.68,3.68,0,0,0-1.44.83,2.35,2.35,0,0,0-.15,2.18,5.73,5.73,0,0,1,.53,2.2,4,4,0,0,1-.82,1.83,21.92,21.92,0,0,1-4.59,5,1.74,1.74,0,0,1-1.61.49c-.48-.18-.72-.71-1.13-1a2.23,2.23,0,0,0-2.33.1,12,12,0,0,1-2.14,1.21,1.4,1.4,0,0,1-.88,0c-1.28-.46.42-1.73.83-2.16l1.63-1.74c1.07-1.12,2.14-2.24,3.22-3.34q3.28-3.37,6.66-6.65A6.1,6.1,0,0,1,704,362.54Z"/><polygon class="cls-4" points="730.58 362.5 711.78 381.29 750.75 381.29 730.58 362.5"/><path class="cls-6" d="M729,367.59a1.38,1.38,0,0,1,.41-.18,1.11,1.11,0,0,1,.8.06.77.77,0,0,1,.43.66,1.14,1.14,0,0,1-.77.89,2.77,2.77,0,0,0-1.07.61,1.74,1.74,0,0,0-.1,1.62,4.47,4.47,0,0,1,.39,1.63,3.1,3.1,0,0,1-.61,1.36,16.31,16.31,0,0,1-3.4,3.68,1.32,1.32,0,0,1-1.2.36c-.35-.13-.53-.53-.84-.75a1.62,1.62,0,0,0-1.72.07,10,10,0,0,1-1.59.9,1.11,1.11,0,0,1-.65,0c-.95-.34.31-1.29.61-1.61l1.22-1.28c.79-.83,1.58-1.66,2.38-2.48,1.63-1.66,3.27-3.31,4.94-4.93A4.24,4.24,0,0,1,729,367.59Z"/><polygon class="cls-4" points="835 348.66 802.63 381.03 869.73 381.03 835 348.66"/><path class="cls-6" d="M835.13,354.49a1.53,1.53,0,0,1,.82,2.22,6.87,6.87,0,0,1-1.39,1,3.7,3.7,0,0,0-1.12,3.24c.09,1.19.5,2.33.69,3.51.06.43.06.95-.29,1.2a1.81,1.81,0,0,1-.7.18,2.64,2.64,0,0,0-2,2.25c-.07.45.26,1.07-.13,1.37s-1.22-.39-1.71.06a.89.89,0,0,0-.24.56,19,19,0,0,0,.21,2.91c0,1-.49,2.11-1.45,2.23a2.66,2.66,0,0,1-2-1.06l-3.57-3.6a3.33,3.33,0,0,1-.92-1.29c-.32-1.08.52-2.13,1.29-2.95q5.19-5.49,10.48-10.88a2.82,2.82,0,0,1,1.61-1A1.07,1.07,0,0,1,835.13,354.49Z"/><polygon class="cls-4" points="882.31 355.67 856.95 381.03 909.52 381.03 882.31 355.67"/><path class="cls-6" d="M880.15,362.54a2.48,2.48,0,0,1,.55-.24,1.49,1.49,0,0,1,1.08.08,1,1,0,0,1,.58.89c0,.56-.53,1-1,1.2a3.64,3.64,0,0,0-1.43.83,2.32,2.32,0,0,0-.15,2.18,5.73,5.73,0,0,1,.53,2.2,3.91,3.91,0,0,1-.83,1.83,21.65,21.65,0,0,1-4.58,5,1.76,1.76,0,0,1-1.62.49c-.47-.18-.71-.71-1.13-1a2.21,2.21,0,0,0-2.32.1,12,12,0,0,1-2.14,1.21,1.4,1.4,0,0,1-.88,0c-1.28-.46.42-1.73.82-2.16l1.64-1.74c1.07-1.12,2.14-2.24,3.22-3.34q3.28-3.37,6.66-6.65A5.73,5.73,0,0,1,880.15,362.54Z"/><polygon class="cls-4" points="812.21 361.97 793.41 380.76 832.37 380.76 812.21 361.97"/><path class="cls-6" d="M810.6,367.06a1.65,1.65,0,0,1,.41-.18,1.13,1.13,0,0,1,.81.06.77.77,0,0,1,.42.66c0,.41-.39.72-.77.89a2.73,2.73,0,0,0-1.06.61,1.74,1.74,0,0,0-.11,1.62,4.1,4.1,0,0,1,.39,1.63,2.84,2.84,0,0,1-.61,1.36,16,16,0,0,1-3.39,3.68,1.36,1.36,0,0,1-1.2.37c-.36-.14-.53-.54-.84-.76a1.6,1.6,0,0,0-1.72.08,9.6,9.6,0,0,1-1.59.89,1,1,0,0,1-.65,0c-1-.34.31-1.28.61-1.6l1.21-1.29c.79-.83,1.59-1.66,2.39-2.48,1.62-1.66,3.27-3.3,4.93-4.93A4.61,4.61,0,0,1,810.6,367.06Z"/><polygon class="cls-4" points="924.86 348.87 892.49 381.24 959.59 381.24 924.86 348.87"/><path class="cls-6" d="M925,354.69a1.53,1.53,0,0,1,.82,2.22,6.51,6.51,0,0,1-1.39,1,3.71,3.71,0,0,0-1.12,3.24c.09,1.19.5,2.33.69,3.51.06.43.06,1-.3,1.2a1.62,1.62,0,0,1-.69.19,2.63,2.63,0,0,0-2,2.25c-.07.45.26,1.07-.13,1.37s-1.22-.4-1.71.06a.87.87,0,0,0-.24.56,17.77,17.77,0,0,0,.21,2.9c0,1-.49,2.11-1.45,2.23a2.6,2.6,0,0,1-2-1.06l-3.57-3.6a3.23,3.23,0,0,1-.92-1.28c-.32-1.08.52-2.13,1.29-2.95q5.19-5.49,10.48-10.89a2.86,2.86,0,0,1,1.61-1A1.23,1.23,0,0,1,925,354.69Z"/><polygon class="cls-4" points="902.07 362.17 883.27 380.97 922.23 380.97 902.07 362.17"/><path class="cls-6" d="M899.55,364.82a1.89,1.89,0,0,1,.41-.18,1.16,1.16,0,0,1,.8.06.78.78,0,0,1,.43.66c0,.41-.39.72-.77.89a2.68,2.68,0,0,0-1.06.62,1.69,1.69,0,0,0-.11,1.61,4.14,4.14,0,0,1,.39,1.63,2.84,2.84,0,0,1-.61,1.36,16.08,16.08,0,0,1-3.4,3.68,1.33,1.33,0,0,1-1.2.37c-.35-.14-.53-.53-.83-.76a1.64,1.64,0,0,0-1.73.08,9.13,9.13,0,0,1-1.58.89,1,1,0,0,1-.65,0c-.95-.34.31-1.28.61-1.6l1.21-1.29c.79-.83,1.59-1.66,2.39-2.48,1.62-1.66,3.27-3.3,4.93-4.92A4.67,4.67,0,0,1,899.55,364.82Z"/><polygon class="cls-4" points="965.8 355.46 940.43 380.83 993 380.83 965.8 355.46"/><path class="cls-6" d="M963.63,362.34a1.92,1.92,0,0,1,.55-.24,1.52,1.52,0,0,1,1.09.07,1,1,0,0,1,.57.89c0,.56-.52,1-1,1.21a3.66,3.66,0,0,0-1.44.82,2.32,2.32,0,0,0-.14,2.18,6,6,0,0,1,.52,2.2,3.83,3.83,0,0,1-.82,1.84,21.84,21.84,0,0,1-4.58,5,1.79,1.79,0,0,1-1.62.5c-.48-.18-.72-.72-1.13-1a2.23,2.23,0,0,0-2.33.1,12.92,12.92,0,0,1-2.14,1.21,1.47,1.47,0,0,1-.88,0c-1.28-.47.42-1.74.83-2.17.54-.58,1.09-1.16,1.64-1.73,1.06-1.13,2.14-2.24,3.22-3.35q3.28-3.36,6.66-6.65A5.54,5.54,0,0,1,963.63,362.34Z"/><polygon class="cls-4" points="1008.35 348.66 975.98 381.03 1043.08 381.03 1008.35 348.66"/><path class="cls-6" d="M1008.48,355.94a1.53,1.53,0,0,1,.82,2.21,6.43,6.43,0,0,1-1.39,1,3.7,3.7,0,0,0-1.13,3.25c.1,1.18.51,2.32.69,3.5.07.43.07,1-.29,1.2a1.66,1.66,0,0,1-.7.19,2.63,2.63,0,0,0-2,2.25c-.07.45.25,1.07-.13,1.37s-1.22-.39-1.72.06a1,1,0,0,0-.24.56,20.45,20.45,0,0,0,.21,2.91c0,1-.48,2.11-1.45,2.23a2.66,2.66,0,0,1-2-1.06l-3.57-3.6a3.31,3.31,0,0,1-.91-1.29c-.32-1.08.51-2.13,1.29-2.95q5.18-5.49,10.47-10.88a2.89,2.89,0,0,1,1.61-1A1.1,1.1,0,0,1,1008.48,355.94Z"/><polygon class="cls-4" points="985.55 361.97 966.75 380.76 1005.72 380.76 985.55 361.97"/><path class="cls-6" d="M986.24,366.52a1.5,1.5,0,0,1,.41-.18,1.11,1.11,0,0,1,.8.06.76.76,0,0,1,.43.66c0,.41-.39.72-.77.89a2.66,2.66,0,0,0-1.06.61,1.71,1.71,0,0,0-.11,1.62,4.1,4.1,0,0,1,.39,1.63,2.84,2.84,0,0,1-.61,1.36,16.08,16.08,0,0,1-3.4,3.68,1.35,1.35,0,0,1-1.2.37c-.35-.14-.53-.54-.83-.76a1.64,1.64,0,0,0-1.73.07,8.57,8.57,0,0,1-1.58.9,1.11,1.11,0,0,1-.65,0c-1-.34.31-1.28.61-1.6l1.21-1.29c.79-.83,1.59-1.66,2.39-2.48,1.62-1.66,3.27-3.31,4.93-4.93A4.61,4.61,0,0,1,986.24,366.52Z"/><polygon class="cls-4" points="406.06 355.79 431.42 381.15 378.85 381.15 406.06 355.79"/><polygon class="cls-4" points="444.1 348.74 476.47 381.11 409.37 381.11 444.1 348.74"/><path class="cls-6" d="M444,354.57a1.52,1.52,0,0,0-.82,2.21,6.51,6.51,0,0,0,1.39,1,3.71,3.71,0,0,1,1.12,3.24c-.09,1.19-.5,2.33-.69,3.51-.07.43-.06,1,.29,1.2a1.66,1.66,0,0,0,.7.19A2.64,2.64,0,0,1,448,368.2c.07.45-.26,1.07.13,1.37s1.22-.4,1.71.06a.87.87,0,0,1,.24.56,19,19,0,0,1-.21,2.9c0,1,.49,2.11,1.45,2.23a2.6,2.6,0,0,0,2-1.06l3.57-3.6a3.23,3.23,0,0,0,.92-1.28c.32-1.08-.52-2.13-1.29-2.95q-5.19-5.49-10.48-10.89a2.86,2.86,0,0,0-1.61-1A1.07,1.07,0,0,0,444,354.57Z"/><path class="cls-6" d="M408.22,362.66a2.09,2.09,0,0,0-.55-.24,1.49,1.49,0,0,0-1.08.08,1,1,0,0,0-.58.88c0,.56.53,1,1,1.21a3.53,3.53,0,0,1,1.43.83,2.3,2.3,0,0,1,.15,2.17,5.82,5.82,0,0,0-.53,2.21,4,4,0,0,0,.83,1.83,21.4,21.4,0,0,0,4.58,5,1.78,1.78,0,0,0,1.62.5c.47-.18.71-.72,1.13-1a2.21,2.21,0,0,1,2.32.1,12.61,12.61,0,0,0,2.14,1.21,1.4,1.4,0,0,0,.88,0c1.28-.46-.42-1.73-.82-2.17s-1.09-1.16-1.64-1.73q-1.61-1.68-3.22-3.35-3.29-3.36-6.66-6.65A5.3,5.3,0,0,0,408.22,362.66Z"/><polygon class="cls-4" points="492.34 355.74 517.71 381.11 465.13 381.11 492.34 355.74"/><path class="cls-6" d="M494.51,362.62a1.92,1.92,0,0,0-.55-.24,1.52,1.52,0,0,0-1.09.07,1,1,0,0,0-.57.89c0,.56.52,1,1,1.21a3.74,3.74,0,0,1,1.44.82,2.32,2.32,0,0,1,.14,2.18,5.8,5.8,0,0,0-.52,2.2,3.83,3.83,0,0,0,.82,1.84,21.84,21.84,0,0,0,4.58,5,1.79,1.79,0,0,0,1.62.5c.48-.18.72-.72,1.13-1a2.23,2.23,0,0,1,2.33.1,12.92,12.92,0,0,0,2.14,1.21,1.44,1.44,0,0,0,.87,0c1.29-.47-.41-1.74-.82-2.17s-1.09-1.16-1.64-1.73c-1.06-1.13-2.14-2.24-3.22-3.35q-3.29-3.36-6.66-6.65A5.54,5.54,0,0,0,494.51,362.62Z"/><polygon class="cls-4" points="467.96 362.57 486.76 381.37 447.8 381.37 467.96 362.57"/><path class="cls-6" d="M469.57,367.66a1.86,1.86,0,0,0-.41-.17,1.1,1.1,0,0,0-.8.05.78.78,0,0,0-.43.66c0,.42.39.72.77.89a2.75,2.75,0,0,1,1.06.62,1.72,1.72,0,0,1,.11,1.61,4.14,4.14,0,0,0-.39,1.63,2.84,2.84,0,0,0,.61,1.36,16.08,16.08,0,0,0,3.4,3.68,1.29,1.29,0,0,0,1.19.37c.36-.14.54-.53.84-.76a1.66,1.66,0,0,1,1.73.08,9.13,9.13,0,0,0,1.58.89,1,1,0,0,0,.65,0c.95-.34-.31-1.28-.61-1.6l-1.21-1.29c-.79-.83-1.59-1.65-2.39-2.48-1.62-1.66-3.27-3.3-4.93-4.92A4.67,4.67,0,0,0,469.57,367.66Z"/><polygon class="cls-4" points="562.45 362.04 581.24 380.84 542.28 380.84 562.45 362.04"/><path class="cls-6" d="M564.05,367.14a1.5,1.5,0,0,0-.41-.18,1.06,1.06,0,0,0-.8.06.75.75,0,0,0-.43.65c0,.42.39.72.77.9a2.66,2.66,0,0,1,1.06.61,1.69,1.69,0,0,1,.11,1.61,4.52,4.52,0,0,0-.39,1.64,3,3,0,0,0,.61,1.36,16.26,16.26,0,0,0,3.4,3.67,1.3,1.3,0,0,0,1.2.37c.35-.13.53-.53.83-.76a1.66,1.66,0,0,1,1.73.08,9.13,9.13,0,0,0,1.58.89,1,1,0,0,0,.65,0c1-.35-.31-1.29-.61-1.61s-.8-.86-1.21-1.28c-.79-.83-1.58-1.66-2.39-2.48q-2.43-2.51-4.93-4.93A4.16,4.16,0,0,0,564.05,367.14Z"/><polygon class="cls-4" points="363.54 348.74 395.91 381.11 328.81 381.11 363.54 348.74"/><path class="cls-6" d="M363.41,354.57a1.53,1.53,0,0,0-.82,2.21,6.77,6.77,0,0,0,1.39,1,3.69,3.69,0,0,1,1.13,3.24c-.1,1.19-.5,2.33-.69,3.51-.07.43-.07,1,.29,1.2a1.66,1.66,0,0,0,.7.19,2.62,2.62,0,0,1,2,2.25c.07.45-.25,1.07.13,1.37s1.22-.4,1.72.06a.92.92,0,0,1,.24.56,20.31,20.31,0,0,1-.21,2.9c0,1,.48,2.11,1.45,2.23a2.6,2.6,0,0,0,2-1.06l3.57-3.6a3.21,3.21,0,0,0,.91-1.28c.32-1.08-.51-2.13-1.28-2.95q-5.19-5.49-10.48-10.89a2.92,2.92,0,0,0-1.61-1A1.1,1.1,0,0,0,363.41,354.57Z"/><polygon class="cls-4" points="316.24 355.74 341.6 381.11 289.03 381.11 316.24 355.74"/><path class="cls-6" d="M318.4,362.62a1.92,1.92,0,0,0-.55-.24,1.52,1.52,0,0,0-1.09.07,1,1,0,0,0-.57.89c0,.56.53,1,1,1.21a3.66,3.66,0,0,1,1.44.82,2.35,2.35,0,0,1,.15,2.18,5.81,5.81,0,0,0-.53,2.2,4,4,0,0,0,.82,1.84,21.66,21.66,0,0,0,4.59,5,1.77,1.77,0,0,0,1.61.5c.48-.18.72-.72,1.13-1a2.23,2.23,0,0,1,2.33.1,13.33,13.33,0,0,0,2.14,1.21,1.47,1.47,0,0,0,.88,0c1.28-.47-.42-1.74-.83-2.17l-1.63-1.73c-1.07-1.13-2.14-2.24-3.22-3.35q-3.28-3.36-6.66-6.65A5.61,5.61,0,0,0,318.4,362.62Z"/><polygon class="cls-4" points="386.34 362.04 405.14 380.84 366.18 380.84 386.34 362.04"/><path class="cls-6" d="M388,367.14a1.65,1.65,0,0,0-.41-.18,1.08,1.08,0,0,0-.81.06.74.74,0,0,0-.42.65c0,.42.39.72.76.9a2.7,2.7,0,0,1,1.07.61,1.72,1.72,0,0,1,.1,1.61,4.31,4.31,0,0,0-.38,1.64,3,3,0,0,0,.6,1.36,16.26,16.26,0,0,0,3.4,3.67,1.3,1.3,0,0,0,1.2.37c.35-.13.53-.53.84-.76a1.65,1.65,0,0,1,1.72.08,9.6,9.6,0,0,0,1.59.89,1,1,0,0,0,.65,0c.95-.35-.31-1.29-.61-1.61s-.81-.86-1.22-1.28c-.79-.83-1.58-1.66-2.38-2.48-1.63-1.67-3.27-3.31-4.94-4.93A4.1,4.1,0,0,0,388,367.14Z"/><polygon class="cls-4" points="273.68 348.94 306.06 381.31 238.96 381.31 273.68 348.94"/><path class="cls-6" d="M273.56,354.77a1.53,1.53,0,0,0-.82,2.22,6.8,6.8,0,0,0,1.38,1,3.67,3.67,0,0,1,1.13,3.24c-.1,1.19-.5,2.33-.69,3.51a1.19,1.19,0,0,0,.29,1.2,1.81,1.81,0,0,0,.7.18,2.62,2.62,0,0,1,2,2.25c.07.45-.25,1.07.14,1.37s1.21-.39,1.71.06a1,1,0,0,1,.24.56,20.35,20.35,0,0,1-.21,2.91c0,1,.49,2.11,1.45,2.23a2.66,2.66,0,0,0,2-1.06l3.57-3.6a3.31,3.31,0,0,0,.91-1.29c.33-1.08-.51-2.13-1.28-2.95q-5.19-5.49-10.48-10.88a2.85,2.85,0,0,0-1.61-1A1,1,0,0,0,273.56,354.77Z"/><polygon class="cls-4" points="296.48 362.25 315.28 381.05 276.32 381.05 296.48 362.25"/><path class="cls-6" d="M297.44,366.07a1.65,1.65,0,0,0-.41-.18,1.13,1.13,0,0,0-.81.06.74.74,0,0,0-.42.66c0,.41.39.71.76.89a2.7,2.7,0,0,1,1.07.61,1.74,1.74,0,0,1,.11,1.62,4.1,4.1,0,0,0-.39,1.63,2.89,2.89,0,0,0,.61,1.36,16,16,0,0,0,3.39,3.68,1.32,1.32,0,0,0,1.2.36c.36-.13.53-.53.84-.76a1.65,1.65,0,0,1,1.72.08,10.45,10.45,0,0,0,1.59.9,1.11,1.11,0,0,0,.65,0c.95-.34-.31-1.29-.61-1.61l-1.21-1.28c-.79-.83-1.59-1.66-2.39-2.48-1.62-1.66-3.27-3.31-4.94-4.93A3.8,3.8,0,0,0,297.44,366.07Z"/><polygon class="cls-4" points="539.65 348.74 572.02 381.11 504.92 381.11 539.65 348.74"/><path class="cls-6" d="M539.52,354.57a1.53,1.53,0,0,0-.82,2.21,6.77,6.77,0,0,0,1.39,1,3.72,3.72,0,0,1,1.13,3.24c-.1,1.19-.51,2.33-.69,3.51-.07.43-.07,1,.29,1.2a1.66,1.66,0,0,0,.69.19,2.64,2.64,0,0,1,2,2.25c.07.45-.25,1.07.13,1.37s1.22-.4,1.72.06a.92.92,0,0,1,.24.56,19,19,0,0,1-.22,2.9c0,1,.49,2.11,1.46,2.23a2.63,2.63,0,0,0,2-1.06l3.57-3.6a3.21,3.21,0,0,0,.91-1.28c.32-1.08-.51-2.13-1.29-2.95q-5.19-5.49-10.47-10.89a2.91,2.91,0,0,0-1.62-1A1.07,1.07,0,0,0,539.52,354.57Z"/><path class="cls-5" d="M467.15,167.85a3.1,3.1,0,0,0,2-.33L504.68,153c2-.81,4-1.63,6.15-1.34a11.75,11.75,0,0,1,4.59,2c3.16,2,6.26,4.12,9.27,6.34s6.1,4.62,9.69,5.82c3.41,1.14,7.08,1.13,10.68,1.1,2.61,0,5.34-.06,7.64-1.3q-10.34-10.72-21.4-20.7c-6.09-5.48-8.69-13.47-17.34-13.83-4.4-.19-12.8.13-17.21.2-4.85.08-10.15,1-14.9,0-.46-.09-.5-1.52-.92-1.32a2.11,2.11,0,0,0-.8.87l-18.11,29a2.18,2.18,0,0,0-.43,1.11,2.12,2.12,0,0,0,.61,1.24l3.55,4.47A3.21,3.21,0,0,0,467.15,167.85Z"/><path class="cls-5" d="M457.29,86.81,470.55,69.3l20.29-26.76c2.22-2.92,10.24-14.36,14.83-8.53,3.73,4.73-7.6,29.56-15.5,35.16S457.29,87.4,457.29,87.4"/><path class="cls-5" d="M508.61,112c15.39-10.28,35.61-9.28,52.83-16,4.83-1.9,10-5.18,10.6-10.34.23-2-.41-4.18-2.14-5.13A7.15,7.15,0,0,0,566,80l-54.23,3.37c-6.71.42-13.74.93-19.43,4.5-4.54,2.84-7.75,7.35-10.51,11.93A91.66,91.66,0,0,0,468.71,138a9.33,9.33,0,0,0,2.76,7.77C473.86,147.92,499.85,117.87,508.61,112Z"/><path class="cls-7" d="M558.86,80.84a.47.47,0,0,0,.08.27c1.28,2.37,5,1.93,7.22,1.79a30.24,30.24,0,0,0,6-.77,5.35,5.35,0,0,0,2.49-1.28c.43-.44.71-1.19.29-1.64a1.5,1.5,0,0,0-1.23-.29,133.39,133.39,0,0,0-14.38,1.59c-.2,0-.43.1-.47.29Z"/><path class="cls-5" d="M396.78,486.21l-.47-.27c5.94-106.62-10.85-215.35,13.39-319.34,2.32-9.95,5.08-20,10.39-28.69,4.25-7,10-12.87,15-19.34,9.87-12.83,16.88-28.08,29.07-38.73,8.53-7.46,19.07-12.17,29.5-16.59,16-6.78,29-12,45.32-18,3.09,16.08-6.77,19.45-16.13,26s-19.94,11.53-28.29,19.35c-21.74,20.36-23,53.86-22.7,83.65.12,13.85.36,28.21,6.31,40.72,11,23.08,38.18,33.48,63.46,37.27,13.63,2,28.11,3,39.53,10.72,3.7,2.5,7,8.07,3.56,10.91s-27.11,3.95-32.87,4.66c-9.13,1.13-18.33,1.52-27.47,2.52a98.55,98.55,0,0,0-16.69,3.11c-10.31,3-20.07,8.42-25.85,17.74-7.44,12-6.56,27.16-5.42,41.23q5.63,69.57,11.24,139.15a9,9,0,0,1-.46,4.76c-.88,1.82-2.82,2.82-4.66,3.65A95.73,95.73,0,0,1,396.78,486.21Z"/><path class="cls-7" d="M562,277.63A21.88,21.88,0,0,1,574.45,272a57.93,57.93,0,0,1,13.86.2,3.05,3.05,0,0,1,1.9.65c3.1,3.07-12,3.77-13.22,3.89Q569.52,277.42,562,277.63Z"/><path class="cls-7" d="M516.84,54a.28.28,0,0,1,0-.26,1.07,1.07,0,0,1,.6-.41L539.43,45c.61-.23,1.35-.44,1.85,0a1.27,1.27,0,0,1,.36,1.21,3.58,3.58,0,0,1-1.62,2,36,36,0,0,1-13.43,6.08,24,24,0,0,1-5.34.64C520.74,54.9,517.12,54.74,516.84,54Z"/><path class="cls-7" d="M490,43.92c2.3-4.15,7.25-14.4,9.31-17.37.55-.78,1.3-1.65,2.25-1.52a1.85,1.85,0,0,1,1,.56,3.81,3.81,0,0,1,.74,3.64,9.92,9.92,0,0,1-1.89,3.38C498.07,37,494.84,41.19,490,43.92Z"/><path class="cls-7" d="M539.3,152.35s-1.56,5.1,0,6.7,3,3,4.51,4.52,3.1,3.18,5.15,4c1,.37,4.94,1.19,4.6-.84-.21-1.29-4.53-5.5-5.72-6.73C545.31,157.34,539.3,152.35,539.3,152.35Z"/><ellipse class="cls-4" cx="994.83" cy="550.51" rx="90.96" ry="15.01"/><path class="cls-7" d="M1070.62,438.06s-16.35-52.5-27.44-82.55a37.06,37.06,0,0,0-4.71-8.88c-7.9-10.89-18.06-15.66-31.2-16.05-12.57-.37-21.53,8.92-34.38,8.28-12.85.64-21.82-8.65-34.39-8.28-13.14.39-23.29,5.16-31.2,16.05a36.68,36.68,0,0,0-4.7,8.88c-11.1,30.05-27.44,82.53-27.44,82.55-5.43,17.42-7.79,35.52-4,53.61,4.54,21.91,19,40.92,37.84,52.73,27.57,17.32,100.28,17.32,127.85,0,18.8-11.81,33.31-30.82,37.85-52.73C1078.4,473.58,1076,455.48,1070.62,438.06Z"/><path class="cls-4" d="M918.67,500.56a74.92,74.92,0,1,1,104,.1Z"/><path class="cls-6" d="M1026.42,400.47c-15.2-12.42-30.84-16.22-54.61-16.22-24.09,0-42.32,4-57.55,16.73a1.26,1.26,0,0,0,1.72.39,6.63,6.63,0,0,0,1.75-1.38,18.2,18.2,0,0,1,11.2-4.56,38.26,38.26,0,0,1,12.2,1.46,40.74,40.74,0,0,0,8.56,1.72c7.94.29,15.89-5.12,23.42-2.57,4.79,1.62,8.71,6.34,13.74,5.86,2.65-.26,4.9-1.94,7.19-3.29a32.07,32.07,0,0,1,18.41-4.31,13,13,0,0,1,5.69,1.48C1021.28,397.61,1022.78,400.41,1026.42,400.47Z"/></g></g></svg>