<svg xmlns="http://www.w3.org/2000/svg" viewBox="0 0 1147.16 650.21"><defs><style>.cls-1{fill:#f47f6b;}.cls-1,.cls-3,.cls-4{stroke:#31302e;stroke-miterlimit:10;stroke-width:1.5px;}.cls-2{fill:#31302e;}.cls-3{fill:none;}.cls-4{fill:#f8eee2;}</style></defs><g id="Capa_2" data-name="Capa 2"><g id="Layer_1" data-name="Layer 1"><rect class="cls-1" x="0.75" y="0.75" width="1145.66" height="648.71"/><rect class="cls-2" x="170.67" y="90.08" width="220.09" height="412.63"/><polygon class="cls-1" points="364.86 329.5 459.71 362.82 459.71 541.98 364.25 508.2 364.86 329.5"/><polygon class="cls-2" points="391.03 428.9 433.19 442.12 390.9 465.46 391.03 428.9"/><path class="cls-1" d="M389.37,90.08,223.68,148.29V560.13l167.08-60.52ZM268.92,542V362.82l94.85-33.32.61,178.7Z"/><polygon class="cls-1" points="387.65 467.5 432.58 443.07 432.58 532.16 387.65 556.15 387.65 467.5"/><circle class="cls-3" cx="250.88" cy="344.54" r="11.78"/><circle class="cls-3" cx="400.49" cy="510.89" r="4.53"/><path class="cls-4" d="M325.94,417.75a33.43,33.43,0,0,1,0,22,33.25,33.25,0,0,0,18.08-11A33.29,33.29,0,0,0,325.94,417.75Z"/><path class="cls-4" d="M311.17,417.75a33.27,33.27,0,0,0-18.07,11,33.22,33.22,0,0,0,18.07,11,33.6,33.6,0,0,1,0-22Z"/><circle class="cls-4" cx="318.56" cy="428.74" r="5.07" transform="matrix(1, -0.07, 0.07, 1, -29.59, 23.66)"/></g></g></svg>