<svg xmlns="http://www.w3.org/2000/svg" viewBox="0 0 1154.25 653.51"><defs><style>.cls-1,.cls-6{fill:#e65a41;}.cls-2{fill:none;}.cls-10,.cls-11,.cls-12,.cls-13,.cls-14,.cls-17,.cls-2,.cls-3,.cls-4,.cls-5,.cls-6,.cls-7,.cls-8{stroke:#31302e;}.cls-10,.cls-11,.cls-12,.cls-14,.cls-2,.cls-3,.cls-4,.cls-5,.cls-6,.cls-7,.cls-8{stroke-miterlimit:10;}.cls-10,.cls-11,.cls-12,.cls-13,.cls-14,.cls-17,.cls-2,.cls-3,.cls-4,.cls-5,.cls-6,.cls-7{stroke-width:1.5px;}.cls-3{fill:#f47f6b;}.cls-17,.cls-4,.cls-9{fill:#f8eee2;}.cls-5{fill:#77774d;}.cls-15,.cls-7{fill:#fbb04b;}.cls-16,.cls-8{fill:#31302e;}.cls-8{stroke-width:4px;}.cls-10{fill:#686745;}.cls-11{fill:#8590c8;}.cls-12{fill:#616c9e;}.cls-13,.cls-14{fill:#8a8d56;}.cls-13,.cls-17{stroke-linecap:round;stroke-linejoin:round;}</style></defs><g id="Capa_2" data-name="Capa 2"><g id="Layer_1" data-name="Layer 1"><rect class="cls-1" x="0.75" y="0.75" width="1152.75" height="652.01"/><rect class="cls-2" x="0.75" y="0.75" width="1152.75" height="652.01"/><circle class="cls-3" cx="326.17" cy="360.59" r="129.45"/><path id="humo" class="cls-4" d="M179.91,351.54c-3.95-6.75-1.85-15.91,3.49-21.66s13.31-8.59,21.15-9.66c6.23-.85,12.77-.8,18.42-3.55s10-9.64,7.33-15.33c-2.26-4.76-8.12-6.41-13.33-7.23a135.1,135.1,0,0,0-28.56-1.39c-8,.47-18.27.45-21.44-7-1.94-4.51.16-10,3.95-13.15s8.89-4.22,13.8-4.37c2.74-.09,5.56.08,8.12-.88s4.83-3.45,4.42-6.16c-.49-3.29-4.29-4.85-7.56-5.4-6.41-1.07-13-.65-19.43-1.08s-13.19-1.82-18.23-5.92-7.81-11.51-5-17.35c3.64-7.52,13.64-8.75,22-9l49.26-1.37c4.81-.13,9.76-.29,14.19-2.17s8.32-5.89,8.57-10.7-3.19-9.22-7.42-11.55-9.14-3-13.92-3.62l-27.93-3.66c-5.15-.67-10.44-1.39-15-3.95-7.53-4.25-11.64-13.1-12-21.74s2.66-17.07,6.55-24.79c18.28-36.31,59-60.06,99.61-58.09,17.62.85,37.07,8,43.8,24.29,2.93,7.09,4.49,16.69,12,18.45,3.16.75,6.7-.28,9.59,1.2,4.76,2.45,3.91,10.19-.29,13.52s-10,3.51-15.35,3.54l-33.28.19c-2.85,0-5.89.09-8.23,1.71s-3.41,5.38-1.32,7.32a6.92,6.92,0,0,0,3.9,1.4c21.31,2.71,44.61-4.76,63.53,5.41a38.36,38.36,0,0,1,19.75,31c1,18.63-13,52.72-34.23,52.58l-39-.26a11.34,11.34,0,0,0-5.59.92c-1.68.93-2.82,3.09-2,4.8s3.31,2.07,5.33,2.12l57.2,1.31-19.59,62.44c-.7,2.25-1.49,4.61-3.27,6.15s-4.09,1.94-6.35,2.21c-20.15,2.37-41.4-5.65-60.42,1.41-7.42,2.75-14,7.69-21.71,9.52-9.77,2.32-20.09-.64-30,.84A34.44,34.44,0,0,0,180,351.72Z"/><g id="cuerpa"><path class="cls-5" d="M406.47,461.49l.13.26a130.4,130.4,0,0,1-71.32,27.71c-36.39,2.58-73.95-10.77-99.77-36.73,5.78-5.1,14-6.23,20.95-9.49a37.31,37.31,0,0,0,21-34.73c-.06-1.17,0-3.59-.68-4.54s-2.41-.39-3.71-.82c-7.66-2.53-16.4-5.75-19.6-13.16-6-13.95,24.36-37.56,3.82-47.37-2.36-1.13-3-3.18-3.38-5.77-.62-4.73,1.28-7.71,1.28-14,0-13.12.24-26.52,4.2-39,3.2-10.14,10.17-18.8,18.48-25.43,16.95-13.55,40.53-19,61.28-12.67,26.36,8.08,45,34.89,45.84,62.44.86,28.66-14.9,54.74-26.42,81-6.29,14.35-11.34,31.24-4.27,45.22a5.92,5.92,0,0,0,2,2.5,6.81,6.81,0,0,0,3.06.74c9.23.78,18.52,2.27,27,6S402.31,453.34,406.47,461.49Z"/><path class="cls-5" d="M406.47,461.49l.13.26a130.4,130.4,0,0,1-71.32,27.71c-36.39,2.58-73.95-10.77-99.77-36.73,5.78-5.1,14-6.23,20.95-9.49a37.31,37.31,0,0,0,21-34.73c-.06-1.17,0-3.59-.68-4.54s-2.41-.39-3.71-.82c-7.66-2.53-16.4-5.75-19.6-13.16-6-13.95,24.36-37.56,3.82-47.37-2.36-1.13-3-3.18-3.38-5.77-.62-4.73,1.28-7.71,1.28-14,0-13.12.24-26.52,4.2-39,3.2-10.14,10.17-18.8,18.48-25.43,12.48-10,32.35-18.25,48.79-14.93,6.56,1.33,13.09,4.89,18.72,8.36a75.55,75.55,0,0,1,36.13,61.46c1.35,28.64-11.42,49.62-22.94,75.87-6.29,14.35-11.34,31.24-4.27,45.22a5.92,5.92,0,0,0,2,2.5,6.81,6.81,0,0,0,3.06.74c9.23.78,18.52,2.27,27,6S402.31,453.34,406.47,461.49Z"/></g><ellipse class="cls-6" cx="251.23" cy="318.64" rx="17.77" ry="13.95" transform="translate(-85.57 544.94) rotate(-85.64)"/><ellipse class="cls-7" cx="250.04" cy="318.98" rx="16.38" ry="12.85" transform="translate(-87.02 544.07) rotate(-85.64)"/><g id="cara"><g id="STAIRS"><rect class="cls-7" x="324.88" y="280.19" width="9.54" height="9.54"/><rect class="cls-7" x="324.88" y="284.43" width="14.31" height="7.68"/><rect class="cls-7" x="324.88" y="288.94" width="16.16" height="8.88"/><rect class="cls-7" x="324.88" y="293.44" width="21.73" height="8.74"/><rect class="cls-7" x="324.88" y="299.28" width="25.97" height="18.56"/><rect class="cls-7" x="324.88" y="308.54" width="32.32" height="11.66"/><rect class="cls-7" x="324.88" y="317.85" width="39.48" height="11.63"/><rect class="cls-7" x="324.88" y="327.62" width="48.22" height="10.6"/></g><path class="cls-8" d="M326.05,337.43l41.33.26c3.71,0,7.55.07,10.92,1.61,4.05,1.85,6.89,5.6,9.15,9.44,12.44,21.1,11.87,47.44,7.19,71.48s-13.08,47.42-15.17,71.83c-1.12,13.07.18,27.67,9.57,36.85,6.07,5.94,14.57,8.61,22.87,10.41,40.09,8.65,82.14,1.16,122.55,8.11,9.54,1.64,21.11,6.72,20.83,16.4-.1,3.59-2,7.37-.4,10.61,1.19,2.49,4,3.72,6.7,4.33,7.07,1.62,14.52.39,21.65,1.73s14.56,6.84,14,14.06c-.33,4.08-3,8.74-.31,11.81,3.45,3.91,10.92-.45,14.77,3,1.51,1.38,1.93,3.6,3.14,5.25,2.07,2.84,5.94,3.54,9.42,4l33.64,4.58c-4.18,6.93-14.18,6.57-22.18,5.35l-19.41-3c-3.1-.48-6.38-1-8.78-3-1.62-1.37-2.7-3.31-4.45-4.51-3.77-2.59-8.83-.81-13.4-.4s-10.55-2.79-9.06-7.12c.55-1.59,2-2.78,2.32-4.43.57-3.28-3.57-5.18-6.85-5.75a121.7,121.7,0,0,0-41.75.08c-5,.89-10,2.09-15.1,1.6s-10.27-3.1-12.27-7.77c-1.44-3.38-.82-8.28,2.31-10.21,3.57-2.18,9-3.8,6-7.91-1.47-2-4.24-2.4-6.72-2.6-46.45-3.82-94.27,4.4-139.2-8-9.76-2.7-19.45-6.47-27.26-12.93-19.81-16.41-22.82-46.08-17.48-71.25s17.31-48.59,22.07-73.87S347,352.43,326.05,337.43Z"/><path class="cls-9" d="M344.87,337.55s13.14,6.69,12.79,15H374.6s-10-15.25-18.67-15.11S344.87,337.55,344.87,337.55Z"/><path class="cls-9" d="M339.59,352.54h18.07s6.95,11.2,6.95,21.38H347.12S345,360.17,339.59,352.54Z"/><path class="cls-9" d="M378.05,354.47s6.52,5.94,8,19.45h7.07s.75-12.78-5.27-19.45Z"/><path class="cls-9" d="M366.73,376.16s3,16.52,0,29h18.35a100,100,0,0,0,0-29H366.73Z"/><path class="cls-9" d="M386.92,406.86s-5,27.78-8.87,30.4l12.9-.56s6.5-26.48,5.79-29.84Z"/><path class="cls-9" d="M348.34,406.86h17.4s-3.68,22.91-10,32.28H340.65S348.84,420.57,348.34,406.86Z"/><path class="cls-9" d="M358.36,440.63s-9.47,19.53-9.28,24.55l16.66-1s6.58-20.21,9.44-23.59Z"/><path class="cls-9" d="M328.67,469.16l17.9-.88s-5.86,18.94-5,23.78H323.86S326.69,475.66,328.67,469.16Z"/><path class="cls-9" d="M367.45,465.18l16.6-.67s-6.11,19.53-5.2,23.54l-15.66.91S365.51,469.44,367.45,465.18Z"/><path class="cls-9" d="M342.12,493.22c.14-.57,18.66-1.77,19.29-1.16a59.83,59.83,0,0,0,2.37,21.08s-18.82,2.79-20.16,3.72C343.62,516.86,341.35,496.35,342.12,493.22Z"/><path class="cls-9" d="M627.88,624s-2.66-1.07-2.66,0,2.3,2.12,4.25,2.3,2.48.35,3.37,0-2.66-.27-3.81-1.28Z"/><path class="cls-9" d="M612.46,623.57c.53.47,5.67-.83,6.91,0a4.56,4.56,0,0,1,1.54,2.77Z"/><path class="cls-9" d="M608.92,613.05a29.34,29.34,0,0,1,0,5.67c-.35,1.6,2.83.36,3.54,1.24s1.95,0,1.95,0a7.26,7.26,0,0,0-2.76-2.3c-1.67-.71-.78-2.83-1.31-3.54A3.76,3.76,0,0,0,608.92,613.05Z"/><path class="cls-9" d="M597.58,608.63c.8-1.15-1.59,0-1.59,0s-.18,1.41,5.67,1.06,4.25-1.42,5.84-.36,2.48.42,2.48.42l-3.36-1.81Z"/><path class="cls-9" d="M587.84,601.72a7.33,7.33,0,0,1,0,4.6c-.89,1.95-3,3.9-3.37,5.14s1.15,3.19,3.76,1.59.85-3.26,1.74-4.11a11.87,11.87,0,0,1,0-4.74c.53-2.48,1.77-2.84,0-3.19S587.84,601.72,587.84,601.72Z"/><path class="cls-9" d="M572.25,597.64s6.91-.71,9.57,1.07,2.9,2.12,2.6,3.18-1.54-1.63-5.26-3c0,0-1.6,0-5-.17S572.25,597.64,572.25,597.64Z"/><path class="cls-9" d="M587.65,588.25a12.2,12.2,0,0,1,5.5,7.09l4.09-1.4s-1.66-6.66-5.06-8.07Z"/><polygon class="cls-9" points="549.99 595.34 573.15 595.34 580.81 589.38 560.14 588.72 549.99 595.34"/><path class="cls-9" d="M561.48,585.87l6.31-4.71s-11.77-.29-12.92-3.26l-13.87,8Z"/><path class="cls-9" d="M514.39,597.5s-2.2,2.51,1.44,2.32S535,598.67,535,598.67s3,.06,3.73-1.17c0,0-18,.56-21,0S514.39,597.5,514.39,597.5Z"/><path class="cls-9" d="M524.06,582.5s0,3.82-7.46,6.22c0,0-4.21,1.34-3.74,5.74,0,0,1.34,3.15,6.7,0A92.56,92.56,0,0,1,531,588.72a31,31,0,0,0,4.59-2.21c.77-.67,1.25-.67,1.25-2.58s-.29-4.88,1.53-6,3.73-4.69,2.68-6.89c0,0-.67-1.53-2.87-.57s-12.54,6.79-12.54,6.79a2.64,2.64,0,0,0-1.15,2A14.46,14.46,0,0,1,524.06,582.5Z"/><path class="cls-9" d="M554.4,561.55l-13.4,8c.62-14.27-13.94-13-13.94-13l10.4-6.44S549.08,551.42,554.4,561.55Z"/><path class="cls-9" d="M503.69,571.52s8.59-6.6,8.44-6.13,7.21,1.53,12.13,10.28l-5.38,3.07S519,571.37,503.69,571.52Z"/><polygon class="cls-9" points="512.83 563.7 522.57 556.94 490.07 556.18 481.43 563.7 512.83 563.7"/><polygon class="cls-9" points="454.42 554.03 491.26 554.79 502 545.74 466.39 545.74 454.42 554.03"/><polygon class="cls-9" points="433.7 571.06 440.45 565.36 474.99 565.36 466.39 571.06 433.7 571.06"/><path class="cls-9" d="M407,560.78l34.38,2.15,10-7.52s-20.41-.46-33-3.53Z"/><path class="cls-9" d="M391.91,543.58s16.84,6.32,26.21,6.46l9.54-6.46s-19.76-4.65-24.93-6.75Z"/><path class="cls-9" d="M331.17,538l19.89-3.12s-7.42-7.46-8.14-16.48l-18.13,1.39S327.43,534,331.17,538Z"/><path class="cls-9" d="M363.33,563l14.13-9s6.77,6,30.37,6.47l-11.63,8.27s-19.53-1.72-31.54-5.28"/><path class="cls-9" d="M372.31,529.52s3.81,9.37,16.48,14.75l-14.92,9.2s-18.05-6.25-21.87-18.92Z"/><path class="cls-5" d="M270.88,402.6a27.78,27.78,0,0,1-3.1-1,26.4,26.4,0,0,1-10-6.66c-5.22-5.62-6.67-12.17-5.69-19.77a111.61,111.61,0,0,1,3.51-17c1.58-5.18,2.38-11,.08-15.87-1-2.08-2.5-4-2.84-6.24-.43-2.78,1-5.54,2.93-7.62s4.25-3.7,6.22-5.71a21.54,21.54,0,0,0,5.91-12.43,12.17,12.17,0,0,0-1.1-7.25,6.59,6.59,0,0,0-6.07-3.56,7.74,7.74,0,0,1-2.78.18c-2.06-.56-2.2-3.41-1.79-5.5a63.23,63.23,0,0,1,68.93-50.76l.07,143.77a5.56,5.56,0,0,1-.56,3,5.4,5.4,0,0,1-1.71,1.51c-7.05,4.6-13.69,8.23-21.81,10.53a37,37,0,0,1-11.25,1.38c-4.12.05-9.4.3-11.28.13C277.79,403.68,271.78,402.82,270.88,402.6Z"/><g id="nariz"><path class="cls-2" d="M276.16,331.42s9.83,6.15,1.47,16.47"/><path class="cls-2" d="M267.56,342a4.54,4.54,0,0,1,6.14,2.21"/></g><path class="cls-5" d="M266.71,371.57h-9.86s-3.5.12-3.72-2.75"/><path id="labio_s" data-name="labio s" class="cls-10" d="M258.75,352.81a2.9,2.9,0,0,0-2.51.27,2.38,2.38,0,0,0-.8,2.52c.85,3.13,5.28,2.57,7.72,3.26,4.66,1.33,8.1,5.44,12.71,6.93a2.73,2.73,0,0,0,1.23.18,1.13,1.13,0,0,0,.94-.72,1.24,1.24,0,0,0-.12-.86,7.42,7.42,0,0,0-2.12-2.21,23.46,23.46,0,0,1-3.18-4.14,8.18,8.18,0,0,0-3.93-3.32c-2.11-.66-4.47.17-6.6-.46-1-.3-1.88-.9-2.85-1.29Z"/><path id="ceja" class="cls-2" d="M284.61,298.89s21.77-5.17,28.85,11.7"/></g><g id="Layer_12" data-name="Layer 12"><path class="cls-9" d="M364.86,514.25l7.45,15.27s4.36-3.3,13.27-3.91c0,0-2.14-3.16-4.86-13.77C380.72,511.84,370.72,513.4,364.86,514.25Z"/></g><g id="pipa"><path class="cls-11" d="M218.75,369s-5.23,5.06-7.57,2a7.25,7.25,0,0,1-1.26-6.29s1.44-7.2-13.31-9.36c0,0-12.24-1.62-13.85,4.5s-3.06,26.45,5.57,34.72,18.72,4.32,22.67-.72,13.51-16.42,14.22-16.6S218.75,369,218.75,369Z"/><path class="cls-2" d="M209,377.27s3.59,15.37-11.7,22.1"/><path class="cls-12" d="M220.75,369.33a.17.17,0,0,1,0-.06c12-9.35,28.09-13.64,42.9-10.23,4.1.94,8.32,2.63,10.7,6.1a57.37,57.37,0,0,0-28.91,1.1A61.72,61.72,0,0,0,232,372c-1,.59-2,1.21-3,1.86-.8.53-2.2,2-3.11,2.21-1.45.29-3.87-4.83-4.77-6.24C221.1,369.89,220.84,369.49,220.75,369.33Z"/><path class="cls-12" d="M221.58,373.29a19.31,19.31,0,0,0-1.8-2,4.22,4.22,0,0,1-1.4-2,2,2,0,0,1,1.56-2.3,2.63,2.63,0,0,1,1.75.34,6.46,6.46,0,0,1,1.4,1.15,24.94,24.94,0,0,1,3.81,5,4.18,4.18,0,0,1,.76,2.83,2.24,2.24,0,0,1-1.1,1.48c-1.87,1.05-2.82-.84-3.54-2.22A15.61,15.61,0,0,0,221.58,373.29Z"/></g><g id="Layer_6" data-name="Layer 6"><ellipse class="cls-6" cx="294.51" cy="317.85" rx="16.62" ry="18.56"/><ellipse class="cls-7" cx="293.55" cy="317.85" rx="14.47" ry="16.97"/><rect class="cls-6" x="235.77" y="315.52" width="3.03" height="4.68" rx="1.52" transform="translate(24.83 -17.11) rotate(4.36)"/><path class="cls-6" d="M270.53,316a15.44,15.44,0,0,0-1.67-.12,18,18,0,0,1-3-.14,2,2,0,0,1-1.68-1.68,1.58,1.58,0,0,1,.77-1.3,3.46,3.46,0,0,1,1.51-.46,16.71,16.71,0,0,1,3,0,24.87,24.87,0,0,1,6.17,1.13c2.75.89,2.37,2.45,1.88,2.95a2.88,2.88,0,0,1-1.81.52,7,7,0,0,1-1.64-.27A27.65,27.65,0,0,0,270.53,316Z"/><rect class="cls-6" x="311.65" y="314.52" width="13.76" height="3.86"/><rect class="cls-6" x="309.61" y="313.94" width="3.03" height="4.68" rx="1.52"/></g><g id="florero"><path id="base" class="cls-11" d="M666.25,607.81c-8.91-2.71-8.41-10.77-9.26-11.19H641.85c-.85.42-.35,8.48-9.26,11.19-5.06,1.54-15.52,8.44-6.43,14.46,8.21,5.43,38.31,5.43,46.52,0C681.77,616.25,671.31,609.35,666.25,607.81Z"/><path class="cls-13" d="M648.55,458.53a14.35,14.35,0,0,1-5.6-3.14c-2.22-2-3.54-4.44-3.16-7.45.85-6.89,7.46-13.13,11.12-18.67a50.69,50.69,0,0,0,6.17-12.17c1.75-5.41,1.2-11,2.78-16.4,1.16-4-.09-7.35-.14-11.35s.71-8.17.78-12.27c.13-8-1.35-15.95-1.48-23.95a67.13,67.13,0,0,1,7.82-33.65,192.16,192.16,0,0,0,10.78,40.33c2.42,6.31,4.87,12.71,5.54,19.44.39,3.89.17,7.82.59,11.7.35,3.26,1.14,6.46,1.43,9.73a53.87,53.87,0,0,1-1.06,13.92,192.42,192.42,0,0,1-6.47,25.91A19.5,19.5,0,0,1,675,446.3c-2.07,2.78-5.79,4.09-8.12,6.76-2.67,3.07-2.89,5.54-7.36,5.92C655.57,459.32,651.93,459.53,648.55,458.53Z"/><path class="cls-11" d="M650.37,477.32c-20.76-.34-42.83,21.6-38.73,57.91,6.73,59.62,36.82,56.86,36.82,56.86,20.76.35,36.54-35,37.62-55.94C688,499.65,671.13,477.67,650.37,477.32Z"/><path class="cls-11" d="M659,592.14a1.65,1.65,0,0,0-1.65-1.65H641.47a1.65,1.65,0,0,0,0,3.29h.2a1.66,1.66,0,0,0-.81,1.42,1.63,1.63,0,0,0,1.64,1.64h13.83a1.64,1.64,0,0,0,.84-3.06h.19A1.64,1.64,0,0,0,659,592.14Z"/><path class="cls-14" d="M656.41,352.23a8.35,8.35,0,0,0-4.32-2.8c-2.74-.74-5.65-.34-8.47.07.36-.05.1-6.43.07-7.06a65.2,65.2,0,0,0-.73-7.25c-.33-2.11-2.32-6.07-8-12.43-1.81-2-2.45-3.17-4.72-4.68-.9-.59-1.64-.24-1.76.83a1.55,1.55,0,0,0,.24.85c2.87,5.55,8.63,9.49,10.34,15.5a25.63,25.63,0,0,1,.54,8.11l-.25,6.25a3.45,3.45,0,0,1-.22,1.28,3.56,3.56,0,0,1-1.21,1.23,23.77,23.77,0,0,0-7.84,26.13,20.58,20.58,0,0,0-3.91,27.31,22.79,22.79,0,0,0-6.66,9.58c-.88,2.44-1,5.81,1.33,7,1.66.83,3.76-.07,4.93-1.52a14.79,14.79,0,0,0,2.21-5.09,9.38,9.38,0,0,1,2.75-4.76A31.57,31.57,0,0,0,641,415.43c3.71.76,7.85.23,10.77-2.18s4.16-6.95,2.2-10.19c-1.6-2.65-4.82-3.87-7.89-4.27a22.9,22.9,0,0,0-14.77,3.15,16.22,16.22,0,0,1,1.79-18.46,13.31,13.31,0,0,0,12.2,5.08c3.76-.51,7.63-3.51,7.28-7.3-.26-2.92-2.91-5.09-5.66-6.11a15.63,15.63,0,0,0-11.34.23,18.53,18.53,0,0,1,5.14-20.07,9.61,9.61,0,0,0,12.16,6.41c2.7-1,5-3.63,4.74-6.5A5.55,5.55,0,0,0,656.41,352.23Z"/><g id="Layer_5" data-name="Layer 5"><path class="cls-15" d="M646.09,304.53a52.53,52.53,0,0,0,6.07-2.31,11.32,11.32,0,0,1,6.34-.86c2.12.46,4.09,2.17,4.24,4.33.13,1.92-1.13,3.75-.93,5.67.07.71.35,1.39.45,2.1a6.39,6.39,0,0,1-.83,3.9c-1.51,2.88-5,5.07-8,3.78-2.34-1-3.61-3.73-6-4.61a25,25,0,0,0-3.7-.6,6.94,6.94,0,0,1-5-4.29,5.55,5.55,0,0,1,.07-4.22,4,4,0,0,1,3.36-2.38Z"/><path class="cls-15" d="M646.09,304.53a52.53,52.53,0,0,0,6.07-2.31,11.32,11.32,0,0,1,6.34-.86c2.12.46,4.09,2.17,4.24,4.33.13,1.92-1.13,3.75-.93,5.67.07.71.35,1.39.45,2.1a6.39,6.39,0,0,1-.83,3.9c-1.51,2.88-5,5.07-8,3.78-2.34-1-3.61-3.73-6-4.61a25,25,0,0,0-3.7-.6,6.94,6.94,0,0,1-5-4.29,5.55,5.55,0,0,1,.07-4.22,4,4,0,0,1,3.36-2.38Z"/><path class="cls-15" d="M652.81,284.4c1.45-.73,3.4-1.31,4.55-.16.91.92.78,2.45,1.48,3.54.55.83,1.52,1.29,2.14,2.06a5.21,5.21,0,0,1,.7,4.1c-.86,5.27-5.61,10-11,9.75-2.21-.09-4.4-1-6.6-.64-1.47.21-3,.95-4.36.32A3.59,3.59,0,0,1,638,301C635.92,293.72,647.56,287.05,652.81,284.4Z"/><path class="cls-15" d="M652.81,284.4c1.45-.73,3.4-1.31,4.55-.16.91.92.78,2.45,1.48,3.54.55.83,1.52,1.29,2.14,2.06a5.21,5.21,0,0,1,.7,4.1c-.86,5.27-5.61,10-11,9.75-2.21-.09-4.4-1-6.6-.64-1.47.21-3,.95-4.36.32A3.59,3.59,0,0,1,638,301C635.92,293.72,647.56,287.05,652.81,284.4Z"/><path class="cls-15" d="M651.53,299a9.38,9.38,0,0,0,3-1.92,3.61,3.61,0,0,0,1.05-3.28c-.26-1.05-1.13-1.87-1.43-2.91a11.54,11.54,0,0,1-.12-2.82,2.37,2.37,0,0,0-1.33-2.3,3,3,0,0,0-2,.33c-2.73,1.15-5.59,2.41-7.28,4.84-.72,1.05-1.26,2.34-2.39,2.93a5.39,5.39,0,0,0-1.39.72c-.72.71-.44,1.91-.1,2.87.57,1.63,1.11,3.28,1.74,4.89C644.74,301.29,648.22,300.52,651.53,299Z"/><path class="cls-15" d="M651.53,299a9.38,9.38,0,0,0,3-1.92,3.61,3.61,0,0,0,1.05-3.28c-.26-1.05-1.13-1.87-1.43-2.91a11.54,11.54,0,0,1-.12-2.82,2.37,2.37,0,0,0-1.33-2.3,3,3,0,0,0-2,.33c-2.73,1.15-5.59,2.41-7.28,4.84-.72,1.05-1.26,2.34-2.39,2.93a5.39,5.39,0,0,0-1.39.72c-.72.71-.44,1.91-.1,2.87.57,1.63,1.11,3.28,1.74,4.89C644.74,301.29,648.22,300.52,651.53,299Z"/><path class="cls-15" d="M604.4,307.25a6.16,6.16,0,0,1,0-6.25c.92-1.51,2.52-2.65,2.92-4.37.31-1.27-.11-2.6-.06-3.9a10,10,0,0,1,1.56-4.34c.79-1.42,1.85-3,3.46-3.14a5.28,5.28,0,0,1,3.51,1.43L625.87,294q-1.73,6-3,12.07c-.21,1-4.14,2.6-5,3-1.61.75-3.63,1.8-5.45,1.72C609.61,310.72,605.9,309.75,604.4,307.25Z"/><path class="cls-15" d="M604.4,307.25a6.16,6.16,0,0,1,0-6.25c.92-1.51,2.52-2.65,2.92-4.37.31-1.27-.11-2.6-.06-3.9a10,10,0,0,1,1.56-4.34c.79-1.42,1.85-3,3.46-3.14a5.28,5.28,0,0,1,3.51,1.43L625.87,294q-1.73,6-3,12.07c-.21,1-4.14,2.6-5,3-1.61.75-3.63,1.8-5.45,1.72C609.61,310.72,605.9,309.75,604.4,307.25Z"/><path class="cls-15" d="M624.52,287a6.59,6.59,0,0,1-.93-5.2,19.67,19.67,0,0,1,2-5,15,15,0,0,1,2.3-3.59,13.26,13.26,0,0,1,5.36-3.06,4.23,4.23,0,0,1,1.88-.36,3.32,3.32,0,0,1,2.24,1.49c1.43,2,1.56,4.6,1.31,7s-.81,4.85-.55,7.27a11.47,11.47,0,0,1,.18,3.82A4.93,4.93,0,0,1,634,292.7C629.54,293.23,627,290.24,624.52,287Z"/><path class="cls-15" d="M624.52,287a6.59,6.59,0,0,1-.93-5.2,19.67,19.67,0,0,1,2-5,15,15,0,0,1,2.3-3.59,13.26,13.26,0,0,1,5.36-3.06,4.23,4.23,0,0,1,1.88-.36,3.32,3.32,0,0,1,2.24,1.49c1.43,2,1.56,4.6,1.31,7s-.81,4.85-.55,7.27a11.47,11.47,0,0,1,.18,3.82A4.93,4.93,0,0,1,634,292.7C629.54,293.23,627,290.24,624.52,287Z"/><path class="cls-15" d="M610.57,297.63a8.1,8.1,0,0,0,5.64,4.07,12.61,12.61,0,0,0,3.68,0,3.62,3.62,0,0,0,2.13-.8,5.33,5.33,0,0,0,1-2.68,14.29,14.29,0,0,1,2.11-4.2,16.43,16.43,0,0,1-5.62-2.54c-2.38-1.68-5.19-3.46-8.15-1.7C608.86,291.27,609.38,295.42,610.57,297.63Z"/><path class="cls-15" d="M610.57,297.63a8.1,8.1,0,0,0,5.64,4.07,12.61,12.61,0,0,0,3.68,0,3.62,3.62,0,0,0,2.13-.8,5.33,5.33,0,0,0,1-2.68,14.29,14.29,0,0,1,2.11-4.2,16.43,16.43,0,0,1-5.62-2.54c-2.38-1.68-5.19-3.46-8.15-1.7C608.86,291.27,609.38,295.42,610.57,297.63Z"/><path class="cls-15" d="M640.84,272.84c.8-1.07,2.06-2.21,3.3-1.71s1.34,2,1.8,3.12a5.16,5.16,0,0,0,2.73,2.78,2.84,2.84,0,0,1,1.08.59,2.34,2.34,0,0,1,.42,1l1,4.36a4.07,4.07,0,0,1,0,2.69c-.58,1.16-2,1.47-3.32,1.74a27.86,27.86,0,0,0-6.07,2.06c-.9.42-2.1.85-2.77.11a2.19,2.19,0,0,1-.45-1.11c-.51-2.5-2-6.26-1.61-8.76C637.28,277.45,639.51,274.64,640.84,272.84Z"/><path class="cls-15" d="M640.84,272.84c.8-1.07,2.06-2.21,3.3-1.71s1.34,2,1.8,3.12a5.16,5.16,0,0,0,2.73,2.78,2.84,2.84,0,0,1,1.08.59,2.34,2.34,0,0,1,.42,1l1,4.36a4.07,4.07,0,0,1,0,2.69c-.58,1.16-2,1.47-3.32,1.74a27.86,27.86,0,0,0-6.07,2.06c-.9.42-2.1.85-2.77.11a2.19,2.19,0,0,1-.45-1.11c-.51-2.5-2-6.26-1.61-8.76C637.28,277.45,639.51,274.64,640.84,272.84Z"/><path class="cls-15" d="M646.09,304.53a52.53,52.53,0,0,0,6.07-2.31,11.32,11.32,0,0,1,6.34-.86c2.12.46,4.09,2.17,4.24,4.33.13,1.92-1.13,3.75-.93,5.67.07.71.35,1.39.45,2.1a6.39,6.39,0,0,1-.83,3.9c-1.51,2.88-5,5.07-8,3.78-2.34-1-3.61-3.73-6-4.61a25,25,0,0,0-3.7-.6,6.94,6.94,0,0,1-5-4.29,5.55,5.55,0,0,1,.07-4.22,4,4,0,0,1,3.36-2.38Z"/><path class="cls-2" d="M646.09,304.53a52.53,52.53,0,0,0,6.07-2.31,11.32,11.32,0,0,1,6.34-.86c2.12.46,4.09,2.17,4.24,4.33.13,1.92-1.13,3.75-.93,5.67.07.71.35,1.39.45,2.1a6.39,6.39,0,0,1-.83,3.9c-1.51,2.88-5,5.07-8,3.78-2.34-1-3.61-3.73-6-4.61a25,25,0,0,0-3.7-.6,6.94,6.94,0,0,1-5-4.29,5.55,5.55,0,0,1,.07-4.22,4,4,0,0,1,3.36-2.38Z"/><path class="cls-15" d="M652.81,284.4c1.45-.73,3.4-1.31,4.55-.16.91.92.78,2.45,1.48,3.54.55.83,1.52,1.29,2.14,2.06a5.21,5.21,0,0,1,.7,4.1c-.86,5.27-5.61,10-11,9.75-2.21-.09-4.4-1-6.6-.64-1.47.21-3,.95-4.36.32A3.59,3.59,0,0,1,638,301C635.92,293.72,647.56,287.05,652.81,284.4Z"/><path class="cls-2" d="M652.81,284.4c1.45-.73,3.4-1.31,4.55-.16.91.92.78,2.45,1.48,3.54.55.83,1.52,1.29,2.14,2.06a5.21,5.21,0,0,1,.7,4.1c-.86,5.27-5.61,10-11,9.75-2.21-.09-4.4-1-6.6-.64-1.47.21-3,.95-4.36.32A3.59,3.59,0,0,1,638,301C635.92,293.72,647.56,287.05,652.81,284.4Z"/><path class="cls-15" d="M651.53,299a9.38,9.38,0,0,0,3-1.92,3.61,3.61,0,0,0,1.05-3.28c-.26-1.05-1.13-1.87-1.43-2.91a11.54,11.54,0,0,1-.12-2.82,2.37,2.37,0,0,0-1.33-2.3,3,3,0,0,0-2,.33c-2.73,1.15-5.59,2.41-7.28,4.84-.72,1.05-1.26,2.34-2.39,2.93a5.39,5.39,0,0,0-1.39.72c-.72.71-.44,1.91-.1,2.87.57,1.63,1.11,3.28,1.74,4.89C644.74,301.29,648.22,300.52,651.53,299Z"/><path class="cls-2" d="M651.53,299a9.38,9.38,0,0,0,3-1.92,3.61,3.61,0,0,0,1.05-3.28c-.26-1.05-1.13-1.87-1.43-2.91a11.54,11.54,0,0,1-.12-2.82,2.37,2.37,0,0,0-1.33-2.3,3,3,0,0,0-2,.33c-2.73,1.15-5.59,2.41-7.28,4.84-.72,1.05-1.26,2.34-2.39,2.93a5.39,5.39,0,0,0-1.39.72c-.72.71-.44,1.91-.1,2.87.57,1.63,1.11,3.28,1.74,4.89C644.74,301.29,648.22,300.52,651.53,299Z"/><path class="cls-15" d="M604.4,307.25a6.16,6.16,0,0,1,0-6.25c.92-1.51,2.52-2.65,2.92-4.37.31-1.27-.11-2.6-.06-3.9a10,10,0,0,1,1.56-4.34c.79-1.42,1.85-3,3.46-3.14a5.28,5.28,0,0,1,3.51,1.43L625.87,294q-1.73,6-3,12.07c-.21,1-4.14,2.6-5,3-1.61.75-3.63,1.8-5.45,1.72C609.61,310.72,605.9,309.75,604.4,307.25Z"/><path class="cls-2" d="M604.4,307.25a6.16,6.16,0,0,1,0-6.25c.92-1.51,2.52-2.65,2.92-4.37.31-1.27-.11-2.6-.06-3.9a10,10,0,0,1,1.56-4.34c.79-1.42,1.85-3,3.46-3.14a5.28,5.28,0,0,1,3.51,1.43L625.87,294q-1.73,6-3,12.07c-.21,1-4.14,2.6-5,3-1.61.75-3.63,1.8-5.45,1.72C609.61,310.72,605.9,309.75,604.4,307.25Z"/><path class="cls-15" d="M624.52,287a6.59,6.59,0,0,1-.93-5.2,19.67,19.67,0,0,1,2-5,15,15,0,0,1,2.3-3.59,13.26,13.26,0,0,1,5.36-3.06,4.23,4.23,0,0,1,1.88-.36,3.32,3.32,0,0,1,2.24,1.49c1.43,2,1.56,4.6,1.31,7s-.81,4.85-.55,7.27a11.47,11.47,0,0,1,.18,3.82A4.93,4.93,0,0,1,634,292.7C629.54,293.23,627,290.24,624.52,287Z"/><path class="cls-2" d="M624.52,287a6.59,6.59,0,0,1-.93-5.2,19.67,19.67,0,0,1,2-5,15,15,0,0,1,2.3-3.59,13.26,13.26,0,0,1,5.36-3.06,4.23,4.23,0,0,1,1.88-.36,3.32,3.32,0,0,1,2.24,1.49c1.43,2,1.56,4.6,1.31,7s-.81,4.85-.55,7.27a11.47,11.47,0,0,1,.18,3.82A4.93,4.93,0,0,1,634,292.7C629.54,293.23,627,290.24,624.52,287Z"/><path class="cls-15" d="M610.57,297.63a8.1,8.1,0,0,0,5.64,4.07,12.61,12.61,0,0,0,3.68,0,3.62,3.62,0,0,0,2.13-.8,5.33,5.33,0,0,0,1-2.68,14.29,14.29,0,0,1,2.11-4.2,16.43,16.43,0,0,1-5.62-2.54c-2.38-1.68-5.19-3.46-8.15-1.7C608.86,291.27,609.38,295.42,610.57,297.63Z"/><path class="cls-2" d="M610.57,297.63a8.1,8.1,0,0,0,5.64,4.07,12.61,12.61,0,0,0,3.68,0,3.62,3.62,0,0,0,2.13-.8,5.33,5.33,0,0,0,1-2.68,14.29,14.29,0,0,1,2.11-4.2,16.43,16.43,0,0,1-5.62-2.54c-2.38-1.68-5.19-3.46-8.15-1.7C608.86,291.27,609.38,295.42,610.57,297.63Z"/><path class="cls-15" d="M640.84,272.84c.8-1.07,2.06-2.21,3.3-1.71s1.34,2,1.8,3.12a5.16,5.16,0,0,0,2.73,2.78,2.84,2.84,0,0,1,1.08.59,2.34,2.34,0,0,1,.42,1l1,4.36a4.07,4.07,0,0,1,0,2.69c-.58,1.16-2,1.47-3.32,1.74a27.86,27.86,0,0,0-6.07,2.06c-.9.42-2.1.85-2.77.11a2.19,2.19,0,0,1-.45-1.11c-.51-2.5-2-6.26-1.61-8.76C637.28,277.45,639.51,274.64,640.84,272.84Z"/><path class="cls-2" d="M640.84,272.84c.8-1.07,2.06-2.21,3.3-1.71s1.34,2,1.8,3.12a5.16,5.16,0,0,0,2.73,2.78,2.84,2.84,0,0,1,1.08.59,2.34,2.34,0,0,1,.42,1l1,4.36a4.07,4.07,0,0,1,0,2.69c-.58,1.16-2,1.47-3.32,1.74a27.86,27.86,0,0,0-6.07,2.06c-.9.42-2.1.85-2.77.11a2.19,2.19,0,0,1-.45-1.11c-.51-2.5-2-6.26-1.61-8.76C637.28,277.45,639.51,274.64,640.84,272.84Z"/><path class="cls-2" d="M646.09,304.53a52.53,52.53,0,0,0,6.07-2.31,11.32,11.32,0,0,1,6.34-.86c2.12.46,4.09,2.17,4.24,4.33.13,1.92-1.13,3.75-.93,5.67.07.71.35,1.39.45,2.1a6.39,6.39,0,0,1-.83,3.9c-1.51,2.88-5,5.07-8,3.78-2.34-1-3.61-3.73-6-4.61a25,25,0,0,0-3.7-.6,6.94,6.94,0,0,1-5-4.29,5.55,5.55,0,0,1,.07-4.22,4,4,0,0,1,3.36-2.38Z"/><path class="cls-2" d="M646.09,304.53a52.53,52.53,0,0,0,6.07-2.31,11.32,11.32,0,0,1,6.34-.86c2.12.46,4.09,2.17,4.24,4.33.13,1.92-1.13,3.75-.93,5.67.07.71.35,1.39.45,2.1a6.39,6.39,0,0,1-.83,3.9c-1.51,2.88-5,5.07-8,3.78-2.34-1-3.61-3.73-6-4.61a25,25,0,0,0-3.7-.6,6.94,6.94,0,0,1-5-4.29,5.55,5.55,0,0,1,.07-4.22,4,4,0,0,1,3.36-2.38Z"/><path class="cls-2" d="M652.81,284.4c1.45-.73,3.4-1.31,4.55-.16.91.92.78,2.45,1.48,3.54.55.83,1.52,1.29,2.14,2.06a5.21,5.21,0,0,1,.7,4.1c-.86,5.27-5.61,10-11,9.75-2.21-.09-4.4-1-6.6-.64-1.47.21-3,.95-4.36.32A3.59,3.59,0,0,1,638,301C635.92,293.72,647.56,287.05,652.81,284.4Z"/><path class="cls-2" d="M652.81,284.4c1.45-.73,3.4-1.31,4.55-.16.91.92.78,2.45,1.48,3.54.55.83,1.52,1.29,2.14,2.06a5.21,5.21,0,0,1,.7,4.1c-.86,5.27-5.61,10-11,9.75-2.21-.09-4.4-1-6.6-.64-1.47.21-3,.95-4.36.32A3.59,3.59,0,0,1,638,301C635.92,293.72,647.56,287.05,652.81,284.4Z"/><path class="cls-2" d="M651.53,299a9.38,9.38,0,0,0,3-1.92,3.61,3.61,0,0,0,1.05-3.28c-.26-1.05-1.13-1.87-1.43-2.91a11.54,11.54,0,0,1-.12-2.82,2.37,2.37,0,0,0-1.33-2.3,3,3,0,0,0-2,.33c-2.73,1.15-5.59,2.41-7.28,4.84-.72,1.05-1.26,2.34-2.39,2.93a5.39,5.39,0,0,0-1.39.72c-.72.71-.44,1.91-.1,2.87.57,1.63,1.11,3.28,1.74,4.89C644.74,301.29,648.22,300.52,651.53,299Z"/><path class="cls-2" d="M651.53,299a9.38,9.38,0,0,0,3-1.92,3.61,3.61,0,0,0,1.05-3.28c-.26-1.05-1.13-1.87-1.43-2.91a11.54,11.54,0,0,1-.12-2.82,2.37,2.37,0,0,0-1.33-2.3,3,3,0,0,0-2,.33c-2.73,1.15-5.59,2.41-7.28,4.84-.72,1.05-1.26,2.34-2.39,2.93a5.39,5.39,0,0,0-1.39.72c-.72.71-.44,1.91-.1,2.87.57,1.63,1.11,3.28,1.74,4.89C644.74,301.29,648.22,300.52,651.53,299Z"/><path class="cls-2" d="M604.4,307.25a6.16,6.16,0,0,1,0-6.25c.92-1.51,2.52-2.65,2.92-4.37.31-1.27-.11-2.6-.06-3.9a10,10,0,0,1,1.56-4.34c.79-1.42,1.85-3,3.46-3.14a5.28,5.28,0,0,1,3.51,1.43L625.87,294q-1.73,6-3,12.07c-.21,1-4.14,2.6-5,3-1.61.75-3.63,1.8-5.45,1.72C609.61,310.72,605.9,309.75,604.4,307.25Z"/><path class="cls-2" d="M604.4,307.25a6.16,6.16,0,0,1,0-6.25c.92-1.51,2.52-2.65,2.92-4.37.31-1.27-.11-2.6-.06-3.9a10,10,0,0,1,1.56-4.34c.79-1.42,1.85-3,3.46-3.14a5.28,5.28,0,0,1,3.51,1.43L625.87,294q-1.73,6-3,12.07c-.21,1-4.14,2.6-5,3-1.61.75-3.63,1.8-5.45,1.72C609.61,310.72,605.9,309.75,604.4,307.25Z"/><path class="cls-2" d="M624.52,287a6.59,6.59,0,0,1-.93-5.2,19.67,19.67,0,0,1,2-5,15,15,0,0,1,2.3-3.59,13.26,13.26,0,0,1,5.36-3.06,4.23,4.23,0,0,1,1.88-.36,3.32,3.32,0,0,1,2.24,1.49c1.43,2,1.56,4.6,1.31,7s-.81,4.85-.55,7.27a11.47,11.47,0,0,1,.18,3.82A4.93,4.93,0,0,1,634,292.7C629.54,293.23,627,290.24,624.52,287Z"/><path class="cls-2" d="M624.52,287a6.59,6.59,0,0,1-.93-5.2,19.67,19.67,0,0,1,2-5,15,15,0,0,1,2.3-3.59,13.26,13.26,0,0,1,5.36-3.06,4.23,4.23,0,0,1,1.88-.36,3.32,3.32,0,0,1,2.24,1.49c1.43,2,1.56,4.6,1.31,7s-.81,4.85-.55,7.27a11.47,11.47,0,0,1,.18,3.82A4.93,4.93,0,0,1,634,292.7C629.54,293.23,627,290.24,624.52,287Z"/><path class="cls-2" d="M610.57,297.63a8.1,8.1,0,0,0,5.64,4.07,12.61,12.61,0,0,0,3.68,0,3.62,3.62,0,0,0,2.13-.8,5.33,5.33,0,0,0,1-2.68,14.29,14.29,0,0,1,2.11-4.2,16.43,16.43,0,0,1-5.62-2.54c-2.38-1.68-5.19-3.46-8.15-1.7C608.86,291.27,609.38,295.42,610.57,297.63Z"/><path class="cls-2" d="M610.57,297.63a8.1,8.1,0,0,0,5.64,4.07,12.61,12.61,0,0,0,3.68,0,3.62,3.62,0,0,0,2.13-.8,5.33,5.33,0,0,0,1-2.68,14.29,14.29,0,0,1,2.11-4.2,16.43,16.43,0,0,1-5.62-2.54c-2.38-1.68-5.19-3.46-8.15-1.7C608.86,291.27,609.38,295.42,610.57,297.63Z"/><path class="cls-2" d="M640.84,272.84c.8-1.07,2.06-2.21,3.3-1.71s1.34,2,1.8,3.12a5.16,5.16,0,0,0,2.73,2.78,2.84,2.84,0,0,1,1.08.59,2.34,2.34,0,0,1,.42,1l1,4.36a4.07,4.07,0,0,1,0,2.69c-.58,1.16-2,1.47-3.32,1.74a27.86,27.86,0,0,0-6.07,2.06c-.9.42-2.1.85-2.77.11a2.19,2.19,0,0,1-.45-1.11c-.51-2.5-2-6.26-1.61-8.76C637.28,277.45,639.51,274.64,640.84,272.84Z"/><path class="cls-2" d="M640.84,272.84c.8-1.07,2.06-2.21,3.3-1.71s1.34,2,1.8,3.12a5.16,5.16,0,0,0,2.73,2.78,2.84,2.84,0,0,1,1.08.59,2.34,2.34,0,0,1,.42,1l1,4.36a4.07,4.07,0,0,1,0,2.69c-.58,1.16-2,1.47-3.32,1.74a27.86,27.86,0,0,0-6.07,2.06c-.9.42-2.1.85-2.77.11a2.19,2.19,0,0,1-.45-1.11c-.51-2.5-2-6.26-1.61-8.76C637.28,277.45,639.51,274.64,640.84,272.84Z"/></g><path class="cls-7" d="M610.11,314.55a5,5,0,0,0,3,7.15c4.61,1.81,10,.05,13.83-3.08,2.57-2.09,4.79-5.18,4.35-8.47a56.76,56.76,0,0,1-6.43-2.89c-1.68-1.18-2.44-1.54-4.46-.95C616.15,307.56,611.74,310.25,610.11,314.55Z"/><path class="cls-7" d="M645.71,305a16.27,16.27,0,0,1,8.27,3.88,5.15,5.15,0,0,1,1.94,3c.17,1.5-.79,2.89-1.12,4.37-.39,1.78.1,3.82-.89,5.35s-2.77,1.87-3.86,3.12a13.66,13.66,0,0,0-1.55,2.9,8.48,8.48,0,0,1-4.71,4.06,4.39,4.39,0,0,1-3.32,0c-1.69-.82-2.18-2.94-2.62-4.76a70.88,70.88,0,0,0-3-8.71,27.42,27.42,0,0,0-1.56-3.5,6.48,6.48,0,0,1-.93-2c-.22-1.28.54-2.5,1.26-3.59,1.06-1.6,3-6.29,5.32-6.13.81,0,1.61,1,2.35,1.32A20,20,0,0,0,645.71,305Z"/><path class="cls-7" d="M628.57,278.67a11.73,11.73,0,0,0-1.25-3.67c-1.3-2.13-4.45-3.19-6.41-1.64a18.43,18.43,0,0,0-2.11,2.6c-.76.88-1.76,1.52-2.52,2.4-2.17,2.54-1.66,6.57.25,9.31,2.47,3.53,9,9.12,12.93,5.07C632.61,289.46,629.39,282.37,628.57,278.67Z"/><path class="cls-7" d="M631.39,307.29a2.72,2.72,0,0,0-.74.81,3.06,3.06,0,0,0,0,2.21q.72,2.82,1.59,5.6a18.15,18.15,0,0,0,3.1,6.44,6.92,6.92,0,0,0,6.32,2.64,7.18,7.18,0,0,0,2.59-1.15,8,8,0,0,0,3.43-4.69,5.26,5.26,0,0,0-1.8-5.33c-.86-.63-1.93-.92-2.84-1.47-2.11-1.28-3.08-3.62-4.62-5.44C636,304,634.13,305,631.39,307.29Z"/><path class="cls-7" d="M621.29,330.53c1.26-.5,2.38-1.34,3.68-1.75,1.9-.6,3.95-.24,5.95-.15a3.57,3.57,0,0,0,1.42-.15c1.46-.56,1.69-2.5,1.66-4.06q-.11-4.92-.48-9.81a5.11,5.11,0,0,0-.85-2.93c-1.22-1.47-3.52-1.14-5.37-.67a7.66,7.66,0,0,0-4.13,2c-1.42,1.64-2.15,3.95-3.45,5.73a19.44,19.44,0,0,0-2.61,3.78C615.75,325.89,616.06,332.63,621.29,330.53Z"/><path class="cls-7" d="M630.34,282a12.59,12.59,0,0,1,1.16-2.73,46,46,0,0,1,4-6.28c.9,1.31,2.4,2.06,3.59,3.12a10.9,10.9,0,0,1,3.24,8.76,22.63,22.63,0,0,1-2.9,9.14l-4.62-1c-2.67-.57-3.27-1.37-3.69-3.8S629.68,284.59,630.34,282Z"/><path class="cls-6" d="M635.44,406.37a15.91,15.91,0,0,0,8.19,3.16,5.93,5.93,0,0,0,4.11-1,2.15,2.15,0,0,0,.79-1.51,2.83,2.83,0,0,0-1.62-2.53,6.81,6.81,0,0,0-3.41-.55A17.22,17.22,0,0,0,635.44,406.37Z"/><path class="cls-6" d="M638,380a10.25,10.25,0,0,0,1.55,1.54,7.23,7.23,0,0,0,6.94,1.35,1.71,1.71,0,0,0,.93-.67.86.86,0,0,0,.06-.74,3,3,0,0,0-1.58-1.54A10,10,0,0,0,638,380Z"/><path class="cls-6" d="M644.08,353.06c.58,2.7,2.16,5.35,4.68,5.74a3.9,3.9,0,0,0,3.87-1.73,3.47,3.47,0,0,0-.42-4.09c-1.4-1.44-3.77-1.21-5.06-.94A14.19,14.19,0,0,0,644.08,353.06Z"/><path class="cls-14" d="M631.52,427c4.52-.07,9.05-.89,13.54-.32,6.9.88,11.28,5.92,13.36,12.34a7.52,7.52,0,0,1-4.12,9.82,24.54,24.54,0,0,1-5.75,1.83,2.2,2.2,0,0,1-1.62,0,2.15,2.15,0,0,1-.74-1c-.59-1.21-1.14-2.44-1.63-3.69,2.36-.82,4.93-2.2,5.41-4.64.45-2.26-1.25-4.52-3.37-5.41a11.9,11.9,0,0,0-6.8-.26,2.24,2.24,0,0,1-1.23,0,2.16,2.16,0,0,1-.84-.75Z"/><path class="cls-11" d="M635.24,459.24s2.79,3.68,3.19,19.62c.13,1.46,20.72,1.9,22.76,0,0,0,.15-17.63,2-19.62Z"/><path class="cls-11" d="M649.24,452.62c-10.25,0-18.56,1.78-18.56,4s8.31,4,18.56,4,18.56-1.78,18.56-4S659.49,452.62,649.24,452.62Zm0,6.28c-9.62,0-17.42-1.26-17.42-2.81s7.8-2.82,17.42-2.82,17.42,1.26,17.42,2.82S658.86,458.9,649.24,458.9Z"/><path class="cls-14" d="M607.85,407.36a68.2,68.2,0,0,1,1.52,9.13,77.21,77.21,0,0,0,6.76,22.44c2.68,5.62,6.16,11,11.16,14.76s11.73,5.5,17.61,3.46c3-1,5.79-3.37,6-6.49.12-2.27-1.21-4.36-2.69-6.08S645,441.26,644,439.2c-.42-.93-.68-1.92-1.18-2.81-1-1.82-2.92-2.94-4.4-4.41-3-3-4.47-7.51-8-9.86-2.9-1.92-6.75-2.06-9.47-4.21-1.91-1.51-3-3.8-4.18-5.93a49.71,49.71,0,0,0-6.53-9.12c-.8-.89-6-5.45-6.37-3-.13.87,1.88,2.69,2.31,3.43A17.76,17.76,0,0,1,607.85,407.36Z"/><g id="plantas"><path class="cls-14" d="M651.07,449.7a3.29,3.29,0,0,0,1.16-.37,2.9,2.9,0,0,0,.79-1.07,10.17,10.17,0,0,1,8-5.06,6,6,0,0,1,4.86-6.65c.73-3.58,1.75-7.4,4.58-9.72.89-.74,1.93-1.29,2.83-2a8.58,8.58,0,0,0,2.93-4.86c-.32,6.45.41,12.95-.3,19.37a16.26,16.26,0,0,1-1.21,5c-2.13,4.64-7.47,7.06-10,11.52a7,7,0,0,1-1.47,2.16,5.14,5.14,0,0,1-2.88.84q-3.84.33-7.7.41c-2.44.06-6.25-.15-6.59-3.08S648.36,450.28,651.07,449.7Z"/></g><path class="cls-2" d="M604.31,400c9.33,8.1,13.15,24.22,17,32.73a101.77,101.77,0,0,0,4.84,9.76c3.17,5.39,9.29,11.69,14.19,15.56"/><path class="cls-2" d="M654.39,457.26c2.46-3.68,6.76-5.65,9.93-8.74,4.08-4,6.1-9.6,7.19-15.18a21,21,0,0,1,1.43-5.27c.53-1.08,2.33-4.85,3.24-5.64"/><path class="cls-2" d="M667.34,322.43c-5.54,32.91,8.71,45.77,7.52,68.8-.73,14.15-8.28,33.91-12.51,47.44"/><path class="cls-3" d="M624.13,296.46c1.63-2.85,4.64-5.06,7.93-5.06a2.82,2.82,0,0,1,1,.14,5.94,5.94,0,0,1,1.13.74,4.57,4.57,0,0,0,2.88.81,4.09,4.09,0,0,1,1.6,0c.81.28,1.16,1.21,1.42,2,.86,2.73,1.69,5.83.29,8.33a10.93,10.93,0,0,1-2.29,2.56,18,18,0,0,1-5.72,3.91c-3,1.09-8.32.19-10-3C620.94,304.29,622.73,298.91,624.13,296.46Z"/><ellipse class="cls-11" cx="631.63" cy="300.72" rx="5.76" ry="3.83" transform="translate(-54.76 165.62) rotate(-14.32)"/><circle class="cls-16" cx="631.63" cy="300.72" r="1.88"/></g><g id="Layer_11" data-name="Layer 11"><path class="cls-17" d="M625.58,570.51c.32.18,12.53.55,17,.55,2.53,0,30.28.09,30.28,0,.26-13.62.52-27.25,0-40.87-.27-7.11-.76-14.3-3-21.07S663.62,496,657.5,492.36s-11.82-2.81-17.78,1.07c-18.48,12.05-14.18,48.53-14.25,67.11,0,2.33-.08,4.65-.16,7C625.23,569.61,625,570.18,625.58,570.51Z"/><path class="cls-16" d="M629.57,570.51c.29.18,11.48.55,15.62.55,2.32,0,27.74.09,27.75,0,.23-13.62.47-27.25,0-40.87-.24-7.11-.69-14.3-2.72-21.07s-5.8-13.14-11.41-16.77-10.83-2.81-16.29,1.07c-16.93,12.05-13,48.53-13.06,67.11,0,2.33-.07,4.65-.15,7C629.25,569.61,629.06,570.18,629.57,570.51Z"/><rect class="cls-7" x="664.5" y="521.24" width="8.34" height="8.08" transform="translate(1337.34 1050.56) rotate(180)"/><rect class="cls-7" x="660.33" y="524.83" width="12.51" height="6.51" transform="translate(1333.17 1056.17) rotate(180)"/><rect class="cls-7" x="658.71" y="528.65" width="14.13" height="7.52" transform="translate(1331.55 1064.81) rotate(180)"/><rect class="cls-7" x="653.84" y="532.46" width="19" height="7.41" transform="translate(1326.69 1072.33) rotate(180)"/><rect class="cls-7" x="650.14" y="537.41" width="22.7" height="15.72" transform="translate(1322.98 1090.54) rotate(180)"/><rect class="cls-7" x="644.58" y="545.25" width="28.26" height="9.87" transform="translate(1317.42 1100.38) rotate(180)"/><rect class="cls-7" x="638.32" y="553.13" width="34.52" height="9.85" transform="translate(1311.16 1116.11) rotate(180)"/><rect class="cls-7" x="630.68" y="561.41" width="42.16" height="8.98" transform="translate(1303.52 1131.8) rotate(180)"/></g><circle class="cls-11" cx="544.84" cy="287.28" r="5.41"/><circle class="cls-11" cx="515.27" cy="270.02" r="6.94"/><circle class="cls-11" cx="478.58" cy="252.18" r="11.48"/><circle class="cls-11" cx="191.63" cy="430.46" r="11.48"/><circle class="cls-11" cx="431.37" cy="239.43" r="15.45"/><circle class="cls-11" cx="219.75" cy="480.6" r="15.45"/><circle class="cls-11" cx="406.99" cy="493.6" r="20.65"/><circle class="cls-11" cx="281" cy="514.25" r="20.65"/><circle class="cls-11" cx="478.58" cy="306.98" r="18.04"/><circle class="cls-11" cx="463.43" cy="456.09" r="25.68"/><circle class="cls-11" cx="491.04" cy="384.26" r="25.68"/></g></g></svg>